M48
INCH,TZ
T1C0.0157
T2C0.0394
T3C0.0472
%
G90
G05
T1
X66574Y-47054
X67576Y-43093
X67609Y-45030
X68166Y-36110
X68303Y-45534
X68465Y-35489
X68594Y-46220
X68682Y-41508
X68727Y-33178
X69110Y-33555
X69499Y-40530
X69665Y-26560
X69839Y-39903
X69962Y-39037
X70038Y-33007
X70040Y-41194
X70143Y-41611
X70244Y-43921
X70300Y-30987
X70305Y-29839
X70462Y-44497
X70630Y-30365
X70766Y-41373
X71201Y-43875
X71236Y-41450
X71513Y-41171
X71579Y-44464
X71609Y-38078
X71666Y-40202
X71840Y-42055
X71860Y-29752
X71898Y-36699
X72438Y-41997
X72929Y-33425
X72998Y-45625
X73013Y-41000
X73133Y-35907
X73151Y-34914
X73153Y-31950
X73163Y-39500
X73176Y-27920
X73210Y-43933
X73365Y-30670
X73471Y-39770
X73520Y-31345
X73528Y-36401
X73544Y-45364
X73563Y-33635
X73617Y-29340
X73621Y-27404
X73626Y-30365
X73627Y-34283
X73696Y-26915
X75329Y-28969
X75378Y-45500
X75446Y-32387
X75492Y-44500
X75499Y-45000
X75503Y-38803
X75543Y-29891
X75548Y-35569
X75951Y-39222
X75951Y-41690
X76001Y-37055
X76018Y-31311
X76033Y-37804
X76051Y-28683
X76115Y-35865
X76541Y-45761
X77008Y-47882
X77387Y-33006
X77676Y-39851
X77758Y-36277
X77800Y-28531
X78160Y-28996
X78195Y-38114
X78233Y-30328
X78239Y-37420
X78426Y-28328
X78545Y-29617
X78573Y-34378
X78602Y-35621
X78610Y-40683
X78627Y-44045
X78827Y-37087
X78965Y-29485
X79104Y-40510
X79119Y-38098
X79177Y-30474
X79224Y-31018
X79265Y-27938
X79318Y-42033
X79581Y-41302
X79704Y-34452
X79866Y-41978
X80143Y-27680
X80203Y-41164
X80341Y-46075
X80405Y-45000
X80645Y-46956
X80885Y-44045
X80897Y-26206
X81028Y-29421
X81239Y-30796
X81264Y-42973
X81372Y-27143
X81477Y-37597
X81584Y-29964
X81667Y-28139
X81770Y-41803
X81854Y-33813
X82139Y-33445
X83282Y-44478
X83532Y-44044
X83868Y-45502
X83884Y-28547
X84262Y-37835
X88053Y-27612
T2
X82563Y-27047
X82563Y-28047
X82563Y-29047
X82563Y-30047
X82563Y-31047
X82563Y-32047
X82563Y-33047
X82563Y-34047
X82563Y-35047
X82563Y-36047
X82563Y-37047
X82563Y-38047
X82563Y-39047
X82563Y-40047
X82563Y-41047
X82563Y-42047
X82563Y-43047
X82579Y-45079
X82579Y-46079
X83563Y-27047
X83563Y-28047
X83563Y-29047
X83563Y-30047
X83563Y-31047
X83563Y-32047
X83563Y-33047
X83563Y-34047
X83563Y-35047
X83563Y-36047
X83563Y-37047
X83563Y-38047
X83563Y-39047
X83563Y-40047
X83563Y-41047
X83563Y-42047
X83563Y-43047
X86205Y-27031
X86205Y-28031
X86205Y-29031
X86205Y-30031
X86205Y-31031
X86205Y-32031
X86205Y-33031
X86205Y-34031
X86205Y-35031
X86205Y-36031
X86205Y-37031
X86205Y-38031
X86205Y-39031
X86205Y-40031
X86205Y-41031
X86205Y-42031
X86205Y-43031
X87205Y-27031
X87205Y-28031
X87205Y-29031
X87205Y-30031
X87205Y-31031
X87205Y-32031
X87205Y-33031
X87205Y-34031
X87205Y-35031
X87205Y-36031
X87205Y-37031
X87205Y-38031
X87205Y-39031
X87205Y-40031
X87205Y-41031
X87205Y-42031
X87205Y-43031
T3
X86205Y-45669
X87205Y-45669
T0
M30
