%TF.GenerationSoftware,KiCad,Pcbnew,5.1.10*%
%TF.CreationDate,2021-12-03T13:16:58+01:00*%
%TF.ProjectId,afterglow_pico,61667465-7267-46c6-9f77-5f7069636f2e,rev?*%
%TF.SameCoordinates,Original*%
%TF.FileFunction,Paste,Bot*%
%TF.FilePolarity,Positive*%
%FSLAX46Y46*%
G04 Gerber Fmt 4.6, Leading zero omitted, Abs format (unit mm)*
G04 Created by KiCad (PCBNEW 5.1.10) date 2021-12-03 13:16:58*
%MOMM*%
%LPD*%
G01*
G04 APERTURE LIST*
%ADD10R,1.300000X1.500000*%
%ADD11R,1.500000X1.300000*%
%ADD12R,0.600000X1.500000*%
%ADD13R,1.250000X1.500000*%
%ADD14R,1.950000X0.600000*%
%ADD15R,1.500000X1.250000*%
G04 APERTURE END LIST*
D10*
%TO.C,R16*%
X173000000Y-108950000D03*
X173000000Y-106250000D03*
%TD*%
D11*
%TO.C,R2*%
X197150000Y-89000000D03*
X194450000Y-89000000D03*
%TD*%
D12*
%TO.C,U2*%
X175790000Y-114300000D03*
X177060000Y-114300000D03*
X178330000Y-114300000D03*
X179600000Y-114300000D03*
X180870000Y-114300000D03*
X182140000Y-114300000D03*
X183410000Y-114300000D03*
X183410000Y-108900000D03*
X182140000Y-108900000D03*
X180870000Y-108900000D03*
X179600000Y-108900000D03*
X178330000Y-108900000D03*
X177060000Y-108900000D03*
X175790000Y-108900000D03*
%TD*%
D10*
%TO.C,R15*%
X178800000Y-117300000D03*
X178800000Y-120000000D03*
%TD*%
%TO.C,R14*%
X181200000Y-117300000D03*
X181200000Y-120000000D03*
%TD*%
%TO.C,R13*%
X183600000Y-117300000D03*
X183600000Y-120000000D03*
%TD*%
%TO.C,R12*%
X186000000Y-117300000D03*
X186000000Y-120000000D03*
%TD*%
%TO.C,R11*%
X188400000Y-117300000D03*
X188400000Y-120000000D03*
%TD*%
%TO.C,R10*%
X193200000Y-120000000D03*
X193200000Y-117300000D03*
%TD*%
%TO.C,R9*%
X195600000Y-120000000D03*
X195600000Y-117300000D03*
%TD*%
%TO.C,R8*%
X198000000Y-120000000D03*
X198000000Y-117300000D03*
%TD*%
%TO.C,R7*%
X200400000Y-120000000D03*
X200400000Y-117300000D03*
%TD*%
%TO.C,R6*%
X202800000Y-120000000D03*
X202800000Y-117300000D03*
%TD*%
D11*
%TO.C,R5*%
X177150000Y-88800000D03*
X174450000Y-88800000D03*
%TD*%
D10*
%TO.C,R4*%
X176400000Y-117300000D03*
X176400000Y-120000000D03*
%TD*%
%TO.C,R3*%
X214000000Y-116850000D03*
X214000000Y-114150000D03*
%TD*%
D13*
%TO.C,C8*%
X173000000Y-114250000D03*
X173000000Y-111750000D03*
%TD*%
%TO.C,C7*%
X193000000Y-113300000D03*
X193000000Y-110800000D03*
%TD*%
D14*
%TO.C,U7*%
X184200000Y-91785000D03*
X184200000Y-93055000D03*
X184200000Y-94325000D03*
X184200000Y-95595000D03*
X184200000Y-96865000D03*
X184200000Y-98135000D03*
X184200000Y-99405000D03*
X184200000Y-100675000D03*
X184200000Y-101945000D03*
X184200000Y-103215000D03*
X174800000Y-103215000D03*
X174800000Y-101945000D03*
X174800000Y-100675000D03*
X174800000Y-99405000D03*
X174800000Y-98135000D03*
X174800000Y-96865000D03*
X174800000Y-95595000D03*
X174800000Y-94325000D03*
X174800000Y-93055000D03*
X174800000Y-91785000D03*
%TD*%
%TO.C,U6*%
X184200000Y-71285000D03*
X184200000Y-72555000D03*
X184200000Y-73825000D03*
X184200000Y-75095000D03*
X184200000Y-76365000D03*
X184200000Y-77635000D03*
X184200000Y-78905000D03*
X184200000Y-80175000D03*
X184200000Y-81445000D03*
X184200000Y-82715000D03*
X174800000Y-82715000D03*
X174800000Y-81445000D03*
X174800000Y-80175000D03*
X174800000Y-78905000D03*
X174800000Y-77635000D03*
X174800000Y-76365000D03*
X174800000Y-75095000D03*
X174800000Y-73825000D03*
X174800000Y-72555000D03*
X174800000Y-71285000D03*
%TD*%
%TO.C,U4*%
X194800000Y-91785000D03*
X194800000Y-93055000D03*
X194800000Y-94325000D03*
X194800000Y-95595000D03*
X194800000Y-96865000D03*
X194800000Y-98135000D03*
X194800000Y-99405000D03*
X194800000Y-100675000D03*
X194800000Y-101945000D03*
X194800000Y-103215000D03*
X204200000Y-103215000D03*
X204200000Y-101945000D03*
X204200000Y-100675000D03*
X204200000Y-99405000D03*
X204200000Y-98135000D03*
X204200000Y-96865000D03*
X204200000Y-95595000D03*
X204200000Y-94325000D03*
X204200000Y-93055000D03*
X204200000Y-91785000D03*
%TD*%
%TO.C,U3*%
X194800000Y-71285000D03*
X194800000Y-72555000D03*
X194800000Y-73825000D03*
X194800000Y-75095000D03*
X194800000Y-76365000D03*
X194800000Y-77635000D03*
X194800000Y-78905000D03*
X194800000Y-80175000D03*
X194800000Y-81445000D03*
X194800000Y-82715000D03*
X204200000Y-82715000D03*
X204200000Y-81445000D03*
X204200000Y-80175000D03*
X204200000Y-78905000D03*
X204200000Y-77635000D03*
X204200000Y-76365000D03*
X204200000Y-75095000D03*
X204200000Y-73825000D03*
X204200000Y-72555000D03*
X204200000Y-71285000D03*
%TD*%
D12*
%TO.C,U1*%
X195690000Y-114300000D03*
X196960000Y-114300000D03*
X198230000Y-114300000D03*
X199500000Y-114300000D03*
X200770000Y-114300000D03*
X202040000Y-114300000D03*
X203310000Y-114300000D03*
X203310000Y-108900000D03*
X202040000Y-108900000D03*
X200770000Y-108900000D03*
X199500000Y-108900000D03*
X198230000Y-108900000D03*
X196960000Y-108900000D03*
X195690000Y-108900000D03*
%TD*%
D10*
%TO.C,R1*%
X190800000Y-120000000D03*
X190800000Y-117300000D03*
%TD*%
D15*
%TO.C,C4*%
X184450000Y-88800000D03*
X181950000Y-88800000D03*
%TD*%
%TO.C,C3*%
X178250000Y-68500000D03*
X180750000Y-68500000D03*
%TD*%
%TO.C,C2*%
X204450000Y-89000000D03*
X201950000Y-89000000D03*
%TD*%
%TO.C,C1*%
X200500000Y-68500000D03*
X198000000Y-68500000D03*
%TD*%
M02*
