M48
INCH,TZ
T1C0.0157
T2C0.0394
T3C0.0472
%
G90
G05
T1
X66664Y-47054
X67701Y-42775
X67805Y-43328
X68116Y-26264
X68339Y-43332
X68748Y-46953
X68804Y-43673
X68888Y-27324
X68891Y-27741
X68892Y-28467
X68903Y-35465
X69126Y-38823
X69313Y-33158
X69449Y-45566
X69598Y-43312
X69791Y-39888
X70149Y-29667
X70161Y-43945
X70572Y-30482
X70650Y-38812
X70787Y-45664
X70930Y-33433
X70986Y-44071
X71032Y-32000
X71040Y-31033
X71341Y-35465
X71354Y-36160
X71656Y-26709
X71701Y-41920
X71738Y-33734
X71855Y-41361
X72656Y-36490
X72964Y-27009
X73096Y-26233
X73108Y-38489
X73397Y-40500
X73586Y-30357
X73630Y-45577
X73631Y-29786
X73632Y-41500
X73635Y-43509
X73638Y-42348
X73772Y-28868
X73805Y-41905
X73806Y-43965
X75385Y-45640
X75392Y-41572
X75400Y-37741
X75439Y-41178
X75488Y-35504
X75488Y-36649
X75538Y-38366
X75581Y-29881
X75594Y-34973
X75679Y-47794
X76065Y-33038
X76776Y-41503
X76849Y-27940
X76850Y-35449
X76917Y-32803
X77108Y-33819
X77146Y-40702
X77535Y-44034
X77667Y-37463
X77711Y-36592
X77835Y-29902
X77922Y-31872
X77986Y-35561
X78055Y-29420
X78130Y-38810
X78398Y-30507
X78536Y-36639
X78557Y-35608
X78670Y-33515
X78680Y-31563
X78680Y-32860
X78701Y-37312
X78803Y-37829
X79143Y-32251
X79289Y-30511
X79704Y-35034
X79934Y-44839
X80163Y-26743
X80212Y-41351
X80228Y-25963
X80504Y-34836
X80542Y-39846
X80551Y-36348
X80555Y-29563
X80766Y-29070
X80869Y-28366
X80947Y-26798
X80963Y-33489
X80987Y-43569
X81001Y-42618
X81001Y-40996
X81154Y-40345
X81375Y-41585
X81380Y-39493
X81817Y-46678
X82056Y-32067
X82103Y-26899
X82196Y-42058
X82529Y-41531
X82595Y-28510
X83427Y-42556
X83457Y-32547
X83793Y-44792
X84481Y-29584
X84599Y-41088
X85108Y-46240
X85149Y-28987
X85149Y-32539
X87568Y-30531
X87824Y-34476
T2
X82441Y-46220
X82957Y-27047
X82957Y-28047
X82957Y-29047
X82957Y-30047
X82957Y-31047
X82957Y-32047
X82957Y-33047
X82957Y-34047
X82957Y-35047
X82957Y-36047
X82957Y-37047
X82957Y-38047
X82957Y-39047
X82957Y-40047
X82957Y-41047
X82957Y-42047
X82957Y-43047
X83441Y-46220
X83957Y-27047
X83957Y-28047
X83957Y-29047
X83957Y-30047
X83957Y-31047
X83957Y-32047
X83957Y-33047
X83957Y-34047
X83957Y-35047
X83957Y-36047
X83957Y-37047
X83957Y-38047
X83957Y-39047
X83957Y-40047
X83957Y-41047
X83957Y-42047
X83957Y-43047
X86205Y-27031
X86205Y-28031
X86205Y-29031
X86205Y-30031
X86205Y-31031
X86205Y-32031
X86205Y-33031
X86205Y-34031
X86205Y-35031
X86205Y-36031
X86205Y-37031
X86205Y-38031
X86205Y-39031
X86205Y-40031
X86205Y-41031
X86205Y-42031
X86205Y-43031
X87205Y-27031
X87205Y-28031
X87205Y-29031
X87205Y-30031
X87205Y-31031
X87205Y-32031
X87205Y-33031
X87205Y-34031
X87205Y-35031
X87205Y-36031
X87205Y-37031
X87205Y-38031
X87205Y-39031
X87205Y-40031
X87205Y-41031
X87205Y-42031
X87205Y-43031
T3
X86205Y-45984
X87205Y-45984
T0
M30
