%TF.GenerationSoftware,KiCad,Pcbnew,5.1.10*%
%TF.CreationDate,2021-12-20T17:42:05+01:00*%
%TF.ProjectId,afterglow_pico,61667465-7267-46c6-9f77-5f7069636f2e,rev?*%
%TF.SameCoordinates,Original*%
%TF.FileFunction,Soldermask,Top*%
%TF.FilePolarity,Negative*%
%FSLAX46Y46*%
G04 Gerber Fmt 4.6, Leading zero omitted, Abs format (unit mm)*
G04 Created by KiCad (PCBNEW 5.1.10) date 2021-12-20 17:42:05*
%MOMM*%
%LPD*%
G01*
G04 APERTURE LIST*
%ADD10C,0.250000*%
%ADD11C,0.010000*%
%ADD12R,1.700000X1.700000*%
%ADD13O,1.700000X1.700000*%
%ADD14R,1.300000X1.500000*%
%ADD15R,1.300000X0.800000*%
%ADD16O,1.050000X1.450000*%
%ADD17O,1.100000X1.800000*%
%ADD18R,2.000000X2.600000*%
%ADD19O,2.000000X2.600000*%
%ADD20R,1.500000X1.250000*%
G04 APERTURE END LIST*
D10*
X214219047Y-112585714D02*
X214457142Y-113252380D01*
X214695238Y-112585714D01*
X215600000Y-113252380D02*
X215028571Y-113252380D01*
X215314285Y-113252380D02*
X215314285Y-112252380D01*
X215219047Y-112395238D01*
X215123809Y-112490476D01*
X215028571Y-112538095D01*
X216028571Y-113157142D02*
X216076190Y-113204761D01*
X216028571Y-113252380D01*
X215980952Y-113204761D01*
X216028571Y-113157142D01*
X216028571Y-113252380D01*
X216457142Y-112347619D02*
X216504761Y-112300000D01*
X216600000Y-112252380D01*
X216838095Y-112252380D01*
X216933333Y-112300000D01*
X216980952Y-112347619D01*
X217028571Y-112442857D01*
X217028571Y-112538095D01*
X216980952Y-112680952D01*
X216409523Y-113252380D01*
X217028571Y-113252380D01*
X218123809Y-112252380D02*
X218361904Y-113252380D01*
X218552380Y-112538095D01*
X218742857Y-113252380D01*
X218980952Y-112252380D01*
X219361904Y-113252380D02*
X219361904Y-112252380D01*
X219742857Y-112252380D01*
X219838095Y-112300000D01*
X219885714Y-112347619D01*
X219933333Y-112442857D01*
X219933333Y-112585714D01*
X219885714Y-112680952D01*
X219838095Y-112728571D01*
X219742857Y-112776190D01*
X219361904Y-112776190D01*
X220933333Y-113157142D02*
X220885714Y-113204761D01*
X220742857Y-113252380D01*
X220647619Y-113252380D01*
X220504761Y-113204761D01*
X220409523Y-113109523D01*
X220361904Y-113014285D01*
X220314285Y-112823809D01*
X220314285Y-112680952D01*
X220361904Y-112490476D01*
X220409523Y-112395238D01*
X220504761Y-112300000D01*
X220647619Y-112252380D01*
X220742857Y-112252380D01*
X220885714Y-112300000D01*
X220933333Y-112347619D01*
D11*
%TO.C,U5*%
G36*
X181200000Y-120380000D02*
G01*
X181200000Y-117880000D01*
X181201000Y-117833000D01*
X181205000Y-117786000D01*
X181211000Y-117739000D01*
X181220000Y-117693000D01*
X181231000Y-117647000D01*
X181244000Y-117602000D01*
X181260000Y-117557000D01*
X181278000Y-117514000D01*
X181298000Y-117471000D01*
X181321000Y-117430000D01*
X181345000Y-117390000D01*
X181372000Y-117351000D01*
X181401000Y-117314000D01*
X181431000Y-117278000D01*
X181464000Y-117244000D01*
X181498000Y-117211000D01*
X181534000Y-117181000D01*
X181571000Y-117152000D01*
X181610000Y-117125000D01*
X181650000Y-117101000D01*
X181691000Y-117078000D01*
X181734000Y-117058000D01*
X181777000Y-117040000D01*
X181822000Y-117024000D01*
X181867000Y-117011000D01*
X181913000Y-117000000D01*
X181959000Y-116991000D01*
X182006000Y-116985000D01*
X182053000Y-116981000D01*
X182100000Y-116980000D01*
X182147000Y-116981000D01*
X182194000Y-116985000D01*
X182241000Y-116991000D01*
X182287000Y-117000000D01*
X182333000Y-117011000D01*
X182378000Y-117024000D01*
X182423000Y-117040000D01*
X182466000Y-117058000D01*
X182509000Y-117078000D01*
X182550000Y-117101000D01*
X182590000Y-117125000D01*
X182629000Y-117152000D01*
X182666000Y-117181000D01*
X182702000Y-117211000D01*
X182736000Y-117244000D01*
X182769000Y-117278000D01*
X182799000Y-117314000D01*
X182828000Y-117351000D01*
X182855000Y-117390000D01*
X182879000Y-117430000D01*
X182902000Y-117471000D01*
X182922000Y-117514000D01*
X182940000Y-117557000D01*
X182956000Y-117602000D01*
X182969000Y-117647000D01*
X182980000Y-117693000D01*
X182989000Y-117739000D01*
X182995000Y-117786000D01*
X182999000Y-117833000D01*
X183000000Y-117880000D01*
X183000000Y-120380000D01*
X181200000Y-120380000D01*
G37*
X181200000Y-120380000D02*
X181200000Y-117880000D01*
X181201000Y-117833000D01*
X181205000Y-117786000D01*
X181211000Y-117739000D01*
X181220000Y-117693000D01*
X181231000Y-117647000D01*
X181244000Y-117602000D01*
X181260000Y-117557000D01*
X181278000Y-117514000D01*
X181298000Y-117471000D01*
X181321000Y-117430000D01*
X181345000Y-117390000D01*
X181372000Y-117351000D01*
X181401000Y-117314000D01*
X181431000Y-117278000D01*
X181464000Y-117244000D01*
X181498000Y-117211000D01*
X181534000Y-117181000D01*
X181571000Y-117152000D01*
X181610000Y-117125000D01*
X181650000Y-117101000D01*
X181691000Y-117078000D01*
X181734000Y-117058000D01*
X181777000Y-117040000D01*
X181822000Y-117024000D01*
X181867000Y-117011000D01*
X181913000Y-117000000D01*
X181959000Y-116991000D01*
X182006000Y-116985000D01*
X182053000Y-116981000D01*
X182100000Y-116980000D01*
X182147000Y-116981000D01*
X182194000Y-116985000D01*
X182241000Y-116991000D01*
X182287000Y-117000000D01*
X182333000Y-117011000D01*
X182378000Y-117024000D01*
X182423000Y-117040000D01*
X182466000Y-117058000D01*
X182509000Y-117078000D01*
X182550000Y-117101000D01*
X182590000Y-117125000D01*
X182629000Y-117152000D01*
X182666000Y-117181000D01*
X182702000Y-117211000D01*
X182736000Y-117244000D01*
X182769000Y-117278000D01*
X182799000Y-117314000D01*
X182828000Y-117351000D01*
X182855000Y-117390000D01*
X182879000Y-117430000D01*
X182902000Y-117471000D01*
X182922000Y-117514000D01*
X182940000Y-117557000D01*
X182956000Y-117602000D01*
X182969000Y-117647000D01*
X182980000Y-117693000D01*
X182989000Y-117739000D01*
X182995000Y-117786000D01*
X182999000Y-117833000D01*
X183000000Y-117880000D01*
X183000000Y-120380000D01*
X181200000Y-120380000D01*
G36*
X190950000Y-113930000D02*
G01*
X190950000Y-112130000D01*
X187850000Y-112130000D01*
X187834000Y-112130000D01*
X187819000Y-112132000D01*
X187803000Y-112134000D01*
X187788000Y-112137000D01*
X187772000Y-112140000D01*
X187757000Y-112145000D01*
X187742000Y-112150000D01*
X187728000Y-112156000D01*
X187714000Y-112163000D01*
X187700000Y-112170000D01*
X187687000Y-112178000D01*
X187674000Y-112187000D01*
X187661000Y-112197000D01*
X187649000Y-112207000D01*
X187638000Y-112218000D01*
X187627000Y-112229000D01*
X187617000Y-112241000D01*
X187607000Y-112254000D01*
X187598000Y-112267000D01*
X187590000Y-112280000D01*
X187583000Y-112294000D01*
X187576000Y-112308000D01*
X187570000Y-112322000D01*
X187565000Y-112337000D01*
X187560000Y-112352000D01*
X187557000Y-112368000D01*
X187554000Y-112383000D01*
X187552000Y-112399000D01*
X187550000Y-112414000D01*
X187550000Y-112430000D01*
X187550000Y-113630000D01*
X187550000Y-113646000D01*
X187552000Y-113661000D01*
X187554000Y-113677000D01*
X187557000Y-113692000D01*
X187560000Y-113708000D01*
X187565000Y-113723000D01*
X187570000Y-113738000D01*
X187576000Y-113752000D01*
X187583000Y-113766000D01*
X187590000Y-113780000D01*
X187598000Y-113793000D01*
X187607000Y-113806000D01*
X187617000Y-113819000D01*
X187627000Y-113831000D01*
X187638000Y-113842000D01*
X187649000Y-113853000D01*
X187661000Y-113863000D01*
X187674000Y-113873000D01*
X187687000Y-113882000D01*
X187700000Y-113890000D01*
X187714000Y-113897000D01*
X187728000Y-113904000D01*
X187742000Y-113910000D01*
X187757000Y-113915000D01*
X187772000Y-113920000D01*
X187788000Y-113923000D01*
X187803000Y-113926000D01*
X187819000Y-113928000D01*
X187834000Y-113930000D01*
X187850000Y-113930000D01*
X190950000Y-113930000D01*
G37*
X190950000Y-113930000D02*
X190950000Y-112130000D01*
X187850000Y-112130000D01*
X187834000Y-112130000D01*
X187819000Y-112132000D01*
X187803000Y-112134000D01*
X187788000Y-112137000D01*
X187772000Y-112140000D01*
X187757000Y-112145000D01*
X187742000Y-112150000D01*
X187728000Y-112156000D01*
X187714000Y-112163000D01*
X187700000Y-112170000D01*
X187687000Y-112178000D01*
X187674000Y-112187000D01*
X187661000Y-112197000D01*
X187649000Y-112207000D01*
X187638000Y-112218000D01*
X187627000Y-112229000D01*
X187617000Y-112241000D01*
X187607000Y-112254000D01*
X187598000Y-112267000D01*
X187590000Y-112280000D01*
X187583000Y-112294000D01*
X187576000Y-112308000D01*
X187570000Y-112322000D01*
X187565000Y-112337000D01*
X187560000Y-112352000D01*
X187557000Y-112368000D01*
X187554000Y-112383000D01*
X187552000Y-112399000D01*
X187550000Y-112414000D01*
X187550000Y-112430000D01*
X187550000Y-113630000D01*
X187550000Y-113646000D01*
X187552000Y-113661000D01*
X187554000Y-113677000D01*
X187557000Y-113692000D01*
X187560000Y-113708000D01*
X187565000Y-113723000D01*
X187570000Y-113738000D01*
X187576000Y-113752000D01*
X187583000Y-113766000D01*
X187590000Y-113780000D01*
X187598000Y-113793000D01*
X187607000Y-113806000D01*
X187617000Y-113819000D01*
X187627000Y-113831000D01*
X187638000Y-113842000D01*
X187649000Y-113853000D01*
X187661000Y-113863000D01*
X187674000Y-113873000D01*
X187687000Y-113882000D01*
X187700000Y-113890000D01*
X187714000Y-113897000D01*
X187728000Y-113904000D01*
X187742000Y-113910000D01*
X187757000Y-113915000D01*
X187772000Y-113920000D01*
X187788000Y-113923000D01*
X187803000Y-113926000D01*
X187819000Y-113928000D01*
X187834000Y-113930000D01*
X187850000Y-113930000D01*
X190950000Y-113930000D01*
G36*
X190950000Y-101230000D02*
G01*
X190950000Y-99430000D01*
X187850000Y-99430000D01*
X187834000Y-99430000D01*
X187819000Y-99432000D01*
X187803000Y-99434000D01*
X187788000Y-99437000D01*
X187772000Y-99440000D01*
X187757000Y-99445000D01*
X187742000Y-99450000D01*
X187728000Y-99456000D01*
X187714000Y-99463000D01*
X187700000Y-99470000D01*
X187687000Y-99478000D01*
X187674000Y-99487000D01*
X187661000Y-99497000D01*
X187649000Y-99507000D01*
X187638000Y-99518000D01*
X187627000Y-99529000D01*
X187617000Y-99541000D01*
X187607000Y-99554000D01*
X187598000Y-99567000D01*
X187590000Y-99580000D01*
X187583000Y-99594000D01*
X187576000Y-99608000D01*
X187570000Y-99622000D01*
X187565000Y-99637000D01*
X187560000Y-99652000D01*
X187557000Y-99668000D01*
X187554000Y-99683000D01*
X187552000Y-99699000D01*
X187550000Y-99714000D01*
X187550000Y-99730000D01*
X187550000Y-100930000D01*
X187550000Y-100946000D01*
X187552000Y-100961000D01*
X187554000Y-100977000D01*
X187557000Y-100992000D01*
X187560000Y-101008000D01*
X187565000Y-101023000D01*
X187570000Y-101038000D01*
X187576000Y-101052000D01*
X187583000Y-101066000D01*
X187590000Y-101080000D01*
X187598000Y-101093000D01*
X187607000Y-101106000D01*
X187617000Y-101119000D01*
X187627000Y-101131000D01*
X187638000Y-101142000D01*
X187649000Y-101153000D01*
X187661000Y-101163000D01*
X187674000Y-101173000D01*
X187687000Y-101182000D01*
X187700000Y-101190000D01*
X187714000Y-101197000D01*
X187728000Y-101204000D01*
X187742000Y-101210000D01*
X187757000Y-101215000D01*
X187772000Y-101220000D01*
X187788000Y-101223000D01*
X187803000Y-101226000D01*
X187819000Y-101228000D01*
X187834000Y-101230000D01*
X187850000Y-101230000D01*
X190950000Y-101230000D01*
G37*
X190950000Y-101230000D02*
X190950000Y-99430000D01*
X187850000Y-99430000D01*
X187834000Y-99430000D01*
X187819000Y-99432000D01*
X187803000Y-99434000D01*
X187788000Y-99437000D01*
X187772000Y-99440000D01*
X187757000Y-99445000D01*
X187742000Y-99450000D01*
X187728000Y-99456000D01*
X187714000Y-99463000D01*
X187700000Y-99470000D01*
X187687000Y-99478000D01*
X187674000Y-99487000D01*
X187661000Y-99497000D01*
X187649000Y-99507000D01*
X187638000Y-99518000D01*
X187627000Y-99529000D01*
X187617000Y-99541000D01*
X187607000Y-99554000D01*
X187598000Y-99567000D01*
X187590000Y-99580000D01*
X187583000Y-99594000D01*
X187576000Y-99608000D01*
X187570000Y-99622000D01*
X187565000Y-99637000D01*
X187560000Y-99652000D01*
X187557000Y-99668000D01*
X187554000Y-99683000D01*
X187552000Y-99699000D01*
X187550000Y-99714000D01*
X187550000Y-99730000D01*
X187550000Y-100930000D01*
X187550000Y-100946000D01*
X187552000Y-100961000D01*
X187554000Y-100977000D01*
X187557000Y-100992000D01*
X187560000Y-101008000D01*
X187565000Y-101023000D01*
X187570000Y-101038000D01*
X187576000Y-101052000D01*
X187583000Y-101066000D01*
X187590000Y-101080000D01*
X187598000Y-101093000D01*
X187607000Y-101106000D01*
X187617000Y-101119000D01*
X187627000Y-101131000D01*
X187638000Y-101142000D01*
X187649000Y-101153000D01*
X187661000Y-101163000D01*
X187674000Y-101173000D01*
X187687000Y-101182000D01*
X187700000Y-101190000D01*
X187714000Y-101197000D01*
X187728000Y-101204000D01*
X187742000Y-101210000D01*
X187757000Y-101215000D01*
X187772000Y-101220000D01*
X187788000Y-101223000D01*
X187803000Y-101226000D01*
X187819000Y-101228000D01*
X187834000Y-101230000D01*
X187850000Y-101230000D01*
X190950000Y-101230000D01*
G36*
X190950000Y-88530000D02*
G01*
X190950000Y-86730000D01*
X187850000Y-86730000D01*
X187834000Y-86730000D01*
X187819000Y-86732000D01*
X187803000Y-86734000D01*
X187788000Y-86737000D01*
X187772000Y-86740000D01*
X187757000Y-86745000D01*
X187742000Y-86750000D01*
X187728000Y-86756000D01*
X187714000Y-86763000D01*
X187700000Y-86770000D01*
X187687000Y-86778000D01*
X187674000Y-86787000D01*
X187661000Y-86797000D01*
X187649000Y-86807000D01*
X187638000Y-86818000D01*
X187627000Y-86829000D01*
X187617000Y-86841000D01*
X187607000Y-86854000D01*
X187598000Y-86867000D01*
X187590000Y-86880000D01*
X187583000Y-86894000D01*
X187576000Y-86908000D01*
X187570000Y-86922000D01*
X187565000Y-86937000D01*
X187560000Y-86952000D01*
X187557000Y-86968000D01*
X187554000Y-86983000D01*
X187552000Y-86999000D01*
X187550000Y-87014000D01*
X187550000Y-87030000D01*
X187550000Y-88230000D01*
X187550000Y-88246000D01*
X187552000Y-88261000D01*
X187554000Y-88277000D01*
X187557000Y-88292000D01*
X187560000Y-88308000D01*
X187565000Y-88323000D01*
X187570000Y-88338000D01*
X187576000Y-88352000D01*
X187583000Y-88366000D01*
X187590000Y-88380000D01*
X187598000Y-88393000D01*
X187607000Y-88406000D01*
X187617000Y-88419000D01*
X187627000Y-88431000D01*
X187638000Y-88442000D01*
X187649000Y-88453000D01*
X187661000Y-88463000D01*
X187674000Y-88473000D01*
X187687000Y-88482000D01*
X187700000Y-88490000D01*
X187714000Y-88497000D01*
X187728000Y-88504000D01*
X187742000Y-88510000D01*
X187757000Y-88515000D01*
X187772000Y-88520000D01*
X187788000Y-88523000D01*
X187803000Y-88526000D01*
X187819000Y-88528000D01*
X187834000Y-88530000D01*
X187850000Y-88530000D01*
X190950000Y-88530000D01*
G37*
X190950000Y-88530000D02*
X190950000Y-86730000D01*
X187850000Y-86730000D01*
X187834000Y-86730000D01*
X187819000Y-86732000D01*
X187803000Y-86734000D01*
X187788000Y-86737000D01*
X187772000Y-86740000D01*
X187757000Y-86745000D01*
X187742000Y-86750000D01*
X187728000Y-86756000D01*
X187714000Y-86763000D01*
X187700000Y-86770000D01*
X187687000Y-86778000D01*
X187674000Y-86787000D01*
X187661000Y-86797000D01*
X187649000Y-86807000D01*
X187638000Y-86818000D01*
X187627000Y-86829000D01*
X187617000Y-86841000D01*
X187607000Y-86854000D01*
X187598000Y-86867000D01*
X187590000Y-86880000D01*
X187583000Y-86894000D01*
X187576000Y-86908000D01*
X187570000Y-86922000D01*
X187565000Y-86937000D01*
X187560000Y-86952000D01*
X187557000Y-86968000D01*
X187554000Y-86983000D01*
X187552000Y-86999000D01*
X187550000Y-87014000D01*
X187550000Y-87030000D01*
X187550000Y-88230000D01*
X187550000Y-88246000D01*
X187552000Y-88261000D01*
X187554000Y-88277000D01*
X187557000Y-88292000D01*
X187560000Y-88308000D01*
X187565000Y-88323000D01*
X187570000Y-88338000D01*
X187576000Y-88352000D01*
X187583000Y-88366000D01*
X187590000Y-88380000D01*
X187598000Y-88393000D01*
X187607000Y-88406000D01*
X187617000Y-88419000D01*
X187627000Y-88431000D01*
X187638000Y-88442000D01*
X187649000Y-88453000D01*
X187661000Y-88463000D01*
X187674000Y-88473000D01*
X187687000Y-88482000D01*
X187700000Y-88490000D01*
X187714000Y-88497000D01*
X187728000Y-88504000D01*
X187742000Y-88510000D01*
X187757000Y-88515000D01*
X187772000Y-88520000D01*
X187788000Y-88523000D01*
X187803000Y-88526000D01*
X187819000Y-88528000D01*
X187834000Y-88530000D01*
X187850000Y-88530000D01*
X190950000Y-88530000D01*
G36*
X190950000Y-119010000D02*
G01*
X190950000Y-117210000D01*
X188450000Y-117210000D01*
X188403000Y-117211000D01*
X188356000Y-117215000D01*
X188309000Y-117221000D01*
X188263000Y-117230000D01*
X188217000Y-117241000D01*
X188172000Y-117254000D01*
X188127000Y-117270000D01*
X188084000Y-117288000D01*
X188041000Y-117308000D01*
X188000000Y-117331000D01*
X187960000Y-117355000D01*
X187921000Y-117382000D01*
X187884000Y-117411000D01*
X187848000Y-117441000D01*
X187814000Y-117474000D01*
X187781000Y-117508000D01*
X187751000Y-117544000D01*
X187722000Y-117581000D01*
X187695000Y-117620000D01*
X187671000Y-117660000D01*
X187648000Y-117701000D01*
X187628000Y-117744000D01*
X187610000Y-117787000D01*
X187594000Y-117832000D01*
X187581000Y-117877000D01*
X187570000Y-117923000D01*
X187561000Y-117969000D01*
X187555000Y-118016000D01*
X187551000Y-118063000D01*
X187550000Y-118110000D01*
X187551000Y-118157000D01*
X187555000Y-118204000D01*
X187561000Y-118251000D01*
X187570000Y-118297000D01*
X187581000Y-118343000D01*
X187594000Y-118388000D01*
X187610000Y-118433000D01*
X187628000Y-118476000D01*
X187648000Y-118519000D01*
X187671000Y-118560000D01*
X187695000Y-118600000D01*
X187722000Y-118639000D01*
X187751000Y-118676000D01*
X187781000Y-118712000D01*
X187814000Y-118746000D01*
X187848000Y-118779000D01*
X187884000Y-118809000D01*
X187921000Y-118838000D01*
X187960000Y-118865000D01*
X188000000Y-118889000D01*
X188041000Y-118912000D01*
X188084000Y-118932000D01*
X188127000Y-118950000D01*
X188172000Y-118966000D01*
X188217000Y-118979000D01*
X188263000Y-118990000D01*
X188309000Y-118999000D01*
X188356000Y-119005000D01*
X188403000Y-119009000D01*
X188450000Y-119010000D01*
X190950000Y-119010000D01*
G37*
X190950000Y-119010000D02*
X190950000Y-117210000D01*
X188450000Y-117210000D01*
X188403000Y-117211000D01*
X188356000Y-117215000D01*
X188309000Y-117221000D01*
X188263000Y-117230000D01*
X188217000Y-117241000D01*
X188172000Y-117254000D01*
X188127000Y-117270000D01*
X188084000Y-117288000D01*
X188041000Y-117308000D01*
X188000000Y-117331000D01*
X187960000Y-117355000D01*
X187921000Y-117382000D01*
X187884000Y-117411000D01*
X187848000Y-117441000D01*
X187814000Y-117474000D01*
X187781000Y-117508000D01*
X187751000Y-117544000D01*
X187722000Y-117581000D01*
X187695000Y-117620000D01*
X187671000Y-117660000D01*
X187648000Y-117701000D01*
X187628000Y-117744000D01*
X187610000Y-117787000D01*
X187594000Y-117832000D01*
X187581000Y-117877000D01*
X187570000Y-117923000D01*
X187561000Y-117969000D01*
X187555000Y-118016000D01*
X187551000Y-118063000D01*
X187550000Y-118110000D01*
X187551000Y-118157000D01*
X187555000Y-118204000D01*
X187561000Y-118251000D01*
X187570000Y-118297000D01*
X187581000Y-118343000D01*
X187594000Y-118388000D01*
X187610000Y-118433000D01*
X187628000Y-118476000D01*
X187648000Y-118519000D01*
X187671000Y-118560000D01*
X187695000Y-118600000D01*
X187722000Y-118639000D01*
X187751000Y-118676000D01*
X187781000Y-118712000D01*
X187814000Y-118746000D01*
X187848000Y-118779000D01*
X187884000Y-118809000D01*
X187921000Y-118838000D01*
X187960000Y-118865000D01*
X188000000Y-118889000D01*
X188041000Y-118912000D01*
X188084000Y-118932000D01*
X188127000Y-118950000D01*
X188172000Y-118966000D01*
X188217000Y-118979000D01*
X188263000Y-118990000D01*
X188309000Y-118999000D01*
X188356000Y-119005000D01*
X188403000Y-119009000D01*
X188450000Y-119010000D01*
X190950000Y-119010000D01*
G36*
X190950000Y-116470000D02*
G01*
X190950000Y-114670000D01*
X188450000Y-114670000D01*
X188403000Y-114671000D01*
X188356000Y-114675000D01*
X188309000Y-114681000D01*
X188263000Y-114690000D01*
X188217000Y-114701000D01*
X188172000Y-114714000D01*
X188127000Y-114730000D01*
X188084000Y-114748000D01*
X188041000Y-114768000D01*
X188000000Y-114791000D01*
X187960000Y-114815000D01*
X187921000Y-114842000D01*
X187884000Y-114871000D01*
X187848000Y-114901000D01*
X187814000Y-114934000D01*
X187781000Y-114968000D01*
X187751000Y-115004000D01*
X187722000Y-115041000D01*
X187695000Y-115080000D01*
X187671000Y-115120000D01*
X187648000Y-115161000D01*
X187628000Y-115204000D01*
X187610000Y-115247000D01*
X187594000Y-115292000D01*
X187581000Y-115337000D01*
X187570000Y-115383000D01*
X187561000Y-115429000D01*
X187555000Y-115476000D01*
X187551000Y-115523000D01*
X187550000Y-115570000D01*
X187551000Y-115617000D01*
X187555000Y-115664000D01*
X187561000Y-115711000D01*
X187570000Y-115757000D01*
X187581000Y-115803000D01*
X187594000Y-115848000D01*
X187610000Y-115893000D01*
X187628000Y-115936000D01*
X187648000Y-115979000D01*
X187671000Y-116020000D01*
X187695000Y-116060000D01*
X187722000Y-116099000D01*
X187751000Y-116136000D01*
X187781000Y-116172000D01*
X187814000Y-116206000D01*
X187848000Y-116239000D01*
X187884000Y-116269000D01*
X187921000Y-116298000D01*
X187960000Y-116325000D01*
X188000000Y-116349000D01*
X188041000Y-116372000D01*
X188084000Y-116392000D01*
X188127000Y-116410000D01*
X188172000Y-116426000D01*
X188217000Y-116439000D01*
X188263000Y-116450000D01*
X188309000Y-116459000D01*
X188356000Y-116465000D01*
X188403000Y-116469000D01*
X188450000Y-116470000D01*
X190950000Y-116470000D01*
G37*
X190950000Y-116470000D02*
X190950000Y-114670000D01*
X188450000Y-114670000D01*
X188403000Y-114671000D01*
X188356000Y-114675000D01*
X188309000Y-114681000D01*
X188263000Y-114690000D01*
X188217000Y-114701000D01*
X188172000Y-114714000D01*
X188127000Y-114730000D01*
X188084000Y-114748000D01*
X188041000Y-114768000D01*
X188000000Y-114791000D01*
X187960000Y-114815000D01*
X187921000Y-114842000D01*
X187884000Y-114871000D01*
X187848000Y-114901000D01*
X187814000Y-114934000D01*
X187781000Y-114968000D01*
X187751000Y-115004000D01*
X187722000Y-115041000D01*
X187695000Y-115080000D01*
X187671000Y-115120000D01*
X187648000Y-115161000D01*
X187628000Y-115204000D01*
X187610000Y-115247000D01*
X187594000Y-115292000D01*
X187581000Y-115337000D01*
X187570000Y-115383000D01*
X187561000Y-115429000D01*
X187555000Y-115476000D01*
X187551000Y-115523000D01*
X187550000Y-115570000D01*
X187551000Y-115617000D01*
X187555000Y-115664000D01*
X187561000Y-115711000D01*
X187570000Y-115757000D01*
X187581000Y-115803000D01*
X187594000Y-115848000D01*
X187610000Y-115893000D01*
X187628000Y-115936000D01*
X187648000Y-115979000D01*
X187671000Y-116020000D01*
X187695000Y-116060000D01*
X187722000Y-116099000D01*
X187751000Y-116136000D01*
X187781000Y-116172000D01*
X187814000Y-116206000D01*
X187848000Y-116239000D01*
X187884000Y-116269000D01*
X187921000Y-116298000D01*
X187960000Y-116325000D01*
X188000000Y-116349000D01*
X188041000Y-116372000D01*
X188084000Y-116392000D01*
X188127000Y-116410000D01*
X188172000Y-116426000D01*
X188217000Y-116439000D01*
X188263000Y-116450000D01*
X188309000Y-116459000D01*
X188356000Y-116465000D01*
X188403000Y-116469000D01*
X188450000Y-116470000D01*
X190950000Y-116470000D01*
G36*
X190950000Y-111390000D02*
G01*
X190950000Y-109590000D01*
X188450000Y-109590000D01*
X188403000Y-109591000D01*
X188356000Y-109595000D01*
X188309000Y-109601000D01*
X188263000Y-109610000D01*
X188217000Y-109621000D01*
X188172000Y-109634000D01*
X188127000Y-109650000D01*
X188084000Y-109668000D01*
X188041000Y-109688000D01*
X188000000Y-109711000D01*
X187960000Y-109735000D01*
X187921000Y-109762000D01*
X187884000Y-109791000D01*
X187848000Y-109821000D01*
X187814000Y-109854000D01*
X187781000Y-109888000D01*
X187751000Y-109924000D01*
X187722000Y-109961000D01*
X187695000Y-110000000D01*
X187671000Y-110040000D01*
X187648000Y-110081000D01*
X187628000Y-110124000D01*
X187610000Y-110167000D01*
X187594000Y-110212000D01*
X187581000Y-110257000D01*
X187570000Y-110303000D01*
X187561000Y-110349000D01*
X187555000Y-110396000D01*
X187551000Y-110443000D01*
X187550000Y-110490000D01*
X187551000Y-110537000D01*
X187555000Y-110584000D01*
X187561000Y-110631000D01*
X187570000Y-110677000D01*
X187581000Y-110723000D01*
X187594000Y-110768000D01*
X187610000Y-110813000D01*
X187628000Y-110856000D01*
X187648000Y-110899000D01*
X187671000Y-110940000D01*
X187695000Y-110980000D01*
X187722000Y-111019000D01*
X187751000Y-111056000D01*
X187781000Y-111092000D01*
X187814000Y-111126000D01*
X187848000Y-111159000D01*
X187884000Y-111189000D01*
X187921000Y-111218000D01*
X187960000Y-111245000D01*
X188000000Y-111269000D01*
X188041000Y-111292000D01*
X188084000Y-111312000D01*
X188127000Y-111330000D01*
X188172000Y-111346000D01*
X188217000Y-111359000D01*
X188263000Y-111370000D01*
X188309000Y-111379000D01*
X188356000Y-111385000D01*
X188403000Y-111389000D01*
X188450000Y-111390000D01*
X190950000Y-111390000D01*
G37*
X190950000Y-111390000D02*
X190950000Y-109590000D01*
X188450000Y-109590000D01*
X188403000Y-109591000D01*
X188356000Y-109595000D01*
X188309000Y-109601000D01*
X188263000Y-109610000D01*
X188217000Y-109621000D01*
X188172000Y-109634000D01*
X188127000Y-109650000D01*
X188084000Y-109668000D01*
X188041000Y-109688000D01*
X188000000Y-109711000D01*
X187960000Y-109735000D01*
X187921000Y-109762000D01*
X187884000Y-109791000D01*
X187848000Y-109821000D01*
X187814000Y-109854000D01*
X187781000Y-109888000D01*
X187751000Y-109924000D01*
X187722000Y-109961000D01*
X187695000Y-110000000D01*
X187671000Y-110040000D01*
X187648000Y-110081000D01*
X187628000Y-110124000D01*
X187610000Y-110167000D01*
X187594000Y-110212000D01*
X187581000Y-110257000D01*
X187570000Y-110303000D01*
X187561000Y-110349000D01*
X187555000Y-110396000D01*
X187551000Y-110443000D01*
X187550000Y-110490000D01*
X187551000Y-110537000D01*
X187555000Y-110584000D01*
X187561000Y-110631000D01*
X187570000Y-110677000D01*
X187581000Y-110723000D01*
X187594000Y-110768000D01*
X187610000Y-110813000D01*
X187628000Y-110856000D01*
X187648000Y-110899000D01*
X187671000Y-110940000D01*
X187695000Y-110980000D01*
X187722000Y-111019000D01*
X187751000Y-111056000D01*
X187781000Y-111092000D01*
X187814000Y-111126000D01*
X187848000Y-111159000D01*
X187884000Y-111189000D01*
X187921000Y-111218000D01*
X187960000Y-111245000D01*
X188000000Y-111269000D01*
X188041000Y-111292000D01*
X188084000Y-111312000D01*
X188127000Y-111330000D01*
X188172000Y-111346000D01*
X188217000Y-111359000D01*
X188263000Y-111370000D01*
X188309000Y-111379000D01*
X188356000Y-111385000D01*
X188403000Y-111389000D01*
X188450000Y-111390000D01*
X190950000Y-111390000D01*
G36*
X190950000Y-108850000D02*
G01*
X190950000Y-107050000D01*
X188450000Y-107050000D01*
X188403000Y-107051000D01*
X188356000Y-107055000D01*
X188309000Y-107061000D01*
X188263000Y-107070000D01*
X188217000Y-107081000D01*
X188172000Y-107094000D01*
X188127000Y-107110000D01*
X188084000Y-107128000D01*
X188041000Y-107148000D01*
X188000000Y-107171000D01*
X187960000Y-107195000D01*
X187921000Y-107222000D01*
X187884000Y-107251000D01*
X187848000Y-107281000D01*
X187814000Y-107314000D01*
X187781000Y-107348000D01*
X187751000Y-107384000D01*
X187722000Y-107421000D01*
X187695000Y-107460000D01*
X187671000Y-107500000D01*
X187648000Y-107541000D01*
X187628000Y-107584000D01*
X187610000Y-107627000D01*
X187594000Y-107672000D01*
X187581000Y-107717000D01*
X187570000Y-107763000D01*
X187561000Y-107809000D01*
X187555000Y-107856000D01*
X187551000Y-107903000D01*
X187550000Y-107950000D01*
X187551000Y-107997000D01*
X187555000Y-108044000D01*
X187561000Y-108091000D01*
X187570000Y-108137000D01*
X187581000Y-108183000D01*
X187594000Y-108228000D01*
X187610000Y-108273000D01*
X187628000Y-108316000D01*
X187648000Y-108359000D01*
X187671000Y-108400000D01*
X187695000Y-108440000D01*
X187722000Y-108479000D01*
X187751000Y-108516000D01*
X187781000Y-108552000D01*
X187814000Y-108586000D01*
X187848000Y-108619000D01*
X187884000Y-108649000D01*
X187921000Y-108678000D01*
X187960000Y-108705000D01*
X188000000Y-108729000D01*
X188041000Y-108752000D01*
X188084000Y-108772000D01*
X188127000Y-108790000D01*
X188172000Y-108806000D01*
X188217000Y-108819000D01*
X188263000Y-108830000D01*
X188309000Y-108839000D01*
X188356000Y-108845000D01*
X188403000Y-108849000D01*
X188450000Y-108850000D01*
X190950000Y-108850000D01*
G37*
X190950000Y-108850000D02*
X190950000Y-107050000D01*
X188450000Y-107050000D01*
X188403000Y-107051000D01*
X188356000Y-107055000D01*
X188309000Y-107061000D01*
X188263000Y-107070000D01*
X188217000Y-107081000D01*
X188172000Y-107094000D01*
X188127000Y-107110000D01*
X188084000Y-107128000D01*
X188041000Y-107148000D01*
X188000000Y-107171000D01*
X187960000Y-107195000D01*
X187921000Y-107222000D01*
X187884000Y-107251000D01*
X187848000Y-107281000D01*
X187814000Y-107314000D01*
X187781000Y-107348000D01*
X187751000Y-107384000D01*
X187722000Y-107421000D01*
X187695000Y-107460000D01*
X187671000Y-107500000D01*
X187648000Y-107541000D01*
X187628000Y-107584000D01*
X187610000Y-107627000D01*
X187594000Y-107672000D01*
X187581000Y-107717000D01*
X187570000Y-107763000D01*
X187561000Y-107809000D01*
X187555000Y-107856000D01*
X187551000Y-107903000D01*
X187550000Y-107950000D01*
X187551000Y-107997000D01*
X187555000Y-108044000D01*
X187561000Y-108091000D01*
X187570000Y-108137000D01*
X187581000Y-108183000D01*
X187594000Y-108228000D01*
X187610000Y-108273000D01*
X187628000Y-108316000D01*
X187648000Y-108359000D01*
X187671000Y-108400000D01*
X187695000Y-108440000D01*
X187722000Y-108479000D01*
X187751000Y-108516000D01*
X187781000Y-108552000D01*
X187814000Y-108586000D01*
X187848000Y-108619000D01*
X187884000Y-108649000D01*
X187921000Y-108678000D01*
X187960000Y-108705000D01*
X188000000Y-108729000D01*
X188041000Y-108752000D01*
X188084000Y-108772000D01*
X188127000Y-108790000D01*
X188172000Y-108806000D01*
X188217000Y-108819000D01*
X188263000Y-108830000D01*
X188309000Y-108839000D01*
X188356000Y-108845000D01*
X188403000Y-108849000D01*
X188450000Y-108850000D01*
X190950000Y-108850000D01*
G36*
X190950000Y-106310000D02*
G01*
X190950000Y-104510000D01*
X188450000Y-104510000D01*
X188403000Y-104511000D01*
X188356000Y-104515000D01*
X188309000Y-104521000D01*
X188263000Y-104530000D01*
X188217000Y-104541000D01*
X188172000Y-104554000D01*
X188127000Y-104570000D01*
X188084000Y-104588000D01*
X188041000Y-104608000D01*
X188000000Y-104631000D01*
X187960000Y-104655000D01*
X187921000Y-104682000D01*
X187884000Y-104711000D01*
X187848000Y-104741000D01*
X187814000Y-104774000D01*
X187781000Y-104808000D01*
X187751000Y-104844000D01*
X187722000Y-104881000D01*
X187695000Y-104920000D01*
X187671000Y-104960000D01*
X187648000Y-105001000D01*
X187628000Y-105044000D01*
X187610000Y-105087000D01*
X187594000Y-105132000D01*
X187581000Y-105177000D01*
X187570000Y-105223000D01*
X187561000Y-105269000D01*
X187555000Y-105316000D01*
X187551000Y-105363000D01*
X187550000Y-105410000D01*
X187551000Y-105457000D01*
X187555000Y-105504000D01*
X187561000Y-105551000D01*
X187570000Y-105597000D01*
X187581000Y-105643000D01*
X187594000Y-105688000D01*
X187610000Y-105733000D01*
X187628000Y-105776000D01*
X187648000Y-105819000D01*
X187671000Y-105860000D01*
X187695000Y-105900000D01*
X187722000Y-105939000D01*
X187751000Y-105976000D01*
X187781000Y-106012000D01*
X187814000Y-106046000D01*
X187848000Y-106079000D01*
X187884000Y-106109000D01*
X187921000Y-106138000D01*
X187960000Y-106165000D01*
X188000000Y-106189000D01*
X188041000Y-106212000D01*
X188084000Y-106232000D01*
X188127000Y-106250000D01*
X188172000Y-106266000D01*
X188217000Y-106279000D01*
X188263000Y-106290000D01*
X188309000Y-106299000D01*
X188356000Y-106305000D01*
X188403000Y-106309000D01*
X188450000Y-106310000D01*
X190950000Y-106310000D01*
G37*
X190950000Y-106310000D02*
X190950000Y-104510000D01*
X188450000Y-104510000D01*
X188403000Y-104511000D01*
X188356000Y-104515000D01*
X188309000Y-104521000D01*
X188263000Y-104530000D01*
X188217000Y-104541000D01*
X188172000Y-104554000D01*
X188127000Y-104570000D01*
X188084000Y-104588000D01*
X188041000Y-104608000D01*
X188000000Y-104631000D01*
X187960000Y-104655000D01*
X187921000Y-104682000D01*
X187884000Y-104711000D01*
X187848000Y-104741000D01*
X187814000Y-104774000D01*
X187781000Y-104808000D01*
X187751000Y-104844000D01*
X187722000Y-104881000D01*
X187695000Y-104920000D01*
X187671000Y-104960000D01*
X187648000Y-105001000D01*
X187628000Y-105044000D01*
X187610000Y-105087000D01*
X187594000Y-105132000D01*
X187581000Y-105177000D01*
X187570000Y-105223000D01*
X187561000Y-105269000D01*
X187555000Y-105316000D01*
X187551000Y-105363000D01*
X187550000Y-105410000D01*
X187551000Y-105457000D01*
X187555000Y-105504000D01*
X187561000Y-105551000D01*
X187570000Y-105597000D01*
X187581000Y-105643000D01*
X187594000Y-105688000D01*
X187610000Y-105733000D01*
X187628000Y-105776000D01*
X187648000Y-105819000D01*
X187671000Y-105860000D01*
X187695000Y-105900000D01*
X187722000Y-105939000D01*
X187751000Y-105976000D01*
X187781000Y-106012000D01*
X187814000Y-106046000D01*
X187848000Y-106079000D01*
X187884000Y-106109000D01*
X187921000Y-106138000D01*
X187960000Y-106165000D01*
X188000000Y-106189000D01*
X188041000Y-106212000D01*
X188084000Y-106232000D01*
X188127000Y-106250000D01*
X188172000Y-106266000D01*
X188217000Y-106279000D01*
X188263000Y-106290000D01*
X188309000Y-106299000D01*
X188356000Y-106305000D01*
X188403000Y-106309000D01*
X188450000Y-106310000D01*
X190950000Y-106310000D01*
G36*
X190950000Y-103770000D02*
G01*
X190950000Y-101970000D01*
X188450000Y-101970000D01*
X188403000Y-101971000D01*
X188356000Y-101975000D01*
X188309000Y-101981000D01*
X188263000Y-101990000D01*
X188217000Y-102001000D01*
X188172000Y-102014000D01*
X188127000Y-102030000D01*
X188084000Y-102048000D01*
X188041000Y-102068000D01*
X188000000Y-102091000D01*
X187960000Y-102115000D01*
X187921000Y-102142000D01*
X187884000Y-102171000D01*
X187848000Y-102201000D01*
X187814000Y-102234000D01*
X187781000Y-102268000D01*
X187751000Y-102304000D01*
X187722000Y-102341000D01*
X187695000Y-102380000D01*
X187671000Y-102420000D01*
X187648000Y-102461000D01*
X187628000Y-102504000D01*
X187610000Y-102547000D01*
X187594000Y-102592000D01*
X187581000Y-102637000D01*
X187570000Y-102683000D01*
X187561000Y-102729000D01*
X187555000Y-102776000D01*
X187551000Y-102823000D01*
X187550000Y-102870000D01*
X187551000Y-102917000D01*
X187555000Y-102964000D01*
X187561000Y-103011000D01*
X187570000Y-103057000D01*
X187581000Y-103103000D01*
X187594000Y-103148000D01*
X187610000Y-103193000D01*
X187628000Y-103236000D01*
X187648000Y-103279000D01*
X187671000Y-103320000D01*
X187695000Y-103360000D01*
X187722000Y-103399000D01*
X187751000Y-103436000D01*
X187781000Y-103472000D01*
X187814000Y-103506000D01*
X187848000Y-103539000D01*
X187884000Y-103569000D01*
X187921000Y-103598000D01*
X187960000Y-103625000D01*
X188000000Y-103649000D01*
X188041000Y-103672000D01*
X188084000Y-103692000D01*
X188127000Y-103710000D01*
X188172000Y-103726000D01*
X188217000Y-103739000D01*
X188263000Y-103750000D01*
X188309000Y-103759000D01*
X188356000Y-103765000D01*
X188403000Y-103769000D01*
X188450000Y-103770000D01*
X190950000Y-103770000D01*
G37*
X190950000Y-103770000D02*
X190950000Y-101970000D01*
X188450000Y-101970000D01*
X188403000Y-101971000D01*
X188356000Y-101975000D01*
X188309000Y-101981000D01*
X188263000Y-101990000D01*
X188217000Y-102001000D01*
X188172000Y-102014000D01*
X188127000Y-102030000D01*
X188084000Y-102048000D01*
X188041000Y-102068000D01*
X188000000Y-102091000D01*
X187960000Y-102115000D01*
X187921000Y-102142000D01*
X187884000Y-102171000D01*
X187848000Y-102201000D01*
X187814000Y-102234000D01*
X187781000Y-102268000D01*
X187751000Y-102304000D01*
X187722000Y-102341000D01*
X187695000Y-102380000D01*
X187671000Y-102420000D01*
X187648000Y-102461000D01*
X187628000Y-102504000D01*
X187610000Y-102547000D01*
X187594000Y-102592000D01*
X187581000Y-102637000D01*
X187570000Y-102683000D01*
X187561000Y-102729000D01*
X187555000Y-102776000D01*
X187551000Y-102823000D01*
X187550000Y-102870000D01*
X187551000Y-102917000D01*
X187555000Y-102964000D01*
X187561000Y-103011000D01*
X187570000Y-103057000D01*
X187581000Y-103103000D01*
X187594000Y-103148000D01*
X187610000Y-103193000D01*
X187628000Y-103236000D01*
X187648000Y-103279000D01*
X187671000Y-103320000D01*
X187695000Y-103360000D01*
X187722000Y-103399000D01*
X187751000Y-103436000D01*
X187781000Y-103472000D01*
X187814000Y-103506000D01*
X187848000Y-103539000D01*
X187884000Y-103569000D01*
X187921000Y-103598000D01*
X187960000Y-103625000D01*
X188000000Y-103649000D01*
X188041000Y-103672000D01*
X188084000Y-103692000D01*
X188127000Y-103710000D01*
X188172000Y-103726000D01*
X188217000Y-103739000D01*
X188263000Y-103750000D01*
X188309000Y-103759000D01*
X188356000Y-103765000D01*
X188403000Y-103769000D01*
X188450000Y-103770000D01*
X190950000Y-103770000D01*
G36*
X190950000Y-98690000D02*
G01*
X190950000Y-96890000D01*
X188450000Y-96890000D01*
X188403000Y-96891000D01*
X188356000Y-96895000D01*
X188309000Y-96901000D01*
X188263000Y-96910000D01*
X188217000Y-96921000D01*
X188172000Y-96934000D01*
X188127000Y-96950000D01*
X188084000Y-96968000D01*
X188041000Y-96988000D01*
X188000000Y-97011000D01*
X187960000Y-97035000D01*
X187921000Y-97062000D01*
X187884000Y-97091000D01*
X187848000Y-97121000D01*
X187814000Y-97154000D01*
X187781000Y-97188000D01*
X187751000Y-97224000D01*
X187722000Y-97261000D01*
X187695000Y-97300000D01*
X187671000Y-97340000D01*
X187648000Y-97381000D01*
X187628000Y-97424000D01*
X187610000Y-97467000D01*
X187594000Y-97512000D01*
X187581000Y-97557000D01*
X187570000Y-97603000D01*
X187561000Y-97649000D01*
X187555000Y-97696000D01*
X187551000Y-97743000D01*
X187550000Y-97790000D01*
X187551000Y-97837000D01*
X187555000Y-97884000D01*
X187561000Y-97931000D01*
X187570000Y-97977000D01*
X187581000Y-98023000D01*
X187594000Y-98068000D01*
X187610000Y-98113000D01*
X187628000Y-98156000D01*
X187648000Y-98199000D01*
X187671000Y-98240000D01*
X187695000Y-98280000D01*
X187722000Y-98319000D01*
X187751000Y-98356000D01*
X187781000Y-98392000D01*
X187814000Y-98426000D01*
X187848000Y-98459000D01*
X187884000Y-98489000D01*
X187921000Y-98518000D01*
X187960000Y-98545000D01*
X188000000Y-98569000D01*
X188041000Y-98592000D01*
X188084000Y-98612000D01*
X188127000Y-98630000D01*
X188172000Y-98646000D01*
X188217000Y-98659000D01*
X188263000Y-98670000D01*
X188309000Y-98679000D01*
X188356000Y-98685000D01*
X188403000Y-98689000D01*
X188450000Y-98690000D01*
X190950000Y-98690000D01*
G37*
X190950000Y-98690000D02*
X190950000Y-96890000D01*
X188450000Y-96890000D01*
X188403000Y-96891000D01*
X188356000Y-96895000D01*
X188309000Y-96901000D01*
X188263000Y-96910000D01*
X188217000Y-96921000D01*
X188172000Y-96934000D01*
X188127000Y-96950000D01*
X188084000Y-96968000D01*
X188041000Y-96988000D01*
X188000000Y-97011000D01*
X187960000Y-97035000D01*
X187921000Y-97062000D01*
X187884000Y-97091000D01*
X187848000Y-97121000D01*
X187814000Y-97154000D01*
X187781000Y-97188000D01*
X187751000Y-97224000D01*
X187722000Y-97261000D01*
X187695000Y-97300000D01*
X187671000Y-97340000D01*
X187648000Y-97381000D01*
X187628000Y-97424000D01*
X187610000Y-97467000D01*
X187594000Y-97512000D01*
X187581000Y-97557000D01*
X187570000Y-97603000D01*
X187561000Y-97649000D01*
X187555000Y-97696000D01*
X187551000Y-97743000D01*
X187550000Y-97790000D01*
X187551000Y-97837000D01*
X187555000Y-97884000D01*
X187561000Y-97931000D01*
X187570000Y-97977000D01*
X187581000Y-98023000D01*
X187594000Y-98068000D01*
X187610000Y-98113000D01*
X187628000Y-98156000D01*
X187648000Y-98199000D01*
X187671000Y-98240000D01*
X187695000Y-98280000D01*
X187722000Y-98319000D01*
X187751000Y-98356000D01*
X187781000Y-98392000D01*
X187814000Y-98426000D01*
X187848000Y-98459000D01*
X187884000Y-98489000D01*
X187921000Y-98518000D01*
X187960000Y-98545000D01*
X188000000Y-98569000D01*
X188041000Y-98592000D01*
X188084000Y-98612000D01*
X188127000Y-98630000D01*
X188172000Y-98646000D01*
X188217000Y-98659000D01*
X188263000Y-98670000D01*
X188309000Y-98679000D01*
X188356000Y-98685000D01*
X188403000Y-98689000D01*
X188450000Y-98690000D01*
X190950000Y-98690000D01*
G36*
X190950000Y-96150000D02*
G01*
X190950000Y-94350000D01*
X188450000Y-94350000D01*
X188403000Y-94351000D01*
X188356000Y-94355000D01*
X188309000Y-94361000D01*
X188263000Y-94370000D01*
X188217000Y-94381000D01*
X188172000Y-94394000D01*
X188127000Y-94410000D01*
X188084000Y-94428000D01*
X188041000Y-94448000D01*
X188000000Y-94471000D01*
X187960000Y-94495000D01*
X187921000Y-94522000D01*
X187884000Y-94551000D01*
X187848000Y-94581000D01*
X187814000Y-94614000D01*
X187781000Y-94648000D01*
X187751000Y-94684000D01*
X187722000Y-94721000D01*
X187695000Y-94760000D01*
X187671000Y-94800000D01*
X187648000Y-94841000D01*
X187628000Y-94884000D01*
X187610000Y-94927000D01*
X187594000Y-94972000D01*
X187581000Y-95017000D01*
X187570000Y-95063000D01*
X187561000Y-95109000D01*
X187555000Y-95156000D01*
X187551000Y-95203000D01*
X187550000Y-95250000D01*
X187551000Y-95297000D01*
X187555000Y-95344000D01*
X187561000Y-95391000D01*
X187570000Y-95437000D01*
X187581000Y-95483000D01*
X187594000Y-95528000D01*
X187610000Y-95573000D01*
X187628000Y-95616000D01*
X187648000Y-95659000D01*
X187671000Y-95700000D01*
X187695000Y-95740000D01*
X187722000Y-95779000D01*
X187751000Y-95816000D01*
X187781000Y-95852000D01*
X187814000Y-95886000D01*
X187848000Y-95919000D01*
X187884000Y-95949000D01*
X187921000Y-95978000D01*
X187960000Y-96005000D01*
X188000000Y-96029000D01*
X188041000Y-96052000D01*
X188084000Y-96072000D01*
X188127000Y-96090000D01*
X188172000Y-96106000D01*
X188217000Y-96119000D01*
X188263000Y-96130000D01*
X188309000Y-96139000D01*
X188356000Y-96145000D01*
X188403000Y-96149000D01*
X188450000Y-96150000D01*
X190950000Y-96150000D01*
G37*
X190950000Y-96150000D02*
X190950000Y-94350000D01*
X188450000Y-94350000D01*
X188403000Y-94351000D01*
X188356000Y-94355000D01*
X188309000Y-94361000D01*
X188263000Y-94370000D01*
X188217000Y-94381000D01*
X188172000Y-94394000D01*
X188127000Y-94410000D01*
X188084000Y-94428000D01*
X188041000Y-94448000D01*
X188000000Y-94471000D01*
X187960000Y-94495000D01*
X187921000Y-94522000D01*
X187884000Y-94551000D01*
X187848000Y-94581000D01*
X187814000Y-94614000D01*
X187781000Y-94648000D01*
X187751000Y-94684000D01*
X187722000Y-94721000D01*
X187695000Y-94760000D01*
X187671000Y-94800000D01*
X187648000Y-94841000D01*
X187628000Y-94884000D01*
X187610000Y-94927000D01*
X187594000Y-94972000D01*
X187581000Y-95017000D01*
X187570000Y-95063000D01*
X187561000Y-95109000D01*
X187555000Y-95156000D01*
X187551000Y-95203000D01*
X187550000Y-95250000D01*
X187551000Y-95297000D01*
X187555000Y-95344000D01*
X187561000Y-95391000D01*
X187570000Y-95437000D01*
X187581000Y-95483000D01*
X187594000Y-95528000D01*
X187610000Y-95573000D01*
X187628000Y-95616000D01*
X187648000Y-95659000D01*
X187671000Y-95700000D01*
X187695000Y-95740000D01*
X187722000Y-95779000D01*
X187751000Y-95816000D01*
X187781000Y-95852000D01*
X187814000Y-95886000D01*
X187848000Y-95919000D01*
X187884000Y-95949000D01*
X187921000Y-95978000D01*
X187960000Y-96005000D01*
X188000000Y-96029000D01*
X188041000Y-96052000D01*
X188084000Y-96072000D01*
X188127000Y-96090000D01*
X188172000Y-96106000D01*
X188217000Y-96119000D01*
X188263000Y-96130000D01*
X188309000Y-96139000D01*
X188356000Y-96145000D01*
X188403000Y-96149000D01*
X188450000Y-96150000D01*
X190950000Y-96150000D01*
G36*
X190950000Y-93610000D02*
G01*
X190950000Y-91810000D01*
X188450000Y-91810000D01*
X188403000Y-91811000D01*
X188356000Y-91815000D01*
X188309000Y-91821000D01*
X188263000Y-91830000D01*
X188217000Y-91841000D01*
X188172000Y-91854000D01*
X188127000Y-91870000D01*
X188084000Y-91888000D01*
X188041000Y-91908000D01*
X188000000Y-91931000D01*
X187960000Y-91955000D01*
X187921000Y-91982000D01*
X187884000Y-92011000D01*
X187848000Y-92041000D01*
X187814000Y-92074000D01*
X187781000Y-92108000D01*
X187751000Y-92144000D01*
X187722000Y-92181000D01*
X187695000Y-92220000D01*
X187671000Y-92260000D01*
X187648000Y-92301000D01*
X187628000Y-92344000D01*
X187610000Y-92387000D01*
X187594000Y-92432000D01*
X187581000Y-92477000D01*
X187570000Y-92523000D01*
X187561000Y-92569000D01*
X187555000Y-92616000D01*
X187551000Y-92663000D01*
X187550000Y-92710000D01*
X187551000Y-92757000D01*
X187555000Y-92804000D01*
X187561000Y-92851000D01*
X187570000Y-92897000D01*
X187581000Y-92943000D01*
X187594000Y-92988000D01*
X187610000Y-93033000D01*
X187628000Y-93076000D01*
X187648000Y-93119000D01*
X187671000Y-93160000D01*
X187695000Y-93200000D01*
X187722000Y-93239000D01*
X187751000Y-93276000D01*
X187781000Y-93312000D01*
X187814000Y-93346000D01*
X187848000Y-93379000D01*
X187884000Y-93409000D01*
X187921000Y-93438000D01*
X187960000Y-93465000D01*
X188000000Y-93489000D01*
X188041000Y-93512000D01*
X188084000Y-93532000D01*
X188127000Y-93550000D01*
X188172000Y-93566000D01*
X188217000Y-93579000D01*
X188263000Y-93590000D01*
X188309000Y-93599000D01*
X188356000Y-93605000D01*
X188403000Y-93609000D01*
X188450000Y-93610000D01*
X190950000Y-93610000D01*
G37*
X190950000Y-93610000D02*
X190950000Y-91810000D01*
X188450000Y-91810000D01*
X188403000Y-91811000D01*
X188356000Y-91815000D01*
X188309000Y-91821000D01*
X188263000Y-91830000D01*
X188217000Y-91841000D01*
X188172000Y-91854000D01*
X188127000Y-91870000D01*
X188084000Y-91888000D01*
X188041000Y-91908000D01*
X188000000Y-91931000D01*
X187960000Y-91955000D01*
X187921000Y-91982000D01*
X187884000Y-92011000D01*
X187848000Y-92041000D01*
X187814000Y-92074000D01*
X187781000Y-92108000D01*
X187751000Y-92144000D01*
X187722000Y-92181000D01*
X187695000Y-92220000D01*
X187671000Y-92260000D01*
X187648000Y-92301000D01*
X187628000Y-92344000D01*
X187610000Y-92387000D01*
X187594000Y-92432000D01*
X187581000Y-92477000D01*
X187570000Y-92523000D01*
X187561000Y-92569000D01*
X187555000Y-92616000D01*
X187551000Y-92663000D01*
X187550000Y-92710000D01*
X187551000Y-92757000D01*
X187555000Y-92804000D01*
X187561000Y-92851000D01*
X187570000Y-92897000D01*
X187581000Y-92943000D01*
X187594000Y-92988000D01*
X187610000Y-93033000D01*
X187628000Y-93076000D01*
X187648000Y-93119000D01*
X187671000Y-93160000D01*
X187695000Y-93200000D01*
X187722000Y-93239000D01*
X187751000Y-93276000D01*
X187781000Y-93312000D01*
X187814000Y-93346000D01*
X187848000Y-93379000D01*
X187884000Y-93409000D01*
X187921000Y-93438000D01*
X187960000Y-93465000D01*
X188000000Y-93489000D01*
X188041000Y-93512000D01*
X188084000Y-93532000D01*
X188127000Y-93550000D01*
X188172000Y-93566000D01*
X188217000Y-93579000D01*
X188263000Y-93590000D01*
X188309000Y-93599000D01*
X188356000Y-93605000D01*
X188403000Y-93609000D01*
X188450000Y-93610000D01*
X190950000Y-93610000D01*
G36*
X190950000Y-91070000D02*
G01*
X190950000Y-89270000D01*
X188450000Y-89270000D01*
X188403000Y-89271000D01*
X188356000Y-89275000D01*
X188309000Y-89281000D01*
X188263000Y-89290000D01*
X188217000Y-89301000D01*
X188172000Y-89314000D01*
X188127000Y-89330000D01*
X188084000Y-89348000D01*
X188041000Y-89368000D01*
X188000000Y-89391000D01*
X187960000Y-89415000D01*
X187921000Y-89442000D01*
X187884000Y-89471000D01*
X187848000Y-89501000D01*
X187814000Y-89534000D01*
X187781000Y-89568000D01*
X187751000Y-89604000D01*
X187722000Y-89641000D01*
X187695000Y-89680000D01*
X187671000Y-89720000D01*
X187648000Y-89761000D01*
X187628000Y-89804000D01*
X187610000Y-89847000D01*
X187594000Y-89892000D01*
X187581000Y-89937000D01*
X187570000Y-89983000D01*
X187561000Y-90029000D01*
X187555000Y-90076000D01*
X187551000Y-90123000D01*
X187550000Y-90170000D01*
X187551000Y-90217000D01*
X187555000Y-90264000D01*
X187561000Y-90311000D01*
X187570000Y-90357000D01*
X187581000Y-90403000D01*
X187594000Y-90448000D01*
X187610000Y-90493000D01*
X187628000Y-90536000D01*
X187648000Y-90579000D01*
X187671000Y-90620000D01*
X187695000Y-90660000D01*
X187722000Y-90699000D01*
X187751000Y-90736000D01*
X187781000Y-90772000D01*
X187814000Y-90806000D01*
X187848000Y-90839000D01*
X187884000Y-90869000D01*
X187921000Y-90898000D01*
X187960000Y-90925000D01*
X188000000Y-90949000D01*
X188041000Y-90972000D01*
X188084000Y-90992000D01*
X188127000Y-91010000D01*
X188172000Y-91026000D01*
X188217000Y-91039000D01*
X188263000Y-91050000D01*
X188309000Y-91059000D01*
X188356000Y-91065000D01*
X188403000Y-91069000D01*
X188450000Y-91070000D01*
X190950000Y-91070000D01*
G37*
X190950000Y-91070000D02*
X190950000Y-89270000D01*
X188450000Y-89270000D01*
X188403000Y-89271000D01*
X188356000Y-89275000D01*
X188309000Y-89281000D01*
X188263000Y-89290000D01*
X188217000Y-89301000D01*
X188172000Y-89314000D01*
X188127000Y-89330000D01*
X188084000Y-89348000D01*
X188041000Y-89368000D01*
X188000000Y-89391000D01*
X187960000Y-89415000D01*
X187921000Y-89442000D01*
X187884000Y-89471000D01*
X187848000Y-89501000D01*
X187814000Y-89534000D01*
X187781000Y-89568000D01*
X187751000Y-89604000D01*
X187722000Y-89641000D01*
X187695000Y-89680000D01*
X187671000Y-89720000D01*
X187648000Y-89761000D01*
X187628000Y-89804000D01*
X187610000Y-89847000D01*
X187594000Y-89892000D01*
X187581000Y-89937000D01*
X187570000Y-89983000D01*
X187561000Y-90029000D01*
X187555000Y-90076000D01*
X187551000Y-90123000D01*
X187550000Y-90170000D01*
X187551000Y-90217000D01*
X187555000Y-90264000D01*
X187561000Y-90311000D01*
X187570000Y-90357000D01*
X187581000Y-90403000D01*
X187594000Y-90448000D01*
X187610000Y-90493000D01*
X187628000Y-90536000D01*
X187648000Y-90579000D01*
X187671000Y-90620000D01*
X187695000Y-90660000D01*
X187722000Y-90699000D01*
X187751000Y-90736000D01*
X187781000Y-90772000D01*
X187814000Y-90806000D01*
X187848000Y-90839000D01*
X187884000Y-90869000D01*
X187921000Y-90898000D01*
X187960000Y-90925000D01*
X188000000Y-90949000D01*
X188041000Y-90972000D01*
X188084000Y-90992000D01*
X188127000Y-91010000D01*
X188172000Y-91026000D01*
X188217000Y-91039000D01*
X188263000Y-91050000D01*
X188309000Y-91059000D01*
X188356000Y-91065000D01*
X188403000Y-91069000D01*
X188450000Y-91070000D01*
X190950000Y-91070000D01*
G36*
X190950000Y-85990000D02*
G01*
X190950000Y-84190000D01*
X188450000Y-84190000D01*
X188403000Y-84191000D01*
X188356000Y-84195000D01*
X188309000Y-84201000D01*
X188263000Y-84210000D01*
X188217000Y-84221000D01*
X188172000Y-84234000D01*
X188127000Y-84250000D01*
X188084000Y-84268000D01*
X188041000Y-84288000D01*
X188000000Y-84311000D01*
X187960000Y-84335000D01*
X187921000Y-84362000D01*
X187884000Y-84391000D01*
X187848000Y-84421000D01*
X187814000Y-84454000D01*
X187781000Y-84488000D01*
X187751000Y-84524000D01*
X187722000Y-84561000D01*
X187695000Y-84600000D01*
X187671000Y-84640000D01*
X187648000Y-84681000D01*
X187628000Y-84724000D01*
X187610000Y-84767000D01*
X187594000Y-84812000D01*
X187581000Y-84857000D01*
X187570000Y-84903000D01*
X187561000Y-84949000D01*
X187555000Y-84996000D01*
X187551000Y-85043000D01*
X187550000Y-85090000D01*
X187551000Y-85137000D01*
X187555000Y-85184000D01*
X187561000Y-85231000D01*
X187570000Y-85277000D01*
X187581000Y-85323000D01*
X187594000Y-85368000D01*
X187610000Y-85413000D01*
X187628000Y-85456000D01*
X187648000Y-85499000D01*
X187671000Y-85540000D01*
X187695000Y-85580000D01*
X187722000Y-85619000D01*
X187751000Y-85656000D01*
X187781000Y-85692000D01*
X187814000Y-85726000D01*
X187848000Y-85759000D01*
X187884000Y-85789000D01*
X187921000Y-85818000D01*
X187960000Y-85845000D01*
X188000000Y-85869000D01*
X188041000Y-85892000D01*
X188084000Y-85912000D01*
X188127000Y-85930000D01*
X188172000Y-85946000D01*
X188217000Y-85959000D01*
X188263000Y-85970000D01*
X188309000Y-85979000D01*
X188356000Y-85985000D01*
X188403000Y-85989000D01*
X188450000Y-85990000D01*
X190950000Y-85990000D01*
G37*
X190950000Y-85990000D02*
X190950000Y-84190000D01*
X188450000Y-84190000D01*
X188403000Y-84191000D01*
X188356000Y-84195000D01*
X188309000Y-84201000D01*
X188263000Y-84210000D01*
X188217000Y-84221000D01*
X188172000Y-84234000D01*
X188127000Y-84250000D01*
X188084000Y-84268000D01*
X188041000Y-84288000D01*
X188000000Y-84311000D01*
X187960000Y-84335000D01*
X187921000Y-84362000D01*
X187884000Y-84391000D01*
X187848000Y-84421000D01*
X187814000Y-84454000D01*
X187781000Y-84488000D01*
X187751000Y-84524000D01*
X187722000Y-84561000D01*
X187695000Y-84600000D01*
X187671000Y-84640000D01*
X187648000Y-84681000D01*
X187628000Y-84724000D01*
X187610000Y-84767000D01*
X187594000Y-84812000D01*
X187581000Y-84857000D01*
X187570000Y-84903000D01*
X187561000Y-84949000D01*
X187555000Y-84996000D01*
X187551000Y-85043000D01*
X187550000Y-85090000D01*
X187551000Y-85137000D01*
X187555000Y-85184000D01*
X187561000Y-85231000D01*
X187570000Y-85277000D01*
X187581000Y-85323000D01*
X187594000Y-85368000D01*
X187610000Y-85413000D01*
X187628000Y-85456000D01*
X187648000Y-85499000D01*
X187671000Y-85540000D01*
X187695000Y-85580000D01*
X187722000Y-85619000D01*
X187751000Y-85656000D01*
X187781000Y-85692000D01*
X187814000Y-85726000D01*
X187848000Y-85759000D01*
X187884000Y-85789000D01*
X187921000Y-85818000D01*
X187960000Y-85845000D01*
X188000000Y-85869000D01*
X188041000Y-85892000D01*
X188084000Y-85912000D01*
X188127000Y-85930000D01*
X188172000Y-85946000D01*
X188217000Y-85959000D01*
X188263000Y-85970000D01*
X188309000Y-85979000D01*
X188356000Y-85985000D01*
X188403000Y-85989000D01*
X188450000Y-85990000D01*
X190950000Y-85990000D01*
G36*
X190950000Y-83450000D02*
G01*
X190950000Y-81650000D01*
X188450000Y-81650000D01*
X188403000Y-81651000D01*
X188356000Y-81655000D01*
X188309000Y-81661000D01*
X188263000Y-81670000D01*
X188217000Y-81681000D01*
X188172000Y-81694000D01*
X188127000Y-81710000D01*
X188084000Y-81728000D01*
X188041000Y-81748000D01*
X188000000Y-81771000D01*
X187960000Y-81795000D01*
X187921000Y-81822000D01*
X187884000Y-81851000D01*
X187848000Y-81881000D01*
X187814000Y-81914000D01*
X187781000Y-81948000D01*
X187751000Y-81984000D01*
X187722000Y-82021000D01*
X187695000Y-82060000D01*
X187671000Y-82100000D01*
X187648000Y-82141000D01*
X187628000Y-82184000D01*
X187610000Y-82227000D01*
X187594000Y-82272000D01*
X187581000Y-82317000D01*
X187570000Y-82363000D01*
X187561000Y-82409000D01*
X187555000Y-82456000D01*
X187551000Y-82503000D01*
X187550000Y-82550000D01*
X187551000Y-82597000D01*
X187555000Y-82644000D01*
X187561000Y-82691000D01*
X187570000Y-82737000D01*
X187581000Y-82783000D01*
X187594000Y-82828000D01*
X187610000Y-82873000D01*
X187628000Y-82916000D01*
X187648000Y-82959000D01*
X187671000Y-83000000D01*
X187695000Y-83040000D01*
X187722000Y-83079000D01*
X187751000Y-83116000D01*
X187781000Y-83152000D01*
X187814000Y-83186000D01*
X187848000Y-83219000D01*
X187884000Y-83249000D01*
X187921000Y-83278000D01*
X187960000Y-83305000D01*
X188000000Y-83329000D01*
X188041000Y-83352000D01*
X188084000Y-83372000D01*
X188127000Y-83390000D01*
X188172000Y-83406000D01*
X188217000Y-83419000D01*
X188263000Y-83430000D01*
X188309000Y-83439000D01*
X188356000Y-83445000D01*
X188403000Y-83449000D01*
X188450000Y-83450000D01*
X190950000Y-83450000D01*
G37*
X190950000Y-83450000D02*
X190950000Y-81650000D01*
X188450000Y-81650000D01*
X188403000Y-81651000D01*
X188356000Y-81655000D01*
X188309000Y-81661000D01*
X188263000Y-81670000D01*
X188217000Y-81681000D01*
X188172000Y-81694000D01*
X188127000Y-81710000D01*
X188084000Y-81728000D01*
X188041000Y-81748000D01*
X188000000Y-81771000D01*
X187960000Y-81795000D01*
X187921000Y-81822000D01*
X187884000Y-81851000D01*
X187848000Y-81881000D01*
X187814000Y-81914000D01*
X187781000Y-81948000D01*
X187751000Y-81984000D01*
X187722000Y-82021000D01*
X187695000Y-82060000D01*
X187671000Y-82100000D01*
X187648000Y-82141000D01*
X187628000Y-82184000D01*
X187610000Y-82227000D01*
X187594000Y-82272000D01*
X187581000Y-82317000D01*
X187570000Y-82363000D01*
X187561000Y-82409000D01*
X187555000Y-82456000D01*
X187551000Y-82503000D01*
X187550000Y-82550000D01*
X187551000Y-82597000D01*
X187555000Y-82644000D01*
X187561000Y-82691000D01*
X187570000Y-82737000D01*
X187581000Y-82783000D01*
X187594000Y-82828000D01*
X187610000Y-82873000D01*
X187628000Y-82916000D01*
X187648000Y-82959000D01*
X187671000Y-83000000D01*
X187695000Y-83040000D01*
X187722000Y-83079000D01*
X187751000Y-83116000D01*
X187781000Y-83152000D01*
X187814000Y-83186000D01*
X187848000Y-83219000D01*
X187884000Y-83249000D01*
X187921000Y-83278000D01*
X187960000Y-83305000D01*
X188000000Y-83329000D01*
X188041000Y-83352000D01*
X188084000Y-83372000D01*
X188127000Y-83390000D01*
X188172000Y-83406000D01*
X188217000Y-83419000D01*
X188263000Y-83430000D01*
X188309000Y-83439000D01*
X188356000Y-83445000D01*
X188403000Y-83449000D01*
X188450000Y-83450000D01*
X190950000Y-83450000D01*
G36*
X190950000Y-80910000D02*
G01*
X190950000Y-79110000D01*
X188450000Y-79110000D01*
X188403000Y-79111000D01*
X188356000Y-79115000D01*
X188309000Y-79121000D01*
X188263000Y-79130000D01*
X188217000Y-79141000D01*
X188172000Y-79154000D01*
X188127000Y-79170000D01*
X188084000Y-79188000D01*
X188041000Y-79208000D01*
X188000000Y-79231000D01*
X187960000Y-79255000D01*
X187921000Y-79282000D01*
X187884000Y-79311000D01*
X187848000Y-79341000D01*
X187814000Y-79374000D01*
X187781000Y-79408000D01*
X187751000Y-79444000D01*
X187722000Y-79481000D01*
X187695000Y-79520000D01*
X187671000Y-79560000D01*
X187648000Y-79601000D01*
X187628000Y-79644000D01*
X187610000Y-79687000D01*
X187594000Y-79732000D01*
X187581000Y-79777000D01*
X187570000Y-79823000D01*
X187561000Y-79869000D01*
X187555000Y-79916000D01*
X187551000Y-79963000D01*
X187550000Y-80010000D01*
X187551000Y-80057000D01*
X187555000Y-80104000D01*
X187561000Y-80151000D01*
X187570000Y-80197000D01*
X187581000Y-80243000D01*
X187594000Y-80288000D01*
X187610000Y-80333000D01*
X187628000Y-80376000D01*
X187648000Y-80419000D01*
X187671000Y-80460000D01*
X187695000Y-80500000D01*
X187722000Y-80539000D01*
X187751000Y-80576000D01*
X187781000Y-80612000D01*
X187814000Y-80646000D01*
X187848000Y-80679000D01*
X187884000Y-80709000D01*
X187921000Y-80738000D01*
X187960000Y-80765000D01*
X188000000Y-80789000D01*
X188041000Y-80812000D01*
X188084000Y-80832000D01*
X188127000Y-80850000D01*
X188172000Y-80866000D01*
X188217000Y-80879000D01*
X188263000Y-80890000D01*
X188309000Y-80899000D01*
X188356000Y-80905000D01*
X188403000Y-80909000D01*
X188450000Y-80910000D01*
X190950000Y-80910000D01*
G37*
X190950000Y-80910000D02*
X190950000Y-79110000D01*
X188450000Y-79110000D01*
X188403000Y-79111000D01*
X188356000Y-79115000D01*
X188309000Y-79121000D01*
X188263000Y-79130000D01*
X188217000Y-79141000D01*
X188172000Y-79154000D01*
X188127000Y-79170000D01*
X188084000Y-79188000D01*
X188041000Y-79208000D01*
X188000000Y-79231000D01*
X187960000Y-79255000D01*
X187921000Y-79282000D01*
X187884000Y-79311000D01*
X187848000Y-79341000D01*
X187814000Y-79374000D01*
X187781000Y-79408000D01*
X187751000Y-79444000D01*
X187722000Y-79481000D01*
X187695000Y-79520000D01*
X187671000Y-79560000D01*
X187648000Y-79601000D01*
X187628000Y-79644000D01*
X187610000Y-79687000D01*
X187594000Y-79732000D01*
X187581000Y-79777000D01*
X187570000Y-79823000D01*
X187561000Y-79869000D01*
X187555000Y-79916000D01*
X187551000Y-79963000D01*
X187550000Y-80010000D01*
X187551000Y-80057000D01*
X187555000Y-80104000D01*
X187561000Y-80151000D01*
X187570000Y-80197000D01*
X187581000Y-80243000D01*
X187594000Y-80288000D01*
X187610000Y-80333000D01*
X187628000Y-80376000D01*
X187648000Y-80419000D01*
X187671000Y-80460000D01*
X187695000Y-80500000D01*
X187722000Y-80539000D01*
X187751000Y-80576000D01*
X187781000Y-80612000D01*
X187814000Y-80646000D01*
X187848000Y-80679000D01*
X187884000Y-80709000D01*
X187921000Y-80738000D01*
X187960000Y-80765000D01*
X188000000Y-80789000D01*
X188041000Y-80812000D01*
X188084000Y-80832000D01*
X188127000Y-80850000D01*
X188172000Y-80866000D01*
X188217000Y-80879000D01*
X188263000Y-80890000D01*
X188309000Y-80899000D01*
X188356000Y-80905000D01*
X188403000Y-80909000D01*
X188450000Y-80910000D01*
X190950000Y-80910000D01*
G36*
X190950000Y-78370000D02*
G01*
X190950000Y-76570000D01*
X188450000Y-76570000D01*
X188403000Y-76571000D01*
X188356000Y-76575000D01*
X188309000Y-76581000D01*
X188263000Y-76590000D01*
X188217000Y-76601000D01*
X188172000Y-76614000D01*
X188127000Y-76630000D01*
X188084000Y-76648000D01*
X188041000Y-76668000D01*
X188000000Y-76691000D01*
X187960000Y-76715000D01*
X187921000Y-76742000D01*
X187884000Y-76771000D01*
X187848000Y-76801000D01*
X187814000Y-76834000D01*
X187781000Y-76868000D01*
X187751000Y-76904000D01*
X187722000Y-76941000D01*
X187695000Y-76980000D01*
X187671000Y-77020000D01*
X187648000Y-77061000D01*
X187628000Y-77104000D01*
X187610000Y-77147000D01*
X187594000Y-77192000D01*
X187581000Y-77237000D01*
X187570000Y-77283000D01*
X187561000Y-77329000D01*
X187555000Y-77376000D01*
X187551000Y-77423000D01*
X187550000Y-77470000D01*
X187551000Y-77517000D01*
X187555000Y-77564000D01*
X187561000Y-77611000D01*
X187570000Y-77657000D01*
X187581000Y-77703000D01*
X187594000Y-77748000D01*
X187610000Y-77793000D01*
X187628000Y-77836000D01*
X187648000Y-77879000D01*
X187671000Y-77920000D01*
X187695000Y-77960000D01*
X187722000Y-77999000D01*
X187751000Y-78036000D01*
X187781000Y-78072000D01*
X187814000Y-78106000D01*
X187848000Y-78139000D01*
X187884000Y-78169000D01*
X187921000Y-78198000D01*
X187960000Y-78225000D01*
X188000000Y-78249000D01*
X188041000Y-78272000D01*
X188084000Y-78292000D01*
X188127000Y-78310000D01*
X188172000Y-78326000D01*
X188217000Y-78339000D01*
X188263000Y-78350000D01*
X188309000Y-78359000D01*
X188356000Y-78365000D01*
X188403000Y-78369000D01*
X188450000Y-78370000D01*
X190950000Y-78370000D01*
G37*
X190950000Y-78370000D02*
X190950000Y-76570000D01*
X188450000Y-76570000D01*
X188403000Y-76571000D01*
X188356000Y-76575000D01*
X188309000Y-76581000D01*
X188263000Y-76590000D01*
X188217000Y-76601000D01*
X188172000Y-76614000D01*
X188127000Y-76630000D01*
X188084000Y-76648000D01*
X188041000Y-76668000D01*
X188000000Y-76691000D01*
X187960000Y-76715000D01*
X187921000Y-76742000D01*
X187884000Y-76771000D01*
X187848000Y-76801000D01*
X187814000Y-76834000D01*
X187781000Y-76868000D01*
X187751000Y-76904000D01*
X187722000Y-76941000D01*
X187695000Y-76980000D01*
X187671000Y-77020000D01*
X187648000Y-77061000D01*
X187628000Y-77104000D01*
X187610000Y-77147000D01*
X187594000Y-77192000D01*
X187581000Y-77237000D01*
X187570000Y-77283000D01*
X187561000Y-77329000D01*
X187555000Y-77376000D01*
X187551000Y-77423000D01*
X187550000Y-77470000D01*
X187551000Y-77517000D01*
X187555000Y-77564000D01*
X187561000Y-77611000D01*
X187570000Y-77657000D01*
X187581000Y-77703000D01*
X187594000Y-77748000D01*
X187610000Y-77793000D01*
X187628000Y-77836000D01*
X187648000Y-77879000D01*
X187671000Y-77920000D01*
X187695000Y-77960000D01*
X187722000Y-77999000D01*
X187751000Y-78036000D01*
X187781000Y-78072000D01*
X187814000Y-78106000D01*
X187848000Y-78139000D01*
X187884000Y-78169000D01*
X187921000Y-78198000D01*
X187960000Y-78225000D01*
X188000000Y-78249000D01*
X188041000Y-78272000D01*
X188084000Y-78292000D01*
X188127000Y-78310000D01*
X188172000Y-78326000D01*
X188217000Y-78339000D01*
X188263000Y-78350000D01*
X188309000Y-78359000D01*
X188356000Y-78365000D01*
X188403000Y-78369000D01*
X188450000Y-78370000D01*
X190950000Y-78370000D01*
G36*
X190950000Y-73290000D02*
G01*
X190950000Y-71490000D01*
X188450000Y-71490000D01*
X188403000Y-71491000D01*
X188356000Y-71495000D01*
X188309000Y-71501000D01*
X188263000Y-71510000D01*
X188217000Y-71521000D01*
X188172000Y-71534000D01*
X188127000Y-71550000D01*
X188084000Y-71568000D01*
X188041000Y-71588000D01*
X188000000Y-71611000D01*
X187960000Y-71635000D01*
X187921000Y-71662000D01*
X187884000Y-71691000D01*
X187848000Y-71721000D01*
X187814000Y-71754000D01*
X187781000Y-71788000D01*
X187751000Y-71824000D01*
X187722000Y-71861000D01*
X187695000Y-71900000D01*
X187671000Y-71940000D01*
X187648000Y-71981000D01*
X187628000Y-72024000D01*
X187610000Y-72067000D01*
X187594000Y-72112000D01*
X187581000Y-72157000D01*
X187570000Y-72203000D01*
X187561000Y-72249000D01*
X187555000Y-72296000D01*
X187551000Y-72343000D01*
X187550000Y-72390000D01*
X187551000Y-72437000D01*
X187555000Y-72484000D01*
X187561000Y-72531000D01*
X187570000Y-72577000D01*
X187581000Y-72623000D01*
X187594000Y-72668000D01*
X187610000Y-72713000D01*
X187628000Y-72756000D01*
X187648000Y-72799000D01*
X187671000Y-72840000D01*
X187695000Y-72880000D01*
X187722000Y-72919000D01*
X187751000Y-72956000D01*
X187781000Y-72992000D01*
X187814000Y-73026000D01*
X187848000Y-73059000D01*
X187884000Y-73089000D01*
X187921000Y-73118000D01*
X187960000Y-73145000D01*
X188000000Y-73169000D01*
X188041000Y-73192000D01*
X188084000Y-73212000D01*
X188127000Y-73230000D01*
X188172000Y-73246000D01*
X188217000Y-73259000D01*
X188263000Y-73270000D01*
X188309000Y-73279000D01*
X188356000Y-73285000D01*
X188403000Y-73289000D01*
X188450000Y-73290000D01*
X190950000Y-73290000D01*
G37*
X190950000Y-73290000D02*
X190950000Y-71490000D01*
X188450000Y-71490000D01*
X188403000Y-71491000D01*
X188356000Y-71495000D01*
X188309000Y-71501000D01*
X188263000Y-71510000D01*
X188217000Y-71521000D01*
X188172000Y-71534000D01*
X188127000Y-71550000D01*
X188084000Y-71568000D01*
X188041000Y-71588000D01*
X188000000Y-71611000D01*
X187960000Y-71635000D01*
X187921000Y-71662000D01*
X187884000Y-71691000D01*
X187848000Y-71721000D01*
X187814000Y-71754000D01*
X187781000Y-71788000D01*
X187751000Y-71824000D01*
X187722000Y-71861000D01*
X187695000Y-71900000D01*
X187671000Y-71940000D01*
X187648000Y-71981000D01*
X187628000Y-72024000D01*
X187610000Y-72067000D01*
X187594000Y-72112000D01*
X187581000Y-72157000D01*
X187570000Y-72203000D01*
X187561000Y-72249000D01*
X187555000Y-72296000D01*
X187551000Y-72343000D01*
X187550000Y-72390000D01*
X187551000Y-72437000D01*
X187555000Y-72484000D01*
X187561000Y-72531000D01*
X187570000Y-72577000D01*
X187581000Y-72623000D01*
X187594000Y-72668000D01*
X187610000Y-72713000D01*
X187628000Y-72756000D01*
X187648000Y-72799000D01*
X187671000Y-72840000D01*
X187695000Y-72880000D01*
X187722000Y-72919000D01*
X187751000Y-72956000D01*
X187781000Y-72992000D01*
X187814000Y-73026000D01*
X187848000Y-73059000D01*
X187884000Y-73089000D01*
X187921000Y-73118000D01*
X187960000Y-73145000D01*
X188000000Y-73169000D01*
X188041000Y-73192000D01*
X188084000Y-73212000D01*
X188127000Y-73230000D01*
X188172000Y-73246000D01*
X188217000Y-73259000D01*
X188263000Y-73270000D01*
X188309000Y-73279000D01*
X188356000Y-73285000D01*
X188403000Y-73289000D01*
X188450000Y-73290000D01*
X190950000Y-73290000D01*
G36*
X168170000Y-113930000D02*
G01*
X168170000Y-112130000D01*
X171270000Y-112130000D01*
X171286000Y-112130000D01*
X171301000Y-112132000D01*
X171317000Y-112134000D01*
X171332000Y-112137000D01*
X171348000Y-112140000D01*
X171363000Y-112145000D01*
X171378000Y-112150000D01*
X171392000Y-112156000D01*
X171406000Y-112163000D01*
X171420000Y-112170000D01*
X171433000Y-112178000D01*
X171446000Y-112187000D01*
X171459000Y-112197000D01*
X171471000Y-112207000D01*
X171482000Y-112218000D01*
X171493000Y-112229000D01*
X171503000Y-112241000D01*
X171513000Y-112254000D01*
X171522000Y-112267000D01*
X171530000Y-112280000D01*
X171537000Y-112294000D01*
X171544000Y-112308000D01*
X171550000Y-112322000D01*
X171555000Y-112337000D01*
X171560000Y-112352000D01*
X171563000Y-112368000D01*
X171566000Y-112383000D01*
X171568000Y-112399000D01*
X171570000Y-112414000D01*
X171570000Y-112430000D01*
X171570000Y-113630000D01*
X171570000Y-113646000D01*
X171568000Y-113661000D01*
X171566000Y-113677000D01*
X171563000Y-113692000D01*
X171560000Y-113708000D01*
X171555000Y-113723000D01*
X171550000Y-113738000D01*
X171544000Y-113752000D01*
X171537000Y-113766000D01*
X171530000Y-113780000D01*
X171522000Y-113793000D01*
X171513000Y-113806000D01*
X171503000Y-113819000D01*
X171493000Y-113831000D01*
X171482000Y-113842000D01*
X171471000Y-113853000D01*
X171459000Y-113863000D01*
X171446000Y-113873000D01*
X171433000Y-113882000D01*
X171420000Y-113890000D01*
X171406000Y-113897000D01*
X171392000Y-113904000D01*
X171378000Y-113910000D01*
X171363000Y-113915000D01*
X171348000Y-113920000D01*
X171332000Y-113923000D01*
X171317000Y-113926000D01*
X171301000Y-113928000D01*
X171286000Y-113930000D01*
X171270000Y-113930000D01*
X168170000Y-113930000D01*
G37*
X168170000Y-113930000D02*
X168170000Y-112130000D01*
X171270000Y-112130000D01*
X171286000Y-112130000D01*
X171301000Y-112132000D01*
X171317000Y-112134000D01*
X171332000Y-112137000D01*
X171348000Y-112140000D01*
X171363000Y-112145000D01*
X171378000Y-112150000D01*
X171392000Y-112156000D01*
X171406000Y-112163000D01*
X171420000Y-112170000D01*
X171433000Y-112178000D01*
X171446000Y-112187000D01*
X171459000Y-112197000D01*
X171471000Y-112207000D01*
X171482000Y-112218000D01*
X171493000Y-112229000D01*
X171503000Y-112241000D01*
X171513000Y-112254000D01*
X171522000Y-112267000D01*
X171530000Y-112280000D01*
X171537000Y-112294000D01*
X171544000Y-112308000D01*
X171550000Y-112322000D01*
X171555000Y-112337000D01*
X171560000Y-112352000D01*
X171563000Y-112368000D01*
X171566000Y-112383000D01*
X171568000Y-112399000D01*
X171570000Y-112414000D01*
X171570000Y-112430000D01*
X171570000Y-113630000D01*
X171570000Y-113646000D01*
X171568000Y-113661000D01*
X171566000Y-113677000D01*
X171563000Y-113692000D01*
X171560000Y-113708000D01*
X171555000Y-113723000D01*
X171550000Y-113738000D01*
X171544000Y-113752000D01*
X171537000Y-113766000D01*
X171530000Y-113780000D01*
X171522000Y-113793000D01*
X171513000Y-113806000D01*
X171503000Y-113819000D01*
X171493000Y-113831000D01*
X171482000Y-113842000D01*
X171471000Y-113853000D01*
X171459000Y-113863000D01*
X171446000Y-113873000D01*
X171433000Y-113882000D01*
X171420000Y-113890000D01*
X171406000Y-113897000D01*
X171392000Y-113904000D01*
X171378000Y-113910000D01*
X171363000Y-113915000D01*
X171348000Y-113920000D01*
X171332000Y-113923000D01*
X171317000Y-113926000D01*
X171301000Y-113928000D01*
X171286000Y-113930000D01*
X171270000Y-113930000D01*
X168170000Y-113930000D01*
G36*
X168170000Y-101230000D02*
G01*
X168170000Y-99430000D01*
X171270000Y-99430000D01*
X171286000Y-99430000D01*
X171301000Y-99432000D01*
X171317000Y-99434000D01*
X171332000Y-99437000D01*
X171348000Y-99440000D01*
X171363000Y-99445000D01*
X171378000Y-99450000D01*
X171392000Y-99456000D01*
X171406000Y-99463000D01*
X171420000Y-99470000D01*
X171433000Y-99478000D01*
X171446000Y-99487000D01*
X171459000Y-99497000D01*
X171471000Y-99507000D01*
X171482000Y-99518000D01*
X171493000Y-99529000D01*
X171503000Y-99541000D01*
X171513000Y-99554000D01*
X171522000Y-99567000D01*
X171530000Y-99580000D01*
X171537000Y-99594000D01*
X171544000Y-99608000D01*
X171550000Y-99622000D01*
X171555000Y-99637000D01*
X171560000Y-99652000D01*
X171563000Y-99668000D01*
X171566000Y-99683000D01*
X171568000Y-99699000D01*
X171570000Y-99714000D01*
X171570000Y-99730000D01*
X171570000Y-100930000D01*
X171570000Y-100946000D01*
X171568000Y-100961000D01*
X171566000Y-100977000D01*
X171563000Y-100992000D01*
X171560000Y-101008000D01*
X171555000Y-101023000D01*
X171550000Y-101038000D01*
X171544000Y-101052000D01*
X171537000Y-101066000D01*
X171530000Y-101080000D01*
X171522000Y-101093000D01*
X171513000Y-101106000D01*
X171503000Y-101119000D01*
X171493000Y-101131000D01*
X171482000Y-101142000D01*
X171471000Y-101153000D01*
X171459000Y-101163000D01*
X171446000Y-101173000D01*
X171433000Y-101182000D01*
X171420000Y-101190000D01*
X171406000Y-101197000D01*
X171392000Y-101204000D01*
X171378000Y-101210000D01*
X171363000Y-101215000D01*
X171348000Y-101220000D01*
X171332000Y-101223000D01*
X171317000Y-101226000D01*
X171301000Y-101228000D01*
X171286000Y-101230000D01*
X171270000Y-101230000D01*
X168170000Y-101230000D01*
G37*
X168170000Y-101230000D02*
X168170000Y-99430000D01*
X171270000Y-99430000D01*
X171286000Y-99430000D01*
X171301000Y-99432000D01*
X171317000Y-99434000D01*
X171332000Y-99437000D01*
X171348000Y-99440000D01*
X171363000Y-99445000D01*
X171378000Y-99450000D01*
X171392000Y-99456000D01*
X171406000Y-99463000D01*
X171420000Y-99470000D01*
X171433000Y-99478000D01*
X171446000Y-99487000D01*
X171459000Y-99497000D01*
X171471000Y-99507000D01*
X171482000Y-99518000D01*
X171493000Y-99529000D01*
X171503000Y-99541000D01*
X171513000Y-99554000D01*
X171522000Y-99567000D01*
X171530000Y-99580000D01*
X171537000Y-99594000D01*
X171544000Y-99608000D01*
X171550000Y-99622000D01*
X171555000Y-99637000D01*
X171560000Y-99652000D01*
X171563000Y-99668000D01*
X171566000Y-99683000D01*
X171568000Y-99699000D01*
X171570000Y-99714000D01*
X171570000Y-99730000D01*
X171570000Y-100930000D01*
X171570000Y-100946000D01*
X171568000Y-100961000D01*
X171566000Y-100977000D01*
X171563000Y-100992000D01*
X171560000Y-101008000D01*
X171555000Y-101023000D01*
X171550000Y-101038000D01*
X171544000Y-101052000D01*
X171537000Y-101066000D01*
X171530000Y-101080000D01*
X171522000Y-101093000D01*
X171513000Y-101106000D01*
X171503000Y-101119000D01*
X171493000Y-101131000D01*
X171482000Y-101142000D01*
X171471000Y-101153000D01*
X171459000Y-101163000D01*
X171446000Y-101173000D01*
X171433000Y-101182000D01*
X171420000Y-101190000D01*
X171406000Y-101197000D01*
X171392000Y-101204000D01*
X171378000Y-101210000D01*
X171363000Y-101215000D01*
X171348000Y-101220000D01*
X171332000Y-101223000D01*
X171317000Y-101226000D01*
X171301000Y-101228000D01*
X171286000Y-101230000D01*
X171270000Y-101230000D01*
X168170000Y-101230000D01*
G36*
X168170000Y-88530000D02*
G01*
X168170000Y-86730000D01*
X171270000Y-86730000D01*
X171286000Y-86730000D01*
X171301000Y-86732000D01*
X171317000Y-86734000D01*
X171332000Y-86737000D01*
X171348000Y-86740000D01*
X171363000Y-86745000D01*
X171378000Y-86750000D01*
X171392000Y-86756000D01*
X171406000Y-86763000D01*
X171420000Y-86770000D01*
X171433000Y-86778000D01*
X171446000Y-86787000D01*
X171459000Y-86797000D01*
X171471000Y-86807000D01*
X171482000Y-86818000D01*
X171493000Y-86829000D01*
X171503000Y-86841000D01*
X171513000Y-86854000D01*
X171522000Y-86867000D01*
X171530000Y-86880000D01*
X171537000Y-86894000D01*
X171544000Y-86908000D01*
X171550000Y-86922000D01*
X171555000Y-86937000D01*
X171560000Y-86952000D01*
X171563000Y-86968000D01*
X171566000Y-86983000D01*
X171568000Y-86999000D01*
X171570000Y-87014000D01*
X171570000Y-87030000D01*
X171570000Y-88230000D01*
X171570000Y-88246000D01*
X171568000Y-88261000D01*
X171566000Y-88277000D01*
X171563000Y-88292000D01*
X171560000Y-88308000D01*
X171555000Y-88323000D01*
X171550000Y-88338000D01*
X171544000Y-88352000D01*
X171537000Y-88366000D01*
X171530000Y-88380000D01*
X171522000Y-88393000D01*
X171513000Y-88406000D01*
X171503000Y-88419000D01*
X171493000Y-88431000D01*
X171482000Y-88442000D01*
X171471000Y-88453000D01*
X171459000Y-88463000D01*
X171446000Y-88473000D01*
X171433000Y-88482000D01*
X171420000Y-88490000D01*
X171406000Y-88497000D01*
X171392000Y-88504000D01*
X171378000Y-88510000D01*
X171363000Y-88515000D01*
X171348000Y-88520000D01*
X171332000Y-88523000D01*
X171317000Y-88526000D01*
X171301000Y-88528000D01*
X171286000Y-88530000D01*
X171270000Y-88530000D01*
X168170000Y-88530000D01*
G37*
X168170000Y-88530000D02*
X168170000Y-86730000D01*
X171270000Y-86730000D01*
X171286000Y-86730000D01*
X171301000Y-86732000D01*
X171317000Y-86734000D01*
X171332000Y-86737000D01*
X171348000Y-86740000D01*
X171363000Y-86745000D01*
X171378000Y-86750000D01*
X171392000Y-86756000D01*
X171406000Y-86763000D01*
X171420000Y-86770000D01*
X171433000Y-86778000D01*
X171446000Y-86787000D01*
X171459000Y-86797000D01*
X171471000Y-86807000D01*
X171482000Y-86818000D01*
X171493000Y-86829000D01*
X171503000Y-86841000D01*
X171513000Y-86854000D01*
X171522000Y-86867000D01*
X171530000Y-86880000D01*
X171537000Y-86894000D01*
X171544000Y-86908000D01*
X171550000Y-86922000D01*
X171555000Y-86937000D01*
X171560000Y-86952000D01*
X171563000Y-86968000D01*
X171566000Y-86983000D01*
X171568000Y-86999000D01*
X171570000Y-87014000D01*
X171570000Y-87030000D01*
X171570000Y-88230000D01*
X171570000Y-88246000D01*
X171568000Y-88261000D01*
X171566000Y-88277000D01*
X171563000Y-88292000D01*
X171560000Y-88308000D01*
X171555000Y-88323000D01*
X171550000Y-88338000D01*
X171544000Y-88352000D01*
X171537000Y-88366000D01*
X171530000Y-88380000D01*
X171522000Y-88393000D01*
X171513000Y-88406000D01*
X171503000Y-88419000D01*
X171493000Y-88431000D01*
X171482000Y-88442000D01*
X171471000Y-88453000D01*
X171459000Y-88463000D01*
X171446000Y-88473000D01*
X171433000Y-88482000D01*
X171420000Y-88490000D01*
X171406000Y-88497000D01*
X171392000Y-88504000D01*
X171378000Y-88510000D01*
X171363000Y-88515000D01*
X171348000Y-88520000D01*
X171332000Y-88523000D01*
X171317000Y-88526000D01*
X171301000Y-88528000D01*
X171286000Y-88530000D01*
X171270000Y-88530000D01*
X168170000Y-88530000D01*
G36*
X168170000Y-119010000D02*
G01*
X168170000Y-117210000D01*
X170670000Y-117210000D01*
X170717000Y-117211000D01*
X170764000Y-117215000D01*
X170811000Y-117221000D01*
X170857000Y-117230000D01*
X170903000Y-117241000D01*
X170948000Y-117254000D01*
X170993000Y-117270000D01*
X171036000Y-117288000D01*
X171079000Y-117308000D01*
X171120000Y-117331000D01*
X171160000Y-117355000D01*
X171199000Y-117382000D01*
X171236000Y-117411000D01*
X171272000Y-117441000D01*
X171306000Y-117474000D01*
X171339000Y-117508000D01*
X171369000Y-117544000D01*
X171398000Y-117581000D01*
X171425000Y-117620000D01*
X171449000Y-117660000D01*
X171472000Y-117701000D01*
X171492000Y-117744000D01*
X171510000Y-117787000D01*
X171526000Y-117832000D01*
X171539000Y-117877000D01*
X171550000Y-117923000D01*
X171559000Y-117969000D01*
X171565000Y-118016000D01*
X171569000Y-118063000D01*
X171570000Y-118110000D01*
X171569000Y-118157000D01*
X171565000Y-118204000D01*
X171559000Y-118251000D01*
X171550000Y-118297000D01*
X171539000Y-118343000D01*
X171526000Y-118388000D01*
X171510000Y-118433000D01*
X171492000Y-118476000D01*
X171472000Y-118519000D01*
X171449000Y-118560000D01*
X171425000Y-118600000D01*
X171398000Y-118639000D01*
X171369000Y-118676000D01*
X171339000Y-118712000D01*
X171306000Y-118746000D01*
X171272000Y-118779000D01*
X171236000Y-118809000D01*
X171199000Y-118838000D01*
X171160000Y-118865000D01*
X171120000Y-118889000D01*
X171079000Y-118912000D01*
X171036000Y-118932000D01*
X170993000Y-118950000D01*
X170948000Y-118966000D01*
X170903000Y-118979000D01*
X170857000Y-118990000D01*
X170811000Y-118999000D01*
X170764000Y-119005000D01*
X170717000Y-119009000D01*
X170670000Y-119010000D01*
X168170000Y-119010000D01*
G37*
X168170000Y-119010000D02*
X168170000Y-117210000D01*
X170670000Y-117210000D01*
X170717000Y-117211000D01*
X170764000Y-117215000D01*
X170811000Y-117221000D01*
X170857000Y-117230000D01*
X170903000Y-117241000D01*
X170948000Y-117254000D01*
X170993000Y-117270000D01*
X171036000Y-117288000D01*
X171079000Y-117308000D01*
X171120000Y-117331000D01*
X171160000Y-117355000D01*
X171199000Y-117382000D01*
X171236000Y-117411000D01*
X171272000Y-117441000D01*
X171306000Y-117474000D01*
X171339000Y-117508000D01*
X171369000Y-117544000D01*
X171398000Y-117581000D01*
X171425000Y-117620000D01*
X171449000Y-117660000D01*
X171472000Y-117701000D01*
X171492000Y-117744000D01*
X171510000Y-117787000D01*
X171526000Y-117832000D01*
X171539000Y-117877000D01*
X171550000Y-117923000D01*
X171559000Y-117969000D01*
X171565000Y-118016000D01*
X171569000Y-118063000D01*
X171570000Y-118110000D01*
X171569000Y-118157000D01*
X171565000Y-118204000D01*
X171559000Y-118251000D01*
X171550000Y-118297000D01*
X171539000Y-118343000D01*
X171526000Y-118388000D01*
X171510000Y-118433000D01*
X171492000Y-118476000D01*
X171472000Y-118519000D01*
X171449000Y-118560000D01*
X171425000Y-118600000D01*
X171398000Y-118639000D01*
X171369000Y-118676000D01*
X171339000Y-118712000D01*
X171306000Y-118746000D01*
X171272000Y-118779000D01*
X171236000Y-118809000D01*
X171199000Y-118838000D01*
X171160000Y-118865000D01*
X171120000Y-118889000D01*
X171079000Y-118912000D01*
X171036000Y-118932000D01*
X170993000Y-118950000D01*
X170948000Y-118966000D01*
X170903000Y-118979000D01*
X170857000Y-118990000D01*
X170811000Y-118999000D01*
X170764000Y-119005000D01*
X170717000Y-119009000D01*
X170670000Y-119010000D01*
X168170000Y-119010000D01*
G36*
X168170000Y-116470000D02*
G01*
X168170000Y-114670000D01*
X170670000Y-114670000D01*
X170717000Y-114671000D01*
X170764000Y-114675000D01*
X170811000Y-114681000D01*
X170857000Y-114690000D01*
X170903000Y-114701000D01*
X170948000Y-114714000D01*
X170993000Y-114730000D01*
X171036000Y-114748000D01*
X171079000Y-114768000D01*
X171120000Y-114791000D01*
X171160000Y-114815000D01*
X171199000Y-114842000D01*
X171236000Y-114871000D01*
X171272000Y-114901000D01*
X171306000Y-114934000D01*
X171339000Y-114968000D01*
X171369000Y-115004000D01*
X171398000Y-115041000D01*
X171425000Y-115080000D01*
X171449000Y-115120000D01*
X171472000Y-115161000D01*
X171492000Y-115204000D01*
X171510000Y-115247000D01*
X171526000Y-115292000D01*
X171539000Y-115337000D01*
X171550000Y-115383000D01*
X171559000Y-115429000D01*
X171565000Y-115476000D01*
X171569000Y-115523000D01*
X171570000Y-115570000D01*
X171569000Y-115617000D01*
X171565000Y-115664000D01*
X171559000Y-115711000D01*
X171550000Y-115757000D01*
X171539000Y-115803000D01*
X171526000Y-115848000D01*
X171510000Y-115893000D01*
X171492000Y-115936000D01*
X171472000Y-115979000D01*
X171449000Y-116020000D01*
X171425000Y-116060000D01*
X171398000Y-116099000D01*
X171369000Y-116136000D01*
X171339000Y-116172000D01*
X171306000Y-116206000D01*
X171272000Y-116239000D01*
X171236000Y-116269000D01*
X171199000Y-116298000D01*
X171160000Y-116325000D01*
X171120000Y-116349000D01*
X171079000Y-116372000D01*
X171036000Y-116392000D01*
X170993000Y-116410000D01*
X170948000Y-116426000D01*
X170903000Y-116439000D01*
X170857000Y-116450000D01*
X170811000Y-116459000D01*
X170764000Y-116465000D01*
X170717000Y-116469000D01*
X170670000Y-116470000D01*
X168170000Y-116470000D01*
G37*
X168170000Y-116470000D02*
X168170000Y-114670000D01*
X170670000Y-114670000D01*
X170717000Y-114671000D01*
X170764000Y-114675000D01*
X170811000Y-114681000D01*
X170857000Y-114690000D01*
X170903000Y-114701000D01*
X170948000Y-114714000D01*
X170993000Y-114730000D01*
X171036000Y-114748000D01*
X171079000Y-114768000D01*
X171120000Y-114791000D01*
X171160000Y-114815000D01*
X171199000Y-114842000D01*
X171236000Y-114871000D01*
X171272000Y-114901000D01*
X171306000Y-114934000D01*
X171339000Y-114968000D01*
X171369000Y-115004000D01*
X171398000Y-115041000D01*
X171425000Y-115080000D01*
X171449000Y-115120000D01*
X171472000Y-115161000D01*
X171492000Y-115204000D01*
X171510000Y-115247000D01*
X171526000Y-115292000D01*
X171539000Y-115337000D01*
X171550000Y-115383000D01*
X171559000Y-115429000D01*
X171565000Y-115476000D01*
X171569000Y-115523000D01*
X171570000Y-115570000D01*
X171569000Y-115617000D01*
X171565000Y-115664000D01*
X171559000Y-115711000D01*
X171550000Y-115757000D01*
X171539000Y-115803000D01*
X171526000Y-115848000D01*
X171510000Y-115893000D01*
X171492000Y-115936000D01*
X171472000Y-115979000D01*
X171449000Y-116020000D01*
X171425000Y-116060000D01*
X171398000Y-116099000D01*
X171369000Y-116136000D01*
X171339000Y-116172000D01*
X171306000Y-116206000D01*
X171272000Y-116239000D01*
X171236000Y-116269000D01*
X171199000Y-116298000D01*
X171160000Y-116325000D01*
X171120000Y-116349000D01*
X171079000Y-116372000D01*
X171036000Y-116392000D01*
X170993000Y-116410000D01*
X170948000Y-116426000D01*
X170903000Y-116439000D01*
X170857000Y-116450000D01*
X170811000Y-116459000D01*
X170764000Y-116465000D01*
X170717000Y-116469000D01*
X170670000Y-116470000D01*
X168170000Y-116470000D01*
G36*
X168170000Y-111390000D02*
G01*
X168170000Y-109590000D01*
X170670000Y-109590000D01*
X170717000Y-109591000D01*
X170764000Y-109595000D01*
X170811000Y-109601000D01*
X170857000Y-109610000D01*
X170903000Y-109621000D01*
X170948000Y-109634000D01*
X170993000Y-109650000D01*
X171036000Y-109668000D01*
X171079000Y-109688000D01*
X171120000Y-109711000D01*
X171160000Y-109735000D01*
X171199000Y-109762000D01*
X171236000Y-109791000D01*
X171272000Y-109821000D01*
X171306000Y-109854000D01*
X171339000Y-109888000D01*
X171369000Y-109924000D01*
X171398000Y-109961000D01*
X171425000Y-110000000D01*
X171449000Y-110040000D01*
X171472000Y-110081000D01*
X171492000Y-110124000D01*
X171510000Y-110167000D01*
X171526000Y-110212000D01*
X171539000Y-110257000D01*
X171550000Y-110303000D01*
X171559000Y-110349000D01*
X171565000Y-110396000D01*
X171569000Y-110443000D01*
X171570000Y-110490000D01*
X171569000Y-110537000D01*
X171565000Y-110584000D01*
X171559000Y-110631000D01*
X171550000Y-110677000D01*
X171539000Y-110723000D01*
X171526000Y-110768000D01*
X171510000Y-110813000D01*
X171492000Y-110856000D01*
X171472000Y-110899000D01*
X171449000Y-110940000D01*
X171425000Y-110980000D01*
X171398000Y-111019000D01*
X171369000Y-111056000D01*
X171339000Y-111092000D01*
X171306000Y-111126000D01*
X171272000Y-111159000D01*
X171236000Y-111189000D01*
X171199000Y-111218000D01*
X171160000Y-111245000D01*
X171120000Y-111269000D01*
X171079000Y-111292000D01*
X171036000Y-111312000D01*
X170993000Y-111330000D01*
X170948000Y-111346000D01*
X170903000Y-111359000D01*
X170857000Y-111370000D01*
X170811000Y-111379000D01*
X170764000Y-111385000D01*
X170717000Y-111389000D01*
X170670000Y-111390000D01*
X168170000Y-111390000D01*
G37*
X168170000Y-111390000D02*
X168170000Y-109590000D01*
X170670000Y-109590000D01*
X170717000Y-109591000D01*
X170764000Y-109595000D01*
X170811000Y-109601000D01*
X170857000Y-109610000D01*
X170903000Y-109621000D01*
X170948000Y-109634000D01*
X170993000Y-109650000D01*
X171036000Y-109668000D01*
X171079000Y-109688000D01*
X171120000Y-109711000D01*
X171160000Y-109735000D01*
X171199000Y-109762000D01*
X171236000Y-109791000D01*
X171272000Y-109821000D01*
X171306000Y-109854000D01*
X171339000Y-109888000D01*
X171369000Y-109924000D01*
X171398000Y-109961000D01*
X171425000Y-110000000D01*
X171449000Y-110040000D01*
X171472000Y-110081000D01*
X171492000Y-110124000D01*
X171510000Y-110167000D01*
X171526000Y-110212000D01*
X171539000Y-110257000D01*
X171550000Y-110303000D01*
X171559000Y-110349000D01*
X171565000Y-110396000D01*
X171569000Y-110443000D01*
X171570000Y-110490000D01*
X171569000Y-110537000D01*
X171565000Y-110584000D01*
X171559000Y-110631000D01*
X171550000Y-110677000D01*
X171539000Y-110723000D01*
X171526000Y-110768000D01*
X171510000Y-110813000D01*
X171492000Y-110856000D01*
X171472000Y-110899000D01*
X171449000Y-110940000D01*
X171425000Y-110980000D01*
X171398000Y-111019000D01*
X171369000Y-111056000D01*
X171339000Y-111092000D01*
X171306000Y-111126000D01*
X171272000Y-111159000D01*
X171236000Y-111189000D01*
X171199000Y-111218000D01*
X171160000Y-111245000D01*
X171120000Y-111269000D01*
X171079000Y-111292000D01*
X171036000Y-111312000D01*
X170993000Y-111330000D01*
X170948000Y-111346000D01*
X170903000Y-111359000D01*
X170857000Y-111370000D01*
X170811000Y-111379000D01*
X170764000Y-111385000D01*
X170717000Y-111389000D01*
X170670000Y-111390000D01*
X168170000Y-111390000D01*
G36*
X168170000Y-108850000D02*
G01*
X168170000Y-107050000D01*
X170670000Y-107050000D01*
X170717000Y-107051000D01*
X170764000Y-107055000D01*
X170811000Y-107061000D01*
X170857000Y-107070000D01*
X170903000Y-107081000D01*
X170948000Y-107094000D01*
X170993000Y-107110000D01*
X171036000Y-107128000D01*
X171079000Y-107148000D01*
X171120000Y-107171000D01*
X171160000Y-107195000D01*
X171199000Y-107222000D01*
X171236000Y-107251000D01*
X171272000Y-107281000D01*
X171306000Y-107314000D01*
X171339000Y-107348000D01*
X171369000Y-107384000D01*
X171398000Y-107421000D01*
X171425000Y-107460000D01*
X171449000Y-107500000D01*
X171472000Y-107541000D01*
X171492000Y-107584000D01*
X171510000Y-107627000D01*
X171526000Y-107672000D01*
X171539000Y-107717000D01*
X171550000Y-107763000D01*
X171559000Y-107809000D01*
X171565000Y-107856000D01*
X171569000Y-107903000D01*
X171570000Y-107950000D01*
X171569000Y-107997000D01*
X171565000Y-108044000D01*
X171559000Y-108091000D01*
X171550000Y-108137000D01*
X171539000Y-108183000D01*
X171526000Y-108228000D01*
X171510000Y-108273000D01*
X171492000Y-108316000D01*
X171472000Y-108359000D01*
X171449000Y-108400000D01*
X171425000Y-108440000D01*
X171398000Y-108479000D01*
X171369000Y-108516000D01*
X171339000Y-108552000D01*
X171306000Y-108586000D01*
X171272000Y-108619000D01*
X171236000Y-108649000D01*
X171199000Y-108678000D01*
X171160000Y-108705000D01*
X171120000Y-108729000D01*
X171079000Y-108752000D01*
X171036000Y-108772000D01*
X170993000Y-108790000D01*
X170948000Y-108806000D01*
X170903000Y-108819000D01*
X170857000Y-108830000D01*
X170811000Y-108839000D01*
X170764000Y-108845000D01*
X170717000Y-108849000D01*
X170670000Y-108850000D01*
X168170000Y-108850000D01*
G37*
X168170000Y-108850000D02*
X168170000Y-107050000D01*
X170670000Y-107050000D01*
X170717000Y-107051000D01*
X170764000Y-107055000D01*
X170811000Y-107061000D01*
X170857000Y-107070000D01*
X170903000Y-107081000D01*
X170948000Y-107094000D01*
X170993000Y-107110000D01*
X171036000Y-107128000D01*
X171079000Y-107148000D01*
X171120000Y-107171000D01*
X171160000Y-107195000D01*
X171199000Y-107222000D01*
X171236000Y-107251000D01*
X171272000Y-107281000D01*
X171306000Y-107314000D01*
X171339000Y-107348000D01*
X171369000Y-107384000D01*
X171398000Y-107421000D01*
X171425000Y-107460000D01*
X171449000Y-107500000D01*
X171472000Y-107541000D01*
X171492000Y-107584000D01*
X171510000Y-107627000D01*
X171526000Y-107672000D01*
X171539000Y-107717000D01*
X171550000Y-107763000D01*
X171559000Y-107809000D01*
X171565000Y-107856000D01*
X171569000Y-107903000D01*
X171570000Y-107950000D01*
X171569000Y-107997000D01*
X171565000Y-108044000D01*
X171559000Y-108091000D01*
X171550000Y-108137000D01*
X171539000Y-108183000D01*
X171526000Y-108228000D01*
X171510000Y-108273000D01*
X171492000Y-108316000D01*
X171472000Y-108359000D01*
X171449000Y-108400000D01*
X171425000Y-108440000D01*
X171398000Y-108479000D01*
X171369000Y-108516000D01*
X171339000Y-108552000D01*
X171306000Y-108586000D01*
X171272000Y-108619000D01*
X171236000Y-108649000D01*
X171199000Y-108678000D01*
X171160000Y-108705000D01*
X171120000Y-108729000D01*
X171079000Y-108752000D01*
X171036000Y-108772000D01*
X170993000Y-108790000D01*
X170948000Y-108806000D01*
X170903000Y-108819000D01*
X170857000Y-108830000D01*
X170811000Y-108839000D01*
X170764000Y-108845000D01*
X170717000Y-108849000D01*
X170670000Y-108850000D01*
X168170000Y-108850000D01*
G36*
X168170000Y-106310000D02*
G01*
X168170000Y-104510000D01*
X170670000Y-104510000D01*
X170717000Y-104511000D01*
X170764000Y-104515000D01*
X170811000Y-104521000D01*
X170857000Y-104530000D01*
X170903000Y-104541000D01*
X170948000Y-104554000D01*
X170993000Y-104570000D01*
X171036000Y-104588000D01*
X171079000Y-104608000D01*
X171120000Y-104631000D01*
X171160000Y-104655000D01*
X171199000Y-104682000D01*
X171236000Y-104711000D01*
X171272000Y-104741000D01*
X171306000Y-104774000D01*
X171339000Y-104808000D01*
X171369000Y-104844000D01*
X171398000Y-104881000D01*
X171425000Y-104920000D01*
X171449000Y-104960000D01*
X171472000Y-105001000D01*
X171492000Y-105044000D01*
X171510000Y-105087000D01*
X171526000Y-105132000D01*
X171539000Y-105177000D01*
X171550000Y-105223000D01*
X171559000Y-105269000D01*
X171565000Y-105316000D01*
X171569000Y-105363000D01*
X171570000Y-105410000D01*
X171569000Y-105457000D01*
X171565000Y-105504000D01*
X171559000Y-105551000D01*
X171550000Y-105597000D01*
X171539000Y-105643000D01*
X171526000Y-105688000D01*
X171510000Y-105733000D01*
X171492000Y-105776000D01*
X171472000Y-105819000D01*
X171449000Y-105860000D01*
X171425000Y-105900000D01*
X171398000Y-105939000D01*
X171369000Y-105976000D01*
X171339000Y-106012000D01*
X171306000Y-106046000D01*
X171272000Y-106079000D01*
X171236000Y-106109000D01*
X171199000Y-106138000D01*
X171160000Y-106165000D01*
X171120000Y-106189000D01*
X171079000Y-106212000D01*
X171036000Y-106232000D01*
X170993000Y-106250000D01*
X170948000Y-106266000D01*
X170903000Y-106279000D01*
X170857000Y-106290000D01*
X170811000Y-106299000D01*
X170764000Y-106305000D01*
X170717000Y-106309000D01*
X170670000Y-106310000D01*
X168170000Y-106310000D01*
G37*
X168170000Y-106310000D02*
X168170000Y-104510000D01*
X170670000Y-104510000D01*
X170717000Y-104511000D01*
X170764000Y-104515000D01*
X170811000Y-104521000D01*
X170857000Y-104530000D01*
X170903000Y-104541000D01*
X170948000Y-104554000D01*
X170993000Y-104570000D01*
X171036000Y-104588000D01*
X171079000Y-104608000D01*
X171120000Y-104631000D01*
X171160000Y-104655000D01*
X171199000Y-104682000D01*
X171236000Y-104711000D01*
X171272000Y-104741000D01*
X171306000Y-104774000D01*
X171339000Y-104808000D01*
X171369000Y-104844000D01*
X171398000Y-104881000D01*
X171425000Y-104920000D01*
X171449000Y-104960000D01*
X171472000Y-105001000D01*
X171492000Y-105044000D01*
X171510000Y-105087000D01*
X171526000Y-105132000D01*
X171539000Y-105177000D01*
X171550000Y-105223000D01*
X171559000Y-105269000D01*
X171565000Y-105316000D01*
X171569000Y-105363000D01*
X171570000Y-105410000D01*
X171569000Y-105457000D01*
X171565000Y-105504000D01*
X171559000Y-105551000D01*
X171550000Y-105597000D01*
X171539000Y-105643000D01*
X171526000Y-105688000D01*
X171510000Y-105733000D01*
X171492000Y-105776000D01*
X171472000Y-105819000D01*
X171449000Y-105860000D01*
X171425000Y-105900000D01*
X171398000Y-105939000D01*
X171369000Y-105976000D01*
X171339000Y-106012000D01*
X171306000Y-106046000D01*
X171272000Y-106079000D01*
X171236000Y-106109000D01*
X171199000Y-106138000D01*
X171160000Y-106165000D01*
X171120000Y-106189000D01*
X171079000Y-106212000D01*
X171036000Y-106232000D01*
X170993000Y-106250000D01*
X170948000Y-106266000D01*
X170903000Y-106279000D01*
X170857000Y-106290000D01*
X170811000Y-106299000D01*
X170764000Y-106305000D01*
X170717000Y-106309000D01*
X170670000Y-106310000D01*
X168170000Y-106310000D01*
G36*
X168170000Y-103770000D02*
G01*
X168170000Y-101970000D01*
X170670000Y-101970000D01*
X170717000Y-101971000D01*
X170764000Y-101975000D01*
X170811000Y-101981000D01*
X170857000Y-101990000D01*
X170903000Y-102001000D01*
X170948000Y-102014000D01*
X170993000Y-102030000D01*
X171036000Y-102048000D01*
X171079000Y-102068000D01*
X171120000Y-102091000D01*
X171160000Y-102115000D01*
X171199000Y-102142000D01*
X171236000Y-102171000D01*
X171272000Y-102201000D01*
X171306000Y-102234000D01*
X171339000Y-102268000D01*
X171369000Y-102304000D01*
X171398000Y-102341000D01*
X171425000Y-102380000D01*
X171449000Y-102420000D01*
X171472000Y-102461000D01*
X171492000Y-102504000D01*
X171510000Y-102547000D01*
X171526000Y-102592000D01*
X171539000Y-102637000D01*
X171550000Y-102683000D01*
X171559000Y-102729000D01*
X171565000Y-102776000D01*
X171569000Y-102823000D01*
X171570000Y-102870000D01*
X171569000Y-102917000D01*
X171565000Y-102964000D01*
X171559000Y-103011000D01*
X171550000Y-103057000D01*
X171539000Y-103103000D01*
X171526000Y-103148000D01*
X171510000Y-103193000D01*
X171492000Y-103236000D01*
X171472000Y-103279000D01*
X171449000Y-103320000D01*
X171425000Y-103360000D01*
X171398000Y-103399000D01*
X171369000Y-103436000D01*
X171339000Y-103472000D01*
X171306000Y-103506000D01*
X171272000Y-103539000D01*
X171236000Y-103569000D01*
X171199000Y-103598000D01*
X171160000Y-103625000D01*
X171120000Y-103649000D01*
X171079000Y-103672000D01*
X171036000Y-103692000D01*
X170993000Y-103710000D01*
X170948000Y-103726000D01*
X170903000Y-103739000D01*
X170857000Y-103750000D01*
X170811000Y-103759000D01*
X170764000Y-103765000D01*
X170717000Y-103769000D01*
X170670000Y-103770000D01*
X168170000Y-103770000D01*
G37*
X168170000Y-103770000D02*
X168170000Y-101970000D01*
X170670000Y-101970000D01*
X170717000Y-101971000D01*
X170764000Y-101975000D01*
X170811000Y-101981000D01*
X170857000Y-101990000D01*
X170903000Y-102001000D01*
X170948000Y-102014000D01*
X170993000Y-102030000D01*
X171036000Y-102048000D01*
X171079000Y-102068000D01*
X171120000Y-102091000D01*
X171160000Y-102115000D01*
X171199000Y-102142000D01*
X171236000Y-102171000D01*
X171272000Y-102201000D01*
X171306000Y-102234000D01*
X171339000Y-102268000D01*
X171369000Y-102304000D01*
X171398000Y-102341000D01*
X171425000Y-102380000D01*
X171449000Y-102420000D01*
X171472000Y-102461000D01*
X171492000Y-102504000D01*
X171510000Y-102547000D01*
X171526000Y-102592000D01*
X171539000Y-102637000D01*
X171550000Y-102683000D01*
X171559000Y-102729000D01*
X171565000Y-102776000D01*
X171569000Y-102823000D01*
X171570000Y-102870000D01*
X171569000Y-102917000D01*
X171565000Y-102964000D01*
X171559000Y-103011000D01*
X171550000Y-103057000D01*
X171539000Y-103103000D01*
X171526000Y-103148000D01*
X171510000Y-103193000D01*
X171492000Y-103236000D01*
X171472000Y-103279000D01*
X171449000Y-103320000D01*
X171425000Y-103360000D01*
X171398000Y-103399000D01*
X171369000Y-103436000D01*
X171339000Y-103472000D01*
X171306000Y-103506000D01*
X171272000Y-103539000D01*
X171236000Y-103569000D01*
X171199000Y-103598000D01*
X171160000Y-103625000D01*
X171120000Y-103649000D01*
X171079000Y-103672000D01*
X171036000Y-103692000D01*
X170993000Y-103710000D01*
X170948000Y-103726000D01*
X170903000Y-103739000D01*
X170857000Y-103750000D01*
X170811000Y-103759000D01*
X170764000Y-103765000D01*
X170717000Y-103769000D01*
X170670000Y-103770000D01*
X168170000Y-103770000D01*
G36*
X168170000Y-98690000D02*
G01*
X168170000Y-96890000D01*
X170670000Y-96890000D01*
X170717000Y-96891000D01*
X170764000Y-96895000D01*
X170811000Y-96901000D01*
X170857000Y-96910000D01*
X170903000Y-96921000D01*
X170948000Y-96934000D01*
X170993000Y-96950000D01*
X171036000Y-96968000D01*
X171079000Y-96988000D01*
X171120000Y-97011000D01*
X171160000Y-97035000D01*
X171199000Y-97062000D01*
X171236000Y-97091000D01*
X171272000Y-97121000D01*
X171306000Y-97154000D01*
X171339000Y-97188000D01*
X171369000Y-97224000D01*
X171398000Y-97261000D01*
X171425000Y-97300000D01*
X171449000Y-97340000D01*
X171472000Y-97381000D01*
X171492000Y-97424000D01*
X171510000Y-97467000D01*
X171526000Y-97512000D01*
X171539000Y-97557000D01*
X171550000Y-97603000D01*
X171559000Y-97649000D01*
X171565000Y-97696000D01*
X171569000Y-97743000D01*
X171570000Y-97790000D01*
X171569000Y-97837000D01*
X171565000Y-97884000D01*
X171559000Y-97931000D01*
X171550000Y-97977000D01*
X171539000Y-98023000D01*
X171526000Y-98068000D01*
X171510000Y-98113000D01*
X171492000Y-98156000D01*
X171472000Y-98199000D01*
X171449000Y-98240000D01*
X171425000Y-98280000D01*
X171398000Y-98319000D01*
X171369000Y-98356000D01*
X171339000Y-98392000D01*
X171306000Y-98426000D01*
X171272000Y-98459000D01*
X171236000Y-98489000D01*
X171199000Y-98518000D01*
X171160000Y-98545000D01*
X171120000Y-98569000D01*
X171079000Y-98592000D01*
X171036000Y-98612000D01*
X170993000Y-98630000D01*
X170948000Y-98646000D01*
X170903000Y-98659000D01*
X170857000Y-98670000D01*
X170811000Y-98679000D01*
X170764000Y-98685000D01*
X170717000Y-98689000D01*
X170670000Y-98690000D01*
X168170000Y-98690000D01*
G37*
X168170000Y-98690000D02*
X168170000Y-96890000D01*
X170670000Y-96890000D01*
X170717000Y-96891000D01*
X170764000Y-96895000D01*
X170811000Y-96901000D01*
X170857000Y-96910000D01*
X170903000Y-96921000D01*
X170948000Y-96934000D01*
X170993000Y-96950000D01*
X171036000Y-96968000D01*
X171079000Y-96988000D01*
X171120000Y-97011000D01*
X171160000Y-97035000D01*
X171199000Y-97062000D01*
X171236000Y-97091000D01*
X171272000Y-97121000D01*
X171306000Y-97154000D01*
X171339000Y-97188000D01*
X171369000Y-97224000D01*
X171398000Y-97261000D01*
X171425000Y-97300000D01*
X171449000Y-97340000D01*
X171472000Y-97381000D01*
X171492000Y-97424000D01*
X171510000Y-97467000D01*
X171526000Y-97512000D01*
X171539000Y-97557000D01*
X171550000Y-97603000D01*
X171559000Y-97649000D01*
X171565000Y-97696000D01*
X171569000Y-97743000D01*
X171570000Y-97790000D01*
X171569000Y-97837000D01*
X171565000Y-97884000D01*
X171559000Y-97931000D01*
X171550000Y-97977000D01*
X171539000Y-98023000D01*
X171526000Y-98068000D01*
X171510000Y-98113000D01*
X171492000Y-98156000D01*
X171472000Y-98199000D01*
X171449000Y-98240000D01*
X171425000Y-98280000D01*
X171398000Y-98319000D01*
X171369000Y-98356000D01*
X171339000Y-98392000D01*
X171306000Y-98426000D01*
X171272000Y-98459000D01*
X171236000Y-98489000D01*
X171199000Y-98518000D01*
X171160000Y-98545000D01*
X171120000Y-98569000D01*
X171079000Y-98592000D01*
X171036000Y-98612000D01*
X170993000Y-98630000D01*
X170948000Y-98646000D01*
X170903000Y-98659000D01*
X170857000Y-98670000D01*
X170811000Y-98679000D01*
X170764000Y-98685000D01*
X170717000Y-98689000D01*
X170670000Y-98690000D01*
X168170000Y-98690000D01*
G36*
X168170000Y-96150000D02*
G01*
X168170000Y-94350000D01*
X170670000Y-94350000D01*
X170717000Y-94351000D01*
X170764000Y-94355000D01*
X170811000Y-94361000D01*
X170857000Y-94370000D01*
X170903000Y-94381000D01*
X170948000Y-94394000D01*
X170993000Y-94410000D01*
X171036000Y-94428000D01*
X171079000Y-94448000D01*
X171120000Y-94471000D01*
X171160000Y-94495000D01*
X171199000Y-94522000D01*
X171236000Y-94551000D01*
X171272000Y-94581000D01*
X171306000Y-94614000D01*
X171339000Y-94648000D01*
X171369000Y-94684000D01*
X171398000Y-94721000D01*
X171425000Y-94760000D01*
X171449000Y-94800000D01*
X171472000Y-94841000D01*
X171492000Y-94884000D01*
X171510000Y-94927000D01*
X171526000Y-94972000D01*
X171539000Y-95017000D01*
X171550000Y-95063000D01*
X171559000Y-95109000D01*
X171565000Y-95156000D01*
X171569000Y-95203000D01*
X171570000Y-95250000D01*
X171569000Y-95297000D01*
X171565000Y-95344000D01*
X171559000Y-95391000D01*
X171550000Y-95437000D01*
X171539000Y-95483000D01*
X171526000Y-95528000D01*
X171510000Y-95573000D01*
X171492000Y-95616000D01*
X171472000Y-95659000D01*
X171449000Y-95700000D01*
X171425000Y-95740000D01*
X171398000Y-95779000D01*
X171369000Y-95816000D01*
X171339000Y-95852000D01*
X171306000Y-95886000D01*
X171272000Y-95919000D01*
X171236000Y-95949000D01*
X171199000Y-95978000D01*
X171160000Y-96005000D01*
X171120000Y-96029000D01*
X171079000Y-96052000D01*
X171036000Y-96072000D01*
X170993000Y-96090000D01*
X170948000Y-96106000D01*
X170903000Y-96119000D01*
X170857000Y-96130000D01*
X170811000Y-96139000D01*
X170764000Y-96145000D01*
X170717000Y-96149000D01*
X170670000Y-96150000D01*
X168170000Y-96150000D01*
G37*
X168170000Y-96150000D02*
X168170000Y-94350000D01*
X170670000Y-94350000D01*
X170717000Y-94351000D01*
X170764000Y-94355000D01*
X170811000Y-94361000D01*
X170857000Y-94370000D01*
X170903000Y-94381000D01*
X170948000Y-94394000D01*
X170993000Y-94410000D01*
X171036000Y-94428000D01*
X171079000Y-94448000D01*
X171120000Y-94471000D01*
X171160000Y-94495000D01*
X171199000Y-94522000D01*
X171236000Y-94551000D01*
X171272000Y-94581000D01*
X171306000Y-94614000D01*
X171339000Y-94648000D01*
X171369000Y-94684000D01*
X171398000Y-94721000D01*
X171425000Y-94760000D01*
X171449000Y-94800000D01*
X171472000Y-94841000D01*
X171492000Y-94884000D01*
X171510000Y-94927000D01*
X171526000Y-94972000D01*
X171539000Y-95017000D01*
X171550000Y-95063000D01*
X171559000Y-95109000D01*
X171565000Y-95156000D01*
X171569000Y-95203000D01*
X171570000Y-95250000D01*
X171569000Y-95297000D01*
X171565000Y-95344000D01*
X171559000Y-95391000D01*
X171550000Y-95437000D01*
X171539000Y-95483000D01*
X171526000Y-95528000D01*
X171510000Y-95573000D01*
X171492000Y-95616000D01*
X171472000Y-95659000D01*
X171449000Y-95700000D01*
X171425000Y-95740000D01*
X171398000Y-95779000D01*
X171369000Y-95816000D01*
X171339000Y-95852000D01*
X171306000Y-95886000D01*
X171272000Y-95919000D01*
X171236000Y-95949000D01*
X171199000Y-95978000D01*
X171160000Y-96005000D01*
X171120000Y-96029000D01*
X171079000Y-96052000D01*
X171036000Y-96072000D01*
X170993000Y-96090000D01*
X170948000Y-96106000D01*
X170903000Y-96119000D01*
X170857000Y-96130000D01*
X170811000Y-96139000D01*
X170764000Y-96145000D01*
X170717000Y-96149000D01*
X170670000Y-96150000D01*
X168170000Y-96150000D01*
G36*
X168170000Y-93610000D02*
G01*
X168170000Y-91810000D01*
X170670000Y-91810000D01*
X170717000Y-91811000D01*
X170764000Y-91815000D01*
X170811000Y-91821000D01*
X170857000Y-91830000D01*
X170903000Y-91841000D01*
X170948000Y-91854000D01*
X170993000Y-91870000D01*
X171036000Y-91888000D01*
X171079000Y-91908000D01*
X171120000Y-91931000D01*
X171160000Y-91955000D01*
X171199000Y-91982000D01*
X171236000Y-92011000D01*
X171272000Y-92041000D01*
X171306000Y-92074000D01*
X171339000Y-92108000D01*
X171369000Y-92144000D01*
X171398000Y-92181000D01*
X171425000Y-92220000D01*
X171449000Y-92260000D01*
X171472000Y-92301000D01*
X171492000Y-92344000D01*
X171510000Y-92387000D01*
X171526000Y-92432000D01*
X171539000Y-92477000D01*
X171550000Y-92523000D01*
X171559000Y-92569000D01*
X171565000Y-92616000D01*
X171569000Y-92663000D01*
X171570000Y-92710000D01*
X171569000Y-92757000D01*
X171565000Y-92804000D01*
X171559000Y-92851000D01*
X171550000Y-92897000D01*
X171539000Y-92943000D01*
X171526000Y-92988000D01*
X171510000Y-93033000D01*
X171492000Y-93076000D01*
X171472000Y-93119000D01*
X171449000Y-93160000D01*
X171425000Y-93200000D01*
X171398000Y-93239000D01*
X171369000Y-93276000D01*
X171339000Y-93312000D01*
X171306000Y-93346000D01*
X171272000Y-93379000D01*
X171236000Y-93409000D01*
X171199000Y-93438000D01*
X171160000Y-93465000D01*
X171120000Y-93489000D01*
X171079000Y-93512000D01*
X171036000Y-93532000D01*
X170993000Y-93550000D01*
X170948000Y-93566000D01*
X170903000Y-93579000D01*
X170857000Y-93590000D01*
X170811000Y-93599000D01*
X170764000Y-93605000D01*
X170717000Y-93609000D01*
X170670000Y-93610000D01*
X168170000Y-93610000D01*
G37*
X168170000Y-93610000D02*
X168170000Y-91810000D01*
X170670000Y-91810000D01*
X170717000Y-91811000D01*
X170764000Y-91815000D01*
X170811000Y-91821000D01*
X170857000Y-91830000D01*
X170903000Y-91841000D01*
X170948000Y-91854000D01*
X170993000Y-91870000D01*
X171036000Y-91888000D01*
X171079000Y-91908000D01*
X171120000Y-91931000D01*
X171160000Y-91955000D01*
X171199000Y-91982000D01*
X171236000Y-92011000D01*
X171272000Y-92041000D01*
X171306000Y-92074000D01*
X171339000Y-92108000D01*
X171369000Y-92144000D01*
X171398000Y-92181000D01*
X171425000Y-92220000D01*
X171449000Y-92260000D01*
X171472000Y-92301000D01*
X171492000Y-92344000D01*
X171510000Y-92387000D01*
X171526000Y-92432000D01*
X171539000Y-92477000D01*
X171550000Y-92523000D01*
X171559000Y-92569000D01*
X171565000Y-92616000D01*
X171569000Y-92663000D01*
X171570000Y-92710000D01*
X171569000Y-92757000D01*
X171565000Y-92804000D01*
X171559000Y-92851000D01*
X171550000Y-92897000D01*
X171539000Y-92943000D01*
X171526000Y-92988000D01*
X171510000Y-93033000D01*
X171492000Y-93076000D01*
X171472000Y-93119000D01*
X171449000Y-93160000D01*
X171425000Y-93200000D01*
X171398000Y-93239000D01*
X171369000Y-93276000D01*
X171339000Y-93312000D01*
X171306000Y-93346000D01*
X171272000Y-93379000D01*
X171236000Y-93409000D01*
X171199000Y-93438000D01*
X171160000Y-93465000D01*
X171120000Y-93489000D01*
X171079000Y-93512000D01*
X171036000Y-93532000D01*
X170993000Y-93550000D01*
X170948000Y-93566000D01*
X170903000Y-93579000D01*
X170857000Y-93590000D01*
X170811000Y-93599000D01*
X170764000Y-93605000D01*
X170717000Y-93609000D01*
X170670000Y-93610000D01*
X168170000Y-93610000D01*
G36*
X168170000Y-91070000D02*
G01*
X168170000Y-89270000D01*
X170670000Y-89270000D01*
X170717000Y-89271000D01*
X170764000Y-89275000D01*
X170811000Y-89281000D01*
X170857000Y-89290000D01*
X170903000Y-89301000D01*
X170948000Y-89314000D01*
X170993000Y-89330000D01*
X171036000Y-89348000D01*
X171079000Y-89368000D01*
X171120000Y-89391000D01*
X171160000Y-89415000D01*
X171199000Y-89442000D01*
X171236000Y-89471000D01*
X171272000Y-89501000D01*
X171306000Y-89534000D01*
X171339000Y-89568000D01*
X171369000Y-89604000D01*
X171398000Y-89641000D01*
X171425000Y-89680000D01*
X171449000Y-89720000D01*
X171472000Y-89761000D01*
X171492000Y-89804000D01*
X171510000Y-89847000D01*
X171526000Y-89892000D01*
X171539000Y-89937000D01*
X171550000Y-89983000D01*
X171559000Y-90029000D01*
X171565000Y-90076000D01*
X171569000Y-90123000D01*
X171570000Y-90170000D01*
X171569000Y-90217000D01*
X171565000Y-90264000D01*
X171559000Y-90311000D01*
X171550000Y-90357000D01*
X171539000Y-90403000D01*
X171526000Y-90448000D01*
X171510000Y-90493000D01*
X171492000Y-90536000D01*
X171472000Y-90579000D01*
X171449000Y-90620000D01*
X171425000Y-90660000D01*
X171398000Y-90699000D01*
X171369000Y-90736000D01*
X171339000Y-90772000D01*
X171306000Y-90806000D01*
X171272000Y-90839000D01*
X171236000Y-90869000D01*
X171199000Y-90898000D01*
X171160000Y-90925000D01*
X171120000Y-90949000D01*
X171079000Y-90972000D01*
X171036000Y-90992000D01*
X170993000Y-91010000D01*
X170948000Y-91026000D01*
X170903000Y-91039000D01*
X170857000Y-91050000D01*
X170811000Y-91059000D01*
X170764000Y-91065000D01*
X170717000Y-91069000D01*
X170670000Y-91070000D01*
X168170000Y-91070000D01*
G37*
X168170000Y-91070000D02*
X168170000Y-89270000D01*
X170670000Y-89270000D01*
X170717000Y-89271000D01*
X170764000Y-89275000D01*
X170811000Y-89281000D01*
X170857000Y-89290000D01*
X170903000Y-89301000D01*
X170948000Y-89314000D01*
X170993000Y-89330000D01*
X171036000Y-89348000D01*
X171079000Y-89368000D01*
X171120000Y-89391000D01*
X171160000Y-89415000D01*
X171199000Y-89442000D01*
X171236000Y-89471000D01*
X171272000Y-89501000D01*
X171306000Y-89534000D01*
X171339000Y-89568000D01*
X171369000Y-89604000D01*
X171398000Y-89641000D01*
X171425000Y-89680000D01*
X171449000Y-89720000D01*
X171472000Y-89761000D01*
X171492000Y-89804000D01*
X171510000Y-89847000D01*
X171526000Y-89892000D01*
X171539000Y-89937000D01*
X171550000Y-89983000D01*
X171559000Y-90029000D01*
X171565000Y-90076000D01*
X171569000Y-90123000D01*
X171570000Y-90170000D01*
X171569000Y-90217000D01*
X171565000Y-90264000D01*
X171559000Y-90311000D01*
X171550000Y-90357000D01*
X171539000Y-90403000D01*
X171526000Y-90448000D01*
X171510000Y-90493000D01*
X171492000Y-90536000D01*
X171472000Y-90579000D01*
X171449000Y-90620000D01*
X171425000Y-90660000D01*
X171398000Y-90699000D01*
X171369000Y-90736000D01*
X171339000Y-90772000D01*
X171306000Y-90806000D01*
X171272000Y-90839000D01*
X171236000Y-90869000D01*
X171199000Y-90898000D01*
X171160000Y-90925000D01*
X171120000Y-90949000D01*
X171079000Y-90972000D01*
X171036000Y-90992000D01*
X170993000Y-91010000D01*
X170948000Y-91026000D01*
X170903000Y-91039000D01*
X170857000Y-91050000D01*
X170811000Y-91059000D01*
X170764000Y-91065000D01*
X170717000Y-91069000D01*
X170670000Y-91070000D01*
X168170000Y-91070000D01*
G36*
X168170000Y-85990000D02*
G01*
X168170000Y-84190000D01*
X170670000Y-84190000D01*
X170717000Y-84191000D01*
X170764000Y-84195000D01*
X170811000Y-84201000D01*
X170857000Y-84210000D01*
X170903000Y-84221000D01*
X170948000Y-84234000D01*
X170993000Y-84250000D01*
X171036000Y-84268000D01*
X171079000Y-84288000D01*
X171120000Y-84311000D01*
X171160000Y-84335000D01*
X171199000Y-84362000D01*
X171236000Y-84391000D01*
X171272000Y-84421000D01*
X171306000Y-84454000D01*
X171339000Y-84488000D01*
X171369000Y-84524000D01*
X171398000Y-84561000D01*
X171425000Y-84600000D01*
X171449000Y-84640000D01*
X171472000Y-84681000D01*
X171492000Y-84724000D01*
X171510000Y-84767000D01*
X171526000Y-84812000D01*
X171539000Y-84857000D01*
X171550000Y-84903000D01*
X171559000Y-84949000D01*
X171565000Y-84996000D01*
X171569000Y-85043000D01*
X171570000Y-85090000D01*
X171569000Y-85137000D01*
X171565000Y-85184000D01*
X171559000Y-85231000D01*
X171550000Y-85277000D01*
X171539000Y-85323000D01*
X171526000Y-85368000D01*
X171510000Y-85413000D01*
X171492000Y-85456000D01*
X171472000Y-85499000D01*
X171449000Y-85540000D01*
X171425000Y-85580000D01*
X171398000Y-85619000D01*
X171369000Y-85656000D01*
X171339000Y-85692000D01*
X171306000Y-85726000D01*
X171272000Y-85759000D01*
X171236000Y-85789000D01*
X171199000Y-85818000D01*
X171160000Y-85845000D01*
X171120000Y-85869000D01*
X171079000Y-85892000D01*
X171036000Y-85912000D01*
X170993000Y-85930000D01*
X170948000Y-85946000D01*
X170903000Y-85959000D01*
X170857000Y-85970000D01*
X170811000Y-85979000D01*
X170764000Y-85985000D01*
X170717000Y-85989000D01*
X170670000Y-85990000D01*
X168170000Y-85990000D01*
G37*
X168170000Y-85990000D02*
X168170000Y-84190000D01*
X170670000Y-84190000D01*
X170717000Y-84191000D01*
X170764000Y-84195000D01*
X170811000Y-84201000D01*
X170857000Y-84210000D01*
X170903000Y-84221000D01*
X170948000Y-84234000D01*
X170993000Y-84250000D01*
X171036000Y-84268000D01*
X171079000Y-84288000D01*
X171120000Y-84311000D01*
X171160000Y-84335000D01*
X171199000Y-84362000D01*
X171236000Y-84391000D01*
X171272000Y-84421000D01*
X171306000Y-84454000D01*
X171339000Y-84488000D01*
X171369000Y-84524000D01*
X171398000Y-84561000D01*
X171425000Y-84600000D01*
X171449000Y-84640000D01*
X171472000Y-84681000D01*
X171492000Y-84724000D01*
X171510000Y-84767000D01*
X171526000Y-84812000D01*
X171539000Y-84857000D01*
X171550000Y-84903000D01*
X171559000Y-84949000D01*
X171565000Y-84996000D01*
X171569000Y-85043000D01*
X171570000Y-85090000D01*
X171569000Y-85137000D01*
X171565000Y-85184000D01*
X171559000Y-85231000D01*
X171550000Y-85277000D01*
X171539000Y-85323000D01*
X171526000Y-85368000D01*
X171510000Y-85413000D01*
X171492000Y-85456000D01*
X171472000Y-85499000D01*
X171449000Y-85540000D01*
X171425000Y-85580000D01*
X171398000Y-85619000D01*
X171369000Y-85656000D01*
X171339000Y-85692000D01*
X171306000Y-85726000D01*
X171272000Y-85759000D01*
X171236000Y-85789000D01*
X171199000Y-85818000D01*
X171160000Y-85845000D01*
X171120000Y-85869000D01*
X171079000Y-85892000D01*
X171036000Y-85912000D01*
X170993000Y-85930000D01*
X170948000Y-85946000D01*
X170903000Y-85959000D01*
X170857000Y-85970000D01*
X170811000Y-85979000D01*
X170764000Y-85985000D01*
X170717000Y-85989000D01*
X170670000Y-85990000D01*
X168170000Y-85990000D01*
G36*
X168170000Y-83450000D02*
G01*
X168170000Y-81650000D01*
X170670000Y-81650000D01*
X170717000Y-81651000D01*
X170764000Y-81655000D01*
X170811000Y-81661000D01*
X170857000Y-81670000D01*
X170903000Y-81681000D01*
X170948000Y-81694000D01*
X170993000Y-81710000D01*
X171036000Y-81728000D01*
X171079000Y-81748000D01*
X171120000Y-81771000D01*
X171160000Y-81795000D01*
X171199000Y-81822000D01*
X171236000Y-81851000D01*
X171272000Y-81881000D01*
X171306000Y-81914000D01*
X171339000Y-81948000D01*
X171369000Y-81984000D01*
X171398000Y-82021000D01*
X171425000Y-82060000D01*
X171449000Y-82100000D01*
X171472000Y-82141000D01*
X171492000Y-82184000D01*
X171510000Y-82227000D01*
X171526000Y-82272000D01*
X171539000Y-82317000D01*
X171550000Y-82363000D01*
X171559000Y-82409000D01*
X171565000Y-82456000D01*
X171569000Y-82503000D01*
X171570000Y-82550000D01*
X171569000Y-82597000D01*
X171565000Y-82644000D01*
X171559000Y-82691000D01*
X171550000Y-82737000D01*
X171539000Y-82783000D01*
X171526000Y-82828000D01*
X171510000Y-82873000D01*
X171492000Y-82916000D01*
X171472000Y-82959000D01*
X171449000Y-83000000D01*
X171425000Y-83040000D01*
X171398000Y-83079000D01*
X171369000Y-83116000D01*
X171339000Y-83152000D01*
X171306000Y-83186000D01*
X171272000Y-83219000D01*
X171236000Y-83249000D01*
X171199000Y-83278000D01*
X171160000Y-83305000D01*
X171120000Y-83329000D01*
X171079000Y-83352000D01*
X171036000Y-83372000D01*
X170993000Y-83390000D01*
X170948000Y-83406000D01*
X170903000Y-83419000D01*
X170857000Y-83430000D01*
X170811000Y-83439000D01*
X170764000Y-83445000D01*
X170717000Y-83449000D01*
X170670000Y-83450000D01*
X168170000Y-83450000D01*
G37*
X168170000Y-83450000D02*
X168170000Y-81650000D01*
X170670000Y-81650000D01*
X170717000Y-81651000D01*
X170764000Y-81655000D01*
X170811000Y-81661000D01*
X170857000Y-81670000D01*
X170903000Y-81681000D01*
X170948000Y-81694000D01*
X170993000Y-81710000D01*
X171036000Y-81728000D01*
X171079000Y-81748000D01*
X171120000Y-81771000D01*
X171160000Y-81795000D01*
X171199000Y-81822000D01*
X171236000Y-81851000D01*
X171272000Y-81881000D01*
X171306000Y-81914000D01*
X171339000Y-81948000D01*
X171369000Y-81984000D01*
X171398000Y-82021000D01*
X171425000Y-82060000D01*
X171449000Y-82100000D01*
X171472000Y-82141000D01*
X171492000Y-82184000D01*
X171510000Y-82227000D01*
X171526000Y-82272000D01*
X171539000Y-82317000D01*
X171550000Y-82363000D01*
X171559000Y-82409000D01*
X171565000Y-82456000D01*
X171569000Y-82503000D01*
X171570000Y-82550000D01*
X171569000Y-82597000D01*
X171565000Y-82644000D01*
X171559000Y-82691000D01*
X171550000Y-82737000D01*
X171539000Y-82783000D01*
X171526000Y-82828000D01*
X171510000Y-82873000D01*
X171492000Y-82916000D01*
X171472000Y-82959000D01*
X171449000Y-83000000D01*
X171425000Y-83040000D01*
X171398000Y-83079000D01*
X171369000Y-83116000D01*
X171339000Y-83152000D01*
X171306000Y-83186000D01*
X171272000Y-83219000D01*
X171236000Y-83249000D01*
X171199000Y-83278000D01*
X171160000Y-83305000D01*
X171120000Y-83329000D01*
X171079000Y-83352000D01*
X171036000Y-83372000D01*
X170993000Y-83390000D01*
X170948000Y-83406000D01*
X170903000Y-83419000D01*
X170857000Y-83430000D01*
X170811000Y-83439000D01*
X170764000Y-83445000D01*
X170717000Y-83449000D01*
X170670000Y-83450000D01*
X168170000Y-83450000D01*
G36*
X168170000Y-80910000D02*
G01*
X168170000Y-79110000D01*
X170670000Y-79110000D01*
X170717000Y-79111000D01*
X170764000Y-79115000D01*
X170811000Y-79121000D01*
X170857000Y-79130000D01*
X170903000Y-79141000D01*
X170948000Y-79154000D01*
X170993000Y-79170000D01*
X171036000Y-79188000D01*
X171079000Y-79208000D01*
X171120000Y-79231000D01*
X171160000Y-79255000D01*
X171199000Y-79282000D01*
X171236000Y-79311000D01*
X171272000Y-79341000D01*
X171306000Y-79374000D01*
X171339000Y-79408000D01*
X171369000Y-79444000D01*
X171398000Y-79481000D01*
X171425000Y-79520000D01*
X171449000Y-79560000D01*
X171472000Y-79601000D01*
X171492000Y-79644000D01*
X171510000Y-79687000D01*
X171526000Y-79732000D01*
X171539000Y-79777000D01*
X171550000Y-79823000D01*
X171559000Y-79869000D01*
X171565000Y-79916000D01*
X171569000Y-79963000D01*
X171570000Y-80010000D01*
X171569000Y-80057000D01*
X171565000Y-80104000D01*
X171559000Y-80151000D01*
X171550000Y-80197000D01*
X171539000Y-80243000D01*
X171526000Y-80288000D01*
X171510000Y-80333000D01*
X171492000Y-80376000D01*
X171472000Y-80419000D01*
X171449000Y-80460000D01*
X171425000Y-80500000D01*
X171398000Y-80539000D01*
X171369000Y-80576000D01*
X171339000Y-80612000D01*
X171306000Y-80646000D01*
X171272000Y-80679000D01*
X171236000Y-80709000D01*
X171199000Y-80738000D01*
X171160000Y-80765000D01*
X171120000Y-80789000D01*
X171079000Y-80812000D01*
X171036000Y-80832000D01*
X170993000Y-80850000D01*
X170948000Y-80866000D01*
X170903000Y-80879000D01*
X170857000Y-80890000D01*
X170811000Y-80899000D01*
X170764000Y-80905000D01*
X170717000Y-80909000D01*
X170670000Y-80910000D01*
X168170000Y-80910000D01*
G37*
X168170000Y-80910000D02*
X168170000Y-79110000D01*
X170670000Y-79110000D01*
X170717000Y-79111000D01*
X170764000Y-79115000D01*
X170811000Y-79121000D01*
X170857000Y-79130000D01*
X170903000Y-79141000D01*
X170948000Y-79154000D01*
X170993000Y-79170000D01*
X171036000Y-79188000D01*
X171079000Y-79208000D01*
X171120000Y-79231000D01*
X171160000Y-79255000D01*
X171199000Y-79282000D01*
X171236000Y-79311000D01*
X171272000Y-79341000D01*
X171306000Y-79374000D01*
X171339000Y-79408000D01*
X171369000Y-79444000D01*
X171398000Y-79481000D01*
X171425000Y-79520000D01*
X171449000Y-79560000D01*
X171472000Y-79601000D01*
X171492000Y-79644000D01*
X171510000Y-79687000D01*
X171526000Y-79732000D01*
X171539000Y-79777000D01*
X171550000Y-79823000D01*
X171559000Y-79869000D01*
X171565000Y-79916000D01*
X171569000Y-79963000D01*
X171570000Y-80010000D01*
X171569000Y-80057000D01*
X171565000Y-80104000D01*
X171559000Y-80151000D01*
X171550000Y-80197000D01*
X171539000Y-80243000D01*
X171526000Y-80288000D01*
X171510000Y-80333000D01*
X171492000Y-80376000D01*
X171472000Y-80419000D01*
X171449000Y-80460000D01*
X171425000Y-80500000D01*
X171398000Y-80539000D01*
X171369000Y-80576000D01*
X171339000Y-80612000D01*
X171306000Y-80646000D01*
X171272000Y-80679000D01*
X171236000Y-80709000D01*
X171199000Y-80738000D01*
X171160000Y-80765000D01*
X171120000Y-80789000D01*
X171079000Y-80812000D01*
X171036000Y-80832000D01*
X170993000Y-80850000D01*
X170948000Y-80866000D01*
X170903000Y-80879000D01*
X170857000Y-80890000D01*
X170811000Y-80899000D01*
X170764000Y-80905000D01*
X170717000Y-80909000D01*
X170670000Y-80910000D01*
X168170000Y-80910000D01*
G36*
X168170000Y-78370000D02*
G01*
X168170000Y-76570000D01*
X170670000Y-76570000D01*
X170717000Y-76571000D01*
X170764000Y-76575000D01*
X170811000Y-76581000D01*
X170857000Y-76590000D01*
X170903000Y-76601000D01*
X170948000Y-76614000D01*
X170993000Y-76630000D01*
X171036000Y-76648000D01*
X171079000Y-76668000D01*
X171120000Y-76691000D01*
X171160000Y-76715000D01*
X171199000Y-76742000D01*
X171236000Y-76771000D01*
X171272000Y-76801000D01*
X171306000Y-76834000D01*
X171339000Y-76868000D01*
X171369000Y-76904000D01*
X171398000Y-76941000D01*
X171425000Y-76980000D01*
X171449000Y-77020000D01*
X171472000Y-77061000D01*
X171492000Y-77104000D01*
X171510000Y-77147000D01*
X171526000Y-77192000D01*
X171539000Y-77237000D01*
X171550000Y-77283000D01*
X171559000Y-77329000D01*
X171565000Y-77376000D01*
X171569000Y-77423000D01*
X171570000Y-77470000D01*
X171569000Y-77517000D01*
X171565000Y-77564000D01*
X171559000Y-77611000D01*
X171550000Y-77657000D01*
X171539000Y-77703000D01*
X171526000Y-77748000D01*
X171510000Y-77793000D01*
X171492000Y-77836000D01*
X171472000Y-77879000D01*
X171449000Y-77920000D01*
X171425000Y-77960000D01*
X171398000Y-77999000D01*
X171369000Y-78036000D01*
X171339000Y-78072000D01*
X171306000Y-78106000D01*
X171272000Y-78139000D01*
X171236000Y-78169000D01*
X171199000Y-78198000D01*
X171160000Y-78225000D01*
X171120000Y-78249000D01*
X171079000Y-78272000D01*
X171036000Y-78292000D01*
X170993000Y-78310000D01*
X170948000Y-78326000D01*
X170903000Y-78339000D01*
X170857000Y-78350000D01*
X170811000Y-78359000D01*
X170764000Y-78365000D01*
X170717000Y-78369000D01*
X170670000Y-78370000D01*
X168170000Y-78370000D01*
G37*
X168170000Y-78370000D02*
X168170000Y-76570000D01*
X170670000Y-76570000D01*
X170717000Y-76571000D01*
X170764000Y-76575000D01*
X170811000Y-76581000D01*
X170857000Y-76590000D01*
X170903000Y-76601000D01*
X170948000Y-76614000D01*
X170993000Y-76630000D01*
X171036000Y-76648000D01*
X171079000Y-76668000D01*
X171120000Y-76691000D01*
X171160000Y-76715000D01*
X171199000Y-76742000D01*
X171236000Y-76771000D01*
X171272000Y-76801000D01*
X171306000Y-76834000D01*
X171339000Y-76868000D01*
X171369000Y-76904000D01*
X171398000Y-76941000D01*
X171425000Y-76980000D01*
X171449000Y-77020000D01*
X171472000Y-77061000D01*
X171492000Y-77104000D01*
X171510000Y-77147000D01*
X171526000Y-77192000D01*
X171539000Y-77237000D01*
X171550000Y-77283000D01*
X171559000Y-77329000D01*
X171565000Y-77376000D01*
X171569000Y-77423000D01*
X171570000Y-77470000D01*
X171569000Y-77517000D01*
X171565000Y-77564000D01*
X171559000Y-77611000D01*
X171550000Y-77657000D01*
X171539000Y-77703000D01*
X171526000Y-77748000D01*
X171510000Y-77793000D01*
X171492000Y-77836000D01*
X171472000Y-77879000D01*
X171449000Y-77920000D01*
X171425000Y-77960000D01*
X171398000Y-77999000D01*
X171369000Y-78036000D01*
X171339000Y-78072000D01*
X171306000Y-78106000D01*
X171272000Y-78139000D01*
X171236000Y-78169000D01*
X171199000Y-78198000D01*
X171160000Y-78225000D01*
X171120000Y-78249000D01*
X171079000Y-78272000D01*
X171036000Y-78292000D01*
X170993000Y-78310000D01*
X170948000Y-78326000D01*
X170903000Y-78339000D01*
X170857000Y-78350000D01*
X170811000Y-78359000D01*
X170764000Y-78365000D01*
X170717000Y-78369000D01*
X170670000Y-78370000D01*
X168170000Y-78370000D01*
G36*
X168170000Y-73290000D02*
G01*
X168170000Y-71490000D01*
X170670000Y-71490000D01*
X170717000Y-71491000D01*
X170764000Y-71495000D01*
X170811000Y-71501000D01*
X170857000Y-71510000D01*
X170903000Y-71521000D01*
X170948000Y-71534000D01*
X170993000Y-71550000D01*
X171036000Y-71568000D01*
X171079000Y-71588000D01*
X171120000Y-71611000D01*
X171160000Y-71635000D01*
X171199000Y-71662000D01*
X171236000Y-71691000D01*
X171272000Y-71721000D01*
X171306000Y-71754000D01*
X171339000Y-71788000D01*
X171369000Y-71824000D01*
X171398000Y-71861000D01*
X171425000Y-71900000D01*
X171449000Y-71940000D01*
X171472000Y-71981000D01*
X171492000Y-72024000D01*
X171510000Y-72067000D01*
X171526000Y-72112000D01*
X171539000Y-72157000D01*
X171550000Y-72203000D01*
X171559000Y-72249000D01*
X171565000Y-72296000D01*
X171569000Y-72343000D01*
X171570000Y-72390000D01*
X171569000Y-72437000D01*
X171565000Y-72484000D01*
X171559000Y-72531000D01*
X171550000Y-72577000D01*
X171539000Y-72623000D01*
X171526000Y-72668000D01*
X171510000Y-72713000D01*
X171492000Y-72756000D01*
X171472000Y-72799000D01*
X171449000Y-72840000D01*
X171425000Y-72880000D01*
X171398000Y-72919000D01*
X171369000Y-72956000D01*
X171339000Y-72992000D01*
X171306000Y-73026000D01*
X171272000Y-73059000D01*
X171236000Y-73089000D01*
X171199000Y-73118000D01*
X171160000Y-73145000D01*
X171120000Y-73169000D01*
X171079000Y-73192000D01*
X171036000Y-73212000D01*
X170993000Y-73230000D01*
X170948000Y-73246000D01*
X170903000Y-73259000D01*
X170857000Y-73270000D01*
X170811000Y-73279000D01*
X170764000Y-73285000D01*
X170717000Y-73289000D01*
X170670000Y-73290000D01*
X168170000Y-73290000D01*
G37*
X168170000Y-73290000D02*
X168170000Y-71490000D01*
X170670000Y-71490000D01*
X170717000Y-71491000D01*
X170764000Y-71495000D01*
X170811000Y-71501000D01*
X170857000Y-71510000D01*
X170903000Y-71521000D01*
X170948000Y-71534000D01*
X170993000Y-71550000D01*
X171036000Y-71568000D01*
X171079000Y-71588000D01*
X171120000Y-71611000D01*
X171160000Y-71635000D01*
X171199000Y-71662000D01*
X171236000Y-71691000D01*
X171272000Y-71721000D01*
X171306000Y-71754000D01*
X171339000Y-71788000D01*
X171369000Y-71824000D01*
X171398000Y-71861000D01*
X171425000Y-71900000D01*
X171449000Y-71940000D01*
X171472000Y-71981000D01*
X171492000Y-72024000D01*
X171510000Y-72067000D01*
X171526000Y-72112000D01*
X171539000Y-72157000D01*
X171550000Y-72203000D01*
X171559000Y-72249000D01*
X171565000Y-72296000D01*
X171569000Y-72343000D01*
X171570000Y-72390000D01*
X171569000Y-72437000D01*
X171565000Y-72484000D01*
X171559000Y-72531000D01*
X171550000Y-72577000D01*
X171539000Y-72623000D01*
X171526000Y-72668000D01*
X171510000Y-72713000D01*
X171492000Y-72756000D01*
X171472000Y-72799000D01*
X171449000Y-72840000D01*
X171425000Y-72880000D01*
X171398000Y-72919000D01*
X171369000Y-72956000D01*
X171339000Y-72992000D01*
X171306000Y-73026000D01*
X171272000Y-73059000D01*
X171236000Y-73089000D01*
X171199000Y-73118000D01*
X171160000Y-73145000D01*
X171120000Y-73169000D01*
X171079000Y-73192000D01*
X171036000Y-73212000D01*
X170993000Y-73230000D01*
X170948000Y-73246000D01*
X170903000Y-73259000D01*
X170857000Y-73270000D01*
X170811000Y-73279000D01*
X170764000Y-73285000D01*
X170717000Y-73289000D01*
X170670000Y-73290000D01*
X168170000Y-73290000D01*
G36*
X178660000Y-120380000D02*
G01*
X178660000Y-117280000D01*
X178660000Y-117264000D01*
X178662000Y-117249000D01*
X178664000Y-117233000D01*
X178667000Y-117218000D01*
X178670000Y-117202000D01*
X178675000Y-117187000D01*
X178680000Y-117172000D01*
X178686000Y-117158000D01*
X178693000Y-117144000D01*
X178700000Y-117130000D01*
X178708000Y-117117000D01*
X178717000Y-117104000D01*
X178727000Y-117091000D01*
X178737000Y-117079000D01*
X178748000Y-117068000D01*
X178759000Y-117057000D01*
X178771000Y-117047000D01*
X178784000Y-117037000D01*
X178797000Y-117028000D01*
X178810000Y-117020000D01*
X178824000Y-117013000D01*
X178838000Y-117006000D01*
X178852000Y-117000000D01*
X178867000Y-116995000D01*
X178882000Y-116990000D01*
X178898000Y-116987000D01*
X178913000Y-116984000D01*
X178929000Y-116982000D01*
X178944000Y-116980000D01*
X178960000Y-116980000D01*
X180160000Y-116980000D01*
X180176000Y-116980000D01*
X180191000Y-116982000D01*
X180207000Y-116984000D01*
X180222000Y-116987000D01*
X180238000Y-116990000D01*
X180253000Y-116995000D01*
X180268000Y-117000000D01*
X180282000Y-117006000D01*
X180296000Y-117013000D01*
X180310000Y-117020000D01*
X180323000Y-117028000D01*
X180336000Y-117037000D01*
X180349000Y-117047000D01*
X180361000Y-117057000D01*
X180372000Y-117068000D01*
X180383000Y-117079000D01*
X180393000Y-117091000D01*
X180403000Y-117104000D01*
X180412000Y-117117000D01*
X180420000Y-117130000D01*
X180427000Y-117144000D01*
X180434000Y-117158000D01*
X180440000Y-117172000D01*
X180445000Y-117187000D01*
X180450000Y-117202000D01*
X180453000Y-117218000D01*
X180456000Y-117233000D01*
X180458000Y-117249000D01*
X180460000Y-117264000D01*
X180460000Y-117280000D01*
X180460000Y-120380000D01*
X178660000Y-120380000D01*
G37*
X178660000Y-120380000D02*
X178660000Y-117280000D01*
X178660000Y-117264000D01*
X178662000Y-117249000D01*
X178664000Y-117233000D01*
X178667000Y-117218000D01*
X178670000Y-117202000D01*
X178675000Y-117187000D01*
X178680000Y-117172000D01*
X178686000Y-117158000D01*
X178693000Y-117144000D01*
X178700000Y-117130000D01*
X178708000Y-117117000D01*
X178717000Y-117104000D01*
X178727000Y-117091000D01*
X178737000Y-117079000D01*
X178748000Y-117068000D01*
X178759000Y-117057000D01*
X178771000Y-117047000D01*
X178784000Y-117037000D01*
X178797000Y-117028000D01*
X178810000Y-117020000D01*
X178824000Y-117013000D01*
X178838000Y-117006000D01*
X178852000Y-117000000D01*
X178867000Y-116995000D01*
X178882000Y-116990000D01*
X178898000Y-116987000D01*
X178913000Y-116984000D01*
X178929000Y-116982000D01*
X178944000Y-116980000D01*
X178960000Y-116980000D01*
X180160000Y-116980000D01*
X180176000Y-116980000D01*
X180191000Y-116982000D01*
X180207000Y-116984000D01*
X180222000Y-116987000D01*
X180238000Y-116990000D01*
X180253000Y-116995000D01*
X180268000Y-117000000D01*
X180282000Y-117006000D01*
X180296000Y-117013000D01*
X180310000Y-117020000D01*
X180323000Y-117028000D01*
X180336000Y-117037000D01*
X180349000Y-117047000D01*
X180361000Y-117057000D01*
X180372000Y-117068000D01*
X180383000Y-117079000D01*
X180393000Y-117091000D01*
X180403000Y-117104000D01*
X180412000Y-117117000D01*
X180420000Y-117130000D01*
X180427000Y-117144000D01*
X180434000Y-117158000D01*
X180440000Y-117172000D01*
X180445000Y-117187000D01*
X180450000Y-117202000D01*
X180453000Y-117218000D01*
X180456000Y-117233000D01*
X180458000Y-117249000D01*
X180460000Y-117264000D01*
X180460000Y-117280000D01*
X180460000Y-120380000D01*
X178660000Y-120380000D01*
G36*
X176120000Y-120380000D02*
G01*
X176120000Y-117880000D01*
X176121000Y-117833000D01*
X176125000Y-117786000D01*
X176131000Y-117739000D01*
X176140000Y-117693000D01*
X176151000Y-117647000D01*
X176164000Y-117602000D01*
X176180000Y-117557000D01*
X176198000Y-117514000D01*
X176218000Y-117471000D01*
X176241000Y-117430000D01*
X176265000Y-117390000D01*
X176292000Y-117351000D01*
X176321000Y-117314000D01*
X176351000Y-117278000D01*
X176384000Y-117244000D01*
X176418000Y-117211000D01*
X176454000Y-117181000D01*
X176491000Y-117152000D01*
X176530000Y-117125000D01*
X176570000Y-117101000D01*
X176611000Y-117078000D01*
X176654000Y-117058000D01*
X176697000Y-117040000D01*
X176742000Y-117024000D01*
X176787000Y-117011000D01*
X176833000Y-117000000D01*
X176879000Y-116991000D01*
X176926000Y-116985000D01*
X176973000Y-116981000D01*
X177020000Y-116980000D01*
X177067000Y-116981000D01*
X177114000Y-116985000D01*
X177161000Y-116991000D01*
X177207000Y-117000000D01*
X177253000Y-117011000D01*
X177298000Y-117024000D01*
X177343000Y-117040000D01*
X177386000Y-117058000D01*
X177429000Y-117078000D01*
X177470000Y-117101000D01*
X177510000Y-117125000D01*
X177549000Y-117152000D01*
X177586000Y-117181000D01*
X177622000Y-117211000D01*
X177656000Y-117244000D01*
X177689000Y-117278000D01*
X177719000Y-117314000D01*
X177748000Y-117351000D01*
X177775000Y-117390000D01*
X177799000Y-117430000D01*
X177822000Y-117471000D01*
X177842000Y-117514000D01*
X177860000Y-117557000D01*
X177876000Y-117602000D01*
X177889000Y-117647000D01*
X177900000Y-117693000D01*
X177909000Y-117739000D01*
X177915000Y-117786000D01*
X177919000Y-117833000D01*
X177920000Y-117880000D01*
X177920000Y-120380000D01*
X176120000Y-120380000D01*
G37*
X176120000Y-120380000D02*
X176120000Y-117880000D01*
X176121000Y-117833000D01*
X176125000Y-117786000D01*
X176131000Y-117739000D01*
X176140000Y-117693000D01*
X176151000Y-117647000D01*
X176164000Y-117602000D01*
X176180000Y-117557000D01*
X176198000Y-117514000D01*
X176218000Y-117471000D01*
X176241000Y-117430000D01*
X176265000Y-117390000D01*
X176292000Y-117351000D01*
X176321000Y-117314000D01*
X176351000Y-117278000D01*
X176384000Y-117244000D01*
X176418000Y-117211000D01*
X176454000Y-117181000D01*
X176491000Y-117152000D01*
X176530000Y-117125000D01*
X176570000Y-117101000D01*
X176611000Y-117078000D01*
X176654000Y-117058000D01*
X176697000Y-117040000D01*
X176742000Y-117024000D01*
X176787000Y-117011000D01*
X176833000Y-117000000D01*
X176879000Y-116991000D01*
X176926000Y-116985000D01*
X176973000Y-116981000D01*
X177020000Y-116980000D01*
X177067000Y-116981000D01*
X177114000Y-116985000D01*
X177161000Y-116991000D01*
X177207000Y-117000000D01*
X177253000Y-117011000D01*
X177298000Y-117024000D01*
X177343000Y-117040000D01*
X177386000Y-117058000D01*
X177429000Y-117078000D01*
X177470000Y-117101000D01*
X177510000Y-117125000D01*
X177549000Y-117152000D01*
X177586000Y-117181000D01*
X177622000Y-117211000D01*
X177656000Y-117244000D01*
X177689000Y-117278000D01*
X177719000Y-117314000D01*
X177748000Y-117351000D01*
X177775000Y-117390000D01*
X177799000Y-117430000D01*
X177822000Y-117471000D01*
X177842000Y-117514000D01*
X177860000Y-117557000D01*
X177876000Y-117602000D01*
X177889000Y-117647000D01*
X177900000Y-117693000D01*
X177909000Y-117739000D01*
X177915000Y-117786000D01*
X177919000Y-117833000D01*
X177920000Y-117880000D01*
X177920000Y-120380000D01*
X176120000Y-120380000D01*
G36*
X190950000Y-75830000D02*
G01*
X190950000Y-74030000D01*
X187850000Y-74030000D01*
X187834000Y-74030000D01*
X187819000Y-74032000D01*
X187803000Y-74034000D01*
X187788000Y-74037000D01*
X187772000Y-74040000D01*
X187757000Y-74045000D01*
X187742000Y-74050000D01*
X187728000Y-74056000D01*
X187714000Y-74063000D01*
X187700000Y-74070000D01*
X187687000Y-74078000D01*
X187674000Y-74087000D01*
X187661000Y-74097000D01*
X187649000Y-74107000D01*
X187638000Y-74118000D01*
X187627000Y-74129000D01*
X187617000Y-74141000D01*
X187607000Y-74154000D01*
X187598000Y-74167000D01*
X187590000Y-74180000D01*
X187583000Y-74194000D01*
X187576000Y-74208000D01*
X187570000Y-74222000D01*
X187565000Y-74237000D01*
X187560000Y-74252000D01*
X187557000Y-74268000D01*
X187554000Y-74283000D01*
X187552000Y-74299000D01*
X187550000Y-74314000D01*
X187550000Y-74330000D01*
X187550000Y-75530000D01*
X187550000Y-75546000D01*
X187552000Y-75561000D01*
X187554000Y-75577000D01*
X187557000Y-75592000D01*
X187560000Y-75608000D01*
X187565000Y-75623000D01*
X187570000Y-75638000D01*
X187576000Y-75652000D01*
X187583000Y-75666000D01*
X187590000Y-75680000D01*
X187598000Y-75693000D01*
X187607000Y-75706000D01*
X187617000Y-75719000D01*
X187627000Y-75731000D01*
X187638000Y-75742000D01*
X187649000Y-75753000D01*
X187661000Y-75763000D01*
X187674000Y-75773000D01*
X187687000Y-75782000D01*
X187700000Y-75790000D01*
X187714000Y-75797000D01*
X187728000Y-75804000D01*
X187742000Y-75810000D01*
X187757000Y-75815000D01*
X187772000Y-75820000D01*
X187788000Y-75823000D01*
X187803000Y-75826000D01*
X187819000Y-75828000D01*
X187834000Y-75830000D01*
X187850000Y-75830000D01*
X190950000Y-75830000D01*
G37*
X190950000Y-75830000D02*
X190950000Y-74030000D01*
X187850000Y-74030000D01*
X187834000Y-74030000D01*
X187819000Y-74032000D01*
X187803000Y-74034000D01*
X187788000Y-74037000D01*
X187772000Y-74040000D01*
X187757000Y-74045000D01*
X187742000Y-74050000D01*
X187728000Y-74056000D01*
X187714000Y-74063000D01*
X187700000Y-74070000D01*
X187687000Y-74078000D01*
X187674000Y-74087000D01*
X187661000Y-74097000D01*
X187649000Y-74107000D01*
X187638000Y-74118000D01*
X187627000Y-74129000D01*
X187617000Y-74141000D01*
X187607000Y-74154000D01*
X187598000Y-74167000D01*
X187590000Y-74180000D01*
X187583000Y-74194000D01*
X187576000Y-74208000D01*
X187570000Y-74222000D01*
X187565000Y-74237000D01*
X187560000Y-74252000D01*
X187557000Y-74268000D01*
X187554000Y-74283000D01*
X187552000Y-74299000D01*
X187550000Y-74314000D01*
X187550000Y-74330000D01*
X187550000Y-75530000D01*
X187550000Y-75546000D01*
X187552000Y-75561000D01*
X187554000Y-75577000D01*
X187557000Y-75592000D01*
X187560000Y-75608000D01*
X187565000Y-75623000D01*
X187570000Y-75638000D01*
X187576000Y-75652000D01*
X187583000Y-75666000D01*
X187590000Y-75680000D01*
X187598000Y-75693000D01*
X187607000Y-75706000D01*
X187617000Y-75719000D01*
X187627000Y-75731000D01*
X187638000Y-75742000D01*
X187649000Y-75753000D01*
X187661000Y-75763000D01*
X187674000Y-75773000D01*
X187687000Y-75782000D01*
X187700000Y-75790000D01*
X187714000Y-75797000D01*
X187728000Y-75804000D01*
X187742000Y-75810000D01*
X187757000Y-75815000D01*
X187772000Y-75820000D01*
X187788000Y-75823000D01*
X187803000Y-75826000D01*
X187819000Y-75828000D01*
X187834000Y-75830000D01*
X187850000Y-75830000D01*
X190950000Y-75830000D01*
G36*
X168170000Y-75830000D02*
G01*
X168170000Y-74030000D01*
X171270000Y-74030000D01*
X171286000Y-74030000D01*
X171301000Y-74032000D01*
X171317000Y-74034000D01*
X171332000Y-74037000D01*
X171348000Y-74040000D01*
X171363000Y-74045000D01*
X171378000Y-74050000D01*
X171392000Y-74056000D01*
X171406000Y-74063000D01*
X171420000Y-74070000D01*
X171433000Y-74078000D01*
X171446000Y-74087000D01*
X171459000Y-74097000D01*
X171471000Y-74107000D01*
X171482000Y-74118000D01*
X171493000Y-74129000D01*
X171503000Y-74141000D01*
X171513000Y-74154000D01*
X171522000Y-74167000D01*
X171530000Y-74180000D01*
X171537000Y-74194000D01*
X171544000Y-74208000D01*
X171550000Y-74222000D01*
X171555000Y-74237000D01*
X171560000Y-74252000D01*
X171563000Y-74268000D01*
X171566000Y-74283000D01*
X171568000Y-74299000D01*
X171570000Y-74314000D01*
X171570000Y-74330000D01*
X171570000Y-75530000D01*
X171570000Y-75546000D01*
X171568000Y-75561000D01*
X171566000Y-75577000D01*
X171563000Y-75592000D01*
X171560000Y-75608000D01*
X171555000Y-75623000D01*
X171550000Y-75638000D01*
X171544000Y-75652000D01*
X171537000Y-75666000D01*
X171530000Y-75680000D01*
X171522000Y-75693000D01*
X171513000Y-75706000D01*
X171503000Y-75719000D01*
X171493000Y-75731000D01*
X171482000Y-75742000D01*
X171471000Y-75753000D01*
X171459000Y-75763000D01*
X171446000Y-75773000D01*
X171433000Y-75782000D01*
X171420000Y-75790000D01*
X171406000Y-75797000D01*
X171392000Y-75804000D01*
X171378000Y-75810000D01*
X171363000Y-75815000D01*
X171348000Y-75820000D01*
X171332000Y-75823000D01*
X171317000Y-75826000D01*
X171301000Y-75828000D01*
X171286000Y-75830000D01*
X171270000Y-75830000D01*
X168170000Y-75830000D01*
G37*
X168170000Y-75830000D02*
X168170000Y-74030000D01*
X171270000Y-74030000D01*
X171286000Y-74030000D01*
X171301000Y-74032000D01*
X171317000Y-74034000D01*
X171332000Y-74037000D01*
X171348000Y-74040000D01*
X171363000Y-74045000D01*
X171378000Y-74050000D01*
X171392000Y-74056000D01*
X171406000Y-74063000D01*
X171420000Y-74070000D01*
X171433000Y-74078000D01*
X171446000Y-74087000D01*
X171459000Y-74097000D01*
X171471000Y-74107000D01*
X171482000Y-74118000D01*
X171493000Y-74129000D01*
X171503000Y-74141000D01*
X171513000Y-74154000D01*
X171522000Y-74167000D01*
X171530000Y-74180000D01*
X171537000Y-74194000D01*
X171544000Y-74208000D01*
X171550000Y-74222000D01*
X171555000Y-74237000D01*
X171560000Y-74252000D01*
X171563000Y-74268000D01*
X171566000Y-74283000D01*
X171568000Y-74299000D01*
X171570000Y-74314000D01*
X171570000Y-74330000D01*
X171570000Y-75530000D01*
X171570000Y-75546000D01*
X171568000Y-75561000D01*
X171566000Y-75577000D01*
X171563000Y-75592000D01*
X171560000Y-75608000D01*
X171555000Y-75623000D01*
X171550000Y-75638000D01*
X171544000Y-75652000D01*
X171537000Y-75666000D01*
X171530000Y-75680000D01*
X171522000Y-75693000D01*
X171513000Y-75706000D01*
X171503000Y-75719000D01*
X171493000Y-75731000D01*
X171482000Y-75742000D01*
X171471000Y-75753000D01*
X171459000Y-75763000D01*
X171446000Y-75773000D01*
X171433000Y-75782000D01*
X171420000Y-75790000D01*
X171406000Y-75797000D01*
X171392000Y-75804000D01*
X171378000Y-75810000D01*
X171363000Y-75815000D01*
X171348000Y-75820000D01*
X171332000Y-75823000D01*
X171317000Y-75826000D01*
X171301000Y-75828000D01*
X171286000Y-75830000D01*
X171270000Y-75830000D01*
X168170000Y-75830000D01*
G36*
X190950000Y-70750000D02*
G01*
X190950000Y-68950000D01*
X188450000Y-68950000D01*
X188403000Y-68951000D01*
X188356000Y-68955000D01*
X188309000Y-68961000D01*
X188263000Y-68970000D01*
X188217000Y-68981000D01*
X188172000Y-68994000D01*
X188127000Y-69010000D01*
X188084000Y-69028000D01*
X188041000Y-69048000D01*
X188000000Y-69071000D01*
X187960000Y-69095000D01*
X187921000Y-69122000D01*
X187884000Y-69151000D01*
X187848000Y-69181000D01*
X187814000Y-69214000D01*
X187781000Y-69248000D01*
X187751000Y-69284000D01*
X187722000Y-69321000D01*
X187695000Y-69360000D01*
X187671000Y-69400000D01*
X187648000Y-69441000D01*
X187628000Y-69484000D01*
X187610000Y-69527000D01*
X187594000Y-69572000D01*
X187581000Y-69617000D01*
X187570000Y-69663000D01*
X187561000Y-69709000D01*
X187555000Y-69756000D01*
X187551000Y-69803000D01*
X187550000Y-69850000D01*
X187551000Y-69897000D01*
X187555000Y-69944000D01*
X187561000Y-69991000D01*
X187570000Y-70037000D01*
X187581000Y-70083000D01*
X187594000Y-70128000D01*
X187610000Y-70173000D01*
X187628000Y-70216000D01*
X187648000Y-70259000D01*
X187671000Y-70300000D01*
X187695000Y-70340000D01*
X187722000Y-70379000D01*
X187751000Y-70416000D01*
X187781000Y-70452000D01*
X187814000Y-70486000D01*
X187848000Y-70519000D01*
X187884000Y-70549000D01*
X187921000Y-70578000D01*
X187960000Y-70605000D01*
X188000000Y-70629000D01*
X188041000Y-70652000D01*
X188084000Y-70672000D01*
X188127000Y-70690000D01*
X188172000Y-70706000D01*
X188217000Y-70719000D01*
X188263000Y-70730000D01*
X188309000Y-70739000D01*
X188356000Y-70745000D01*
X188403000Y-70749000D01*
X188450000Y-70750000D01*
X190950000Y-70750000D01*
G37*
X190950000Y-70750000D02*
X190950000Y-68950000D01*
X188450000Y-68950000D01*
X188403000Y-68951000D01*
X188356000Y-68955000D01*
X188309000Y-68961000D01*
X188263000Y-68970000D01*
X188217000Y-68981000D01*
X188172000Y-68994000D01*
X188127000Y-69010000D01*
X188084000Y-69028000D01*
X188041000Y-69048000D01*
X188000000Y-69071000D01*
X187960000Y-69095000D01*
X187921000Y-69122000D01*
X187884000Y-69151000D01*
X187848000Y-69181000D01*
X187814000Y-69214000D01*
X187781000Y-69248000D01*
X187751000Y-69284000D01*
X187722000Y-69321000D01*
X187695000Y-69360000D01*
X187671000Y-69400000D01*
X187648000Y-69441000D01*
X187628000Y-69484000D01*
X187610000Y-69527000D01*
X187594000Y-69572000D01*
X187581000Y-69617000D01*
X187570000Y-69663000D01*
X187561000Y-69709000D01*
X187555000Y-69756000D01*
X187551000Y-69803000D01*
X187550000Y-69850000D01*
X187551000Y-69897000D01*
X187555000Y-69944000D01*
X187561000Y-69991000D01*
X187570000Y-70037000D01*
X187581000Y-70083000D01*
X187594000Y-70128000D01*
X187610000Y-70173000D01*
X187628000Y-70216000D01*
X187648000Y-70259000D01*
X187671000Y-70300000D01*
X187695000Y-70340000D01*
X187722000Y-70379000D01*
X187751000Y-70416000D01*
X187781000Y-70452000D01*
X187814000Y-70486000D01*
X187848000Y-70519000D01*
X187884000Y-70549000D01*
X187921000Y-70578000D01*
X187960000Y-70605000D01*
X188000000Y-70629000D01*
X188041000Y-70652000D01*
X188084000Y-70672000D01*
X188127000Y-70690000D01*
X188172000Y-70706000D01*
X188217000Y-70719000D01*
X188263000Y-70730000D01*
X188309000Y-70739000D01*
X188356000Y-70745000D01*
X188403000Y-70749000D01*
X188450000Y-70750000D01*
X190950000Y-70750000D01*
G36*
X168170000Y-70750000D02*
G01*
X168170000Y-68950000D01*
X170670000Y-68950000D01*
X170717000Y-68951000D01*
X170764000Y-68955000D01*
X170811000Y-68961000D01*
X170857000Y-68970000D01*
X170903000Y-68981000D01*
X170948000Y-68994000D01*
X170993000Y-69010000D01*
X171036000Y-69028000D01*
X171079000Y-69048000D01*
X171120000Y-69071000D01*
X171160000Y-69095000D01*
X171199000Y-69122000D01*
X171236000Y-69151000D01*
X171272000Y-69181000D01*
X171306000Y-69214000D01*
X171339000Y-69248000D01*
X171369000Y-69284000D01*
X171398000Y-69321000D01*
X171425000Y-69360000D01*
X171449000Y-69400000D01*
X171472000Y-69441000D01*
X171492000Y-69484000D01*
X171510000Y-69527000D01*
X171526000Y-69572000D01*
X171539000Y-69617000D01*
X171550000Y-69663000D01*
X171559000Y-69709000D01*
X171565000Y-69756000D01*
X171569000Y-69803000D01*
X171570000Y-69850000D01*
X171569000Y-69897000D01*
X171565000Y-69944000D01*
X171559000Y-69991000D01*
X171550000Y-70037000D01*
X171539000Y-70083000D01*
X171526000Y-70128000D01*
X171510000Y-70173000D01*
X171492000Y-70216000D01*
X171472000Y-70259000D01*
X171449000Y-70300000D01*
X171425000Y-70340000D01*
X171398000Y-70379000D01*
X171369000Y-70416000D01*
X171339000Y-70452000D01*
X171306000Y-70486000D01*
X171272000Y-70519000D01*
X171236000Y-70549000D01*
X171199000Y-70578000D01*
X171160000Y-70605000D01*
X171120000Y-70629000D01*
X171079000Y-70652000D01*
X171036000Y-70672000D01*
X170993000Y-70690000D01*
X170948000Y-70706000D01*
X170903000Y-70719000D01*
X170857000Y-70730000D01*
X170811000Y-70739000D01*
X170764000Y-70745000D01*
X170717000Y-70749000D01*
X170670000Y-70750000D01*
X168170000Y-70750000D01*
G37*
X168170000Y-70750000D02*
X168170000Y-68950000D01*
X170670000Y-68950000D01*
X170717000Y-68951000D01*
X170764000Y-68955000D01*
X170811000Y-68961000D01*
X170857000Y-68970000D01*
X170903000Y-68981000D01*
X170948000Y-68994000D01*
X170993000Y-69010000D01*
X171036000Y-69028000D01*
X171079000Y-69048000D01*
X171120000Y-69071000D01*
X171160000Y-69095000D01*
X171199000Y-69122000D01*
X171236000Y-69151000D01*
X171272000Y-69181000D01*
X171306000Y-69214000D01*
X171339000Y-69248000D01*
X171369000Y-69284000D01*
X171398000Y-69321000D01*
X171425000Y-69360000D01*
X171449000Y-69400000D01*
X171472000Y-69441000D01*
X171492000Y-69484000D01*
X171510000Y-69527000D01*
X171526000Y-69572000D01*
X171539000Y-69617000D01*
X171550000Y-69663000D01*
X171559000Y-69709000D01*
X171565000Y-69756000D01*
X171569000Y-69803000D01*
X171570000Y-69850000D01*
X171569000Y-69897000D01*
X171565000Y-69944000D01*
X171559000Y-69991000D01*
X171550000Y-70037000D01*
X171539000Y-70083000D01*
X171526000Y-70128000D01*
X171510000Y-70173000D01*
X171492000Y-70216000D01*
X171472000Y-70259000D01*
X171449000Y-70300000D01*
X171425000Y-70340000D01*
X171398000Y-70379000D01*
X171369000Y-70416000D01*
X171339000Y-70452000D01*
X171306000Y-70486000D01*
X171272000Y-70519000D01*
X171236000Y-70549000D01*
X171199000Y-70578000D01*
X171160000Y-70605000D01*
X171120000Y-70629000D01*
X171079000Y-70652000D01*
X171036000Y-70672000D01*
X170993000Y-70690000D01*
X170948000Y-70706000D01*
X170903000Y-70719000D01*
X170857000Y-70730000D01*
X170811000Y-70739000D01*
X170764000Y-70745000D01*
X170717000Y-70749000D01*
X170670000Y-70750000D01*
X168170000Y-70750000D01*
%TD*%
D12*
%TO.C,TEST*%
X209400000Y-117400000D03*
D13*
X211940000Y-117400000D03*
%TD*%
D14*
%TO.C,PWR*%
X215200000Y-118800000D03*
X215200000Y-116100000D03*
%TD*%
D15*
%TO.C,U9*%
X202300000Y-92960000D03*
X202300000Y-94240000D03*
X202300000Y-95500000D03*
X202300000Y-96770000D03*
X202300000Y-98050000D03*
X202300000Y-99320000D03*
X202300000Y-100580000D03*
X202300000Y-101860000D03*
X196000000Y-101860000D03*
X196000000Y-100580000D03*
X196000000Y-99320000D03*
X196000000Y-98050000D03*
X196000000Y-96770000D03*
X196000000Y-95500000D03*
X196000000Y-94240000D03*
X196000000Y-92960000D03*
%TD*%
%TO.C,U8*%
X202650000Y-72550000D03*
X202650000Y-73830000D03*
X202650000Y-75090000D03*
X202650000Y-76360000D03*
X202650000Y-77640000D03*
X202650000Y-78910000D03*
X202650000Y-80170000D03*
X202650000Y-81450000D03*
X196350000Y-81450000D03*
X196350000Y-80170000D03*
X196350000Y-78910000D03*
X196350000Y-77640000D03*
X196350000Y-76360000D03*
X196350000Y-75090000D03*
X196350000Y-73830000D03*
X196350000Y-72550000D03*
%TD*%
D16*
%TO.C,U5*%
X181985000Y-73010000D03*
X177135000Y-73010000D03*
D17*
X182285000Y-69980000D03*
X176835000Y-69980000D03*
G36*
G01*
X176310000Y-81780000D02*
X176310000Y-81180000D01*
G75*
G02*
X176760000Y-80730000I450000J0D01*
G01*
X177360000Y-80730000D01*
G75*
G02*
X177810000Y-81180000I0J-450000D01*
G01*
X177810000Y-81780000D01*
G75*
G02*
X177360000Y-82230000I-450000J0D01*
G01*
X176760000Y-82230000D01*
G75*
G02*
X176310000Y-81780000I0J450000D01*
G01*
G37*
G36*
G01*
X176310000Y-79280000D02*
X176310000Y-78680000D01*
G75*
G02*
X176760000Y-78230000I450000J0D01*
G01*
X177360000Y-78230000D01*
G75*
G02*
X177810000Y-78680000I0J-450000D01*
G01*
X177810000Y-79280000D01*
G75*
G02*
X177360000Y-79730000I-450000J0D01*
G01*
X176760000Y-79730000D01*
G75*
G02*
X176310000Y-79280000I0J450000D01*
G01*
G37*
G36*
G01*
X176310000Y-76780000D02*
X176310000Y-76180000D01*
G75*
G02*
X176760000Y-75730000I450000J0D01*
G01*
X177360000Y-75730000D01*
G75*
G02*
X177810000Y-76180000I0J-450000D01*
G01*
X177810000Y-76780000D01*
G75*
G02*
X177360000Y-77230000I-450000J0D01*
G01*
X176760000Y-77230000D01*
G75*
G02*
X176310000Y-76780000I0J450000D01*
G01*
G37*
G36*
G01*
X178810000Y-73280000D02*
X178810000Y-72680000D01*
G75*
G02*
X179260000Y-72230000I450000J0D01*
G01*
X179860000Y-72230000D01*
G75*
G02*
X180310000Y-72680000I0J-450000D01*
G01*
X180310000Y-73280000D01*
G75*
G02*
X179860000Y-73730000I-450000J0D01*
G01*
X179260000Y-73730000D01*
G75*
G02*
X178810000Y-73280000I0J450000D01*
G01*
G37*
G36*
G01*
X179810000Y-69980000D02*
X179810000Y-69380000D01*
G75*
G02*
X180260000Y-68930000I450000J0D01*
G01*
X180860000Y-68930000D01*
G75*
G02*
X181310000Y-69380000I0J-450000D01*
G01*
X181310000Y-69980000D01*
G75*
G02*
X180860000Y-70430000I-450000J0D01*
G01*
X180260000Y-70430000D01*
G75*
G02*
X179810000Y-69980000I0J450000D01*
G01*
G37*
G36*
G01*
X177810000Y-69980000D02*
X177810000Y-69380000D01*
G75*
G02*
X178260000Y-68930000I450000J0D01*
G01*
X178860000Y-68930000D01*
G75*
G02*
X179310000Y-69380000I0J-450000D01*
G01*
X179310000Y-69980000D01*
G75*
G02*
X178860000Y-70430000I-450000J0D01*
G01*
X178260000Y-70430000D01*
G75*
G02*
X177810000Y-69980000I0J450000D01*
G01*
G37*
%TD*%
D18*
%TO.C,+ 5V -*%
X218960000Y-116800000D03*
D19*
X221500000Y-116800000D03*
%TD*%
D13*
%TO.C,J2*%
X210710000Y-68700000D03*
X213250000Y-68700000D03*
X210710000Y-71240000D03*
X213250000Y-71240000D03*
X210710000Y-73780000D03*
X213250000Y-73780000D03*
X210710000Y-76320000D03*
X213250000Y-76320000D03*
X210710000Y-78860000D03*
X213250000Y-78860000D03*
X210710000Y-81400000D03*
X213250000Y-81400000D03*
X210710000Y-83940000D03*
X213250000Y-83940000D03*
X210710000Y-86480000D03*
X213250000Y-86480000D03*
X210710000Y-89020000D03*
X213250000Y-89020000D03*
X210710000Y-91560000D03*
X213250000Y-91560000D03*
X210710000Y-94100000D03*
X213250000Y-94100000D03*
X210710000Y-96640000D03*
X213250000Y-96640000D03*
X210710000Y-99180000D03*
X213250000Y-99180000D03*
X210710000Y-101720000D03*
X213250000Y-101720000D03*
X210710000Y-104260000D03*
X213250000Y-104260000D03*
X210710000Y-106800000D03*
X213250000Y-106800000D03*
X210710000Y-109340000D03*
D12*
X213250000Y-109340000D03*
%TD*%
D13*
%TO.C,J1*%
X218960000Y-68660000D03*
X221500000Y-68660000D03*
X218960000Y-71200000D03*
X221500000Y-71200000D03*
X218960000Y-73740000D03*
X221500000Y-73740000D03*
X218960000Y-76280000D03*
X221500000Y-76280000D03*
X218960000Y-78820000D03*
X221500000Y-78820000D03*
X218960000Y-81360000D03*
X221500000Y-81360000D03*
X218960000Y-83900000D03*
X221500000Y-83900000D03*
X218960000Y-86440000D03*
X221500000Y-86440000D03*
X218960000Y-88980000D03*
X221500000Y-88980000D03*
X218960000Y-91520000D03*
X221500000Y-91520000D03*
X218960000Y-94060000D03*
X221500000Y-94060000D03*
X218960000Y-96600000D03*
X221500000Y-96600000D03*
X218960000Y-99140000D03*
X221500000Y-99140000D03*
X218960000Y-101680000D03*
X221500000Y-101680000D03*
X218960000Y-104220000D03*
X221500000Y-104220000D03*
X218960000Y-106760000D03*
X221500000Y-106760000D03*
X218960000Y-109300000D03*
D12*
X221500000Y-109300000D03*
%TD*%
D20*
%TO.C,C6*%
X198500000Y-89000000D03*
X201000000Y-89000000D03*
%TD*%
%TO.C,C5*%
X198250000Y-68500000D03*
X200750000Y-68500000D03*
%TD*%
M02*
