%TF.GenerationSoftware,KiCad,Pcbnew,5.1.10*%
%TF.CreationDate,2021-12-19T15:16:08+01:00*%
%TF.ProjectId,afterglow_pico,61667465-7267-46c6-9f77-5f7069636f2e,rev?*%
%TF.SameCoordinates,Original*%
%TF.FileFunction,Legend,Bot*%
%TF.FilePolarity,Positive*%
%FSLAX46Y46*%
G04 Gerber Fmt 4.6, Leading zero omitted, Abs format (unit mm)*
G04 Created by KiCad (PCBNEW 5.1.10) date 2021-12-19 15:16:08*
%MOMM*%
%LPD*%
G01*
G04 APERTURE LIST*
%ADD10C,0.100000*%
%ADD11C,0.150000*%
%ADD12C,0.010000*%
%ADD13C,0.120000*%
G04 APERTURE END LIST*
D10*
X181119047Y-74452380D02*
X180452380Y-74452380D01*
X180880952Y-75452380D01*
X179642857Y-74785714D02*
X179642857Y-75452380D01*
X179880952Y-74404761D02*
X180119047Y-75119047D01*
X179500000Y-75119047D01*
X178642857Y-75452380D02*
X179119047Y-75452380D01*
X179119047Y-74452380D01*
X178357142Y-75404761D02*
X178214285Y-75452380D01*
X177976190Y-75452380D01*
X177880952Y-75404761D01*
X177833333Y-75357142D01*
X177785714Y-75261904D01*
X177785714Y-75166666D01*
X177833333Y-75071428D01*
X177880952Y-75023809D01*
X177976190Y-74976190D01*
X178166666Y-74928571D01*
X178261904Y-74880952D01*
X178309523Y-74833333D01*
X178357142Y-74738095D01*
X178357142Y-74642857D01*
X178309523Y-74547619D01*
X178261904Y-74500000D01*
X178166666Y-74452380D01*
X177928571Y-74452380D01*
X177785714Y-74500000D01*
X177404761Y-74547619D02*
X177357142Y-74500000D01*
X177261904Y-74452380D01*
X177023809Y-74452380D01*
X176928571Y-74500000D01*
X176880952Y-74547619D01*
X176833333Y-74642857D01*
X176833333Y-74738095D01*
X176880952Y-74880952D01*
X177452380Y-75452380D01*
X176833333Y-75452380D01*
X175976190Y-74785714D02*
X175976190Y-75452380D01*
X176214285Y-74404761D02*
X176452380Y-75119047D01*
X175833333Y-75119047D01*
X174976190Y-74452380D02*
X175452380Y-74452380D01*
X175500000Y-74928571D01*
X175452380Y-74880952D01*
X175357142Y-74833333D01*
X175119047Y-74833333D01*
X175023809Y-74880952D01*
X174976190Y-74928571D01*
X174928571Y-75023809D01*
X174928571Y-75261904D01*
X174976190Y-75357142D01*
X175023809Y-75404761D01*
X175119047Y-75452380D01*
X175357142Y-75452380D01*
X175452380Y-75404761D01*
X175500000Y-75357142D01*
X201971428Y-74452380D02*
X201304761Y-74452380D01*
X201733333Y-75452380D01*
X200495238Y-74785714D02*
X200495238Y-75452380D01*
X200733333Y-74404761D02*
X200971428Y-75119047D01*
X200352380Y-75119047D01*
X199495238Y-75452380D02*
X199971428Y-75452380D01*
X199971428Y-74452380D01*
X199304761Y-74452380D02*
X198971428Y-75452380D01*
X198638095Y-74452380D01*
X197733333Y-75357142D02*
X197780952Y-75404761D01*
X197923809Y-75452380D01*
X198019047Y-75452380D01*
X198161904Y-75404761D01*
X198257142Y-75309523D01*
X198304761Y-75214285D01*
X198352380Y-75023809D01*
X198352380Y-74880952D01*
X198304761Y-74690476D01*
X198257142Y-74595238D01*
X198161904Y-74500000D01*
X198019047Y-74452380D01*
X197923809Y-74452380D01*
X197780952Y-74500000D01*
X197733333Y-74547619D01*
X197352380Y-74547619D02*
X197304761Y-74500000D01*
X197209523Y-74452380D01*
X196971428Y-74452380D01*
X196876190Y-74500000D01*
X196828571Y-74547619D01*
X196780952Y-74642857D01*
X196780952Y-74738095D01*
X196828571Y-74880952D01*
X197400000Y-75452380D01*
X196780952Y-75452380D01*
X195923809Y-74785714D02*
X195923809Y-75452380D01*
X196161904Y-74404761D02*
X196400000Y-75119047D01*
X195780952Y-75119047D01*
X194923809Y-74452380D02*
X195400000Y-74452380D01*
X195447619Y-74928571D01*
X195400000Y-74880952D01*
X195304761Y-74833333D01*
X195066666Y-74833333D01*
X194971428Y-74880952D01*
X194923809Y-74928571D01*
X194876190Y-75023809D01*
X194876190Y-75261904D01*
X194923809Y-75357142D01*
X194971428Y-75404761D01*
X195066666Y-75452380D01*
X195304761Y-75452380D01*
X195400000Y-75404761D01*
X195447619Y-75357142D01*
X201971428Y-94652380D02*
X201304761Y-94652380D01*
X201733333Y-95652380D01*
X200495238Y-94985714D02*
X200495238Y-95652380D01*
X200733333Y-94604761D02*
X200971428Y-95319047D01*
X200352380Y-95319047D01*
X199495238Y-95652380D02*
X199971428Y-95652380D01*
X199971428Y-94652380D01*
X199304761Y-94652380D02*
X198971428Y-95652380D01*
X198638095Y-94652380D01*
X197733333Y-95557142D02*
X197780952Y-95604761D01*
X197923809Y-95652380D01*
X198019047Y-95652380D01*
X198161904Y-95604761D01*
X198257142Y-95509523D01*
X198304761Y-95414285D01*
X198352380Y-95223809D01*
X198352380Y-95080952D01*
X198304761Y-94890476D01*
X198257142Y-94795238D01*
X198161904Y-94700000D01*
X198019047Y-94652380D01*
X197923809Y-94652380D01*
X197780952Y-94700000D01*
X197733333Y-94747619D01*
X197352380Y-94747619D02*
X197304761Y-94700000D01*
X197209523Y-94652380D01*
X196971428Y-94652380D01*
X196876190Y-94700000D01*
X196828571Y-94747619D01*
X196780952Y-94842857D01*
X196780952Y-94938095D01*
X196828571Y-95080952D01*
X197400000Y-95652380D01*
X196780952Y-95652380D01*
X195923809Y-94985714D02*
X195923809Y-95652380D01*
X196161904Y-94604761D02*
X196400000Y-95319047D01*
X195780952Y-95319047D01*
X194923809Y-94652380D02*
X195400000Y-94652380D01*
X195447619Y-95128571D01*
X195400000Y-95080952D01*
X195304761Y-95033333D01*
X195066666Y-95033333D01*
X194971428Y-95080952D01*
X194923809Y-95128571D01*
X194876190Y-95223809D01*
X194876190Y-95461904D01*
X194923809Y-95557142D01*
X194971428Y-95604761D01*
X195066666Y-95652380D01*
X195304761Y-95652380D01*
X195400000Y-95604761D01*
X195447619Y-95557142D01*
X181119047Y-94652380D02*
X180452380Y-94652380D01*
X180880952Y-95652380D01*
X179642857Y-94985714D02*
X179642857Y-95652380D01*
X179880952Y-94604761D02*
X180119047Y-95319047D01*
X179500000Y-95319047D01*
X178642857Y-95652380D02*
X179119047Y-95652380D01*
X179119047Y-94652380D01*
X178357142Y-95604761D02*
X178214285Y-95652380D01*
X177976190Y-95652380D01*
X177880952Y-95604761D01*
X177833333Y-95557142D01*
X177785714Y-95461904D01*
X177785714Y-95366666D01*
X177833333Y-95271428D01*
X177880952Y-95223809D01*
X177976190Y-95176190D01*
X178166666Y-95128571D01*
X178261904Y-95080952D01*
X178309523Y-95033333D01*
X178357142Y-94938095D01*
X178357142Y-94842857D01*
X178309523Y-94747619D01*
X178261904Y-94700000D01*
X178166666Y-94652380D01*
X177928571Y-94652380D01*
X177785714Y-94700000D01*
X177404761Y-94747619D02*
X177357142Y-94700000D01*
X177261904Y-94652380D01*
X177023809Y-94652380D01*
X176928571Y-94700000D01*
X176880952Y-94747619D01*
X176833333Y-94842857D01*
X176833333Y-94938095D01*
X176880952Y-95080952D01*
X177452380Y-95652380D01*
X176833333Y-95652380D01*
X175976190Y-94985714D02*
X175976190Y-95652380D01*
X176214285Y-94604761D02*
X176452380Y-95319047D01*
X175833333Y-95319047D01*
X174976190Y-94652380D02*
X175452380Y-94652380D01*
X175500000Y-95128571D01*
X175452380Y-95080952D01*
X175357142Y-95033333D01*
X175119047Y-95033333D01*
X175023809Y-95080952D01*
X174976190Y-95128571D01*
X174928571Y-95223809D01*
X174928571Y-95461904D01*
X174976190Y-95557142D01*
X175023809Y-95604761D01*
X175119047Y-95652380D01*
X175357142Y-95652380D01*
X175452380Y-95604761D01*
X175500000Y-95557142D01*
X181042857Y-110252380D02*
X180376190Y-110252380D01*
X180804761Y-111252380D01*
X179566666Y-110585714D02*
X179566666Y-111252380D01*
X179804761Y-110204761D02*
X180042857Y-110919047D01*
X179423809Y-110919047D01*
X178566666Y-111252380D02*
X179042857Y-111252380D01*
X179042857Y-110252380D01*
X178280952Y-111204761D02*
X178138095Y-111252380D01*
X177900000Y-111252380D01*
X177804761Y-111204761D01*
X177757142Y-111157142D01*
X177709523Y-111061904D01*
X177709523Y-110966666D01*
X177757142Y-110871428D01*
X177804761Y-110823809D01*
X177900000Y-110776190D01*
X178090476Y-110728571D01*
X178185714Y-110680952D01*
X178233333Y-110633333D01*
X178280952Y-110538095D01*
X178280952Y-110442857D01*
X178233333Y-110347619D01*
X178185714Y-110300000D01*
X178090476Y-110252380D01*
X177852380Y-110252380D01*
X177709523Y-110300000D01*
X177090476Y-110252380D02*
X176995238Y-110252380D01*
X176900000Y-110300000D01*
X176852380Y-110347619D01*
X176804761Y-110442857D01*
X176757142Y-110633333D01*
X176757142Y-110871428D01*
X176804761Y-111061904D01*
X176852380Y-111157142D01*
X176900000Y-111204761D01*
X176995238Y-111252380D01*
X177090476Y-111252380D01*
X177185714Y-111204761D01*
X177233333Y-111157142D01*
X177280952Y-111061904D01*
X177328571Y-110871428D01*
X177328571Y-110633333D01*
X177280952Y-110442857D01*
X177233333Y-110347619D01*
X177185714Y-110300000D01*
X177090476Y-110252380D01*
X176185714Y-110680952D02*
X176280952Y-110633333D01*
X176328571Y-110585714D01*
X176376190Y-110490476D01*
X176376190Y-110442857D01*
X176328571Y-110347619D01*
X176280952Y-110300000D01*
X176185714Y-110252380D01*
X175995238Y-110252380D01*
X175900000Y-110300000D01*
X175852380Y-110347619D01*
X175804761Y-110442857D01*
X175804761Y-110490476D01*
X175852380Y-110585714D01*
X175900000Y-110633333D01*
X175995238Y-110680952D01*
X176185714Y-110680952D01*
X176280952Y-110728571D01*
X176328571Y-110776190D01*
X176376190Y-110871428D01*
X176376190Y-111061904D01*
X176328571Y-111157142D01*
X176280952Y-111204761D01*
X176185714Y-111252380D01*
X175995238Y-111252380D01*
X175900000Y-111204761D01*
X175852380Y-111157142D01*
X175804761Y-111061904D01*
X175804761Y-110871428D01*
X175852380Y-110776190D01*
X175900000Y-110728571D01*
X175995238Y-110680952D01*
X201042857Y-110252380D02*
X200376190Y-110252380D01*
X200804761Y-111252380D01*
X199566666Y-110585714D02*
X199566666Y-111252380D01*
X199804761Y-110204761D02*
X200042857Y-110919047D01*
X199423809Y-110919047D01*
X198566666Y-111252380D02*
X199042857Y-111252380D01*
X199042857Y-110252380D01*
X198280952Y-111204761D02*
X198138095Y-111252380D01*
X197900000Y-111252380D01*
X197804761Y-111204761D01*
X197757142Y-111157142D01*
X197709523Y-111061904D01*
X197709523Y-110966666D01*
X197757142Y-110871428D01*
X197804761Y-110823809D01*
X197900000Y-110776190D01*
X198090476Y-110728571D01*
X198185714Y-110680952D01*
X198233333Y-110633333D01*
X198280952Y-110538095D01*
X198280952Y-110442857D01*
X198233333Y-110347619D01*
X198185714Y-110300000D01*
X198090476Y-110252380D01*
X197852380Y-110252380D01*
X197709523Y-110300000D01*
X197328571Y-110347619D02*
X197280952Y-110300000D01*
X197185714Y-110252380D01*
X196947619Y-110252380D01*
X196852380Y-110300000D01*
X196804761Y-110347619D01*
X196757142Y-110442857D01*
X196757142Y-110538095D01*
X196804761Y-110680952D01*
X197376190Y-111252380D01*
X196757142Y-111252380D01*
X195804761Y-111252380D02*
X196376190Y-111252380D01*
X196090476Y-111252380D02*
X196090476Y-110252380D01*
X196185714Y-110395238D01*
X196280952Y-110490476D01*
X196376190Y-110538095D01*
D11*
X172033333Y-75942857D02*
X171985714Y-75895238D01*
X171842857Y-75800000D01*
X171747619Y-75752380D01*
X171604761Y-75704761D01*
X171366666Y-75657142D01*
X171176190Y-75657142D01*
X170938095Y-75704761D01*
X170795238Y-75752380D01*
X170700000Y-75800000D01*
X170557142Y-75895238D01*
X170509523Y-75942857D01*
X171604761Y-76752380D02*
X171652380Y-76657142D01*
X171652380Y-76466666D01*
X171604761Y-76371428D01*
X171557142Y-76323809D01*
X171461904Y-76276190D01*
X171176190Y-76276190D01*
X171080952Y-76323809D01*
X171033333Y-76371428D01*
X170985714Y-76466666D01*
X170985714Y-76657142D01*
X171033333Y-76752380D01*
X172033333Y-77085714D02*
X171985714Y-77133333D01*
X171842857Y-77228571D01*
X171747619Y-77276190D01*
X171604761Y-77323809D01*
X171366666Y-77371428D01*
X171176190Y-77371428D01*
X170938095Y-77323809D01*
X170795238Y-77276190D01*
X170700000Y-77228571D01*
X170557142Y-77133333D01*
X170509523Y-77085714D01*
X170747619Y-78561904D02*
X170700000Y-78609523D01*
X170652380Y-78704761D01*
X170652380Y-78942857D01*
X170700000Y-79038095D01*
X170747619Y-79085714D01*
X170842857Y-79133333D01*
X170938095Y-79133333D01*
X171080952Y-79085714D01*
X171652380Y-78514285D01*
X171652380Y-79133333D01*
X170652380Y-79752380D02*
X170652380Y-79847619D01*
X170700000Y-79942857D01*
X170747619Y-79990476D01*
X170842857Y-80038095D01*
X171033333Y-80085714D01*
X171271428Y-80085714D01*
X171461904Y-80038095D01*
X171557142Y-79990476D01*
X171604761Y-79942857D01*
X171652380Y-79847619D01*
X171652380Y-79752380D01*
X171604761Y-79657142D01*
X171557142Y-79609523D01*
X171461904Y-79561904D01*
X171271428Y-79514285D01*
X171033333Y-79514285D01*
X170842857Y-79561904D01*
X170747619Y-79609523D01*
X170700000Y-79657142D01*
X170652380Y-79752380D01*
X170747619Y-80466666D02*
X170700000Y-80514285D01*
X170652380Y-80609523D01*
X170652380Y-80847619D01*
X170700000Y-80942857D01*
X170747619Y-80990476D01*
X170842857Y-81038095D01*
X170938095Y-81038095D01*
X171080952Y-80990476D01*
X171652380Y-80419047D01*
X171652380Y-81038095D01*
X171652380Y-81990476D02*
X171652380Y-81419047D01*
X171652380Y-81704761D02*
X170652380Y-81704761D01*
X170795238Y-81609523D01*
X170890476Y-81514285D01*
X170938095Y-81419047D01*
D12*
%TO.C,BFL_LOGO*%
G36*
X169659259Y-86636526D02*
G01*
X169659259Y-86555427D01*
X169654001Y-86507296D01*
X169627163Y-86483285D01*
X169562156Y-86475097D01*
X169497063Y-86474329D01*
X169400801Y-86471700D01*
X169352778Y-86458281D01*
X169336402Y-86425777D01*
X169334866Y-86393231D01*
X169321468Y-86331498D01*
X169268713Y-86312475D01*
X169253768Y-86312132D01*
X169192035Y-86325531D01*
X169173012Y-86378286D01*
X169172669Y-86393231D01*
X169159271Y-86454963D01*
X169106516Y-86473987D01*
X169091571Y-86474329D01*
X169029838Y-86487727D01*
X169010815Y-86540482D01*
X169010473Y-86555427D01*
X169010473Y-86636526D01*
X169659259Y-86636526D01*
G37*
X169659259Y-86636526D02*
X169659259Y-86555427D01*
X169654001Y-86507296D01*
X169627163Y-86483285D01*
X169562156Y-86475097D01*
X169497063Y-86474329D01*
X169400801Y-86471700D01*
X169352778Y-86458281D01*
X169336402Y-86425777D01*
X169334866Y-86393231D01*
X169321468Y-86331498D01*
X169268713Y-86312475D01*
X169253768Y-86312132D01*
X169192035Y-86325531D01*
X169173012Y-86378286D01*
X169172669Y-86393231D01*
X169159271Y-86454963D01*
X169106516Y-86473987D01*
X169091571Y-86474329D01*
X169029838Y-86487727D01*
X169010815Y-86540482D01*
X169010473Y-86555427D01*
X169010473Y-86636526D01*
X169659259Y-86636526D01*
G36*
X170794636Y-86247254D02*
G01*
X170794636Y-85760664D01*
X170470243Y-85760664D01*
X170470243Y-85922860D01*
X170566505Y-85925490D01*
X170614528Y-85938908D01*
X170630903Y-85971412D01*
X170632439Y-86003959D01*
X170627181Y-86052090D01*
X170600343Y-86076101D01*
X170535336Y-86084289D01*
X170470243Y-86085057D01*
X170373981Y-86082428D01*
X170325958Y-86069009D01*
X170309582Y-86036505D01*
X170308046Y-86003959D01*
X170313305Y-85955828D01*
X170340142Y-85931816D01*
X170405149Y-85923629D01*
X170470243Y-85922860D01*
X170470243Y-85760664D01*
X170145849Y-85760664D01*
X170145849Y-86247254D01*
X170794636Y-86247254D01*
G37*
X170794636Y-86247254D02*
X170794636Y-85760664D01*
X170470243Y-85760664D01*
X170470243Y-85922860D01*
X170566505Y-85925490D01*
X170614528Y-85938908D01*
X170630903Y-85971412D01*
X170632439Y-86003959D01*
X170627181Y-86052090D01*
X170600343Y-86076101D01*
X170535336Y-86084289D01*
X170470243Y-86085057D01*
X170373981Y-86082428D01*
X170325958Y-86069009D01*
X170309582Y-86036505D01*
X170308046Y-86003959D01*
X170313305Y-85955828D01*
X170340142Y-85931816D01*
X170405149Y-85923629D01*
X170470243Y-85922860D01*
X170470243Y-85760664D01*
X170145849Y-85760664D01*
X170145849Y-86247254D01*
X170794636Y-86247254D01*
G36*
X171119029Y-85176756D02*
G01*
X171119029Y-85095657D01*
X171113771Y-85047526D01*
X171086933Y-85023515D01*
X171021926Y-85015327D01*
X170956833Y-85014559D01*
X170860571Y-85011930D01*
X170812548Y-84998511D01*
X170796173Y-84966007D01*
X170794636Y-84933461D01*
X170781238Y-84871728D01*
X170728483Y-84852705D01*
X170713538Y-84852362D01*
X170651805Y-84865761D01*
X170632782Y-84918515D01*
X170632439Y-84933461D01*
X170619041Y-84995193D01*
X170566286Y-85014216D01*
X170551341Y-85014559D01*
X170489609Y-85027957D01*
X170470585Y-85080712D01*
X170470243Y-85095657D01*
X170470243Y-85176756D01*
X171119029Y-85176756D01*
G37*
X171119029Y-85176756D02*
X171119029Y-85095657D01*
X171113771Y-85047526D01*
X171086933Y-85023515D01*
X171021926Y-85015327D01*
X170956833Y-85014559D01*
X170860571Y-85011930D01*
X170812548Y-84998511D01*
X170796173Y-84966007D01*
X170794636Y-84933461D01*
X170781238Y-84871728D01*
X170728483Y-84852705D01*
X170713538Y-84852362D01*
X170651805Y-84865761D01*
X170632782Y-84918515D01*
X170632439Y-84933461D01*
X170619041Y-84995193D01*
X170566286Y-85014216D01*
X170551341Y-85014559D01*
X170489609Y-85027957D01*
X170470585Y-85080712D01*
X170470243Y-85095657D01*
X170470243Y-85176756D01*
X171119029Y-85176756D01*
G36*
X170567561Y-92248531D02*
G01*
X170567561Y-91924137D01*
X170243167Y-91924137D01*
X170243167Y-92248531D01*
X170567561Y-92248531D01*
G37*
X170567561Y-92248531D02*
X170567561Y-91924137D01*
X170243167Y-91924137D01*
X170243167Y-92248531D01*
X170567561Y-92248531D01*
G36*
X170567561Y-89815581D02*
G01*
X170567561Y-89491187D01*
X170243167Y-89491187D01*
X170243167Y-89815581D01*
X170567561Y-89815581D01*
G37*
X170567561Y-89815581D02*
X170567561Y-89491187D01*
X170243167Y-89491187D01*
X170243167Y-89815581D01*
X170567561Y-89815581D01*
G36*
X170891954Y-101655938D02*
G01*
X170891954Y-101412643D01*
X170892965Y-101288893D01*
X170899034Y-101216354D01*
X170914716Y-101181359D01*
X170944568Y-101170243D01*
X170973052Y-101169348D01*
X171014302Y-101172380D01*
X171038482Y-101190587D01*
X171050147Y-101237635D01*
X171053853Y-101327190D01*
X171054151Y-101412643D01*
X171055161Y-101536393D01*
X171061230Y-101608933D01*
X171076913Y-101643928D01*
X171106765Y-101655044D01*
X171135249Y-101655938D01*
X171196982Y-101669336D01*
X171216005Y-101722091D01*
X171216347Y-101737037D01*
X171221606Y-101785168D01*
X171248443Y-101809179D01*
X171313451Y-101817367D01*
X171378544Y-101818135D01*
X171474806Y-101815506D01*
X171522829Y-101802087D01*
X171539204Y-101769583D01*
X171540741Y-101737037D01*
X171554139Y-101675304D01*
X171606894Y-101656281D01*
X171621839Y-101655938D01*
X171683572Y-101642540D01*
X171702595Y-101589785D01*
X171702937Y-101574840D01*
X171716336Y-101513107D01*
X171769091Y-101494084D01*
X171784036Y-101493742D01*
X171865134Y-101493742D01*
X171865134Y-100682758D01*
X171540741Y-100682758D01*
X171540741Y-101331545D01*
X171216347Y-101331545D01*
X171216347Y-101088250D01*
X171215337Y-100964500D01*
X171209268Y-100891960D01*
X171193585Y-100856966D01*
X171163734Y-100845849D01*
X171135249Y-100844955D01*
X171073517Y-100831557D01*
X171054493Y-100778802D01*
X171054151Y-100763857D01*
X171048892Y-100715725D01*
X171022055Y-100691714D01*
X170957047Y-100683526D01*
X170891954Y-100682758D01*
X170795692Y-100685388D01*
X170747669Y-100698806D01*
X170731294Y-100731310D01*
X170729757Y-100763857D01*
X170716359Y-100825589D01*
X170663604Y-100844612D01*
X170648659Y-100844955D01*
X170567561Y-100844955D01*
X170567561Y-101655938D01*
X170891954Y-101655938D01*
G37*
X170891954Y-101655938D02*
X170891954Y-101412643D01*
X170892965Y-101288893D01*
X170899034Y-101216354D01*
X170914716Y-101181359D01*
X170944568Y-101170243D01*
X170973052Y-101169348D01*
X171014302Y-101172380D01*
X171038482Y-101190587D01*
X171050147Y-101237635D01*
X171053853Y-101327190D01*
X171054151Y-101412643D01*
X171055161Y-101536393D01*
X171061230Y-101608933D01*
X171076913Y-101643928D01*
X171106765Y-101655044D01*
X171135249Y-101655938D01*
X171196982Y-101669336D01*
X171216005Y-101722091D01*
X171216347Y-101737037D01*
X171221606Y-101785168D01*
X171248443Y-101809179D01*
X171313451Y-101817367D01*
X171378544Y-101818135D01*
X171474806Y-101815506D01*
X171522829Y-101802087D01*
X171539204Y-101769583D01*
X171540741Y-101737037D01*
X171554139Y-101675304D01*
X171606894Y-101656281D01*
X171621839Y-101655938D01*
X171683572Y-101642540D01*
X171702595Y-101589785D01*
X171702937Y-101574840D01*
X171716336Y-101513107D01*
X171769091Y-101494084D01*
X171784036Y-101493742D01*
X171865134Y-101493742D01*
X171865134Y-100682758D01*
X171540741Y-100682758D01*
X171540741Y-101331545D01*
X171216347Y-101331545D01*
X171216347Y-101088250D01*
X171215337Y-100964500D01*
X171209268Y-100891960D01*
X171193585Y-100856966D01*
X171163734Y-100845849D01*
X171135249Y-100844955D01*
X171073517Y-100831557D01*
X171054493Y-100778802D01*
X171054151Y-100763857D01*
X171048892Y-100715725D01*
X171022055Y-100691714D01*
X170957047Y-100683526D01*
X170891954Y-100682758D01*
X170795692Y-100685388D01*
X170747669Y-100698806D01*
X170731294Y-100731310D01*
X170729757Y-100763857D01*
X170716359Y-100825589D01*
X170663604Y-100844612D01*
X170648659Y-100844955D01*
X170567561Y-100844955D01*
X170567561Y-101655938D01*
X170891954Y-101655938D01*
G36*
X170486462Y-99547381D02*
G01*
X170610212Y-99548392D01*
X170682752Y-99554461D01*
X170717747Y-99570144D01*
X170728863Y-99599995D01*
X170729757Y-99628480D01*
X170716359Y-99690212D01*
X170663604Y-99709236D01*
X170648659Y-99709578D01*
X170607409Y-99712610D01*
X170583229Y-99730817D01*
X170571564Y-99777865D01*
X170567859Y-99867420D01*
X170567561Y-99952873D01*
X170568571Y-100076623D01*
X170574640Y-100149163D01*
X170590323Y-100184157D01*
X170620175Y-100195274D01*
X170648659Y-100196168D01*
X170710392Y-100209566D01*
X170729415Y-100262321D01*
X170729757Y-100277266D01*
X170743156Y-100338999D01*
X170795911Y-100358022D01*
X170810856Y-100358365D01*
X170872588Y-100371763D01*
X170891612Y-100424518D01*
X170891954Y-100439463D01*
X170891954Y-100520561D01*
X171540741Y-100520561D01*
X171540741Y-100439463D01*
X171554139Y-100377731D01*
X171606894Y-100358707D01*
X171621839Y-100358365D01*
X171683572Y-100344967D01*
X171702595Y-100292212D01*
X171702937Y-100277266D01*
X171716336Y-100215534D01*
X171769091Y-100196511D01*
X171784036Y-100196168D01*
X171865134Y-100196168D01*
X171865134Y-99547381D01*
X171784036Y-99547381D01*
X171722303Y-99533983D01*
X171703280Y-99481228D01*
X171702937Y-99466283D01*
X171689539Y-99404551D01*
X171636784Y-99385527D01*
X171621839Y-99385185D01*
X171560107Y-99371786D01*
X171541083Y-99319032D01*
X171540741Y-99304086D01*
X171540741Y-99222988D01*
X171216347Y-99222988D01*
X171216347Y-99547381D01*
X171312610Y-99550011D01*
X171360632Y-99563429D01*
X171377008Y-99595933D01*
X171378544Y-99628480D01*
X171391942Y-99690212D01*
X171444697Y-99709236D01*
X171459642Y-99709578D01*
X171507773Y-99714837D01*
X171531785Y-99741674D01*
X171539973Y-99806681D01*
X171540741Y-99871775D01*
X171538111Y-99968037D01*
X171524693Y-100016060D01*
X171492189Y-100032435D01*
X171459642Y-100033971D01*
X171397910Y-100047370D01*
X171378887Y-100100125D01*
X171378544Y-100115070D01*
X171373285Y-100163201D01*
X171346448Y-100187212D01*
X171281441Y-100195400D01*
X171216347Y-100196168D01*
X171120085Y-100193539D01*
X171072062Y-100180120D01*
X171055687Y-100147616D01*
X171054151Y-100115070D01*
X171040752Y-100053337D01*
X170987998Y-100034314D01*
X170973052Y-100033971D01*
X170924921Y-100028713D01*
X170900910Y-100001875D01*
X170892722Y-99936868D01*
X170891954Y-99871775D01*
X170894583Y-99775513D01*
X170908002Y-99727490D01*
X170940506Y-99711115D01*
X170973052Y-99709578D01*
X171034785Y-99696180D01*
X171053808Y-99643425D01*
X171054151Y-99628480D01*
X171059409Y-99580349D01*
X171086247Y-99556337D01*
X171151254Y-99548150D01*
X171216347Y-99547381D01*
X171216347Y-99222988D01*
X170243167Y-99222988D01*
X170243167Y-99547381D01*
X170486462Y-99547381D01*
G37*
X170486462Y-99547381D02*
X170610212Y-99548392D01*
X170682752Y-99554461D01*
X170717747Y-99570144D01*
X170728863Y-99599995D01*
X170729757Y-99628480D01*
X170716359Y-99690212D01*
X170663604Y-99709236D01*
X170648659Y-99709578D01*
X170607409Y-99712610D01*
X170583229Y-99730817D01*
X170571564Y-99777865D01*
X170567859Y-99867420D01*
X170567561Y-99952873D01*
X170568571Y-100076623D01*
X170574640Y-100149163D01*
X170590323Y-100184157D01*
X170620175Y-100195274D01*
X170648659Y-100196168D01*
X170710392Y-100209566D01*
X170729415Y-100262321D01*
X170729757Y-100277266D01*
X170743156Y-100338999D01*
X170795911Y-100358022D01*
X170810856Y-100358365D01*
X170872588Y-100371763D01*
X170891612Y-100424518D01*
X170891954Y-100439463D01*
X170891954Y-100520561D01*
X171540741Y-100520561D01*
X171540741Y-100439463D01*
X171554139Y-100377731D01*
X171606894Y-100358707D01*
X171621839Y-100358365D01*
X171683572Y-100344967D01*
X171702595Y-100292212D01*
X171702937Y-100277266D01*
X171716336Y-100215534D01*
X171769091Y-100196511D01*
X171784036Y-100196168D01*
X171865134Y-100196168D01*
X171865134Y-99547381D01*
X171784036Y-99547381D01*
X171722303Y-99533983D01*
X171703280Y-99481228D01*
X171702937Y-99466283D01*
X171689539Y-99404551D01*
X171636784Y-99385527D01*
X171621839Y-99385185D01*
X171560107Y-99371786D01*
X171541083Y-99319032D01*
X171540741Y-99304086D01*
X171540741Y-99222988D01*
X171216347Y-99222988D01*
X171216347Y-99547381D01*
X171312610Y-99550011D01*
X171360632Y-99563429D01*
X171377008Y-99595933D01*
X171378544Y-99628480D01*
X171391942Y-99690212D01*
X171444697Y-99709236D01*
X171459642Y-99709578D01*
X171507773Y-99714837D01*
X171531785Y-99741674D01*
X171539973Y-99806681D01*
X171540741Y-99871775D01*
X171538111Y-99968037D01*
X171524693Y-100016060D01*
X171492189Y-100032435D01*
X171459642Y-100033971D01*
X171397910Y-100047370D01*
X171378887Y-100100125D01*
X171378544Y-100115070D01*
X171373285Y-100163201D01*
X171346448Y-100187212D01*
X171281441Y-100195400D01*
X171216347Y-100196168D01*
X171120085Y-100193539D01*
X171072062Y-100180120D01*
X171055687Y-100147616D01*
X171054151Y-100115070D01*
X171040752Y-100053337D01*
X170987998Y-100034314D01*
X170973052Y-100033971D01*
X170924921Y-100028713D01*
X170900910Y-100001875D01*
X170892722Y-99936868D01*
X170891954Y-99871775D01*
X170894583Y-99775513D01*
X170908002Y-99727490D01*
X170940506Y-99711115D01*
X170973052Y-99709578D01*
X171034785Y-99696180D01*
X171053808Y-99643425D01*
X171054151Y-99628480D01*
X171059409Y-99580349D01*
X171086247Y-99556337D01*
X171151254Y-99548150D01*
X171216347Y-99547381D01*
X171216347Y-99222988D01*
X170243167Y-99222988D01*
X170243167Y-99547381D01*
X170486462Y-99547381D01*
G36*
X170648659Y-98736398D02*
G01*
X170710392Y-98749796D01*
X170729415Y-98802551D01*
X170729757Y-98817496D01*
X170743156Y-98879229D01*
X170795911Y-98898252D01*
X170810856Y-98898595D01*
X170872588Y-98911993D01*
X170891612Y-98964748D01*
X170891954Y-98979693D01*
X170891954Y-99060791D01*
X171865134Y-99060791D01*
X171865134Y-98087611D01*
X171784036Y-98087611D01*
X171722303Y-98074213D01*
X171703280Y-98021458D01*
X171702937Y-98006513D01*
X171689539Y-97944780D01*
X171636784Y-97925757D01*
X171621839Y-97925415D01*
X171560107Y-97912016D01*
X171541083Y-97859261D01*
X171540741Y-97844316D01*
X171540741Y-97763218D01*
X171216347Y-97763218D01*
X171216347Y-98087611D01*
X171312610Y-98090241D01*
X171360632Y-98103659D01*
X171377008Y-98136163D01*
X171378544Y-98168710D01*
X171391942Y-98230442D01*
X171444697Y-98249465D01*
X171459642Y-98249808D01*
X171507773Y-98255067D01*
X171531785Y-98281904D01*
X171539973Y-98346911D01*
X171540741Y-98412005D01*
X171538111Y-98508267D01*
X171524693Y-98556290D01*
X171492189Y-98572665D01*
X171459642Y-98574201D01*
X171397910Y-98587600D01*
X171378887Y-98640355D01*
X171378544Y-98655300D01*
X171373285Y-98703431D01*
X171346448Y-98727442D01*
X171281441Y-98735630D01*
X171216347Y-98736398D01*
X171120085Y-98733769D01*
X171072062Y-98720350D01*
X171055687Y-98687846D01*
X171054151Y-98655300D01*
X171040752Y-98593567D01*
X170987998Y-98574544D01*
X170973052Y-98574201D01*
X170924921Y-98568943D01*
X170900910Y-98542105D01*
X170892722Y-98477098D01*
X170891954Y-98412005D01*
X170894583Y-98315743D01*
X170908002Y-98267720D01*
X170940506Y-98251344D01*
X170973052Y-98249808D01*
X171034785Y-98236410D01*
X171053808Y-98183655D01*
X171054151Y-98168710D01*
X171059409Y-98120579D01*
X171086247Y-98096567D01*
X171151254Y-98088380D01*
X171216347Y-98087611D01*
X171216347Y-97763218D01*
X170891954Y-97763218D01*
X170891954Y-97844316D01*
X170878556Y-97906049D01*
X170825801Y-97925072D01*
X170810856Y-97925415D01*
X170749123Y-97938813D01*
X170730100Y-97991568D01*
X170729757Y-98006513D01*
X170716359Y-98068245D01*
X170663604Y-98087269D01*
X170648659Y-98087611D01*
X170567561Y-98087611D01*
X170567561Y-98736398D01*
X170648659Y-98736398D01*
G37*
X170648659Y-98736398D02*
X170710392Y-98749796D01*
X170729415Y-98802551D01*
X170729757Y-98817496D01*
X170743156Y-98879229D01*
X170795911Y-98898252D01*
X170810856Y-98898595D01*
X170872588Y-98911993D01*
X170891612Y-98964748D01*
X170891954Y-98979693D01*
X170891954Y-99060791D01*
X171865134Y-99060791D01*
X171865134Y-98087611D01*
X171784036Y-98087611D01*
X171722303Y-98074213D01*
X171703280Y-98021458D01*
X171702937Y-98006513D01*
X171689539Y-97944780D01*
X171636784Y-97925757D01*
X171621839Y-97925415D01*
X171560107Y-97912016D01*
X171541083Y-97859261D01*
X171540741Y-97844316D01*
X171540741Y-97763218D01*
X171216347Y-97763218D01*
X171216347Y-98087611D01*
X171312610Y-98090241D01*
X171360632Y-98103659D01*
X171377008Y-98136163D01*
X171378544Y-98168710D01*
X171391942Y-98230442D01*
X171444697Y-98249465D01*
X171459642Y-98249808D01*
X171507773Y-98255067D01*
X171531785Y-98281904D01*
X171539973Y-98346911D01*
X171540741Y-98412005D01*
X171538111Y-98508267D01*
X171524693Y-98556290D01*
X171492189Y-98572665D01*
X171459642Y-98574201D01*
X171397910Y-98587600D01*
X171378887Y-98640355D01*
X171378544Y-98655300D01*
X171373285Y-98703431D01*
X171346448Y-98727442D01*
X171281441Y-98735630D01*
X171216347Y-98736398D01*
X171120085Y-98733769D01*
X171072062Y-98720350D01*
X171055687Y-98687846D01*
X171054151Y-98655300D01*
X171040752Y-98593567D01*
X170987998Y-98574544D01*
X170973052Y-98574201D01*
X170924921Y-98568943D01*
X170900910Y-98542105D01*
X170892722Y-98477098D01*
X170891954Y-98412005D01*
X170894583Y-98315743D01*
X170908002Y-98267720D01*
X170940506Y-98251344D01*
X170973052Y-98249808D01*
X171034785Y-98236410D01*
X171053808Y-98183655D01*
X171054151Y-98168710D01*
X171059409Y-98120579D01*
X171086247Y-98096567D01*
X171151254Y-98088380D01*
X171216347Y-98087611D01*
X171216347Y-97763218D01*
X170891954Y-97763218D01*
X170891954Y-97844316D01*
X170878556Y-97906049D01*
X170825801Y-97925072D01*
X170810856Y-97925415D01*
X170749123Y-97938813D01*
X170730100Y-97991568D01*
X170729757Y-98006513D01*
X170716359Y-98068245D01*
X170663604Y-98087269D01*
X170648659Y-98087611D01*
X170567561Y-98087611D01*
X170567561Y-98736398D01*
X170648659Y-98736398D01*
G36*
X171378544Y-97114431D02*
G01*
X171378544Y-97195530D01*
X171391942Y-97257262D01*
X171444697Y-97276285D01*
X171459642Y-97276628D01*
X171507773Y-97281887D01*
X171531785Y-97308724D01*
X171539973Y-97373731D01*
X171540741Y-97438825D01*
X171540741Y-97601021D01*
X171865134Y-97601021D01*
X171865134Y-97357726D01*
X171864123Y-97233976D01*
X171858054Y-97161437D01*
X171842372Y-97126442D01*
X171812520Y-97115326D01*
X171784036Y-97114431D01*
X171722303Y-97101033D01*
X171703280Y-97048278D01*
X171702937Y-97033333D01*
X171689539Y-96971600D01*
X171636784Y-96952577D01*
X171621839Y-96952235D01*
X171560107Y-96938836D01*
X171541083Y-96886081D01*
X171540741Y-96871136D01*
X171540741Y-96790038D01*
X170243167Y-96790038D01*
X170243167Y-97114431D01*
X171378544Y-97114431D01*
G37*
X171378544Y-97114431D02*
X171378544Y-97195530D01*
X171391942Y-97257262D01*
X171444697Y-97276285D01*
X171459642Y-97276628D01*
X171507773Y-97281887D01*
X171531785Y-97308724D01*
X171539973Y-97373731D01*
X171540741Y-97438825D01*
X171540741Y-97601021D01*
X171865134Y-97601021D01*
X171865134Y-97357726D01*
X171864123Y-97233976D01*
X171858054Y-97161437D01*
X171842372Y-97126442D01*
X171812520Y-97115326D01*
X171784036Y-97114431D01*
X171722303Y-97101033D01*
X171703280Y-97048278D01*
X171702937Y-97033333D01*
X171689539Y-96971600D01*
X171636784Y-96952577D01*
X171621839Y-96952235D01*
X171560107Y-96938836D01*
X171541083Y-96886081D01*
X171540741Y-96871136D01*
X171540741Y-96790038D01*
X170243167Y-96790038D01*
X170243167Y-97114431D01*
X171378544Y-97114431D01*
G36*
X171540741Y-95979054D02*
G01*
X171540741Y-95897956D01*
X171554139Y-95836224D01*
X171606894Y-95817200D01*
X171621839Y-95816858D01*
X171683572Y-95803460D01*
X171702595Y-95750705D01*
X171702937Y-95735759D01*
X171716336Y-95674027D01*
X171769091Y-95655004D01*
X171784036Y-95654661D01*
X171865134Y-95654661D01*
X171865134Y-95005874D01*
X171784036Y-95005874D01*
X171722303Y-94992476D01*
X171703280Y-94939721D01*
X171702937Y-94924776D01*
X171689539Y-94863044D01*
X171636784Y-94844020D01*
X171621839Y-94843678D01*
X171560107Y-94830279D01*
X171541083Y-94777525D01*
X171540741Y-94762579D01*
X171540741Y-94681481D01*
X171216347Y-94681481D01*
X171216347Y-95005874D01*
X171312610Y-95008504D01*
X171360632Y-95021922D01*
X171377008Y-95054426D01*
X171378544Y-95086973D01*
X171391942Y-95148705D01*
X171444697Y-95167729D01*
X171459642Y-95168071D01*
X171507773Y-95173330D01*
X171531785Y-95200167D01*
X171539973Y-95265174D01*
X171540741Y-95330268D01*
X171538111Y-95426530D01*
X171524693Y-95474553D01*
X171492189Y-95490928D01*
X171459642Y-95492464D01*
X171397910Y-95505863D01*
X171378887Y-95558618D01*
X171378544Y-95573563D01*
X171373285Y-95621694D01*
X171346448Y-95645705D01*
X171281441Y-95653893D01*
X171216347Y-95654661D01*
X171120085Y-95652032D01*
X171072062Y-95638613D01*
X171055687Y-95606109D01*
X171054151Y-95573563D01*
X171040752Y-95511830D01*
X170987998Y-95492807D01*
X170973052Y-95492464D01*
X170924921Y-95487206D01*
X170900910Y-95460368D01*
X170892722Y-95395361D01*
X170891954Y-95330268D01*
X170894583Y-95234006D01*
X170908002Y-95185983D01*
X170940506Y-95169608D01*
X170973052Y-95168071D01*
X171034785Y-95154673D01*
X171053808Y-95101918D01*
X171054151Y-95086973D01*
X171059409Y-95038842D01*
X171086247Y-95014830D01*
X171151254Y-95006643D01*
X171216347Y-95005874D01*
X171216347Y-94681481D01*
X170891954Y-94681481D01*
X170891954Y-94762579D01*
X170878556Y-94824312D01*
X170825801Y-94843335D01*
X170810856Y-94843678D01*
X170749123Y-94857076D01*
X170730100Y-94909831D01*
X170729757Y-94924776D01*
X170716359Y-94986509D01*
X170663604Y-95005532D01*
X170648659Y-95005874D01*
X170607409Y-95008906D01*
X170583229Y-95027113D01*
X170571564Y-95074161D01*
X170567859Y-95163716D01*
X170567561Y-95249169D01*
X170568571Y-95372919D01*
X170574640Y-95445459D01*
X170590323Y-95480454D01*
X170620175Y-95491570D01*
X170648659Y-95492464D01*
X170710392Y-95505863D01*
X170729415Y-95558618D01*
X170729757Y-95573563D01*
X170726725Y-95614813D01*
X170708518Y-95638993D01*
X170661471Y-95650658D01*
X170571916Y-95654363D01*
X170486462Y-95654661D01*
X170243167Y-95654661D01*
X170243167Y-95979054D01*
X171540741Y-95979054D01*
G37*
X171540741Y-95979054D02*
X171540741Y-95897956D01*
X171554139Y-95836224D01*
X171606894Y-95817200D01*
X171621839Y-95816858D01*
X171683572Y-95803460D01*
X171702595Y-95750705D01*
X171702937Y-95735759D01*
X171716336Y-95674027D01*
X171769091Y-95655004D01*
X171784036Y-95654661D01*
X171865134Y-95654661D01*
X171865134Y-95005874D01*
X171784036Y-95005874D01*
X171722303Y-94992476D01*
X171703280Y-94939721D01*
X171702937Y-94924776D01*
X171689539Y-94863044D01*
X171636784Y-94844020D01*
X171621839Y-94843678D01*
X171560107Y-94830279D01*
X171541083Y-94777525D01*
X171540741Y-94762579D01*
X171540741Y-94681481D01*
X171216347Y-94681481D01*
X171216347Y-95005874D01*
X171312610Y-95008504D01*
X171360632Y-95021922D01*
X171377008Y-95054426D01*
X171378544Y-95086973D01*
X171391942Y-95148705D01*
X171444697Y-95167729D01*
X171459642Y-95168071D01*
X171507773Y-95173330D01*
X171531785Y-95200167D01*
X171539973Y-95265174D01*
X171540741Y-95330268D01*
X171538111Y-95426530D01*
X171524693Y-95474553D01*
X171492189Y-95490928D01*
X171459642Y-95492464D01*
X171397910Y-95505863D01*
X171378887Y-95558618D01*
X171378544Y-95573563D01*
X171373285Y-95621694D01*
X171346448Y-95645705D01*
X171281441Y-95653893D01*
X171216347Y-95654661D01*
X171120085Y-95652032D01*
X171072062Y-95638613D01*
X171055687Y-95606109D01*
X171054151Y-95573563D01*
X171040752Y-95511830D01*
X170987998Y-95492807D01*
X170973052Y-95492464D01*
X170924921Y-95487206D01*
X170900910Y-95460368D01*
X170892722Y-95395361D01*
X170891954Y-95330268D01*
X170894583Y-95234006D01*
X170908002Y-95185983D01*
X170940506Y-95169608D01*
X170973052Y-95168071D01*
X171034785Y-95154673D01*
X171053808Y-95101918D01*
X171054151Y-95086973D01*
X171059409Y-95038842D01*
X171086247Y-95014830D01*
X171151254Y-95006643D01*
X171216347Y-95005874D01*
X171216347Y-94681481D01*
X170891954Y-94681481D01*
X170891954Y-94762579D01*
X170878556Y-94824312D01*
X170825801Y-94843335D01*
X170810856Y-94843678D01*
X170749123Y-94857076D01*
X170730100Y-94909831D01*
X170729757Y-94924776D01*
X170716359Y-94986509D01*
X170663604Y-95005532D01*
X170648659Y-95005874D01*
X170607409Y-95008906D01*
X170583229Y-95027113D01*
X170571564Y-95074161D01*
X170567859Y-95163716D01*
X170567561Y-95249169D01*
X170568571Y-95372919D01*
X170574640Y-95445459D01*
X170590323Y-95480454D01*
X170620175Y-95491570D01*
X170648659Y-95492464D01*
X170710392Y-95505863D01*
X170729415Y-95558618D01*
X170729757Y-95573563D01*
X170726725Y-95614813D01*
X170708518Y-95638993D01*
X170661471Y-95650658D01*
X170571916Y-95654363D01*
X170486462Y-95654661D01*
X170243167Y-95654661D01*
X170243167Y-95979054D01*
X171540741Y-95979054D01*
G36*
X171540741Y-94357088D02*
G01*
X171540741Y-94438186D01*
X171546000Y-94486317D01*
X171572837Y-94510328D01*
X171637844Y-94518516D01*
X171702937Y-94519284D01*
X171865134Y-94519284D01*
X171865134Y-94357088D01*
X171862505Y-94260826D01*
X171849086Y-94212803D01*
X171816582Y-94196427D01*
X171784036Y-94194891D01*
X171722303Y-94181493D01*
X171703280Y-94128738D01*
X171702937Y-94113793D01*
X171702937Y-94032694D01*
X170243167Y-94032694D01*
X170243167Y-94357088D01*
X171540741Y-94357088D01*
G37*
X171540741Y-94357088D02*
X171540741Y-94438186D01*
X171546000Y-94486317D01*
X171572837Y-94510328D01*
X171637844Y-94518516D01*
X171702937Y-94519284D01*
X171865134Y-94519284D01*
X171865134Y-94357088D01*
X171862505Y-94260826D01*
X171849086Y-94212803D01*
X171816582Y-94196427D01*
X171784036Y-94194891D01*
X171722303Y-94181493D01*
X171703280Y-94128738D01*
X171702937Y-94113793D01*
X171702937Y-94032694D01*
X170243167Y-94032694D01*
X170243167Y-94357088D01*
X171540741Y-94357088D01*
G36*
X170648659Y-93546104D02*
G01*
X170710392Y-93559503D01*
X170729415Y-93612257D01*
X170729757Y-93627203D01*
X170735016Y-93675334D01*
X170761853Y-93699345D01*
X170826861Y-93707533D01*
X170891954Y-93708301D01*
X170988216Y-93705672D01*
X171036239Y-93692253D01*
X171052614Y-93659749D01*
X171054151Y-93627203D01*
X171067549Y-93565470D01*
X171120304Y-93546447D01*
X171135249Y-93546104D01*
X171183380Y-93551363D01*
X171207392Y-93578200D01*
X171215579Y-93643208D01*
X171216347Y-93708301D01*
X171216347Y-93870498D01*
X171378544Y-93870498D01*
X171474806Y-93867868D01*
X171522829Y-93854450D01*
X171539204Y-93821946D01*
X171540741Y-93789399D01*
X171554139Y-93727667D01*
X171606894Y-93708643D01*
X171621839Y-93708301D01*
X171683572Y-93694903D01*
X171702595Y-93642148D01*
X171702937Y-93627203D01*
X171716336Y-93565470D01*
X171769091Y-93546447D01*
X171784036Y-93546104D01*
X171865134Y-93546104D01*
X171865134Y-92897318D01*
X171784036Y-92897318D01*
X171722303Y-92883919D01*
X171703280Y-92831164D01*
X171702937Y-92816219D01*
X171689539Y-92754487D01*
X171636784Y-92735463D01*
X171621839Y-92735121D01*
X171560107Y-92721723D01*
X171541083Y-92668968D01*
X171540741Y-92654023D01*
X171540741Y-92572924D01*
X171459642Y-92572924D01*
X171459642Y-93221711D01*
X171521375Y-93235109D01*
X171540398Y-93287864D01*
X171540741Y-93302809D01*
X171527343Y-93364542D01*
X171474588Y-93383565D01*
X171459642Y-93383908D01*
X171397910Y-93397306D01*
X171378887Y-93450061D01*
X171378544Y-93465006D01*
X171365146Y-93526738D01*
X171312391Y-93545762D01*
X171297446Y-93546104D01*
X171235713Y-93532706D01*
X171216690Y-93479951D01*
X171216347Y-93465006D01*
X171229746Y-93403273D01*
X171282501Y-93384250D01*
X171297446Y-93383908D01*
X171359178Y-93370509D01*
X171378202Y-93317754D01*
X171378544Y-93302809D01*
X171391942Y-93241077D01*
X171444697Y-93222053D01*
X171459642Y-93221711D01*
X171459642Y-92572924D01*
X171135249Y-92572924D01*
X171135249Y-92897318D01*
X171196982Y-92910716D01*
X171216005Y-92963471D01*
X171216347Y-92978416D01*
X171202949Y-93040148D01*
X171150194Y-93059172D01*
X171135249Y-93059514D01*
X171073517Y-93072912D01*
X171054493Y-93125667D01*
X171054151Y-93140613D01*
X171040752Y-93202345D01*
X170987998Y-93221368D01*
X170973052Y-93221711D01*
X170911320Y-93208313D01*
X170892297Y-93155558D01*
X170891954Y-93140613D01*
X170905352Y-93078880D01*
X170958107Y-93059857D01*
X170973052Y-93059514D01*
X171034785Y-93046116D01*
X171053808Y-92993361D01*
X171054151Y-92978416D01*
X171067549Y-92916683D01*
X171120304Y-92897660D01*
X171135249Y-92897318D01*
X171135249Y-92572924D01*
X170891954Y-92572924D01*
X170891954Y-92654023D01*
X170878556Y-92715755D01*
X170825801Y-92734778D01*
X170810856Y-92735121D01*
X170749123Y-92748519D01*
X170730100Y-92801274D01*
X170729757Y-92816219D01*
X170716359Y-92877952D01*
X170663604Y-92896975D01*
X170648659Y-92897318D01*
X170567561Y-92897318D01*
X170567561Y-93546104D01*
X170648659Y-93546104D01*
G37*
X170648659Y-93546104D02*
X170710392Y-93559503D01*
X170729415Y-93612257D01*
X170729757Y-93627203D01*
X170735016Y-93675334D01*
X170761853Y-93699345D01*
X170826861Y-93707533D01*
X170891954Y-93708301D01*
X170988216Y-93705672D01*
X171036239Y-93692253D01*
X171052614Y-93659749D01*
X171054151Y-93627203D01*
X171067549Y-93565470D01*
X171120304Y-93546447D01*
X171135249Y-93546104D01*
X171183380Y-93551363D01*
X171207392Y-93578200D01*
X171215579Y-93643208D01*
X171216347Y-93708301D01*
X171216347Y-93870498D01*
X171378544Y-93870498D01*
X171474806Y-93867868D01*
X171522829Y-93854450D01*
X171539204Y-93821946D01*
X171540741Y-93789399D01*
X171554139Y-93727667D01*
X171606894Y-93708643D01*
X171621839Y-93708301D01*
X171683572Y-93694903D01*
X171702595Y-93642148D01*
X171702937Y-93627203D01*
X171716336Y-93565470D01*
X171769091Y-93546447D01*
X171784036Y-93546104D01*
X171865134Y-93546104D01*
X171865134Y-92897318D01*
X171784036Y-92897318D01*
X171722303Y-92883919D01*
X171703280Y-92831164D01*
X171702937Y-92816219D01*
X171689539Y-92754487D01*
X171636784Y-92735463D01*
X171621839Y-92735121D01*
X171560107Y-92721723D01*
X171541083Y-92668968D01*
X171540741Y-92654023D01*
X171540741Y-92572924D01*
X171459642Y-92572924D01*
X171459642Y-93221711D01*
X171521375Y-93235109D01*
X171540398Y-93287864D01*
X171540741Y-93302809D01*
X171527343Y-93364542D01*
X171474588Y-93383565D01*
X171459642Y-93383908D01*
X171397910Y-93397306D01*
X171378887Y-93450061D01*
X171378544Y-93465006D01*
X171365146Y-93526738D01*
X171312391Y-93545762D01*
X171297446Y-93546104D01*
X171235713Y-93532706D01*
X171216690Y-93479951D01*
X171216347Y-93465006D01*
X171229746Y-93403273D01*
X171282501Y-93384250D01*
X171297446Y-93383908D01*
X171359178Y-93370509D01*
X171378202Y-93317754D01*
X171378544Y-93302809D01*
X171391942Y-93241077D01*
X171444697Y-93222053D01*
X171459642Y-93221711D01*
X171459642Y-92572924D01*
X171135249Y-92572924D01*
X171135249Y-92897318D01*
X171196982Y-92910716D01*
X171216005Y-92963471D01*
X171216347Y-92978416D01*
X171202949Y-93040148D01*
X171150194Y-93059172D01*
X171135249Y-93059514D01*
X171073517Y-93072912D01*
X171054493Y-93125667D01*
X171054151Y-93140613D01*
X171040752Y-93202345D01*
X170987998Y-93221368D01*
X170973052Y-93221711D01*
X170911320Y-93208313D01*
X170892297Y-93155558D01*
X170891954Y-93140613D01*
X170905352Y-93078880D01*
X170958107Y-93059857D01*
X170973052Y-93059514D01*
X171034785Y-93046116D01*
X171053808Y-92993361D01*
X171054151Y-92978416D01*
X171067549Y-92916683D01*
X171120304Y-92897660D01*
X171135249Y-92897318D01*
X171135249Y-92572924D01*
X170891954Y-92572924D01*
X170891954Y-92654023D01*
X170878556Y-92715755D01*
X170825801Y-92734778D01*
X170810856Y-92735121D01*
X170749123Y-92748519D01*
X170730100Y-92801274D01*
X170729757Y-92816219D01*
X170716359Y-92877952D01*
X170663604Y-92896975D01*
X170648659Y-92897318D01*
X170567561Y-92897318D01*
X170567561Y-93546104D01*
X170648659Y-93546104D01*
G36*
X171540741Y-92248531D02*
G01*
X171540741Y-92329629D01*
X171546000Y-92377760D01*
X171572837Y-92401772D01*
X171637844Y-92409959D01*
X171702937Y-92410728D01*
X171865134Y-92410728D01*
X171865134Y-92248531D01*
X171862505Y-92152269D01*
X171849086Y-92104246D01*
X171816582Y-92087871D01*
X171784036Y-92086334D01*
X171722303Y-92072936D01*
X171703280Y-92020181D01*
X171702937Y-92005236D01*
X171702937Y-91924137D01*
X170729757Y-91924137D01*
X170729757Y-92248531D01*
X171540741Y-92248531D01*
G37*
X171540741Y-92248531D02*
X171540741Y-92329629D01*
X171546000Y-92377760D01*
X171572837Y-92401772D01*
X171637844Y-92409959D01*
X171702937Y-92410728D01*
X171865134Y-92410728D01*
X171865134Y-92248531D01*
X171862505Y-92152269D01*
X171849086Y-92104246D01*
X171816582Y-92087871D01*
X171784036Y-92086334D01*
X171722303Y-92072936D01*
X171703280Y-92020181D01*
X171702937Y-92005236D01*
X171702937Y-91924137D01*
X170729757Y-91924137D01*
X170729757Y-92248531D01*
X171540741Y-92248531D01*
G36*
X170567561Y-91761941D02*
G01*
X170567561Y-91599744D01*
X170570190Y-91503482D01*
X170583609Y-91455459D01*
X170616112Y-91439084D01*
X170648659Y-91437547D01*
X170710392Y-91424149D01*
X170729415Y-91371394D01*
X170729757Y-91356449D01*
X170743156Y-91294717D01*
X170795911Y-91275693D01*
X170810856Y-91275351D01*
X170858987Y-91280610D01*
X170882998Y-91307447D01*
X170891186Y-91372454D01*
X170891954Y-91437547D01*
X170891954Y-91599744D01*
X171216347Y-91599744D01*
X171216347Y-91275351D01*
X171865134Y-91275351D01*
X171865134Y-90950957D01*
X170567561Y-90950957D01*
X170567561Y-91032056D01*
X170554162Y-91093788D01*
X170501408Y-91112812D01*
X170486462Y-91113154D01*
X170424730Y-91126552D01*
X170405707Y-91179307D01*
X170405364Y-91194252D01*
X170391966Y-91255985D01*
X170339211Y-91275008D01*
X170324266Y-91275351D01*
X170283016Y-91278383D01*
X170258836Y-91296590D01*
X170247171Y-91343638D01*
X170243465Y-91433192D01*
X170243167Y-91518646D01*
X170243167Y-91761941D01*
X170567561Y-91761941D01*
G37*
X170567561Y-91761941D02*
X170567561Y-91599744D01*
X170570190Y-91503482D01*
X170583609Y-91455459D01*
X170616112Y-91439084D01*
X170648659Y-91437547D01*
X170710392Y-91424149D01*
X170729415Y-91371394D01*
X170729757Y-91356449D01*
X170743156Y-91294717D01*
X170795911Y-91275693D01*
X170810856Y-91275351D01*
X170858987Y-91280610D01*
X170882998Y-91307447D01*
X170891186Y-91372454D01*
X170891954Y-91437547D01*
X170891954Y-91599744D01*
X171216347Y-91599744D01*
X171216347Y-91275351D01*
X171865134Y-91275351D01*
X171865134Y-90950957D01*
X170567561Y-90950957D01*
X170567561Y-91032056D01*
X170554162Y-91093788D01*
X170501408Y-91112812D01*
X170486462Y-91113154D01*
X170424730Y-91126552D01*
X170405707Y-91179307D01*
X170405364Y-91194252D01*
X170391966Y-91255985D01*
X170339211Y-91275008D01*
X170324266Y-91275351D01*
X170283016Y-91278383D01*
X170258836Y-91296590D01*
X170247171Y-91343638D01*
X170243465Y-91433192D01*
X170243167Y-91518646D01*
X170243167Y-91761941D01*
X170567561Y-91761941D01*
G36*
X170567561Y-90464367D02*
G01*
X170567561Y-90788761D01*
X170891954Y-90788761D01*
X170891954Y-90464367D01*
X171540741Y-90464367D01*
X171540741Y-90788761D01*
X171865134Y-90788761D01*
X171865134Y-90545466D01*
X171864123Y-90421716D01*
X171858054Y-90349176D01*
X171842372Y-90314181D01*
X171812520Y-90303065D01*
X171784036Y-90302171D01*
X171722303Y-90288772D01*
X171703280Y-90236017D01*
X171702937Y-90221072D01*
X171702937Y-90139974D01*
X170243167Y-90139974D01*
X170243167Y-90464367D01*
X170567561Y-90464367D01*
G37*
X170567561Y-90464367D02*
X170567561Y-90788761D01*
X170891954Y-90788761D01*
X170891954Y-90464367D01*
X171540741Y-90464367D01*
X171540741Y-90788761D01*
X171865134Y-90788761D01*
X171865134Y-90545466D01*
X171864123Y-90421716D01*
X171858054Y-90349176D01*
X171842372Y-90314181D01*
X171812520Y-90303065D01*
X171784036Y-90302171D01*
X171722303Y-90288772D01*
X171703280Y-90236017D01*
X171702937Y-90221072D01*
X171702937Y-90139974D01*
X170243167Y-90139974D01*
X170243167Y-90464367D01*
X170567561Y-90464367D01*
G36*
X171540741Y-89815581D02*
G01*
X171540741Y-89896679D01*
X171546000Y-89944810D01*
X171572837Y-89968821D01*
X171637844Y-89977009D01*
X171702937Y-89977777D01*
X171865134Y-89977777D01*
X171865134Y-89815581D01*
X171862505Y-89719319D01*
X171849086Y-89671296D01*
X171816582Y-89654920D01*
X171784036Y-89653384D01*
X171722303Y-89639986D01*
X171703280Y-89587231D01*
X171702937Y-89572286D01*
X171702937Y-89491187D01*
X170729757Y-89491187D01*
X170729757Y-89815581D01*
X171540741Y-89815581D01*
G37*
X171540741Y-89815581D02*
X171540741Y-89896679D01*
X171546000Y-89944810D01*
X171572837Y-89968821D01*
X171637844Y-89977009D01*
X171702937Y-89977777D01*
X171865134Y-89977777D01*
X171865134Y-89815581D01*
X171862505Y-89719319D01*
X171849086Y-89671296D01*
X171816582Y-89654920D01*
X171784036Y-89653384D01*
X171722303Y-89639986D01*
X171703280Y-89587231D01*
X171702937Y-89572286D01*
X171702937Y-89491187D01*
X170729757Y-89491187D01*
X170729757Y-89815581D01*
X171540741Y-89815581D01*
G36*
X170324266Y-88842401D02*
G01*
X170385998Y-88855799D01*
X170405022Y-88908554D01*
X170405364Y-88923499D01*
X170408396Y-88964749D01*
X170426603Y-88988929D01*
X170473651Y-89000594D01*
X170563206Y-89004299D01*
X170648659Y-89004597D01*
X170772409Y-89005608D01*
X170844948Y-89011677D01*
X170879943Y-89027360D01*
X170891060Y-89057211D01*
X170891954Y-89085696D01*
X170905352Y-89147428D01*
X170958107Y-89166451D01*
X170973052Y-89166794D01*
X171034785Y-89180192D01*
X171053808Y-89232947D01*
X171054151Y-89247892D01*
X171057183Y-89289142D01*
X171075390Y-89313322D01*
X171122438Y-89324987D01*
X171211992Y-89328692D01*
X171297446Y-89328991D01*
X171421196Y-89327980D01*
X171493735Y-89321911D01*
X171528730Y-89306228D01*
X171539846Y-89276377D01*
X171540741Y-89247892D01*
X171554139Y-89186160D01*
X171606894Y-89167136D01*
X171621839Y-89166794D01*
X171683572Y-89153396D01*
X171702595Y-89100641D01*
X171702937Y-89085696D01*
X171716336Y-89023963D01*
X171769091Y-89004940D01*
X171784036Y-89004597D01*
X171865134Y-89004597D01*
X171865134Y-88031417D01*
X171054151Y-88031417D01*
X171054151Y-88355811D01*
X171540741Y-88355811D01*
X171540741Y-88599106D01*
X171539730Y-88722856D01*
X171533661Y-88795395D01*
X171517979Y-88830390D01*
X171488127Y-88841506D01*
X171459642Y-88842401D01*
X171397910Y-88855799D01*
X171378887Y-88908554D01*
X171378544Y-88923499D01*
X171365146Y-88985231D01*
X171312391Y-89004255D01*
X171297446Y-89004597D01*
X171235713Y-88991199D01*
X171216690Y-88938444D01*
X171216347Y-88923499D01*
X171202949Y-88861766D01*
X171150194Y-88842743D01*
X171135249Y-88842401D01*
X171093999Y-88839369D01*
X171069819Y-88821162D01*
X171058154Y-88774114D01*
X171054449Y-88684559D01*
X171054151Y-88599106D01*
X171054151Y-88355811D01*
X171054151Y-88031417D01*
X170648659Y-88031417D01*
X170648659Y-88355811D01*
X170696790Y-88361069D01*
X170720802Y-88387907D01*
X170728989Y-88452914D01*
X170729757Y-88518007D01*
X170727128Y-88614269D01*
X170713709Y-88662292D01*
X170681206Y-88678667D01*
X170648659Y-88680204D01*
X170600528Y-88674945D01*
X170576517Y-88648108D01*
X170568329Y-88583101D01*
X170567561Y-88518007D01*
X170570190Y-88421745D01*
X170583609Y-88373722D01*
X170616112Y-88357347D01*
X170648659Y-88355811D01*
X170648659Y-88031417D01*
X170405364Y-88031417D01*
X170405364Y-88112516D01*
X170391966Y-88174248D01*
X170339211Y-88193271D01*
X170324266Y-88193614D01*
X170243167Y-88193614D01*
X170243167Y-88842401D01*
X170324266Y-88842401D01*
G37*
X170324266Y-88842401D02*
X170385998Y-88855799D01*
X170405022Y-88908554D01*
X170405364Y-88923499D01*
X170408396Y-88964749D01*
X170426603Y-88988929D01*
X170473651Y-89000594D01*
X170563206Y-89004299D01*
X170648659Y-89004597D01*
X170772409Y-89005608D01*
X170844948Y-89011677D01*
X170879943Y-89027360D01*
X170891060Y-89057211D01*
X170891954Y-89085696D01*
X170905352Y-89147428D01*
X170958107Y-89166451D01*
X170973052Y-89166794D01*
X171034785Y-89180192D01*
X171053808Y-89232947D01*
X171054151Y-89247892D01*
X171057183Y-89289142D01*
X171075390Y-89313322D01*
X171122438Y-89324987D01*
X171211992Y-89328692D01*
X171297446Y-89328991D01*
X171421196Y-89327980D01*
X171493735Y-89321911D01*
X171528730Y-89306228D01*
X171539846Y-89276377D01*
X171540741Y-89247892D01*
X171554139Y-89186160D01*
X171606894Y-89167136D01*
X171621839Y-89166794D01*
X171683572Y-89153396D01*
X171702595Y-89100641D01*
X171702937Y-89085696D01*
X171716336Y-89023963D01*
X171769091Y-89004940D01*
X171784036Y-89004597D01*
X171865134Y-89004597D01*
X171865134Y-88031417D01*
X171054151Y-88031417D01*
X171054151Y-88355811D01*
X171540741Y-88355811D01*
X171540741Y-88599106D01*
X171539730Y-88722856D01*
X171533661Y-88795395D01*
X171517979Y-88830390D01*
X171488127Y-88841506D01*
X171459642Y-88842401D01*
X171397910Y-88855799D01*
X171378887Y-88908554D01*
X171378544Y-88923499D01*
X171365146Y-88985231D01*
X171312391Y-89004255D01*
X171297446Y-89004597D01*
X171235713Y-88991199D01*
X171216690Y-88938444D01*
X171216347Y-88923499D01*
X171202949Y-88861766D01*
X171150194Y-88842743D01*
X171135249Y-88842401D01*
X171093999Y-88839369D01*
X171069819Y-88821162D01*
X171058154Y-88774114D01*
X171054449Y-88684559D01*
X171054151Y-88599106D01*
X171054151Y-88355811D01*
X171054151Y-88031417D01*
X170648659Y-88031417D01*
X170648659Y-88355811D01*
X170696790Y-88361069D01*
X170720802Y-88387907D01*
X170728989Y-88452914D01*
X170729757Y-88518007D01*
X170727128Y-88614269D01*
X170713709Y-88662292D01*
X170681206Y-88678667D01*
X170648659Y-88680204D01*
X170600528Y-88674945D01*
X170576517Y-88648108D01*
X170568329Y-88583101D01*
X170567561Y-88518007D01*
X170570190Y-88421745D01*
X170583609Y-88373722D01*
X170616112Y-88357347D01*
X170648659Y-88355811D01*
X170648659Y-88031417D01*
X170405364Y-88031417D01*
X170405364Y-88112516D01*
X170391966Y-88174248D01*
X170339211Y-88193271D01*
X170324266Y-88193614D01*
X170243167Y-88193614D01*
X170243167Y-88842401D01*
X170324266Y-88842401D01*
G36*
X168686079Y-87447509D02*
G01*
X168686079Y-87252873D01*
X168689816Y-87139857D01*
X168703063Y-87079179D01*
X168728875Y-87058621D01*
X168734738Y-87058237D01*
X168765338Y-87075601D01*
X168780284Y-87135719D01*
X168783397Y-87220434D01*
X168786027Y-87316696D01*
X168799445Y-87364719D01*
X168831949Y-87381094D01*
X168864496Y-87382630D01*
X168926228Y-87396029D01*
X168945251Y-87448784D01*
X168945594Y-87463729D01*
X168958992Y-87525461D01*
X169011747Y-87544485D01*
X169026692Y-87544827D01*
X169088425Y-87558225D01*
X169107448Y-87610980D01*
X169107791Y-87625925D01*
X169110823Y-87667175D01*
X169129030Y-87691355D01*
X169176077Y-87703020D01*
X169265632Y-87706726D01*
X169351086Y-87707024D01*
X169474836Y-87706013D01*
X169547375Y-87699944D01*
X169582370Y-87684262D01*
X169593486Y-87654410D01*
X169594381Y-87625925D01*
X169607779Y-87564193D01*
X169660534Y-87545170D01*
X169675479Y-87544827D01*
X169716729Y-87541795D01*
X169740909Y-87523588D01*
X169752574Y-87476540D01*
X169756279Y-87386986D01*
X169756577Y-87301532D01*
X169756577Y-87058237D01*
X169918774Y-87058237D01*
X170015036Y-87055608D01*
X170063059Y-87042189D01*
X170079434Y-87009685D01*
X170080971Y-86977139D01*
X170094369Y-86915406D01*
X170147124Y-86896383D01*
X170162069Y-86896040D01*
X170223801Y-86909439D01*
X170242825Y-86962194D01*
X170243167Y-86977139D01*
X170256566Y-87038871D01*
X170309321Y-87057895D01*
X170324266Y-87058237D01*
X170385998Y-87071635D01*
X170405022Y-87124390D01*
X170405364Y-87139335D01*
X170410623Y-87187466D01*
X170437460Y-87211478D01*
X170502467Y-87219666D01*
X170567561Y-87220434D01*
X170663823Y-87223063D01*
X170711846Y-87236482D01*
X170728221Y-87268985D01*
X170729757Y-87301532D01*
X170729757Y-87382630D01*
X172027331Y-87382630D01*
X172027331Y-87301532D01*
X172032590Y-87253401D01*
X172059427Y-87229390D01*
X172124434Y-87221202D01*
X172189527Y-87220434D01*
X172285790Y-87217804D01*
X172333812Y-87204386D01*
X172350188Y-87171882D01*
X172351724Y-87139335D01*
X172365122Y-87077603D01*
X172417877Y-87058580D01*
X172432823Y-87058237D01*
X172494555Y-87044839D01*
X172513578Y-86992084D01*
X172513921Y-86977139D01*
X172527319Y-86915406D01*
X172580074Y-86896383D01*
X172595019Y-86896040D01*
X172656752Y-86882642D01*
X172675775Y-86829887D01*
X172676118Y-86814942D01*
X172689516Y-86753210D01*
X172742271Y-86734186D01*
X172757216Y-86733844D01*
X172818948Y-86720445D01*
X172837972Y-86667691D01*
X172838314Y-86652745D01*
X172851712Y-86591013D01*
X172904467Y-86571990D01*
X172919413Y-86571647D01*
X172967544Y-86566388D01*
X172991555Y-86539551D01*
X172999743Y-86474544D01*
X173000511Y-86409450D01*
X173003140Y-86313188D01*
X173016559Y-86265165D01*
X173049063Y-86248790D01*
X173081609Y-86247254D01*
X173162708Y-86247254D01*
X173162708Y-84949680D01*
X173081609Y-84949680D01*
X173033478Y-84944422D01*
X173009467Y-84917584D01*
X173001279Y-84852577D01*
X173000511Y-84787484D01*
X172997882Y-84691221D01*
X172984463Y-84643199D01*
X172951959Y-84626823D01*
X172919413Y-84625287D01*
X172857680Y-84611889D01*
X172838657Y-84559134D01*
X172838314Y-84544189D01*
X172824916Y-84482456D01*
X172772161Y-84463433D01*
X172757216Y-84463090D01*
X172695483Y-84449692D01*
X172676460Y-84396937D01*
X172676118Y-84381992D01*
X172662719Y-84320259D01*
X172609964Y-84301236D01*
X172595019Y-84300894D01*
X172533287Y-84287495D01*
X172514263Y-84234740D01*
X172513921Y-84219795D01*
X172500523Y-84158063D01*
X172447768Y-84139039D01*
X172432823Y-84138697D01*
X172371090Y-84125299D01*
X172352067Y-84072544D01*
X172351724Y-84057599D01*
X172346465Y-84009467D01*
X172319628Y-83985456D01*
X172254621Y-83977268D01*
X172189527Y-83976500D01*
X172093265Y-83973871D01*
X172045243Y-83960452D01*
X172028867Y-83927949D01*
X172027331Y-83895402D01*
X172027331Y-83814304D01*
X170794636Y-83814304D01*
X170794636Y-84041379D01*
X171930013Y-84041379D01*
X171930013Y-84365772D01*
X171686718Y-84365772D01*
X171562968Y-84366783D01*
X171490428Y-84372852D01*
X171455434Y-84388534D01*
X171444317Y-84418386D01*
X171443423Y-84446871D01*
X171456821Y-84508603D01*
X171509576Y-84527626D01*
X171524521Y-84527969D01*
X171586254Y-84541367D01*
X171605277Y-84594122D01*
X171605619Y-84609067D01*
X171602587Y-84650317D01*
X171584380Y-84674497D01*
X171537333Y-84686162D01*
X171447778Y-84689867D01*
X171362324Y-84690166D01*
X171238574Y-84691176D01*
X171166035Y-84697245D01*
X171131040Y-84712928D01*
X171119924Y-84742779D01*
X171119029Y-84771264D01*
X171124288Y-84819395D01*
X171151125Y-84843406D01*
X171216133Y-84851594D01*
X171281226Y-84852362D01*
X171443423Y-84852362D01*
X171443423Y-85014559D01*
X171440793Y-85110821D01*
X171427375Y-85158844D01*
X171394871Y-85175219D01*
X171362324Y-85176756D01*
X171300592Y-85190154D01*
X171281569Y-85242909D01*
X171281226Y-85257854D01*
X171284258Y-85299104D01*
X171302465Y-85323284D01*
X171349513Y-85334949D01*
X171439068Y-85338654D01*
X171524521Y-85338952D01*
X171767816Y-85338952D01*
X171767816Y-85501149D01*
X171765187Y-85597411D01*
X171751768Y-85645434D01*
X171719264Y-85661809D01*
X171686718Y-85663346D01*
X171624985Y-85676744D01*
X171605962Y-85729499D01*
X171605619Y-85744444D01*
X171610878Y-85792575D01*
X171637715Y-85816586D01*
X171702723Y-85824774D01*
X171767816Y-85825542D01*
X171864078Y-85828172D01*
X171912101Y-85841590D01*
X171928476Y-85874094D01*
X171930013Y-85906641D01*
X171916615Y-85968373D01*
X171863860Y-85987397D01*
X171848914Y-85987739D01*
X171787182Y-86001137D01*
X171768159Y-86053892D01*
X171767816Y-86068837D01*
X171762557Y-86116968D01*
X171735720Y-86140980D01*
X171670713Y-86149167D01*
X171605619Y-86149936D01*
X171509357Y-86152565D01*
X171461334Y-86165984D01*
X171444959Y-86198487D01*
X171443423Y-86231034D01*
X171456821Y-86292766D01*
X171509576Y-86311790D01*
X171524521Y-86312132D01*
X171586254Y-86325531D01*
X171605277Y-86378286D01*
X171605619Y-86393231D01*
X171600361Y-86441362D01*
X171573523Y-86465373D01*
X171508516Y-86473561D01*
X171443423Y-86474329D01*
X171347161Y-86476958D01*
X171299138Y-86490377D01*
X171282763Y-86522881D01*
X171281226Y-86555427D01*
X171294624Y-86617160D01*
X171347379Y-86636183D01*
X171362324Y-86636526D01*
X171424057Y-86649924D01*
X171443080Y-86702679D01*
X171443423Y-86717624D01*
X171430025Y-86779357D01*
X171377270Y-86798380D01*
X171362324Y-86798722D01*
X171300592Y-86812121D01*
X171281569Y-86864876D01*
X171281226Y-86879821D01*
X171275967Y-86927952D01*
X171249130Y-86951963D01*
X171184123Y-86960151D01*
X171119029Y-86960919D01*
X171022767Y-86963548D01*
X170974744Y-86976967D01*
X170958369Y-87009471D01*
X170956833Y-87042017D01*
X170943434Y-87103750D01*
X170890680Y-87122773D01*
X170875734Y-87123116D01*
X170814002Y-87109718D01*
X170794979Y-87056963D01*
X170794636Y-87042017D01*
X170789377Y-86993886D01*
X170762540Y-86969875D01*
X170697533Y-86961687D01*
X170632439Y-86960919D01*
X170536177Y-86958290D01*
X170488154Y-86944871D01*
X170471779Y-86912367D01*
X170470243Y-86879821D01*
X170456844Y-86818088D01*
X170404090Y-86799065D01*
X170389144Y-86798722D01*
X170327412Y-86785324D01*
X170308389Y-86732569D01*
X170308046Y-86717624D01*
X170302787Y-86669493D01*
X170275950Y-86645482D01*
X170210943Y-86637294D01*
X170145849Y-86636526D01*
X170049587Y-86639155D01*
X170001564Y-86652574D01*
X169985189Y-86685077D01*
X169983653Y-86717624D01*
X169978394Y-86765755D01*
X169951557Y-86789767D01*
X169886549Y-86797954D01*
X169821456Y-86798722D01*
X169725194Y-86801352D01*
X169677171Y-86814770D01*
X169660796Y-86847274D01*
X169659259Y-86879821D01*
X169645861Y-86941553D01*
X169593106Y-86960577D01*
X169578161Y-86960919D01*
X169536911Y-86963951D01*
X169512731Y-86982158D01*
X169501066Y-87029206D01*
X169497361Y-87118761D01*
X169497063Y-87204214D01*
X169497063Y-87447509D01*
X169334866Y-87447509D01*
X169238604Y-87444880D01*
X169190581Y-87431461D01*
X169174206Y-87398957D01*
X169172669Y-87366411D01*
X169159271Y-87304678D01*
X169106516Y-87285655D01*
X169091571Y-87285312D01*
X169043440Y-87280054D01*
X169019428Y-87253216D01*
X169011241Y-87188209D01*
X169010473Y-87123116D01*
X169007843Y-87026854D01*
X168994425Y-86978831D01*
X168961921Y-86962456D01*
X168929374Y-86960919D01*
X168881243Y-86955660D01*
X168857232Y-86928823D01*
X168849044Y-86863816D01*
X168848276Y-86798722D01*
X168845647Y-86702460D01*
X168832228Y-86654437D01*
X168799724Y-86638062D01*
X168767178Y-86636526D01*
X168719047Y-86631267D01*
X168695035Y-86604430D01*
X168686847Y-86539422D01*
X168686079Y-86474329D01*
X168683450Y-86378067D01*
X168670031Y-86330044D01*
X168637528Y-86313669D01*
X168604981Y-86312132D01*
X168556850Y-86306874D01*
X168532838Y-86280036D01*
X168524651Y-86215029D01*
X168523883Y-86149936D01*
X168523883Y-85987739D01*
X168686079Y-85987739D01*
X168782341Y-85990368D01*
X168830364Y-86003787D01*
X168846739Y-86036291D01*
X168848276Y-86068837D01*
X168853535Y-86116968D01*
X168880372Y-86140980D01*
X168945379Y-86149167D01*
X169010473Y-86149936D01*
X169106735Y-86147306D01*
X169154758Y-86133888D01*
X169171133Y-86101384D01*
X169172669Y-86068837D01*
X169177928Y-86020706D01*
X169204765Y-85996695D01*
X169269773Y-85988507D01*
X169334866Y-85987739D01*
X169431128Y-85985110D01*
X169479151Y-85971691D01*
X169495526Y-85939187D01*
X169497063Y-85906641D01*
X169510461Y-85844908D01*
X169563216Y-85825885D01*
X169578161Y-85825542D01*
X169639893Y-85812144D01*
X169658917Y-85759389D01*
X169659259Y-85744444D01*
X169672658Y-85682712D01*
X169725412Y-85663688D01*
X169740358Y-85663346D01*
X169821456Y-85663346D01*
X169821456Y-85014559D01*
X169902554Y-85014559D01*
X169950685Y-85009300D01*
X169974697Y-84982463D01*
X169982884Y-84917456D01*
X169983653Y-84852362D01*
X169986282Y-84756100D01*
X169999701Y-84708077D01*
X170032204Y-84691702D01*
X170064751Y-84690166D01*
X170126483Y-84676767D01*
X170145507Y-84624012D01*
X170145849Y-84609067D01*
X170159248Y-84547335D01*
X170212003Y-84528311D01*
X170226948Y-84527969D01*
X170288680Y-84514571D01*
X170307704Y-84461816D01*
X170308046Y-84446871D01*
X170321444Y-84385138D01*
X170374199Y-84366115D01*
X170389144Y-84365772D01*
X170450877Y-84352374D01*
X170469900Y-84299619D01*
X170470243Y-84284674D01*
X170475501Y-84236543D01*
X170502339Y-84212531D01*
X170567346Y-84204344D01*
X170632439Y-84203576D01*
X170728701Y-84200946D01*
X170776724Y-84187528D01*
X170793100Y-84155024D01*
X170794636Y-84122477D01*
X170794636Y-84041379D01*
X170794636Y-83814304D01*
X170729757Y-83814304D01*
X170729757Y-83895402D01*
X170724499Y-83943533D01*
X170697661Y-83967544D01*
X170632654Y-83975732D01*
X170567561Y-83976500D01*
X170471299Y-83979130D01*
X170423276Y-83992548D01*
X170406900Y-84025052D01*
X170405364Y-84057599D01*
X170391966Y-84119331D01*
X170339211Y-84138354D01*
X170324266Y-84138697D01*
X170262533Y-84152095D01*
X170243510Y-84204850D01*
X170243167Y-84219795D01*
X170229769Y-84281528D01*
X170177014Y-84300551D01*
X170162069Y-84300894D01*
X170100337Y-84314292D01*
X170081313Y-84367047D01*
X170080971Y-84381992D01*
X170067572Y-84443724D01*
X170014817Y-84462748D01*
X169999872Y-84463090D01*
X169938140Y-84476488D01*
X169919116Y-84529243D01*
X169918774Y-84544189D01*
X169905376Y-84605921D01*
X169852621Y-84624944D01*
X169837676Y-84625287D01*
X169789545Y-84630546D01*
X169765533Y-84657383D01*
X169757346Y-84722390D01*
X169756577Y-84787484D01*
X169753948Y-84883746D01*
X169740529Y-84931769D01*
X169708026Y-84948144D01*
X169675479Y-84949680D01*
X169594381Y-84949680D01*
X169594381Y-85598467D01*
X169513282Y-85598467D01*
X169451550Y-85611865D01*
X169432526Y-85664620D01*
X169432184Y-85679565D01*
X169426925Y-85727696D01*
X169400088Y-85751708D01*
X169335081Y-85759895D01*
X169269987Y-85760664D01*
X169173725Y-85763293D01*
X169125702Y-85776712D01*
X169109327Y-85809215D01*
X169107791Y-85841762D01*
X169094392Y-85903494D01*
X169041637Y-85922518D01*
X169026692Y-85922860D01*
X168964960Y-85909462D01*
X168945936Y-85856707D01*
X168945594Y-85841762D01*
X168942562Y-85800512D01*
X168924355Y-85776332D01*
X168877307Y-85764667D01*
X168787752Y-85760962D01*
X168702299Y-85760664D01*
X168578549Y-85761674D01*
X168506009Y-85767743D01*
X168471015Y-85783426D01*
X168459898Y-85813278D01*
X168459004Y-85841762D01*
X168445606Y-85903494D01*
X168392851Y-85922518D01*
X168377906Y-85922860D01*
X168336656Y-85925892D01*
X168312476Y-85944099D01*
X168300811Y-85991147D01*
X168297105Y-86080702D01*
X168296807Y-86166155D01*
X168297818Y-86289905D01*
X168303887Y-86362445D01*
X168319569Y-86397440D01*
X168349421Y-86408556D01*
X168377906Y-86409450D01*
X168426037Y-86414709D01*
X168450048Y-86441546D01*
X168458236Y-86506554D01*
X168459004Y-86571647D01*
X168461633Y-86667909D01*
X168475052Y-86715932D01*
X168507556Y-86732307D01*
X168540102Y-86733844D01*
X168594946Y-86742327D01*
X168617398Y-86780499D01*
X168621201Y-86847381D01*
X168621201Y-86960919D01*
X168361686Y-86960919D01*
X168361686Y-87123116D01*
X168457948Y-87125745D01*
X168505971Y-87139164D01*
X168522346Y-87171667D01*
X168523883Y-87204214D01*
X168518624Y-87252345D01*
X168491787Y-87276357D01*
X168426779Y-87284544D01*
X168361686Y-87285312D01*
X168265424Y-87282683D01*
X168217401Y-87269264D01*
X168201026Y-87236761D01*
X168199489Y-87204214D01*
X168204748Y-87156083D01*
X168231585Y-87132072D01*
X168296593Y-87123884D01*
X168361686Y-87123116D01*
X168361686Y-86960919D01*
X168037293Y-86960919D01*
X168037293Y-87447509D01*
X168686079Y-87447509D01*
G37*
X168686079Y-87447509D02*
X168686079Y-87252873D01*
X168689816Y-87139857D01*
X168703063Y-87079179D01*
X168728875Y-87058621D01*
X168734738Y-87058237D01*
X168765338Y-87075601D01*
X168780284Y-87135719D01*
X168783397Y-87220434D01*
X168786027Y-87316696D01*
X168799445Y-87364719D01*
X168831949Y-87381094D01*
X168864496Y-87382630D01*
X168926228Y-87396029D01*
X168945251Y-87448784D01*
X168945594Y-87463729D01*
X168958992Y-87525461D01*
X169011747Y-87544485D01*
X169026692Y-87544827D01*
X169088425Y-87558225D01*
X169107448Y-87610980D01*
X169107791Y-87625925D01*
X169110823Y-87667175D01*
X169129030Y-87691355D01*
X169176077Y-87703020D01*
X169265632Y-87706726D01*
X169351086Y-87707024D01*
X169474836Y-87706013D01*
X169547375Y-87699944D01*
X169582370Y-87684262D01*
X169593486Y-87654410D01*
X169594381Y-87625925D01*
X169607779Y-87564193D01*
X169660534Y-87545170D01*
X169675479Y-87544827D01*
X169716729Y-87541795D01*
X169740909Y-87523588D01*
X169752574Y-87476540D01*
X169756279Y-87386986D01*
X169756577Y-87301532D01*
X169756577Y-87058237D01*
X169918774Y-87058237D01*
X170015036Y-87055608D01*
X170063059Y-87042189D01*
X170079434Y-87009685D01*
X170080971Y-86977139D01*
X170094369Y-86915406D01*
X170147124Y-86896383D01*
X170162069Y-86896040D01*
X170223801Y-86909439D01*
X170242825Y-86962194D01*
X170243167Y-86977139D01*
X170256566Y-87038871D01*
X170309321Y-87057895D01*
X170324266Y-87058237D01*
X170385998Y-87071635D01*
X170405022Y-87124390D01*
X170405364Y-87139335D01*
X170410623Y-87187466D01*
X170437460Y-87211478D01*
X170502467Y-87219666D01*
X170567561Y-87220434D01*
X170663823Y-87223063D01*
X170711846Y-87236482D01*
X170728221Y-87268985D01*
X170729757Y-87301532D01*
X170729757Y-87382630D01*
X172027331Y-87382630D01*
X172027331Y-87301532D01*
X172032590Y-87253401D01*
X172059427Y-87229390D01*
X172124434Y-87221202D01*
X172189527Y-87220434D01*
X172285790Y-87217804D01*
X172333812Y-87204386D01*
X172350188Y-87171882D01*
X172351724Y-87139335D01*
X172365122Y-87077603D01*
X172417877Y-87058580D01*
X172432823Y-87058237D01*
X172494555Y-87044839D01*
X172513578Y-86992084D01*
X172513921Y-86977139D01*
X172527319Y-86915406D01*
X172580074Y-86896383D01*
X172595019Y-86896040D01*
X172656752Y-86882642D01*
X172675775Y-86829887D01*
X172676118Y-86814942D01*
X172689516Y-86753210D01*
X172742271Y-86734186D01*
X172757216Y-86733844D01*
X172818948Y-86720445D01*
X172837972Y-86667691D01*
X172838314Y-86652745D01*
X172851712Y-86591013D01*
X172904467Y-86571990D01*
X172919413Y-86571647D01*
X172967544Y-86566388D01*
X172991555Y-86539551D01*
X172999743Y-86474544D01*
X173000511Y-86409450D01*
X173003140Y-86313188D01*
X173016559Y-86265165D01*
X173049063Y-86248790D01*
X173081609Y-86247254D01*
X173162708Y-86247254D01*
X173162708Y-84949680D01*
X173081609Y-84949680D01*
X173033478Y-84944422D01*
X173009467Y-84917584D01*
X173001279Y-84852577D01*
X173000511Y-84787484D01*
X172997882Y-84691221D01*
X172984463Y-84643199D01*
X172951959Y-84626823D01*
X172919413Y-84625287D01*
X172857680Y-84611889D01*
X172838657Y-84559134D01*
X172838314Y-84544189D01*
X172824916Y-84482456D01*
X172772161Y-84463433D01*
X172757216Y-84463090D01*
X172695483Y-84449692D01*
X172676460Y-84396937D01*
X172676118Y-84381992D01*
X172662719Y-84320259D01*
X172609964Y-84301236D01*
X172595019Y-84300894D01*
X172533287Y-84287495D01*
X172514263Y-84234740D01*
X172513921Y-84219795D01*
X172500523Y-84158063D01*
X172447768Y-84139039D01*
X172432823Y-84138697D01*
X172371090Y-84125299D01*
X172352067Y-84072544D01*
X172351724Y-84057599D01*
X172346465Y-84009467D01*
X172319628Y-83985456D01*
X172254621Y-83977268D01*
X172189527Y-83976500D01*
X172093265Y-83973871D01*
X172045243Y-83960452D01*
X172028867Y-83927949D01*
X172027331Y-83895402D01*
X172027331Y-83814304D01*
X170794636Y-83814304D01*
X170794636Y-84041379D01*
X171930013Y-84041379D01*
X171930013Y-84365772D01*
X171686718Y-84365772D01*
X171562968Y-84366783D01*
X171490428Y-84372852D01*
X171455434Y-84388534D01*
X171444317Y-84418386D01*
X171443423Y-84446871D01*
X171456821Y-84508603D01*
X171509576Y-84527626D01*
X171524521Y-84527969D01*
X171586254Y-84541367D01*
X171605277Y-84594122D01*
X171605619Y-84609067D01*
X171602587Y-84650317D01*
X171584380Y-84674497D01*
X171537333Y-84686162D01*
X171447778Y-84689867D01*
X171362324Y-84690166D01*
X171238574Y-84691176D01*
X171166035Y-84697245D01*
X171131040Y-84712928D01*
X171119924Y-84742779D01*
X171119029Y-84771264D01*
X171124288Y-84819395D01*
X171151125Y-84843406D01*
X171216133Y-84851594D01*
X171281226Y-84852362D01*
X171443423Y-84852362D01*
X171443423Y-85014559D01*
X171440793Y-85110821D01*
X171427375Y-85158844D01*
X171394871Y-85175219D01*
X171362324Y-85176756D01*
X171300592Y-85190154D01*
X171281569Y-85242909D01*
X171281226Y-85257854D01*
X171284258Y-85299104D01*
X171302465Y-85323284D01*
X171349513Y-85334949D01*
X171439068Y-85338654D01*
X171524521Y-85338952D01*
X171767816Y-85338952D01*
X171767816Y-85501149D01*
X171765187Y-85597411D01*
X171751768Y-85645434D01*
X171719264Y-85661809D01*
X171686718Y-85663346D01*
X171624985Y-85676744D01*
X171605962Y-85729499D01*
X171605619Y-85744444D01*
X171610878Y-85792575D01*
X171637715Y-85816586D01*
X171702723Y-85824774D01*
X171767816Y-85825542D01*
X171864078Y-85828172D01*
X171912101Y-85841590D01*
X171928476Y-85874094D01*
X171930013Y-85906641D01*
X171916615Y-85968373D01*
X171863860Y-85987397D01*
X171848914Y-85987739D01*
X171787182Y-86001137D01*
X171768159Y-86053892D01*
X171767816Y-86068837D01*
X171762557Y-86116968D01*
X171735720Y-86140980D01*
X171670713Y-86149167D01*
X171605619Y-86149936D01*
X171509357Y-86152565D01*
X171461334Y-86165984D01*
X171444959Y-86198487D01*
X171443423Y-86231034D01*
X171456821Y-86292766D01*
X171509576Y-86311790D01*
X171524521Y-86312132D01*
X171586254Y-86325531D01*
X171605277Y-86378286D01*
X171605619Y-86393231D01*
X171600361Y-86441362D01*
X171573523Y-86465373D01*
X171508516Y-86473561D01*
X171443423Y-86474329D01*
X171347161Y-86476958D01*
X171299138Y-86490377D01*
X171282763Y-86522881D01*
X171281226Y-86555427D01*
X171294624Y-86617160D01*
X171347379Y-86636183D01*
X171362324Y-86636526D01*
X171424057Y-86649924D01*
X171443080Y-86702679D01*
X171443423Y-86717624D01*
X171430025Y-86779357D01*
X171377270Y-86798380D01*
X171362324Y-86798722D01*
X171300592Y-86812121D01*
X171281569Y-86864876D01*
X171281226Y-86879821D01*
X171275967Y-86927952D01*
X171249130Y-86951963D01*
X171184123Y-86960151D01*
X171119029Y-86960919D01*
X171022767Y-86963548D01*
X170974744Y-86976967D01*
X170958369Y-87009471D01*
X170956833Y-87042017D01*
X170943434Y-87103750D01*
X170890680Y-87122773D01*
X170875734Y-87123116D01*
X170814002Y-87109718D01*
X170794979Y-87056963D01*
X170794636Y-87042017D01*
X170789377Y-86993886D01*
X170762540Y-86969875D01*
X170697533Y-86961687D01*
X170632439Y-86960919D01*
X170536177Y-86958290D01*
X170488154Y-86944871D01*
X170471779Y-86912367D01*
X170470243Y-86879821D01*
X170456844Y-86818088D01*
X170404090Y-86799065D01*
X170389144Y-86798722D01*
X170327412Y-86785324D01*
X170308389Y-86732569D01*
X170308046Y-86717624D01*
X170302787Y-86669493D01*
X170275950Y-86645482D01*
X170210943Y-86637294D01*
X170145849Y-86636526D01*
X170049587Y-86639155D01*
X170001564Y-86652574D01*
X169985189Y-86685077D01*
X169983653Y-86717624D01*
X169978394Y-86765755D01*
X169951557Y-86789767D01*
X169886549Y-86797954D01*
X169821456Y-86798722D01*
X169725194Y-86801352D01*
X169677171Y-86814770D01*
X169660796Y-86847274D01*
X169659259Y-86879821D01*
X169645861Y-86941553D01*
X169593106Y-86960577D01*
X169578161Y-86960919D01*
X169536911Y-86963951D01*
X169512731Y-86982158D01*
X169501066Y-87029206D01*
X169497361Y-87118761D01*
X169497063Y-87204214D01*
X169497063Y-87447509D01*
X169334866Y-87447509D01*
X169238604Y-87444880D01*
X169190581Y-87431461D01*
X169174206Y-87398957D01*
X169172669Y-87366411D01*
X169159271Y-87304678D01*
X169106516Y-87285655D01*
X169091571Y-87285312D01*
X169043440Y-87280054D01*
X169019428Y-87253216D01*
X169011241Y-87188209D01*
X169010473Y-87123116D01*
X169007843Y-87026854D01*
X168994425Y-86978831D01*
X168961921Y-86962456D01*
X168929374Y-86960919D01*
X168881243Y-86955660D01*
X168857232Y-86928823D01*
X168849044Y-86863816D01*
X168848276Y-86798722D01*
X168845647Y-86702460D01*
X168832228Y-86654437D01*
X168799724Y-86638062D01*
X168767178Y-86636526D01*
X168719047Y-86631267D01*
X168695035Y-86604430D01*
X168686847Y-86539422D01*
X168686079Y-86474329D01*
X168683450Y-86378067D01*
X168670031Y-86330044D01*
X168637528Y-86313669D01*
X168604981Y-86312132D01*
X168556850Y-86306874D01*
X168532838Y-86280036D01*
X168524651Y-86215029D01*
X168523883Y-86149936D01*
X168523883Y-85987739D01*
X168686079Y-85987739D01*
X168782341Y-85990368D01*
X168830364Y-86003787D01*
X168846739Y-86036291D01*
X168848276Y-86068837D01*
X168853535Y-86116968D01*
X168880372Y-86140980D01*
X168945379Y-86149167D01*
X169010473Y-86149936D01*
X169106735Y-86147306D01*
X169154758Y-86133888D01*
X169171133Y-86101384D01*
X169172669Y-86068837D01*
X169177928Y-86020706D01*
X169204765Y-85996695D01*
X169269773Y-85988507D01*
X169334866Y-85987739D01*
X169431128Y-85985110D01*
X169479151Y-85971691D01*
X169495526Y-85939187D01*
X169497063Y-85906641D01*
X169510461Y-85844908D01*
X169563216Y-85825885D01*
X169578161Y-85825542D01*
X169639893Y-85812144D01*
X169658917Y-85759389D01*
X169659259Y-85744444D01*
X169672658Y-85682712D01*
X169725412Y-85663688D01*
X169740358Y-85663346D01*
X169821456Y-85663346D01*
X169821456Y-85014559D01*
X169902554Y-85014559D01*
X169950685Y-85009300D01*
X169974697Y-84982463D01*
X169982884Y-84917456D01*
X169983653Y-84852362D01*
X169986282Y-84756100D01*
X169999701Y-84708077D01*
X170032204Y-84691702D01*
X170064751Y-84690166D01*
X170126483Y-84676767D01*
X170145507Y-84624012D01*
X170145849Y-84609067D01*
X170159248Y-84547335D01*
X170212003Y-84528311D01*
X170226948Y-84527969D01*
X170288680Y-84514571D01*
X170307704Y-84461816D01*
X170308046Y-84446871D01*
X170321444Y-84385138D01*
X170374199Y-84366115D01*
X170389144Y-84365772D01*
X170450877Y-84352374D01*
X170469900Y-84299619D01*
X170470243Y-84284674D01*
X170475501Y-84236543D01*
X170502339Y-84212531D01*
X170567346Y-84204344D01*
X170632439Y-84203576D01*
X170728701Y-84200946D01*
X170776724Y-84187528D01*
X170793100Y-84155024D01*
X170794636Y-84122477D01*
X170794636Y-84041379D01*
X170794636Y-83814304D01*
X170729757Y-83814304D01*
X170729757Y-83895402D01*
X170724499Y-83943533D01*
X170697661Y-83967544D01*
X170632654Y-83975732D01*
X170567561Y-83976500D01*
X170471299Y-83979130D01*
X170423276Y-83992548D01*
X170406900Y-84025052D01*
X170405364Y-84057599D01*
X170391966Y-84119331D01*
X170339211Y-84138354D01*
X170324266Y-84138697D01*
X170262533Y-84152095D01*
X170243510Y-84204850D01*
X170243167Y-84219795D01*
X170229769Y-84281528D01*
X170177014Y-84300551D01*
X170162069Y-84300894D01*
X170100337Y-84314292D01*
X170081313Y-84367047D01*
X170080971Y-84381992D01*
X170067572Y-84443724D01*
X170014817Y-84462748D01*
X169999872Y-84463090D01*
X169938140Y-84476488D01*
X169919116Y-84529243D01*
X169918774Y-84544189D01*
X169905376Y-84605921D01*
X169852621Y-84624944D01*
X169837676Y-84625287D01*
X169789545Y-84630546D01*
X169765533Y-84657383D01*
X169757346Y-84722390D01*
X169756577Y-84787484D01*
X169753948Y-84883746D01*
X169740529Y-84931769D01*
X169708026Y-84948144D01*
X169675479Y-84949680D01*
X169594381Y-84949680D01*
X169594381Y-85598467D01*
X169513282Y-85598467D01*
X169451550Y-85611865D01*
X169432526Y-85664620D01*
X169432184Y-85679565D01*
X169426925Y-85727696D01*
X169400088Y-85751708D01*
X169335081Y-85759895D01*
X169269987Y-85760664D01*
X169173725Y-85763293D01*
X169125702Y-85776712D01*
X169109327Y-85809215D01*
X169107791Y-85841762D01*
X169094392Y-85903494D01*
X169041637Y-85922518D01*
X169026692Y-85922860D01*
X168964960Y-85909462D01*
X168945936Y-85856707D01*
X168945594Y-85841762D01*
X168942562Y-85800512D01*
X168924355Y-85776332D01*
X168877307Y-85764667D01*
X168787752Y-85760962D01*
X168702299Y-85760664D01*
X168578549Y-85761674D01*
X168506009Y-85767743D01*
X168471015Y-85783426D01*
X168459898Y-85813278D01*
X168459004Y-85841762D01*
X168445606Y-85903494D01*
X168392851Y-85922518D01*
X168377906Y-85922860D01*
X168336656Y-85925892D01*
X168312476Y-85944099D01*
X168300811Y-85991147D01*
X168297105Y-86080702D01*
X168296807Y-86166155D01*
X168297818Y-86289905D01*
X168303887Y-86362445D01*
X168319569Y-86397440D01*
X168349421Y-86408556D01*
X168377906Y-86409450D01*
X168426037Y-86414709D01*
X168450048Y-86441546D01*
X168458236Y-86506554D01*
X168459004Y-86571647D01*
X168461633Y-86667909D01*
X168475052Y-86715932D01*
X168507556Y-86732307D01*
X168540102Y-86733844D01*
X168594946Y-86742327D01*
X168617398Y-86780499D01*
X168621201Y-86847381D01*
X168621201Y-86960919D01*
X168361686Y-86960919D01*
X168361686Y-87123116D01*
X168457948Y-87125745D01*
X168505971Y-87139164D01*
X168522346Y-87171667D01*
X168523883Y-87204214D01*
X168518624Y-87252345D01*
X168491787Y-87276357D01*
X168426779Y-87284544D01*
X168361686Y-87285312D01*
X168265424Y-87282683D01*
X168217401Y-87269264D01*
X168201026Y-87236761D01*
X168199489Y-87204214D01*
X168204748Y-87156083D01*
X168231585Y-87132072D01*
X168296593Y-87123884D01*
X168361686Y-87123116D01*
X168361686Y-86960919D01*
X168037293Y-86960919D01*
X168037293Y-87447509D01*
X168686079Y-87447509D01*
D13*
%TO.C,R16*%
X171680000Y-109000000D02*
X171680000Y-107800000D01*
X169920000Y-107800000D02*
X169920000Y-109000000D01*
%TO.C,R2*%
X195200000Y-86320000D02*
X194000000Y-86320000D01*
X194000000Y-88080000D02*
X195200000Y-88080000D01*
D11*
%TO.C,U2*%
X173750000Y-108525000D02*
X173775000Y-108525000D01*
X173750000Y-112675000D02*
X173865000Y-112675000D01*
X182650000Y-112675000D02*
X182535000Y-112675000D01*
X182650000Y-108525000D02*
X182535000Y-108525000D01*
X173750000Y-108525000D02*
X173750000Y-112675000D01*
X182650000Y-108525000D02*
X182650000Y-112675000D01*
X173775000Y-108525000D02*
X173775000Y-107150000D01*
D13*
%TO.C,R15*%
X177920000Y-118050000D02*
X177920000Y-119250000D01*
X179680000Y-119250000D02*
X179680000Y-118050000D01*
%TO.C,R14*%
X180320000Y-118050000D02*
X180320000Y-119250000D01*
X182080000Y-119250000D02*
X182080000Y-118050000D01*
%TO.C,R13*%
X182720000Y-118050000D02*
X182720000Y-119250000D01*
X184480000Y-119250000D02*
X184480000Y-118050000D01*
%TO.C,R12*%
X185120000Y-118050000D02*
X185120000Y-119250000D01*
X186880000Y-119250000D02*
X186880000Y-118050000D01*
%TO.C,R11*%
X187520000Y-118050000D02*
X187520000Y-119250000D01*
X189280000Y-119250000D02*
X189280000Y-118050000D01*
%TO.C,R10*%
X194080000Y-119250000D02*
X194080000Y-118050000D01*
X192320000Y-118050000D02*
X192320000Y-119250000D01*
%TO.C,R9*%
X196480000Y-119250000D02*
X196480000Y-118050000D01*
X194720000Y-118050000D02*
X194720000Y-119250000D01*
%TO.C,R8*%
X198880000Y-119250000D02*
X198880000Y-118050000D01*
X197120000Y-118050000D02*
X197120000Y-119250000D01*
%TO.C,R7*%
X201280000Y-119250000D02*
X201280000Y-118050000D01*
X199520000Y-118050000D02*
X199520000Y-119250000D01*
%TO.C,R6*%
X203680000Y-119250000D02*
X203680000Y-118050000D01*
X201920000Y-118050000D02*
X201920000Y-119250000D01*
%TO.C,R5*%
X175000000Y-86120000D02*
X173800000Y-86120000D01*
X173800000Y-87880000D02*
X175000000Y-87880000D01*
%TO.C,R4*%
X175520000Y-118050000D02*
X175520000Y-119250000D01*
X177280000Y-119250000D02*
X177280000Y-118050000D01*
%TO.C,R3*%
X214320000Y-116800000D02*
X214320000Y-118000000D01*
X216080000Y-118000000D02*
X216080000Y-116800000D01*
%TO.C,C8*%
X171650000Y-113300000D02*
X171650000Y-114300000D01*
X169950000Y-114300000D02*
X169950000Y-113300000D01*
%TO.C,C7*%
X192650000Y-110550000D02*
X192650000Y-111550000D01*
X190950000Y-111550000D02*
X190950000Y-110550000D01*
D11*
%TO.C,U7*%
X181975000Y-89375000D02*
X183775000Y-89375000D01*
X181975000Y-102275000D02*
X174225000Y-102275000D01*
X181975000Y-89125000D02*
X174225000Y-89125000D01*
X181975000Y-102275000D02*
X181975000Y-101940000D01*
X174225000Y-102275000D02*
X174225000Y-101940000D01*
X174225000Y-89125000D02*
X174225000Y-89460000D01*
X181975000Y-89125000D02*
X181975000Y-89375000D01*
%TO.C,U6*%
X181975000Y-69075000D02*
X183775000Y-69075000D01*
X181975000Y-81975000D02*
X174225000Y-81975000D01*
X181975000Y-68825000D02*
X174225000Y-68825000D01*
X181975000Y-81975000D02*
X181975000Y-81640000D01*
X174225000Y-81975000D02*
X174225000Y-81640000D01*
X174225000Y-68825000D02*
X174225000Y-69160000D01*
X181975000Y-68825000D02*
X181975000Y-69075000D01*
%TO.C,U4*%
X202175000Y-89125000D02*
X202175000Y-89375000D01*
X194425000Y-89125000D02*
X194425000Y-89460000D01*
X194425000Y-102275000D02*
X194425000Y-101940000D01*
X202175000Y-102275000D02*
X202175000Y-101940000D01*
X202175000Y-89125000D02*
X194425000Y-89125000D01*
X202175000Y-102275000D02*
X194425000Y-102275000D01*
X202175000Y-89375000D02*
X203975000Y-89375000D01*
%TO.C,U3*%
X202175000Y-68825000D02*
X202175000Y-69075000D01*
X194425000Y-68825000D02*
X194425000Y-69160000D01*
X194425000Y-81975000D02*
X194425000Y-81640000D01*
X202175000Y-81975000D02*
X202175000Y-81640000D01*
X202175000Y-68825000D02*
X194425000Y-68825000D01*
X202175000Y-81975000D02*
X194425000Y-81975000D01*
X202175000Y-69075000D02*
X203975000Y-69075000D01*
%TO.C,U1*%
X193850000Y-108525000D02*
X193875000Y-108525000D01*
X193850000Y-112675000D02*
X193965000Y-112675000D01*
X202750000Y-112675000D02*
X202635000Y-112675000D01*
X202750000Y-108525000D02*
X202635000Y-108525000D01*
X193850000Y-108525000D02*
X193850000Y-112675000D01*
X202750000Y-108525000D02*
X202750000Y-112675000D01*
X193875000Y-108525000D02*
X193875000Y-107150000D01*
D13*
%TO.C,R1*%
X191680000Y-119250000D02*
X191680000Y-118050000D01*
X189920000Y-118050000D02*
X189920000Y-119250000D01*
%TO.C,C4*%
X181300000Y-86150000D02*
X182300000Y-86150000D01*
X182300000Y-87850000D02*
X181300000Y-87850000D01*
%TO.C,C3*%
X178600000Y-67750000D02*
X177600000Y-67750000D01*
X177600000Y-66050000D02*
X178600000Y-66050000D01*
%TO.C,C2*%
X201500000Y-86350000D02*
X202500000Y-86350000D01*
X202500000Y-88050000D02*
X201500000Y-88050000D01*
%TO.C,C1*%
X197550000Y-66050000D02*
X198550000Y-66050000D01*
X198550000Y-67750000D02*
X197550000Y-67750000D01*
%TO.C,R16*%
D11*
X171442857Y-105452380D02*
X171776190Y-104976190D01*
X172014285Y-105452380D02*
X172014285Y-104452380D01*
X171633333Y-104452380D01*
X171538095Y-104500000D01*
X171490476Y-104547619D01*
X171442857Y-104642857D01*
X171442857Y-104785714D01*
X171490476Y-104880952D01*
X171538095Y-104928571D01*
X171633333Y-104976190D01*
X172014285Y-104976190D01*
X170490476Y-105452380D02*
X171061904Y-105452380D01*
X170776190Y-105452380D02*
X170776190Y-104452380D01*
X170871428Y-104595238D01*
X170966666Y-104690476D01*
X171061904Y-104738095D01*
X169633333Y-104452380D02*
X169823809Y-104452380D01*
X169919047Y-104500000D01*
X169966666Y-104547619D01*
X170061904Y-104690476D01*
X170109523Y-104880952D01*
X170109523Y-105261904D01*
X170061904Y-105357142D01*
X170014285Y-105404761D01*
X169919047Y-105452380D01*
X169728571Y-105452380D01*
X169633333Y-105404761D01*
X169585714Y-105357142D01*
X169538095Y-105261904D01*
X169538095Y-105023809D01*
X169585714Y-104928571D01*
X169633333Y-104880952D01*
X169728571Y-104833333D01*
X169919047Y-104833333D01*
X170014285Y-104880952D01*
X170061904Y-104928571D01*
X170109523Y-105023809D01*
%TO.C,R2*%
X194766666Y-85852380D02*
X195100000Y-85376190D01*
X195338095Y-85852380D02*
X195338095Y-84852380D01*
X194957142Y-84852380D01*
X194861904Y-84900000D01*
X194814285Y-84947619D01*
X194766666Y-85042857D01*
X194766666Y-85185714D01*
X194814285Y-85280952D01*
X194861904Y-85328571D01*
X194957142Y-85376190D01*
X195338095Y-85376190D01*
X194385714Y-84947619D02*
X194338095Y-84900000D01*
X194242857Y-84852380D01*
X194004761Y-84852380D01*
X193909523Y-84900000D01*
X193861904Y-84947619D01*
X193814285Y-85042857D01*
X193814285Y-85138095D01*
X193861904Y-85280952D01*
X194433333Y-85852380D01*
X193814285Y-85852380D01*
%TO.C,U2*%
X184961904Y-110252380D02*
X184961904Y-111061904D01*
X184914285Y-111157142D01*
X184866666Y-111204761D01*
X184771428Y-111252380D01*
X184580952Y-111252380D01*
X184485714Y-111204761D01*
X184438095Y-111157142D01*
X184390476Y-111061904D01*
X184390476Y-110252380D01*
X183961904Y-110347619D02*
X183914285Y-110300000D01*
X183819047Y-110252380D01*
X183580952Y-110252380D01*
X183485714Y-110300000D01*
X183438095Y-110347619D01*
X183390476Y-110442857D01*
X183390476Y-110538095D01*
X183438095Y-110680952D01*
X184009523Y-111252380D01*
X183390476Y-111252380D01*
%TO.C,R15*%
X179442857Y-122052380D02*
X179776190Y-121576190D01*
X180014285Y-122052380D02*
X180014285Y-121052380D01*
X179633333Y-121052380D01*
X179538095Y-121100000D01*
X179490476Y-121147619D01*
X179442857Y-121242857D01*
X179442857Y-121385714D01*
X179490476Y-121480952D01*
X179538095Y-121528571D01*
X179633333Y-121576190D01*
X180014285Y-121576190D01*
X178490476Y-122052380D02*
X179061904Y-122052380D01*
X178776190Y-122052380D02*
X178776190Y-121052380D01*
X178871428Y-121195238D01*
X178966666Y-121290476D01*
X179061904Y-121338095D01*
X177585714Y-121052380D02*
X178061904Y-121052380D01*
X178109523Y-121528571D01*
X178061904Y-121480952D01*
X177966666Y-121433333D01*
X177728571Y-121433333D01*
X177633333Y-121480952D01*
X177585714Y-121528571D01*
X177538095Y-121623809D01*
X177538095Y-121861904D01*
X177585714Y-121957142D01*
X177633333Y-122004761D01*
X177728571Y-122052380D01*
X177966666Y-122052380D01*
X178061904Y-122004761D01*
X178109523Y-121957142D01*
%TO.C,R14*%
X181842857Y-116252380D02*
X182176190Y-115776190D01*
X182414285Y-116252380D02*
X182414285Y-115252380D01*
X182033333Y-115252380D01*
X181938095Y-115300000D01*
X181890476Y-115347619D01*
X181842857Y-115442857D01*
X181842857Y-115585714D01*
X181890476Y-115680952D01*
X181938095Y-115728571D01*
X182033333Y-115776190D01*
X182414285Y-115776190D01*
X180890476Y-116252380D02*
X181461904Y-116252380D01*
X181176190Y-116252380D02*
X181176190Y-115252380D01*
X181271428Y-115395238D01*
X181366666Y-115490476D01*
X181461904Y-115538095D01*
X180033333Y-115585714D02*
X180033333Y-116252380D01*
X180271428Y-115204761D02*
X180509523Y-115919047D01*
X179890476Y-115919047D01*
%TO.C,R13*%
X184242857Y-122052380D02*
X184576190Y-121576190D01*
X184814285Y-122052380D02*
X184814285Y-121052380D01*
X184433333Y-121052380D01*
X184338095Y-121100000D01*
X184290476Y-121147619D01*
X184242857Y-121242857D01*
X184242857Y-121385714D01*
X184290476Y-121480952D01*
X184338095Y-121528571D01*
X184433333Y-121576190D01*
X184814285Y-121576190D01*
X183290476Y-122052380D02*
X183861904Y-122052380D01*
X183576190Y-122052380D02*
X183576190Y-121052380D01*
X183671428Y-121195238D01*
X183766666Y-121290476D01*
X183861904Y-121338095D01*
X182957142Y-121052380D02*
X182338095Y-121052380D01*
X182671428Y-121433333D01*
X182528571Y-121433333D01*
X182433333Y-121480952D01*
X182385714Y-121528571D01*
X182338095Y-121623809D01*
X182338095Y-121861904D01*
X182385714Y-121957142D01*
X182433333Y-122004761D01*
X182528571Y-122052380D01*
X182814285Y-122052380D01*
X182909523Y-122004761D01*
X182957142Y-121957142D01*
%TO.C,R12*%
X186642857Y-116252380D02*
X186976190Y-115776190D01*
X187214285Y-116252380D02*
X187214285Y-115252380D01*
X186833333Y-115252380D01*
X186738095Y-115300000D01*
X186690476Y-115347619D01*
X186642857Y-115442857D01*
X186642857Y-115585714D01*
X186690476Y-115680952D01*
X186738095Y-115728571D01*
X186833333Y-115776190D01*
X187214285Y-115776190D01*
X185690476Y-116252380D02*
X186261904Y-116252380D01*
X185976190Y-116252380D02*
X185976190Y-115252380D01*
X186071428Y-115395238D01*
X186166666Y-115490476D01*
X186261904Y-115538095D01*
X185309523Y-115347619D02*
X185261904Y-115300000D01*
X185166666Y-115252380D01*
X184928571Y-115252380D01*
X184833333Y-115300000D01*
X184785714Y-115347619D01*
X184738095Y-115442857D01*
X184738095Y-115538095D01*
X184785714Y-115680952D01*
X185357142Y-116252380D01*
X184738095Y-116252380D01*
%TO.C,R11*%
X189042857Y-122052380D02*
X189376190Y-121576190D01*
X189614285Y-122052380D02*
X189614285Y-121052380D01*
X189233333Y-121052380D01*
X189138095Y-121100000D01*
X189090476Y-121147619D01*
X189042857Y-121242857D01*
X189042857Y-121385714D01*
X189090476Y-121480952D01*
X189138095Y-121528571D01*
X189233333Y-121576190D01*
X189614285Y-121576190D01*
X188090476Y-122052380D02*
X188661904Y-122052380D01*
X188376190Y-122052380D02*
X188376190Y-121052380D01*
X188471428Y-121195238D01*
X188566666Y-121290476D01*
X188661904Y-121338095D01*
X187138095Y-122052380D02*
X187709523Y-122052380D01*
X187423809Y-122052380D02*
X187423809Y-121052380D01*
X187519047Y-121195238D01*
X187614285Y-121290476D01*
X187709523Y-121338095D01*
%TO.C,R10*%
X193842857Y-122052380D02*
X194176190Y-121576190D01*
X194414285Y-122052380D02*
X194414285Y-121052380D01*
X194033333Y-121052380D01*
X193938095Y-121100000D01*
X193890476Y-121147619D01*
X193842857Y-121242857D01*
X193842857Y-121385714D01*
X193890476Y-121480952D01*
X193938095Y-121528571D01*
X194033333Y-121576190D01*
X194414285Y-121576190D01*
X192890476Y-122052380D02*
X193461904Y-122052380D01*
X193176190Y-122052380D02*
X193176190Y-121052380D01*
X193271428Y-121195238D01*
X193366666Y-121290476D01*
X193461904Y-121338095D01*
X192271428Y-121052380D02*
X192176190Y-121052380D01*
X192080952Y-121100000D01*
X192033333Y-121147619D01*
X191985714Y-121242857D01*
X191938095Y-121433333D01*
X191938095Y-121671428D01*
X191985714Y-121861904D01*
X192033333Y-121957142D01*
X192080952Y-122004761D01*
X192176190Y-122052380D01*
X192271428Y-122052380D01*
X192366666Y-122004761D01*
X192414285Y-121957142D01*
X192461904Y-121861904D01*
X192509523Y-121671428D01*
X192509523Y-121433333D01*
X192461904Y-121242857D01*
X192414285Y-121147619D01*
X192366666Y-121100000D01*
X192271428Y-121052380D01*
%TO.C,R9*%
X195766666Y-116252380D02*
X196100000Y-115776190D01*
X196338095Y-116252380D02*
X196338095Y-115252380D01*
X195957142Y-115252380D01*
X195861904Y-115300000D01*
X195814285Y-115347619D01*
X195766666Y-115442857D01*
X195766666Y-115585714D01*
X195814285Y-115680952D01*
X195861904Y-115728571D01*
X195957142Y-115776190D01*
X196338095Y-115776190D01*
X195290476Y-116252380D02*
X195100000Y-116252380D01*
X195004761Y-116204761D01*
X194957142Y-116157142D01*
X194861904Y-116014285D01*
X194814285Y-115823809D01*
X194814285Y-115442857D01*
X194861904Y-115347619D01*
X194909523Y-115300000D01*
X195004761Y-115252380D01*
X195195238Y-115252380D01*
X195290476Y-115300000D01*
X195338095Y-115347619D01*
X195385714Y-115442857D01*
X195385714Y-115680952D01*
X195338095Y-115776190D01*
X195290476Y-115823809D01*
X195195238Y-115871428D01*
X195004761Y-115871428D01*
X194909523Y-115823809D01*
X194861904Y-115776190D01*
X194814285Y-115680952D01*
%TO.C,R8*%
X198166666Y-122052380D02*
X198500000Y-121576190D01*
X198738095Y-122052380D02*
X198738095Y-121052380D01*
X198357142Y-121052380D01*
X198261904Y-121100000D01*
X198214285Y-121147619D01*
X198166666Y-121242857D01*
X198166666Y-121385714D01*
X198214285Y-121480952D01*
X198261904Y-121528571D01*
X198357142Y-121576190D01*
X198738095Y-121576190D01*
X197595238Y-121480952D02*
X197690476Y-121433333D01*
X197738095Y-121385714D01*
X197785714Y-121290476D01*
X197785714Y-121242857D01*
X197738095Y-121147619D01*
X197690476Y-121100000D01*
X197595238Y-121052380D01*
X197404761Y-121052380D01*
X197309523Y-121100000D01*
X197261904Y-121147619D01*
X197214285Y-121242857D01*
X197214285Y-121290476D01*
X197261904Y-121385714D01*
X197309523Y-121433333D01*
X197404761Y-121480952D01*
X197595238Y-121480952D01*
X197690476Y-121528571D01*
X197738095Y-121576190D01*
X197785714Y-121671428D01*
X197785714Y-121861904D01*
X197738095Y-121957142D01*
X197690476Y-122004761D01*
X197595238Y-122052380D01*
X197404761Y-122052380D01*
X197309523Y-122004761D01*
X197261904Y-121957142D01*
X197214285Y-121861904D01*
X197214285Y-121671428D01*
X197261904Y-121576190D01*
X197309523Y-121528571D01*
X197404761Y-121480952D01*
%TO.C,R7*%
X200566666Y-116252380D02*
X200900000Y-115776190D01*
X201138095Y-116252380D02*
X201138095Y-115252380D01*
X200757142Y-115252380D01*
X200661904Y-115300000D01*
X200614285Y-115347619D01*
X200566666Y-115442857D01*
X200566666Y-115585714D01*
X200614285Y-115680952D01*
X200661904Y-115728571D01*
X200757142Y-115776190D01*
X201138095Y-115776190D01*
X200233333Y-115252380D02*
X199566666Y-115252380D01*
X199995238Y-116252380D01*
%TO.C,R6*%
X202966666Y-122052380D02*
X203300000Y-121576190D01*
X203538095Y-122052380D02*
X203538095Y-121052380D01*
X203157142Y-121052380D01*
X203061904Y-121100000D01*
X203014285Y-121147619D01*
X202966666Y-121242857D01*
X202966666Y-121385714D01*
X203014285Y-121480952D01*
X203061904Y-121528571D01*
X203157142Y-121576190D01*
X203538095Y-121576190D01*
X202109523Y-121052380D02*
X202300000Y-121052380D01*
X202395238Y-121100000D01*
X202442857Y-121147619D01*
X202538095Y-121290476D01*
X202585714Y-121480952D01*
X202585714Y-121861904D01*
X202538095Y-121957142D01*
X202490476Y-122004761D01*
X202395238Y-122052380D01*
X202204761Y-122052380D01*
X202109523Y-122004761D01*
X202061904Y-121957142D01*
X202014285Y-121861904D01*
X202014285Y-121623809D01*
X202061904Y-121528571D01*
X202109523Y-121480952D01*
X202204761Y-121433333D01*
X202395238Y-121433333D01*
X202490476Y-121480952D01*
X202538095Y-121528571D01*
X202585714Y-121623809D01*
%TO.C,R5*%
X174566666Y-85652380D02*
X174900000Y-85176190D01*
X175138095Y-85652380D02*
X175138095Y-84652380D01*
X174757142Y-84652380D01*
X174661904Y-84700000D01*
X174614285Y-84747619D01*
X174566666Y-84842857D01*
X174566666Y-84985714D01*
X174614285Y-85080952D01*
X174661904Y-85128571D01*
X174757142Y-85176190D01*
X175138095Y-85176190D01*
X173661904Y-84652380D02*
X174138095Y-84652380D01*
X174185714Y-85128571D01*
X174138095Y-85080952D01*
X174042857Y-85033333D01*
X173804761Y-85033333D01*
X173709523Y-85080952D01*
X173661904Y-85128571D01*
X173614285Y-85223809D01*
X173614285Y-85461904D01*
X173661904Y-85557142D01*
X173709523Y-85604761D01*
X173804761Y-85652380D01*
X174042857Y-85652380D01*
X174138095Y-85604761D01*
X174185714Y-85557142D01*
%TO.C,R4*%
X176566666Y-116252380D02*
X176900000Y-115776190D01*
X177138095Y-116252380D02*
X177138095Y-115252380D01*
X176757142Y-115252380D01*
X176661904Y-115300000D01*
X176614285Y-115347619D01*
X176566666Y-115442857D01*
X176566666Y-115585714D01*
X176614285Y-115680952D01*
X176661904Y-115728571D01*
X176757142Y-115776190D01*
X177138095Y-115776190D01*
X175709523Y-115585714D02*
X175709523Y-116252380D01*
X175947619Y-115204761D02*
X176185714Y-115919047D01*
X175566666Y-115919047D01*
%TO.C,R3*%
X215366666Y-121152380D02*
X215700000Y-120676190D01*
X215938095Y-121152380D02*
X215938095Y-120152380D01*
X215557142Y-120152380D01*
X215461904Y-120200000D01*
X215414285Y-120247619D01*
X215366666Y-120342857D01*
X215366666Y-120485714D01*
X215414285Y-120580952D01*
X215461904Y-120628571D01*
X215557142Y-120676190D01*
X215938095Y-120676190D01*
X215033333Y-120152380D02*
X214414285Y-120152380D01*
X214747619Y-120533333D01*
X214604761Y-120533333D01*
X214509523Y-120580952D01*
X214461904Y-120628571D01*
X214414285Y-120723809D01*
X214414285Y-120961904D01*
X214461904Y-121057142D01*
X214509523Y-121104761D01*
X214604761Y-121152380D01*
X214890476Y-121152380D01*
X214985714Y-121104761D01*
X215033333Y-121057142D01*
%TO.C,C8*%
X170966666Y-117557142D02*
X171014285Y-117604761D01*
X171157142Y-117652380D01*
X171252380Y-117652380D01*
X171395238Y-117604761D01*
X171490476Y-117509523D01*
X171538095Y-117414285D01*
X171585714Y-117223809D01*
X171585714Y-117080952D01*
X171538095Y-116890476D01*
X171490476Y-116795238D01*
X171395238Y-116700000D01*
X171252380Y-116652380D01*
X171157142Y-116652380D01*
X171014285Y-116700000D01*
X170966666Y-116747619D01*
X170395238Y-117080952D02*
X170490476Y-117033333D01*
X170538095Y-116985714D01*
X170585714Y-116890476D01*
X170585714Y-116842857D01*
X170538095Y-116747619D01*
X170490476Y-116700000D01*
X170395238Y-116652380D01*
X170204761Y-116652380D01*
X170109523Y-116700000D01*
X170061904Y-116747619D01*
X170014285Y-116842857D01*
X170014285Y-116890476D01*
X170061904Y-116985714D01*
X170109523Y-117033333D01*
X170204761Y-117080952D01*
X170395238Y-117080952D01*
X170490476Y-117128571D01*
X170538095Y-117176190D01*
X170585714Y-117271428D01*
X170585714Y-117461904D01*
X170538095Y-117557142D01*
X170490476Y-117604761D01*
X170395238Y-117652380D01*
X170204761Y-117652380D01*
X170109523Y-117604761D01*
X170061904Y-117557142D01*
X170014285Y-117461904D01*
X170014285Y-117271428D01*
X170061904Y-117176190D01*
X170109523Y-117128571D01*
X170204761Y-117080952D01*
%TO.C,C7*%
X191966666Y-114657142D02*
X192014285Y-114704761D01*
X192157142Y-114752380D01*
X192252380Y-114752380D01*
X192395238Y-114704761D01*
X192490476Y-114609523D01*
X192538095Y-114514285D01*
X192585714Y-114323809D01*
X192585714Y-114180952D01*
X192538095Y-113990476D01*
X192490476Y-113895238D01*
X192395238Y-113800000D01*
X192252380Y-113752380D01*
X192157142Y-113752380D01*
X192014285Y-113800000D01*
X191966666Y-113847619D01*
X191633333Y-113752380D02*
X190966666Y-113752380D01*
X191395238Y-114752380D01*
%TO.C,U7*%
X178861904Y-102852380D02*
X178861904Y-103661904D01*
X178814285Y-103757142D01*
X178766666Y-103804761D01*
X178671428Y-103852380D01*
X178480952Y-103852380D01*
X178385714Y-103804761D01*
X178338095Y-103757142D01*
X178290476Y-103661904D01*
X178290476Y-102852380D01*
X177909523Y-102852380D02*
X177242857Y-102852380D01*
X177671428Y-103852380D01*
%TO.C,U6*%
X178761904Y-82652380D02*
X178761904Y-83461904D01*
X178714285Y-83557142D01*
X178666666Y-83604761D01*
X178571428Y-83652380D01*
X178380952Y-83652380D01*
X178285714Y-83604761D01*
X178238095Y-83557142D01*
X178190476Y-83461904D01*
X178190476Y-82652380D01*
X177285714Y-82652380D02*
X177476190Y-82652380D01*
X177571428Y-82700000D01*
X177619047Y-82747619D01*
X177714285Y-82890476D01*
X177761904Y-83080952D01*
X177761904Y-83461904D01*
X177714285Y-83557142D01*
X177666666Y-83604761D01*
X177571428Y-83652380D01*
X177380952Y-83652380D01*
X177285714Y-83604761D01*
X177238095Y-83557142D01*
X177190476Y-83461904D01*
X177190476Y-83223809D01*
X177238095Y-83128571D01*
X177285714Y-83080952D01*
X177380952Y-83033333D01*
X177571428Y-83033333D01*
X177666666Y-83080952D01*
X177714285Y-83128571D01*
X177761904Y-83223809D01*
%TO.C,U4*%
X199061904Y-102902380D02*
X199061904Y-103711904D01*
X199014285Y-103807142D01*
X198966666Y-103854761D01*
X198871428Y-103902380D01*
X198680952Y-103902380D01*
X198585714Y-103854761D01*
X198538095Y-103807142D01*
X198490476Y-103711904D01*
X198490476Y-102902380D01*
X197585714Y-103235714D02*
X197585714Y-103902380D01*
X197823809Y-102854761D02*
X198061904Y-103569047D01*
X197442857Y-103569047D01*
%TO.C,U3*%
X199061904Y-82602380D02*
X199061904Y-83411904D01*
X199014285Y-83507142D01*
X198966666Y-83554761D01*
X198871428Y-83602380D01*
X198680952Y-83602380D01*
X198585714Y-83554761D01*
X198538095Y-83507142D01*
X198490476Y-83411904D01*
X198490476Y-82602380D01*
X198109523Y-82602380D02*
X197490476Y-82602380D01*
X197823809Y-82983333D01*
X197680952Y-82983333D01*
X197585714Y-83030952D01*
X197538095Y-83078571D01*
X197490476Y-83173809D01*
X197490476Y-83411904D01*
X197538095Y-83507142D01*
X197585714Y-83554761D01*
X197680952Y-83602380D01*
X197966666Y-83602380D01*
X198061904Y-83554761D01*
X198109523Y-83507142D01*
%TO.C,U1*%
X204961904Y-110052380D02*
X204961904Y-110861904D01*
X204914285Y-110957142D01*
X204866666Y-111004761D01*
X204771428Y-111052380D01*
X204580952Y-111052380D01*
X204485714Y-111004761D01*
X204438095Y-110957142D01*
X204390476Y-110861904D01*
X204390476Y-110052380D01*
X203390476Y-111052380D02*
X203961904Y-111052380D01*
X203676190Y-111052380D02*
X203676190Y-110052380D01*
X203771428Y-110195238D01*
X203866666Y-110290476D01*
X203961904Y-110338095D01*
%TO.C,R1*%
X190966666Y-116252380D02*
X191300000Y-115776190D01*
X191538095Y-116252380D02*
X191538095Y-115252380D01*
X191157142Y-115252380D01*
X191061904Y-115300000D01*
X191014285Y-115347619D01*
X190966666Y-115442857D01*
X190966666Y-115585714D01*
X191014285Y-115680952D01*
X191061904Y-115728571D01*
X191157142Y-115776190D01*
X191538095Y-115776190D01*
X190014285Y-116252380D02*
X190585714Y-116252380D01*
X190300000Y-116252380D02*
X190300000Y-115252380D01*
X190395238Y-115395238D01*
X190490476Y-115490476D01*
X190585714Y-115538095D01*
%TO.C,C4*%
X181966666Y-89157142D02*
X182014285Y-89204761D01*
X182157142Y-89252380D01*
X182252380Y-89252380D01*
X182395238Y-89204761D01*
X182490476Y-89109523D01*
X182538095Y-89014285D01*
X182585714Y-88823809D01*
X182585714Y-88680952D01*
X182538095Y-88490476D01*
X182490476Y-88395238D01*
X182395238Y-88300000D01*
X182252380Y-88252380D01*
X182157142Y-88252380D01*
X182014285Y-88300000D01*
X181966666Y-88347619D01*
X181109523Y-88585714D02*
X181109523Y-89252380D01*
X181347619Y-88204761D02*
X181585714Y-88919047D01*
X180966666Y-88919047D01*
%TO.C,C3*%
X178266666Y-69007142D02*
X178314285Y-69054761D01*
X178457142Y-69102380D01*
X178552380Y-69102380D01*
X178695238Y-69054761D01*
X178790476Y-68959523D01*
X178838095Y-68864285D01*
X178885714Y-68673809D01*
X178885714Y-68530952D01*
X178838095Y-68340476D01*
X178790476Y-68245238D01*
X178695238Y-68150000D01*
X178552380Y-68102380D01*
X178457142Y-68102380D01*
X178314285Y-68150000D01*
X178266666Y-68197619D01*
X177933333Y-68102380D02*
X177314285Y-68102380D01*
X177647619Y-68483333D01*
X177504761Y-68483333D01*
X177409523Y-68530952D01*
X177361904Y-68578571D01*
X177314285Y-68673809D01*
X177314285Y-68911904D01*
X177361904Y-69007142D01*
X177409523Y-69054761D01*
X177504761Y-69102380D01*
X177790476Y-69102380D01*
X177885714Y-69054761D01*
X177933333Y-69007142D01*
%TO.C,C2*%
X202166666Y-89357142D02*
X202214285Y-89404761D01*
X202357142Y-89452380D01*
X202452380Y-89452380D01*
X202595238Y-89404761D01*
X202690476Y-89309523D01*
X202738095Y-89214285D01*
X202785714Y-89023809D01*
X202785714Y-88880952D01*
X202738095Y-88690476D01*
X202690476Y-88595238D01*
X202595238Y-88500000D01*
X202452380Y-88452380D01*
X202357142Y-88452380D01*
X202214285Y-88500000D01*
X202166666Y-88547619D01*
X201785714Y-88547619D02*
X201738095Y-88500000D01*
X201642857Y-88452380D01*
X201404761Y-88452380D01*
X201309523Y-88500000D01*
X201261904Y-88547619D01*
X201214285Y-88642857D01*
X201214285Y-88738095D01*
X201261904Y-88880952D01*
X201833333Y-89452380D01*
X201214285Y-89452380D01*
%TO.C,C1*%
X198216666Y-69007142D02*
X198264285Y-69054761D01*
X198407142Y-69102380D01*
X198502380Y-69102380D01*
X198645238Y-69054761D01*
X198740476Y-68959523D01*
X198788095Y-68864285D01*
X198835714Y-68673809D01*
X198835714Y-68530952D01*
X198788095Y-68340476D01*
X198740476Y-68245238D01*
X198645238Y-68150000D01*
X198502380Y-68102380D01*
X198407142Y-68102380D01*
X198264285Y-68150000D01*
X198216666Y-68197619D01*
X197264285Y-69102380D02*
X197835714Y-69102380D01*
X197550000Y-69102380D02*
X197550000Y-68102380D01*
X197645238Y-68245238D01*
X197740476Y-68340476D01*
X197835714Y-68388095D01*
%TD*%
M02*
