%TF.GenerationSoftware,KiCad,Pcbnew,5.1.10*%
%TF.CreationDate,2021-12-19T15:16:08+01:00*%
%TF.ProjectId,afterglow_pico,61667465-7267-46c6-9f77-5f7069636f2e,rev?*%
%TF.SameCoordinates,Original*%
%TF.FileFunction,Copper,L2,Bot*%
%TF.FilePolarity,Positive*%
%FSLAX46Y46*%
G04 Gerber Fmt 4.6, Leading zero omitted, Abs format (unit mm)*
G04 Created by KiCad (PCBNEW 5.1.10) date 2021-12-19 15:16:08*
%MOMM*%
%LPD*%
G01*
G04 APERTURE LIST*
%TA.AperFunction,ComponentPad*%
%ADD10R,1.700000X1.700000*%
%TD*%
%TA.AperFunction,ComponentPad*%
%ADD11O,1.700000X1.700000*%
%TD*%
%TA.AperFunction,SMDPad,CuDef*%
%ADD12R,1.300000X1.500000*%
%TD*%
%TA.AperFunction,SMDPad,CuDef*%
%ADD13R,1.500000X1.300000*%
%TD*%
%TA.AperFunction,SMDPad,CuDef*%
%ADD14R,0.600000X1.500000*%
%TD*%
%TA.AperFunction,SMDPad,CuDef*%
%ADD15R,1.250000X1.500000*%
%TD*%
%TA.AperFunction,SMDPad,CuDef*%
%ADD16R,1.950000X0.600000*%
%TD*%
%TA.AperFunction,ComponentPad*%
%ADD17R,2.000000X2.600000*%
%TD*%
%TA.AperFunction,ComponentPad*%
%ADD18O,2.000000X2.600000*%
%TD*%
%TA.AperFunction,SMDPad,CuDef*%
%ADD19R,1.500000X1.250000*%
%TD*%
%TA.AperFunction,ViaPad*%
%ADD20C,0.800000*%
%TD*%
%TA.AperFunction,Conductor*%
%ADD21C,0.250000*%
%TD*%
%TA.AperFunction,Conductor*%
%ADD22C,0.500000*%
%TD*%
G04 APERTURE END LIST*
D10*
%TO.P,TEST,1*%
%TO.N,Net-(TEST_MODE1-Pad1)*%
X209400000Y-117400000D03*
D11*
%TO.P,TEST,2*%
%TO.N,GND*%
X211940000Y-117400000D03*
%TD*%
D12*
%TO.P,R16,2*%
%TO.N,Net-(R16-Pad2)*%
X170800000Y-109750000D03*
%TO.P,R16,1*%
%TO.N,+3V3*%
X170800000Y-107050000D03*
%TD*%
D13*
%TO.P,R2,2*%
%TO.N,Net-(R2-Pad2)*%
X195950000Y-87200000D03*
%TO.P,R2,1*%
%TO.N,+3V3*%
X193250000Y-87200000D03*
%TD*%
D14*
%TO.P,U2,14*%
%TO.N,+5V*%
X174390000Y-113300000D03*
%TO.P,U2,13*%
%TO.N,/COMB_EV*%
X175660000Y-113300000D03*
%TO.P,U2,12*%
%TO.N,/PICO_OUT_EN*%
X176930000Y-113300000D03*
%TO.P,U2,11*%
%TO.N,/OUT_SEL*%
X178200000Y-113300000D03*
%TO.P,U2,10*%
%TO.N,Net-(U2-Pad10)*%
X179470000Y-113300000D03*
%TO.P,U2,9*%
%TO.N,Net-(U1-Pad8)*%
X180740000Y-113300000D03*
%TO.P,U2,8*%
%TO.N,Net-(U2-Pad5)*%
X182010000Y-113300000D03*
%TO.P,U2,7*%
%TO.N,GND*%
X182010000Y-107900000D03*
%TO.P,U2,6*%
%TO.N,/COMB_EV*%
X180740000Y-107900000D03*
%TO.P,U2,5*%
%TO.N,Net-(U2-Pad5)*%
X179470000Y-107900000D03*
%TO.P,U2,4*%
%TO.N,Net-(U1-Pad6)*%
X178200000Y-107900000D03*
%TO.P,U2,3*%
%TO.N,Net-(U2-Pad10)*%
X176930000Y-107900000D03*
%TO.P,U2,2*%
%TO.N,Net-(R10-Pad1)*%
X175660000Y-107900000D03*
%TO.P,U2,1*%
%TO.N,Net-(R12-Pad2)*%
X174390000Y-107900000D03*
%TD*%
D12*
%TO.P,R15,2*%
%TO.N,Net-(R15-Pad2)*%
X178800000Y-117300000D03*
%TO.P,R15,1*%
%TO.N,+5V*%
X178800000Y-120000000D03*
%TD*%
%TO.P,R14,2*%
%TO.N,Net-(R14-Pad2)*%
X181200000Y-117300000D03*
%TO.P,R14,1*%
%TO.N,+5V*%
X181200000Y-120000000D03*
%TD*%
%TO.P,R13,2*%
%TO.N,Net-(R13-Pad2)*%
X183600000Y-117300000D03*
%TO.P,R13,1*%
%TO.N,+5V*%
X183600000Y-120000000D03*
%TD*%
%TO.P,R12,2*%
%TO.N,Net-(R12-Pad2)*%
X186000000Y-117300000D03*
%TO.P,R12,1*%
%TO.N,+5V*%
X186000000Y-120000000D03*
%TD*%
%TO.P,R11,2*%
%TO.N,Net-(R10-Pad1)*%
X188400000Y-117300000D03*
%TO.P,R11,1*%
%TO.N,+5V*%
X188400000Y-120000000D03*
%TD*%
%TO.P,R10,2*%
%TO.N,/P33*%
X193200000Y-120000000D03*
%TO.P,R10,1*%
%TO.N,Net-(R10-Pad1)*%
X193200000Y-117300000D03*
%TD*%
%TO.P,R9,2*%
%TO.N,/DIS_STROBE*%
X195600000Y-120000000D03*
%TO.P,R9,1*%
%TO.N,Net-(R12-Pad2)*%
X195600000Y-117300000D03*
%TD*%
%TO.P,R8,2*%
%TO.N,/DIS3*%
X198000000Y-120000000D03*
%TO.P,R8,1*%
%TO.N,Net-(R13-Pad2)*%
X198000000Y-117300000D03*
%TD*%
%TO.P,R7,2*%
%TO.N,/DIS2*%
X200400000Y-120000000D03*
%TO.P,R7,1*%
%TO.N,Net-(R14-Pad2)*%
X200400000Y-117300000D03*
%TD*%
%TO.P,R6,2*%
%TO.N,/DIS1*%
X202800000Y-120000000D03*
%TO.P,R6,1*%
%TO.N,Net-(R15-Pad2)*%
X202800000Y-117300000D03*
%TD*%
D13*
%TO.P,R5,2*%
%TO.N,+3V3*%
X175750000Y-87000000D03*
%TO.P,R5,1*%
%TO.N,/PICO_EN_OUT*%
X173050000Y-87000000D03*
%TD*%
D12*
%TO.P,R4,2*%
%TO.N,GND*%
X176400000Y-117300000D03*
%TO.P,R4,1*%
%TO.N,/PICO_OUT_EN*%
X176400000Y-120000000D03*
%TD*%
%TO.P,R3,1*%
%TO.N,+3V3*%
X215200000Y-116050000D03*
%TO.P,R3,2*%
%TO.N,Net-(PWR_LED1-Pad2)*%
X215200000Y-118750000D03*
%TD*%
D15*
%TO.P,C8,2*%
%TO.N,GND*%
X170800000Y-112550000D03*
%TO.P,C8,1*%
%TO.N,+5V*%
X170800000Y-115050000D03*
%TD*%
%TO.P,C7,2*%
%TO.N,GND*%
X191800000Y-109800000D03*
%TO.P,C7,1*%
%TO.N,+5V*%
X191800000Y-112300000D03*
%TD*%
D16*
%TO.P,U7,1*%
%TO.N,+5V*%
X182800000Y-89985000D03*
%TO.P,U7,2*%
%TO.N,Net-(U5-Pad31)*%
X182800000Y-91255000D03*
%TO.P,U7,3*%
%TO.N,Net-(U5-Pad32)*%
X182800000Y-92525000D03*
%TO.P,U7,4*%
%TO.N,Net-(U5-Pad34)*%
X182800000Y-93795000D03*
%TO.P,U7,5*%
%TO.N,Net-(R16-Pad2)*%
X182800000Y-95065000D03*
%TO.P,U7,6*%
%TO.N,GND*%
X182800000Y-96335000D03*
%TO.P,U7,7*%
X182800000Y-97605000D03*
%TO.P,U7,8*%
X182800000Y-98875000D03*
%TO.P,U7,9*%
X182800000Y-100145000D03*
%TO.P,U7,10*%
X182800000Y-101415000D03*
%TO.P,U7,11*%
%TO.N,Net-(U7-Pad11)*%
X173400000Y-101415000D03*
%TO.P,U7,12*%
%TO.N,Net-(U7-Pad12)*%
X173400000Y-100145000D03*
%TO.P,U7,13*%
%TO.N,Net-(U7-Pad13)*%
X173400000Y-98875000D03*
%TO.P,U7,14*%
%TO.N,Net-(U7-Pad14)*%
X173400000Y-97605000D03*
%TO.P,U7,15*%
%TO.N,/PICO_BLANK*%
X173400000Y-96335000D03*
%TO.P,U7,16*%
%TO.N,/PICO_OUT_EN*%
X173400000Y-95065000D03*
%TO.P,U7,17*%
%TO.N,/LROW_PICO*%
X173400000Y-93795000D03*
%TO.P,U7,18*%
%TO.N,/LCOL_PICO*%
X173400000Y-92525000D03*
%TO.P,U7,19*%
%TO.N,/PICO_EN_OUT*%
X173400000Y-91255000D03*
%TO.P,U7,20*%
%TO.N,+5V*%
X173400000Y-89985000D03*
%TD*%
%TO.P,U6,1*%
%TO.N,+5V*%
X182800000Y-69685000D03*
%TO.P,U6,2*%
%TO.N,Net-(U5-Pad20)*%
X182800000Y-70955000D03*
%TO.P,U6,3*%
%TO.N,Net-(U5-Pad21)*%
X182800000Y-72225000D03*
%TO.P,U6,4*%
%TO.N,Net-(U5-Pad22)*%
X182800000Y-73495000D03*
%TO.P,U6,5*%
%TO.N,Net-(U5-Pad24)*%
X182800000Y-74765000D03*
%TO.P,U6,6*%
%TO.N,Net-(U5-Pad25)*%
X182800000Y-76035000D03*
%TO.P,U6,7*%
%TO.N,Net-(U5-Pad26)*%
X182800000Y-77305000D03*
%TO.P,U6,8*%
%TO.N,Net-(U5-Pad27)*%
X182800000Y-78575000D03*
%TO.P,U6,9*%
%TO.N,Net-(U5-Pad29)*%
X182800000Y-79845000D03*
%TO.P,U6,10*%
%TO.N,GND*%
X182800000Y-81115000D03*
%TO.P,U6,11*%
%TO.N,/D7_PICO*%
X173400000Y-81115000D03*
%TO.P,U6,12*%
%TO.N,/D6_PICO*%
X173400000Y-79845000D03*
%TO.P,U6,13*%
%TO.N,/D5_PICO*%
X173400000Y-78575000D03*
%TO.P,U6,14*%
%TO.N,/D4_PICO*%
X173400000Y-77305000D03*
%TO.P,U6,15*%
%TO.N,/D3_PICO*%
X173400000Y-76035000D03*
%TO.P,U6,16*%
%TO.N,/D2_PICO*%
X173400000Y-74765000D03*
%TO.P,U6,17*%
%TO.N,/D1_PICO*%
X173400000Y-73495000D03*
%TO.P,U6,18*%
%TO.N,/D0_PICO*%
X173400000Y-72225000D03*
%TO.P,U6,19*%
%TO.N,/PICO_EN_OUT*%
X173400000Y-70955000D03*
%TO.P,U6,20*%
%TO.N,+5V*%
X173400000Y-69685000D03*
%TD*%
%TO.P,U4,20*%
%TO.N,+3V3*%
X193600000Y-89985000D03*
%TO.P,U4,19*%
%TO.N,/PICO_EN_OUT*%
X193600000Y-91255000D03*
%TO.P,U4,18*%
%TO.N,Net-(U4-Pad18)*%
X193600000Y-92525000D03*
%TO.P,U4,17*%
%TO.N,Net-(U4-Pad17)*%
X193600000Y-93795000D03*
%TO.P,U4,16*%
%TO.N,Net-(U4-Pad16)*%
X193600000Y-95065000D03*
%TO.P,U4,15*%
%TO.N,Net-(R2-Pad2)*%
X193600000Y-96335000D03*
%TO.P,U4,14*%
%TO.N,Net-(U4-Pad14)*%
X193600000Y-97605000D03*
%TO.P,U4,13*%
%TO.N,Net-(U4-Pad13)*%
X193600000Y-98875000D03*
%TO.P,U4,12*%
%TO.N,Net-(U4-Pad12)*%
X193600000Y-100145000D03*
%TO.P,U4,11*%
%TO.N,Net-(U4-Pad11)*%
X193600000Y-101415000D03*
%TO.P,U4,10*%
%TO.N,GND*%
X203000000Y-101415000D03*
%TO.P,U4,9*%
X203000000Y-100145000D03*
%TO.P,U4,8*%
X203000000Y-98875000D03*
%TO.P,U4,7*%
X203000000Y-97605000D03*
%TO.P,U4,6*%
X203000000Y-96335000D03*
%TO.P,U4,5*%
%TO.N,/BLANK*%
X203000000Y-95065000D03*
%TO.P,U4,4*%
%TO.N,/COMB_EV*%
X203000000Y-93795000D03*
%TO.P,U4,3*%
%TO.N,/LROW*%
X203000000Y-92525000D03*
%TO.P,U4,2*%
%TO.N,/LCOL*%
X203000000Y-91255000D03*
%TO.P,U4,1*%
%TO.N,+3V3*%
X203000000Y-89985000D03*
%TD*%
%TO.P,U3,20*%
%TO.N,+3V3*%
X193600000Y-69685000D03*
%TO.P,U3,19*%
%TO.N,/PICO_EN_OUT*%
X193600000Y-70955000D03*
%TO.P,U3,18*%
%TO.N,Net-(U3-Pad18)*%
X193600000Y-72225000D03*
%TO.P,U3,17*%
%TO.N,Net-(U3-Pad17)*%
X193600000Y-73495000D03*
%TO.P,U3,16*%
%TO.N,Net-(U3-Pad16)*%
X193600000Y-74765000D03*
%TO.P,U3,15*%
%TO.N,Net-(U3-Pad15)*%
X193600000Y-76035000D03*
%TO.P,U3,14*%
%TO.N,Net-(U3-Pad14)*%
X193600000Y-77305000D03*
%TO.P,U3,13*%
%TO.N,Net-(U3-Pad13)*%
X193600000Y-78575000D03*
%TO.P,U3,12*%
%TO.N,Net-(U3-Pad12)*%
X193600000Y-79845000D03*
%TO.P,U3,11*%
%TO.N,Net-(U3-Pad11)*%
X193600000Y-81115000D03*
%TO.P,U3,10*%
%TO.N,GND*%
X203000000Y-81115000D03*
%TO.P,U3,9*%
%TO.N,/D7*%
X203000000Y-79845000D03*
%TO.P,U3,8*%
%TO.N,/D6*%
X203000000Y-78575000D03*
%TO.P,U3,7*%
%TO.N,/D5*%
X203000000Y-77305000D03*
%TO.P,U3,6*%
%TO.N,/D4*%
X203000000Y-76035000D03*
%TO.P,U3,5*%
%TO.N,/D3*%
X203000000Y-74765000D03*
%TO.P,U3,4*%
%TO.N,/D2*%
X203000000Y-73495000D03*
%TO.P,U3,3*%
%TO.N,/D1*%
X203000000Y-72225000D03*
%TO.P,U3,2*%
%TO.N,/D0*%
X203000000Y-70955000D03*
%TO.P,U3,1*%
%TO.N,+3V3*%
X203000000Y-69685000D03*
%TD*%
D14*
%TO.P,U1,14*%
%TO.N,+5V*%
X194490000Y-113300000D03*
%TO.P,U1,13*%
%TO.N,Net-(R13-Pad2)*%
X195760000Y-113300000D03*
%TO.P,U1,12*%
%TO.N,Net-(R14-Pad2)*%
X197030000Y-113300000D03*
%TO.P,U1,11*%
%TO.N,N/C*%
X198300000Y-113300000D03*
%TO.P,U1,10*%
%TO.N,Net-(R15-Pad2)*%
X199570000Y-113300000D03*
%TO.P,U1,9*%
%TO.N,/SOL4*%
X200840000Y-113300000D03*
%TO.P,U1,8*%
%TO.N,Net-(U1-Pad8)*%
X202110000Y-113300000D03*
%TO.P,U1,7*%
%TO.N,GND*%
X202110000Y-107900000D03*
%TO.P,U1,6*%
%TO.N,Net-(U1-Pad6)*%
X200840000Y-107900000D03*
%TO.P,U1,5*%
%TO.N,/SOL3*%
X199570000Y-107900000D03*
%TO.P,U1,4*%
%TO.N,/SOL2*%
X198300000Y-107900000D03*
%TO.P,U1,3*%
%TO.N,N/C*%
X197030000Y-107900000D03*
%TO.P,U1,2*%
%TO.N,/SOL1*%
X195760000Y-107900000D03*
%TO.P,U1,1*%
%TO.N,/TRIAC*%
X194490000Y-107900000D03*
%TD*%
D12*
%TO.P,R1,2*%
%TO.N,GND*%
X190800000Y-120000000D03*
%TO.P,R1,1*%
%TO.N,/OUT_SEL*%
X190800000Y-117300000D03*
%TD*%
D17*
%TO.P,+ 5V -,1*%
%TO.N,+5V*%
X218960000Y-116800000D03*
D18*
%TO.P,+ 5V -,2*%
%TO.N,GND*%
X221500000Y-116800000D03*
%TD*%
D11*
%TO.P,J2,34*%
%TO.N,/ZERO_CROSS*%
X210710000Y-68700000D03*
%TO.P,J2,33*%
%TO.N,/P33*%
X213250000Y-68700000D03*
%TO.P,J2,32*%
%TO.N,/DIS3*%
X210710000Y-71240000D03*
%TO.P,J2,31*%
%TO.N,/PICO_BLANK*%
X213250000Y-71240000D03*
%TO.P,J2,30*%
%TO.N,GND*%
X210710000Y-73780000D03*
%TO.P,J2,29*%
%TO.N,/D0_OUT*%
X213250000Y-73780000D03*
%TO.P,J2,28*%
%TO.N,GND*%
X210710000Y-76320000D03*
%TO.P,J2,27*%
%TO.N,/D1_OUT*%
X213250000Y-76320000D03*
%TO.P,J2,26*%
%TO.N,GND*%
X210710000Y-78860000D03*
%TO.P,J2,25*%
%TO.N,/D2_OUT*%
X213250000Y-78860000D03*
%TO.P,J2,24*%
%TO.N,GND*%
X210710000Y-81400000D03*
%TO.P,J2,23*%
%TO.N,/D3_OUT*%
X213250000Y-81400000D03*
%TO.P,J2,22*%
%TO.N,GND*%
X210710000Y-83940000D03*
%TO.P,J2,21*%
%TO.N,/D4_OUT*%
X213250000Y-83940000D03*
%TO.P,J2,20*%
%TO.N,GND*%
X210710000Y-86480000D03*
%TO.P,J2,19*%
%TO.N,/D5_OUT*%
X213250000Y-86480000D03*
%TO.P,J2,18*%
%TO.N,GND*%
X210710000Y-89020000D03*
%TO.P,J2,17*%
%TO.N,/D6_OUT*%
X213250000Y-89020000D03*
%TO.P,J2,16*%
%TO.N,GND*%
X210710000Y-91560000D03*
%TO.P,J2,15*%
%TO.N,/D7_OUT*%
X213250000Y-91560000D03*
%TO.P,J2,14*%
%TO.N,GND*%
X210710000Y-94100000D03*
%TO.P,J2,13*%
%TO.N,/TRIAC*%
X213250000Y-94100000D03*
%TO.P,J2,12*%
%TO.N,/SOL1*%
X210710000Y-96640000D03*
%TO.P,J2,11*%
%TO.N,/SOL3*%
X213250000Y-96640000D03*
%TO.P,J2,10*%
%TO.N,/SOL4*%
X210710000Y-99180000D03*
%TO.P,J2,9*%
%TO.N,/SOL2*%
X213250000Y-99180000D03*
%TO.P,J2,8*%
%TO.N,/LCOL_PICO*%
X210710000Y-101720000D03*
%TO.P,J2,7*%
%TO.N,/LROW_PICO*%
X213250000Y-101720000D03*
%TO.P,J2,6*%
%TO.N,GND*%
X210710000Y-104260000D03*
%TO.P,J2,5*%
%TO.N,/DIS1*%
X213250000Y-104260000D03*
%TO.P,J2,4*%
%TO.N,GND*%
X210710000Y-106800000D03*
%TO.P,J2,3*%
%TO.N,/DIS2*%
X213250000Y-106800000D03*
%TO.P,J2,2*%
%TO.N,GND*%
X210710000Y-109340000D03*
D10*
%TO.P,J2,1*%
%TO.N,/DIS_STROBE*%
X213250000Y-109340000D03*
%TD*%
D11*
%TO.P,J1,34*%
%TO.N,/ZERO_CROSS*%
X218960000Y-68660000D03*
%TO.P,J1,33*%
%TO.N,/P33*%
X221500000Y-68660000D03*
%TO.P,J1,32*%
%TO.N,/DIS3*%
X218960000Y-71200000D03*
%TO.P,J1,31*%
%TO.N,/BLANK*%
X221500000Y-71200000D03*
%TO.P,J1,30*%
%TO.N,GND*%
X218960000Y-73740000D03*
%TO.P,J1,29*%
%TO.N,/D0*%
X221500000Y-73740000D03*
%TO.P,J1,28*%
%TO.N,GND*%
X218960000Y-76280000D03*
%TO.P,J1,27*%
%TO.N,/D1*%
X221500000Y-76280000D03*
%TO.P,J1,26*%
%TO.N,GND*%
X218960000Y-78820000D03*
%TO.P,J1,25*%
%TO.N,/D2*%
X221500000Y-78820000D03*
%TO.P,J1,24*%
%TO.N,GND*%
X218960000Y-81360000D03*
%TO.P,J1,23*%
%TO.N,/D3*%
X221500000Y-81360000D03*
%TO.P,J1,22*%
%TO.N,GND*%
X218960000Y-83900000D03*
%TO.P,J1,21*%
%TO.N,/D4*%
X221500000Y-83900000D03*
%TO.P,J1,20*%
%TO.N,GND*%
X218960000Y-86440000D03*
%TO.P,J1,19*%
%TO.N,/D5*%
X221500000Y-86440000D03*
%TO.P,J1,18*%
%TO.N,GND*%
X218960000Y-88980000D03*
%TO.P,J1,17*%
%TO.N,/D6*%
X221500000Y-88980000D03*
%TO.P,J1,16*%
%TO.N,GND*%
X218960000Y-91520000D03*
%TO.P,J1,15*%
%TO.N,/D7*%
X221500000Y-91520000D03*
%TO.P,J1,14*%
%TO.N,GND*%
X218960000Y-94060000D03*
%TO.P,J1,13*%
%TO.N,/TRIAC*%
X221500000Y-94060000D03*
%TO.P,J1,12*%
%TO.N,/SOL1*%
X218960000Y-96600000D03*
%TO.P,J1,11*%
%TO.N,/SOL3*%
X221500000Y-96600000D03*
%TO.P,J1,10*%
%TO.N,/SOL4*%
X218960000Y-99140000D03*
%TO.P,J1,9*%
%TO.N,/SOL2*%
X221500000Y-99140000D03*
%TO.P,J1,8*%
%TO.N,/LCOL*%
X218960000Y-101680000D03*
%TO.P,J1,7*%
%TO.N,/LROW*%
X221500000Y-101680000D03*
%TO.P,J1,6*%
%TO.N,GND*%
X218960000Y-104220000D03*
%TO.P,J1,5*%
%TO.N,/DIS1*%
X221500000Y-104220000D03*
%TO.P,J1,4*%
%TO.N,GND*%
X218960000Y-106760000D03*
%TO.P,J1,3*%
%TO.N,/DIS2*%
X221500000Y-106760000D03*
%TO.P,J1,2*%
%TO.N,GND*%
X218960000Y-109300000D03*
D10*
%TO.P,J1,1*%
%TO.N,/DIS_STROBE*%
X221500000Y-109300000D03*
%TD*%
D19*
%TO.P,C4,2*%
%TO.N,GND*%
X180550000Y-87000000D03*
%TO.P,C4,1*%
%TO.N,+5V*%
X183050000Y-87000000D03*
%TD*%
%TO.P,C3,2*%
%TO.N,+5V*%
X179350000Y-66900000D03*
%TO.P,C3,1*%
%TO.N,GND*%
X176850000Y-66900000D03*
%TD*%
%TO.P,C2,2*%
%TO.N,GND*%
X200750000Y-87200000D03*
%TO.P,C2,1*%
%TO.N,+3V3*%
X203250000Y-87200000D03*
%TD*%
%TO.P,C1,2*%
%TO.N,GND*%
X196800000Y-66900000D03*
%TO.P,C1,1*%
%TO.N,+3V3*%
X199300000Y-66900000D03*
%TD*%
D20*
%TO.N,GND*%
X182120300Y-106476100D03*
X187466400Y-111671800D03*
X201022500Y-81918800D03*
X176400000Y-115738300D03*
%TO.N,+3V3*%
X212834200Y-113772700D03*
X195950700Y-103383500D03*
X195369000Y-83319000D03*
X176056100Y-84222300D03*
%TO.N,+5V*%
X174620400Y-119261600D03*
X192224600Y-121396300D03*
X196939800Y-111847500D03*
X208777800Y-106827100D03*
X174975500Y-69403900D03*
X182005300Y-67841800D03*
X175013800Y-90082200D03*
X181206400Y-90082200D03*
X203613200Y-67927200D03*
X203778200Y-65945000D03*
%TO.N,/DIS3*%
X206692300Y-105626500D03*
X204575900Y-101209000D03*
%TO.N,/D0*%
X198260400Y-74726100D03*
%TO.N,/D1*%
X208542800Y-68323900D03*
X199131700Y-77488600D03*
%TO.N,/D2*%
X204609400Y-75090000D03*
%TO.N,/D3*%
X201393400Y-77497500D03*
%TO.N,/D4*%
X199535700Y-90443700D03*
X199822100Y-85128000D03*
X205646500Y-85061500D03*
%TO.N,/D5*%
X199482100Y-93064100D03*
%TO.N,/D6*%
X202449100Y-88987600D03*
X205407300Y-72048800D03*
X205606000Y-68066000D03*
%TO.N,/D7*%
X204479900Y-88483000D03*
%TO.N,/TRIAC*%
X206706100Y-100313200D03*
%TO.N,/SOL1*%
X205743400Y-104129900D03*
%TO.N,/SOL2*%
X206131900Y-102475900D03*
%TO.N,/LCOL*%
X211903600Y-108092800D03*
X200158400Y-96085000D03*
%TO.N,/LROW*%
X199900300Y-94771500D03*
%TO.N,/DIS_STROBE*%
X205742800Y-108249100D03*
%TO.N,/D0_OUT*%
X197701100Y-75950700D03*
X222423700Y-77550000D03*
%TO.N,/D1_OUT*%
X211980000Y-82670000D03*
%TO.N,/D3_OUT*%
X208422700Y-81450000D03*
X209791700Y-72415400D03*
X214581400Y-75144600D03*
%TO.N,/D4_OUT*%
X198450700Y-98577200D03*
%TO.N,/D5_OUT*%
X195200000Y-90040000D03*
X195854900Y-85899400D03*
%TO.N,/LCOL_PICO*%
X175581200Y-98610200D03*
X205706100Y-110664600D03*
%TO.N,/LROW_PICO*%
X173581500Y-110063800D03*
X207815900Y-118562800D03*
X209623000Y-105489500D03*
X214882500Y-104363200D03*
%TO.N,/OUT_SEL*%
X198085200Y-90325400D03*
X197921400Y-80956000D03*
X195012300Y-105418800D03*
X197384900Y-92943800D03*
X178210000Y-111621500D03*
X191477700Y-115925800D03*
%TO.N,Net-(U1-Pad8)*%
X180304200Y-111939400D03*
X203031900Y-113892100D03*
%TO.N,Net-(U3-Pad18)*%
X173014700Y-66711700D03*
%TO.N,Net-(U3-Pad17)*%
X185663700Y-66631600D03*
%TO.N,Net-(U3-Pad16)*%
X178178400Y-75355000D03*
%TO.N,Net-(U3-Pad15)*%
X187022300Y-75655400D03*
%TO.N,Net-(U3-Pad14)*%
X186907300Y-77106100D03*
%TO.N,Net-(U3-Pad13)*%
X193204200Y-83915300D03*
%TO.N,Net-(U3-Pad12)*%
X192009900Y-88832300D03*
%TO.N,Net-(U3-Pad11)*%
X191740000Y-90181100D03*
%TO.N,Net-(U4-Pad18)*%
X191740000Y-93089200D03*
%TO.N,Net-(U4-Pad17)*%
X191514900Y-95862500D03*
%TO.N,Net-(U4-Pad16)*%
X191867300Y-97449100D03*
%TO.N,Net-(U5-Pad21)*%
X191615700Y-104592800D03*
%TO.N,Net-(U5-Pad22)*%
X191494700Y-105593200D03*
%TO.N,Net-(U5-Pad24)*%
X187041500Y-107562900D03*
%TO.N,Net-(U5-Pad25)*%
X187465600Y-106437900D03*
%TO.N,Net-(U5-Pad26)*%
X187025200Y-105410000D03*
%TO.N,Net-(U5-Pad27)*%
X186428300Y-102870000D03*
%TO.N,Net-(U5-Pad29)*%
X185693600Y-97762900D03*
%TO.N,Net-(U5-Pad31)*%
X184545000Y-92684800D03*
%TO.N,Net-(U5-Pad32)*%
X181238800Y-91845500D03*
%TO.N,Net-(U5-Pad20)*%
X169325300Y-119516000D03*
%TO.N,/D0_PICO*%
X191974700Y-75896900D03*
X187379800Y-73323700D03*
X174985600Y-72305800D03*
%TO.N,/D1_PICO*%
X180441200Y-78825000D03*
%TO.N,/D2_PICO*%
X179252400Y-77424800D03*
%TO.N,/D3_PICO*%
X199846200Y-80169700D03*
X199846200Y-83464000D03*
X180421700Y-81280000D03*
%TO.N,/D4_PICO*%
X197275400Y-95155400D03*
%TO.N,/D5_PICO*%
X179451400Y-98582700D03*
%TO.N,/D6_PICO*%
X180162700Y-84920000D03*
%TO.N,/D7_PICO*%
X203737900Y-105030300D03*
X187031700Y-110512100D03*
X177268000Y-101316200D03*
%TO.N,Net-(U5-Pad34)*%
X182215600Y-85684300D03*
%TO.N,/PICO_BLANK*%
X223073500Y-87568800D03*
X216278100Y-82650000D03*
X216278100Y-73627700D03*
%TO.N,Net-(PWR_LED1-Pad2)*%
X216175300Y-117450600D03*
%TO.N,Net-(R12-Pad2)*%
X179799200Y-115986800D03*
X174761500Y-110930600D03*
%TO.N,Net-(R10-Pad1)*%
X187020200Y-115766200D03*
X176780000Y-110011900D03*
%TO.N,Net-(R2-Pad2)*%
X182512800Y-105057600D03*
%TO.N,Net-(R16-Pad2)*%
X172223600Y-110054300D03*
%TO.N,/PICO_EN_OUT*%
X204600700Y-92323300D03*
X205146200Y-73838500D03*
X174982500Y-70461600D03*
X185327900Y-68602800D03*
X171961100Y-108648700D03*
X195196300Y-70967600D03*
%TD*%
D21*
%TO.N,GND*%
X184100300Y-96335000D02*
X185270300Y-95165000D01*
X185270300Y-95165000D02*
X185270300Y-87362100D01*
X185270300Y-87362100D02*
X182372000Y-84463800D01*
X182800000Y-101415000D02*
X181778700Y-102436300D01*
X181778700Y-102436300D02*
X181778700Y-106134500D01*
X181778700Y-106134500D02*
X182120300Y-106476100D01*
X182840700Y-101415000D02*
X182800000Y-101415000D01*
X182010000Y-107900000D02*
X182010000Y-106586400D01*
X182010000Y-106586400D02*
X182120300Y-106476100D01*
X203000000Y-100145000D02*
X204300300Y-100145000D01*
X182372000Y-84463800D02*
X182372000Y-81115000D01*
X182372000Y-84463800D02*
X180786100Y-86049700D01*
X180786100Y-86049700D02*
X180550000Y-86049700D01*
X180550000Y-87000000D02*
X180550000Y-86049700D01*
X201699700Y-81115000D02*
X201699700Y-80997400D01*
X201699700Y-80997400D02*
X199930600Y-79228300D01*
X199930600Y-79228300D02*
X199840100Y-79228300D01*
X199840100Y-79228300D02*
X196800000Y-76188200D01*
X196800000Y-76188200D02*
X196800000Y-66900000D01*
X203000000Y-100145000D02*
X203000000Y-101415000D01*
X203325100Y-98875000D02*
X203502800Y-98875000D01*
X203502800Y-98875000D02*
X204300300Y-99672500D01*
X204300300Y-99672500D02*
X204300300Y-100145000D01*
X191800000Y-109800000D02*
X190849700Y-109800000D01*
X187466400Y-111671800D02*
X188977900Y-111671800D01*
X188977900Y-111671800D02*
X190849700Y-109800000D01*
X182840700Y-101415000D02*
X182881300Y-101415000D01*
X181721600Y-81115000D02*
X181172500Y-80565900D01*
X181172500Y-80565900D02*
X181172500Y-77634400D01*
X181172500Y-77634400D02*
X179725800Y-76187700D01*
X179725800Y-76187700D02*
X177985400Y-76187700D01*
X177985400Y-76187700D02*
X176850000Y-75052300D01*
X176850000Y-75052300D02*
X176850000Y-67850300D01*
X203543600Y-96335000D02*
X203000000Y-96335000D01*
X210710000Y-92830000D02*
X207830200Y-92830000D01*
X207830200Y-92830000D02*
X204325200Y-96335000D01*
X204325200Y-96335000D02*
X203543600Y-96335000D01*
X203543600Y-96335000D02*
X203543600Y-97605000D01*
D22*
X210710000Y-92830000D02*
X210710000Y-94100000D01*
X210710000Y-91560000D02*
X210710000Y-92830000D01*
D21*
X201022500Y-81918800D02*
X201699700Y-81241600D01*
X201699700Y-81241600D02*
X201699700Y-81115000D01*
X200750000Y-86249700D02*
X201022500Y-85977200D01*
X201022500Y-85977200D02*
X201022500Y-81918800D01*
X203000000Y-81115000D02*
X201699700Y-81115000D01*
X176400000Y-117300000D02*
X177375300Y-117300000D01*
X192750300Y-109800000D02*
X193348300Y-110398000D01*
X193348300Y-110398000D02*
X200766900Y-110398000D01*
X200766900Y-110398000D02*
X202110000Y-109054900D01*
X202110000Y-109054900D02*
X202110000Y-108975300D01*
X192275200Y-109800000D02*
X191800000Y-109800000D01*
X192275200Y-109800000D02*
X192750300Y-109800000D01*
X203543600Y-97605000D02*
X203325100Y-97823500D01*
X203325100Y-97823500D02*
X203325100Y-98875000D01*
X203000000Y-97605000D02*
X203543600Y-97605000D01*
X203000000Y-98875000D02*
X203325100Y-98875000D01*
X183125100Y-97605000D02*
X183276200Y-97605000D01*
X183276200Y-97605000D02*
X184100300Y-96780900D01*
X184100300Y-96780900D02*
X184100300Y-96335000D01*
X182372000Y-81115000D02*
X181721600Y-81115000D01*
X182800000Y-81115000D02*
X182372000Y-81115000D01*
X182881300Y-97605000D02*
X183125100Y-97605000D01*
X183125100Y-97605000D02*
X183125100Y-98875000D01*
X182800000Y-96335000D02*
X184100300Y-96335000D01*
X182800000Y-97605000D02*
X182881300Y-97605000D01*
X200750000Y-87200000D02*
X200750000Y-86249700D01*
X202110000Y-107900000D02*
X202110000Y-108975300D01*
X182881300Y-100145000D02*
X182962600Y-100145000D01*
X182800000Y-100145000D02*
X182881300Y-100145000D01*
X182881300Y-100145000D02*
X182881300Y-101415000D01*
X182962600Y-98875000D02*
X183125100Y-98875000D01*
X182800000Y-98875000D02*
X182962600Y-98875000D01*
X182962600Y-98875000D02*
X182962600Y-100145000D01*
X176400000Y-115738300D02*
X175025000Y-114363300D01*
X175025000Y-114363300D02*
X175025000Y-112356200D01*
X175025000Y-112356200D02*
X174893500Y-112224700D01*
X174893500Y-112224700D02*
X172075600Y-112224700D01*
X172075600Y-112224700D02*
X171750300Y-112550000D01*
X176400000Y-117300000D02*
X176400000Y-115738300D01*
X170800000Y-112550000D02*
X171750300Y-112550000D01*
X190800000Y-120000000D02*
X189824700Y-120000000D01*
X177375300Y-117300000D02*
X177375300Y-120462800D01*
X177375300Y-120462800D02*
X177987900Y-121075400D01*
X177987900Y-121075400D02*
X189236900Y-121075400D01*
X189236900Y-121075400D02*
X189824700Y-120487600D01*
X189824700Y-120487600D02*
X189824700Y-120000000D01*
X211940000Y-117400000D02*
X211940000Y-116224700D01*
X211940000Y-116224700D02*
X211983000Y-116181700D01*
X211983000Y-116181700D02*
X211983000Y-112183000D01*
D22*
X211983000Y-112183000D02*
X212200000Y-112400000D01*
X212200000Y-112400000D02*
X220200000Y-112400000D01*
X210710000Y-109340000D02*
X210710000Y-110910000D01*
X210710000Y-110910000D02*
X211983000Y-112183000D01*
D21*
X176850000Y-66900000D02*
X176850000Y-67850300D01*
D22*
X210710000Y-73780000D02*
X210710000Y-76320000D01*
X218960000Y-76280000D02*
X218960000Y-78820000D01*
X218960000Y-73740000D02*
X218960000Y-76280000D01*
X210710000Y-76320000D02*
X210710000Y-78860000D01*
X210710000Y-78860000D02*
X210710000Y-81400000D01*
X218960000Y-78820000D02*
X218960000Y-81360000D01*
X218960000Y-81360000D02*
X218960000Y-83900000D01*
X210710000Y-81400000D02*
X210710000Y-83940000D01*
X210710000Y-83940000D02*
X210710000Y-86480000D01*
X218960000Y-83900000D02*
X218960000Y-86440000D01*
X218960000Y-86440000D02*
X218960000Y-88980000D01*
X210710000Y-86480000D02*
X210710000Y-89020000D01*
X210710000Y-89020000D02*
X210710000Y-91560000D01*
X218960000Y-88980000D02*
X218960000Y-91520000D01*
X218960000Y-106760000D02*
X218960000Y-104220000D01*
X218960000Y-109300000D02*
X218960000Y-106760000D01*
X220200000Y-112400000D02*
X218960000Y-111160000D01*
X218960000Y-111160000D02*
X218960000Y-109300000D01*
X218960000Y-91520000D02*
X218960000Y-94060000D01*
X210710000Y-106800000D02*
X210710000Y-109340000D01*
X210710000Y-104260000D02*
X210710000Y-106800000D01*
D21*
X210710000Y-73780000D02*
X212075000Y-72415000D01*
X212075000Y-72415000D02*
X217635000Y-72415000D01*
X217635000Y-72415000D02*
X218960000Y-73740000D01*
D22*
X220200000Y-112400000D02*
X221500000Y-113700000D01*
X221500000Y-113700000D02*
X221500000Y-116800000D01*
D21*
X218960000Y-104220000D02*
X220200000Y-102980000D01*
X220200000Y-102980000D02*
X220200000Y-95300000D01*
X220200000Y-95300000D02*
X218960000Y-94060000D01*
%TO.N,+3V3*%
X170800000Y-107050000D02*
X170800000Y-105974700D01*
X175750000Y-87000000D02*
X175750000Y-87975300D01*
X175750000Y-87975300D02*
X176790500Y-89015800D01*
X176790500Y-89015800D02*
X176790500Y-100455200D01*
X176790500Y-100455200D02*
X171271000Y-105974700D01*
X171271000Y-105974700D02*
X170800000Y-105974700D01*
X175750000Y-86512300D02*
X175750000Y-87000000D01*
X197988500Y-91254400D02*
X199751000Y-91254400D01*
X199751000Y-91254400D02*
X201145200Y-89860200D01*
X201145200Y-89860200D02*
X203124800Y-89860200D01*
X195428200Y-84400000D02*
X197359900Y-86331700D01*
X197359900Y-86331700D02*
X197359900Y-90625800D01*
X197359900Y-90625800D02*
X197988500Y-91254400D01*
X197988500Y-91254400D02*
X195950700Y-93292200D01*
X195950700Y-93292200D02*
X195950700Y-103383500D01*
X215200000Y-116050000D02*
X214224700Y-116050000D01*
X214224700Y-116050000D02*
X214224700Y-115163200D01*
X214224700Y-115163200D02*
X212834200Y-113772700D01*
X195428200Y-84400000D02*
X193603500Y-86224700D01*
X193603500Y-86224700D02*
X193250000Y-86224700D01*
X195369000Y-83319000D02*
X195428200Y-83378200D01*
X195428200Y-83378200D02*
X195428200Y-84400000D01*
X193250000Y-87200000D02*
X193250000Y-86224700D01*
X175750000Y-86024700D02*
X176056100Y-85718600D01*
X176056100Y-85718600D02*
X176056100Y-84222300D01*
X175750000Y-86512300D02*
X175750000Y-86024700D01*
X203250000Y-87200000D02*
X203250000Y-89735000D01*
X203250000Y-89735000D02*
X203124800Y-89860200D01*
X203124800Y-89860200D02*
X203000000Y-89985000D01*
X194900300Y-69685000D02*
X195033800Y-69685000D01*
X195033800Y-69685000D02*
X195945200Y-70596400D01*
X195945200Y-70596400D02*
X195945200Y-82742800D01*
X195945200Y-82742800D02*
X195369000Y-83319000D01*
X193600000Y-89985000D02*
X193250000Y-89635000D01*
X193250000Y-89635000D02*
X193250000Y-87200000D01*
X194900300Y-69685000D02*
X194900300Y-66951500D01*
X194900300Y-66951500D02*
X195902100Y-65949700D01*
X195902100Y-65949700D02*
X199300000Y-65949700D01*
X199300000Y-66900000D02*
X199300000Y-65949700D01*
X199300000Y-66900000D02*
X201500000Y-66900000D01*
X201500000Y-66900000D02*
X203000000Y-68400000D01*
X203000000Y-68400000D02*
X203000000Y-69685000D01*
X193600000Y-69685000D02*
X194900300Y-69685000D01*
%TO.N,+5V*%
X173715300Y-115050000D02*
X174390000Y-114375300D01*
X171637700Y-115050000D02*
X173715300Y-115050000D01*
X173715300Y-115050000D02*
X173715300Y-118356500D01*
X173715300Y-118356500D02*
X174620400Y-119261600D01*
X188400000Y-120000000D02*
X189475400Y-118924600D01*
X189475400Y-118924600D02*
X191591000Y-118924600D01*
X191591000Y-118924600D02*
X192224600Y-119558200D01*
X192224600Y-119558200D02*
X192224600Y-121396300D01*
X218960000Y-118425300D02*
X217559900Y-119825400D01*
X217559900Y-119825400D02*
X208046200Y-119825400D01*
X208046200Y-119825400D02*
X207064100Y-118843300D01*
X207064100Y-118843300D02*
X207064100Y-112854500D01*
X207064100Y-112854500D02*
X208777800Y-111140800D01*
X208777800Y-111140800D02*
X208777800Y-106827100D01*
X193656400Y-112466300D02*
X194389500Y-111733200D01*
X194389500Y-111733200D02*
X196825500Y-111733200D01*
X196825500Y-111733200D02*
X196939800Y-111847500D01*
X193656400Y-112466300D02*
X194490000Y-113300000D01*
X191800000Y-112300000D02*
X193490000Y-112300000D01*
X193490000Y-112300000D02*
X193656400Y-112466300D01*
X218960000Y-116800000D02*
X218960000Y-118425300D01*
X174975500Y-69442000D02*
X175002800Y-69442000D01*
X175002800Y-69442000D02*
X175749300Y-70188500D01*
X175749300Y-70188500D02*
X175749300Y-70753600D01*
X175749300Y-70753600D02*
X174922500Y-71580400D01*
X174922500Y-71580400D02*
X172290200Y-71580400D01*
X172290200Y-71580400D02*
X171649300Y-72221300D01*
X171649300Y-72221300D02*
X171649300Y-82120400D01*
X171649300Y-82120400D02*
X174225200Y-84696300D01*
X174225200Y-84696300D02*
X174225200Y-89028300D01*
X174225200Y-89028300D02*
X174700300Y-89503400D01*
X174700300Y-89503400D02*
X174700300Y-89985000D01*
X174700300Y-69685000D02*
X174943300Y-69442000D01*
X174943300Y-69442000D02*
X174975500Y-69442000D01*
X174975500Y-69403900D02*
X174975500Y-69442000D01*
X188400000Y-120000000D02*
X186975300Y-120000000D01*
X186000000Y-120000000D02*
X186975300Y-120000000D01*
X182005400Y-67005300D02*
X182005300Y-67005400D01*
X182005300Y-67005400D02*
X182005300Y-67841800D01*
X182005400Y-67005300D02*
X182800000Y-67800000D01*
X182800000Y-67800000D02*
X182800000Y-69685000D01*
X179350000Y-66900000D02*
X181900000Y-66900000D01*
X181900000Y-66900000D02*
X182005400Y-67005300D01*
X182800000Y-89985000D02*
X181499700Y-89985000D01*
X181499700Y-89985000D02*
X181402500Y-90082200D01*
X181402500Y-90082200D02*
X181206400Y-90082200D01*
X174700300Y-89985000D02*
X174797500Y-90082200D01*
X174797500Y-90082200D02*
X175013800Y-90082200D01*
X183050000Y-87000000D02*
X183050000Y-89735000D01*
X183050000Y-89735000D02*
X182800000Y-89985000D01*
X173400000Y-89985000D02*
X174700300Y-89985000D01*
X203613200Y-67927200D02*
X203613200Y-66110000D01*
X203613200Y-66110000D02*
X203778200Y-65945000D01*
X183600000Y-120000000D02*
X181200000Y-120000000D01*
X186000000Y-120000000D02*
X183600000Y-120000000D01*
X181200000Y-120000000D02*
X178800000Y-120000000D01*
X173400000Y-69685000D02*
X174700300Y-69685000D01*
X174390000Y-113300000D02*
X174390000Y-114375300D01*
X170800000Y-115050000D02*
X171637700Y-115050000D01*
%TO.N,/P33*%
X221500000Y-68660000D02*
X222692100Y-69852100D01*
X222692100Y-69852100D02*
X222692100Y-71695600D01*
X222692100Y-71695600D02*
X221823100Y-72564600D01*
X221823100Y-72564600D02*
X220926900Y-72564600D01*
X220926900Y-72564600D02*
X220324600Y-73166900D01*
X220324600Y-73166900D02*
X220324600Y-92045600D01*
X220324600Y-92045600D02*
X221069000Y-92790000D01*
X221069000Y-92790000D02*
X221893100Y-92790000D01*
X221893100Y-92790000D02*
X223278000Y-94174900D01*
X223278000Y-94174900D02*
X223278000Y-117842500D01*
X223278000Y-117842500D02*
X219588100Y-121532400D01*
X219588100Y-121532400D02*
X195220100Y-121532400D01*
X195220100Y-121532400D02*
X194175300Y-120487600D01*
X194175300Y-120487600D02*
X194175300Y-120000000D01*
X193200000Y-120000000D02*
X194175300Y-120000000D01*
%TO.N,/DIS3*%
X206692300Y-105626500D02*
X206468500Y-105850300D01*
X206468500Y-105850300D02*
X206468500Y-108876500D01*
X206468500Y-108876500D02*
X204530500Y-110814500D01*
X204530500Y-110814500D02*
X204530500Y-118131700D01*
X204530500Y-118131700D02*
X203836400Y-118825800D01*
X203836400Y-118825800D02*
X199661900Y-118825800D01*
X199661900Y-118825800D02*
X198975300Y-119512400D01*
X198975300Y-119512400D02*
X198975300Y-120000000D01*
X204575900Y-101209000D02*
X204575900Y-101582000D01*
X204575900Y-101582000D02*
X204117600Y-102040300D01*
X204117600Y-102040300D02*
X201875800Y-102040300D01*
X201875800Y-102040300D02*
X201687500Y-101852000D01*
X201687500Y-101852000D02*
X201687500Y-95912400D01*
X201687500Y-95912400D02*
X201890200Y-95709700D01*
X201890200Y-95709700D02*
X204091100Y-95709700D01*
X204091100Y-95709700D02*
X207697300Y-92103500D01*
X207697300Y-92103500D02*
X207697300Y-73077400D01*
X207697300Y-73077400D02*
X209534700Y-71240000D01*
X198000000Y-120000000D02*
X198975300Y-120000000D01*
X210710000Y-71240000D02*
X209534700Y-71240000D01*
X218960000Y-71200000D02*
X217635000Y-69875000D01*
X217635000Y-69875000D02*
X212075000Y-69875000D01*
X212075000Y-69875000D02*
X210710000Y-71240000D01*
%TO.N,/BLANK*%
X221500000Y-71200000D02*
X221500000Y-70024700D01*
X221500000Y-70024700D02*
X221132600Y-70024700D01*
X221132600Y-70024700D02*
X220324700Y-69216800D01*
X220324700Y-69216800D02*
X220324700Y-68338400D01*
X220324700Y-68338400D02*
X218864600Y-66878300D01*
X218864600Y-66878300D02*
X210817600Y-66878300D01*
X210817600Y-66878300D02*
X209534600Y-68161300D01*
X209534600Y-68161300D02*
X209534600Y-69716500D01*
X209534600Y-69716500D02*
X207246900Y-72004200D01*
X207246900Y-72004200D02*
X207246900Y-91320300D01*
X207246900Y-91320300D02*
X203502200Y-95065000D01*
X203502200Y-95065000D02*
X203000000Y-95065000D01*
%TO.N,/D0*%
X201699700Y-70955000D02*
X201699700Y-71286800D01*
X201699700Y-71286800D02*
X198260400Y-74726100D01*
X221500000Y-73740000D02*
X223143900Y-72096100D01*
X223143900Y-72096100D02*
X223143900Y-68602100D01*
X223143900Y-68602100D02*
X220969700Y-66427900D01*
X220969700Y-66427900D02*
X208907100Y-66427900D01*
X208907100Y-66427900D02*
X204380000Y-70955000D01*
X204380000Y-70955000D02*
X204300300Y-70955000D01*
X203000000Y-70955000D02*
X204300300Y-70955000D01*
X203000000Y-70955000D02*
X201699700Y-70955000D01*
%TO.N,/D1*%
X203000000Y-72225000D02*
X204300300Y-72225000D01*
X204300300Y-72225000D02*
X204300300Y-72109200D01*
X204300300Y-72109200D02*
X208085600Y-68323900D01*
X208085600Y-68323900D02*
X208542800Y-68323900D01*
X203000000Y-72225000D02*
X201699700Y-72225000D01*
X201699700Y-72225000D02*
X199131700Y-74793000D01*
X199131700Y-74793000D02*
X199131700Y-77488600D01*
%TO.N,/D2*%
X204300300Y-73495000D02*
X204300300Y-74780900D01*
X204300300Y-74780900D02*
X204609400Y-75090000D01*
X203000000Y-73495000D02*
X204300300Y-73495000D01*
%TO.N,/D3*%
X203000000Y-74765000D02*
X201699700Y-74765000D01*
X201393400Y-77497500D02*
X201393400Y-75071300D01*
X201393400Y-75071300D02*
X201699700Y-74765000D01*
%TO.N,/D4*%
X199535700Y-90443700D02*
X199535700Y-85414400D01*
X199535700Y-85414400D02*
X199822100Y-85128000D01*
X204300300Y-76035000D02*
X205676700Y-77411400D01*
X205676700Y-77411400D02*
X205676700Y-85031300D01*
X205676700Y-85031300D02*
X205646500Y-85061500D01*
X203000000Y-76035000D02*
X204300300Y-76035000D01*
%TO.N,/D5*%
X204300300Y-77305000D02*
X205212600Y-78217300D01*
X205212600Y-78217300D02*
X205212600Y-84323800D01*
X205212600Y-84323800D02*
X204920400Y-84616000D01*
X204920400Y-84616000D02*
X204920400Y-85567400D01*
X204920400Y-85567400D02*
X205212500Y-85859500D01*
X205212500Y-85859500D02*
X205212500Y-89532700D01*
X205212500Y-89532700D02*
X204115600Y-90629600D01*
X204115600Y-90629600D02*
X201649500Y-90629600D01*
X201649500Y-90629600D02*
X199482100Y-92797000D01*
X199482100Y-92797000D02*
X199482100Y-93064100D01*
X203000000Y-77305000D02*
X204300300Y-77305000D01*
%TO.N,/D6*%
X201675100Y-78575000D02*
X201675100Y-80293700D01*
X201675100Y-80293700D02*
X201861400Y-80480000D01*
X201861400Y-80480000D02*
X204137300Y-80480000D01*
X204137300Y-80480000D02*
X204300300Y-80643000D01*
X204300300Y-80643000D02*
X204300300Y-81549800D01*
X204300300Y-81549800D02*
X202174600Y-83675500D01*
X202174600Y-83675500D02*
X202174600Y-88713100D01*
X202174600Y-88713100D02*
X202449100Y-88987600D01*
X201675100Y-78575000D02*
X201425300Y-78575000D01*
X201425300Y-78575000D02*
X200652700Y-77802400D01*
X200652700Y-77802400D02*
X200652700Y-74067100D01*
X200652700Y-74067100D02*
X201857800Y-72862000D01*
X201857800Y-72862000D02*
X204594100Y-72862000D01*
X204594100Y-72862000D02*
X205407300Y-72048800D01*
X203000000Y-78575000D02*
X201675100Y-78575000D01*
X221500000Y-87804700D02*
X221807500Y-87804700D01*
X221807500Y-87804700D02*
X224147600Y-85464600D01*
X224147600Y-85464600D02*
X224147600Y-68240400D01*
X224147600Y-68240400D02*
X221434300Y-65527100D01*
X221434300Y-65527100D02*
X208144900Y-65527100D01*
X208144900Y-65527100D02*
X205606000Y-68066000D01*
X221500000Y-88980000D02*
X221500000Y-87804700D01*
%TO.N,/D7*%
X204300300Y-79845000D02*
X204750600Y-80295300D01*
X204750600Y-80295300D02*
X204750600Y-84148900D01*
X204750600Y-84148900D02*
X204387300Y-84512200D01*
X204387300Y-84512200D02*
X204387300Y-88390400D01*
X204387300Y-88390400D02*
X204479900Y-88483000D01*
X203000000Y-79845000D02*
X204300300Y-79845000D01*
%TO.N,/TRIAC*%
X206706100Y-100313200D02*
X206706100Y-100818000D01*
X206706100Y-100818000D02*
X204583200Y-102940900D01*
X204583200Y-102940900D02*
X200615800Y-102940900D01*
X200615800Y-102940900D02*
X196732000Y-106824700D01*
X196732000Y-106824700D02*
X194490000Y-106824700D01*
X194490000Y-107900000D02*
X194490000Y-106824700D01*
%TO.N,/SOL1*%
X205743400Y-104129900D02*
X205568300Y-104305000D01*
X205568300Y-104305000D02*
X202847400Y-104305000D01*
X202847400Y-104305000D02*
X200203000Y-106949400D01*
X200203000Y-106949400D02*
X200203000Y-108848800D01*
X200203000Y-108848800D02*
X200076500Y-108975300D01*
X200076500Y-108975300D02*
X195760000Y-108975300D01*
X195760000Y-107900000D02*
X195760000Y-108975300D01*
X217784700Y-96600000D02*
X216631500Y-95446800D01*
X216631500Y-95446800D02*
X211903200Y-95446800D01*
X211903200Y-95446800D02*
X210710000Y-96640000D01*
X218960000Y-96600000D02*
X217784700Y-96600000D01*
%TO.N,/SOL3*%
X212074700Y-96640000D02*
X212074700Y-96942900D01*
X212074700Y-96942900D02*
X211202200Y-97815400D01*
X211202200Y-97815400D02*
X210353500Y-97815400D01*
X210353500Y-97815400D02*
X206894100Y-101274800D01*
X206894100Y-101274800D02*
X206894100Y-102770800D01*
X206894100Y-102770800D02*
X206260300Y-103404600D01*
X206260300Y-103404600D02*
X205443000Y-103404600D01*
X205443000Y-103404600D02*
X204992900Y-103854700D01*
X204992900Y-103854700D02*
X202540000Y-103854700D01*
X202540000Y-103854700D02*
X199570000Y-106824700D01*
X199570000Y-107900000D02*
X199570000Y-106824700D01*
X213250000Y-96640000D02*
X212074700Y-96640000D01*
%TO.N,/SOL4*%
X200840000Y-112224700D02*
X203803800Y-109260900D01*
X203803800Y-109260900D02*
X203803800Y-107464200D01*
X203803800Y-107464200D02*
X207062400Y-104205600D01*
X207062400Y-104205600D02*
X207062400Y-103687500D01*
X207062400Y-103687500D02*
X210394600Y-100355300D01*
X210394600Y-100355300D02*
X210710000Y-100355300D01*
X210710000Y-99180000D02*
X210710000Y-100355300D01*
X200840000Y-113300000D02*
X200840000Y-112224700D01*
X218960000Y-99140000D02*
X217635000Y-97815000D01*
X217635000Y-97815000D02*
X212075000Y-97815000D01*
X212075000Y-97815000D02*
X210710000Y-99180000D01*
%TO.N,/SOL2*%
X206131900Y-102475900D02*
X205734800Y-102475900D01*
X205734800Y-102475900D02*
X204806300Y-103404400D01*
X204806300Y-103404400D02*
X201720300Y-103404400D01*
X201720300Y-103404400D02*
X198300000Y-106824700D01*
X198300000Y-107900000D02*
X198300000Y-106824700D01*
%TO.N,/LCOL*%
X218960000Y-102855300D02*
X218592700Y-102855300D01*
X218592700Y-102855300D02*
X216054500Y-105393500D01*
X216054500Y-105393500D02*
X216054500Y-105667800D01*
X216054500Y-105667800D02*
X213629500Y-108092800D01*
X213629500Y-108092800D02*
X211903600Y-108092800D01*
X218960000Y-101680000D02*
X218960000Y-102855300D01*
X203000000Y-91255000D02*
X201699700Y-91255000D01*
X201699700Y-91255000D02*
X201249300Y-91705400D01*
X201249300Y-91705400D02*
X201249300Y-92421000D01*
X201249300Y-92421000D02*
X199880800Y-93789500D01*
X199880800Y-93789500D02*
X199750700Y-93789500D01*
X199750700Y-93789500D02*
X199134600Y-94405600D01*
X199134600Y-94405600D02*
X199134600Y-95061200D01*
X199134600Y-95061200D02*
X200158400Y-96085000D01*
%TO.N,/LROW*%
X203000000Y-92525000D02*
X201699700Y-92525000D01*
X199900300Y-94771500D02*
X201699700Y-92972100D01*
X201699700Y-92972100D02*
X201699700Y-92525000D01*
%TO.N,/DIS1*%
X202800000Y-120000000D02*
X203775300Y-120000000D01*
X213250000Y-104260000D02*
X212074700Y-104260000D01*
X212074700Y-104260000D02*
X212074700Y-103892700D01*
X212074700Y-103892700D02*
X211226700Y-103044700D01*
X211226700Y-103044700D02*
X210245300Y-103044700D01*
X210245300Y-103044700D02*
X208820000Y-104470000D01*
X208820000Y-104470000D02*
X208820000Y-105355600D01*
X208820000Y-105355600D02*
X207819500Y-106356100D01*
X207819500Y-106356100D02*
X207819500Y-110184200D01*
X207819500Y-110184200D02*
X206613700Y-111390000D01*
X206613700Y-111390000D02*
X206613700Y-117161600D01*
X206613700Y-117161600D02*
X203775300Y-120000000D01*
%TO.N,/DIS2*%
X200400000Y-120000000D02*
X201375300Y-120000000D01*
X221500000Y-106760000D02*
X221500000Y-107935300D01*
X221500000Y-107935300D02*
X222308000Y-107935300D01*
X222308000Y-107935300D02*
X222827600Y-108454900D01*
X222827600Y-108454900D02*
X222827600Y-117656000D01*
X222827600Y-117656000D02*
X219408200Y-121075400D01*
X219408200Y-121075400D02*
X201963100Y-121075400D01*
X201963100Y-121075400D02*
X201375300Y-120487600D01*
X201375300Y-120487600D02*
X201375300Y-120000000D01*
%TO.N,/DIS_STROBE*%
X205742800Y-108249100D02*
X203907900Y-110084000D01*
X203907900Y-110084000D02*
X203907900Y-118056800D01*
X203907900Y-118056800D02*
X203589300Y-118375400D01*
X203589300Y-118375400D02*
X197712200Y-118375400D01*
X197712200Y-118375400D02*
X196575300Y-119512300D01*
X196575300Y-119512300D02*
X196575300Y-120000000D01*
X195600000Y-120000000D02*
X196575300Y-120000000D01*
%TO.N,/D0_OUT*%
X222423700Y-77550000D02*
X223644400Y-76329300D01*
X223644400Y-76329300D02*
X223644400Y-68465700D01*
X223644400Y-68465700D02*
X221156200Y-65977500D01*
X221156200Y-65977500D02*
X208720500Y-65977500D01*
X208720500Y-65977500D02*
X204368500Y-70329500D01*
X204368500Y-70329500D02*
X201626200Y-70329500D01*
X201626200Y-70329500D02*
X197526600Y-74429100D01*
X197526600Y-74429100D02*
X197526600Y-75776200D01*
X197526600Y-75776200D02*
X197701100Y-75950700D01*
%TO.N,/D1_OUT*%
X213250000Y-76320000D02*
X213250000Y-77495300D01*
X213250000Y-77495300D02*
X212882700Y-77495300D01*
X212882700Y-77495300D02*
X211980000Y-78398000D01*
X211980000Y-78398000D02*
X211980000Y-82670000D01*
%TO.N,/D3_OUT*%
X208422700Y-81450000D02*
X208422700Y-73784400D01*
X208422700Y-73784400D02*
X209791700Y-72415400D01*
X213250000Y-80224700D02*
X213617300Y-80224700D01*
X213617300Y-80224700D02*
X214581400Y-79260600D01*
X214581400Y-79260600D02*
X214581400Y-75144600D01*
X213250000Y-81400000D02*
X213250000Y-80224700D01*
%TO.N,/D4_OUT*%
X213250000Y-85115300D02*
X212882600Y-85115300D01*
X212882600Y-85115300D02*
X212074700Y-85923200D01*
X212074700Y-85923200D02*
X212074700Y-94400100D01*
X212074700Y-94400100D02*
X211172000Y-95302800D01*
X211172000Y-95302800D02*
X210383500Y-95302800D01*
X210383500Y-95302800D02*
X205751700Y-99934600D01*
X205751700Y-99934600D02*
X205751700Y-101060400D01*
X205751700Y-101060400D02*
X204321500Y-102490600D01*
X204321500Y-102490600D02*
X201657400Y-102490600D01*
X201657400Y-102490600D02*
X198450700Y-99283900D01*
X198450700Y-99283900D02*
X198450700Y-98577200D01*
X213250000Y-83940000D02*
X213250000Y-85115300D01*
%TO.N,/D5_OUT*%
X195854900Y-85899400D02*
X195387400Y-85899400D01*
X195387400Y-85899400D02*
X194844100Y-86442700D01*
X194844100Y-86442700D02*
X194844100Y-88119000D01*
X194844100Y-88119000D02*
X195200000Y-88474900D01*
X195200000Y-88474900D02*
X195200000Y-90040000D01*
%TO.N,/LCOL_PICO*%
X174700300Y-92525000D02*
X175649300Y-93474000D01*
X175649300Y-93474000D02*
X175649300Y-98542100D01*
X175649300Y-98542100D02*
X175581200Y-98610200D01*
X210710000Y-101720000D02*
X208291900Y-104138100D01*
X208291900Y-104138100D02*
X208291900Y-105246800D01*
X208291900Y-105246800D02*
X206918800Y-106619900D01*
X206918800Y-106619900D02*
X206918800Y-109451900D01*
X206918800Y-109451900D02*
X205706100Y-110664600D01*
X173400000Y-92525000D02*
X174700300Y-92525000D01*
%TO.N,/LROW_PICO*%
X207815900Y-118562800D02*
X207815900Y-116596300D01*
X207815900Y-116596300D02*
X209506400Y-114905800D01*
X209506400Y-114905800D02*
X209506400Y-105606100D01*
X209506400Y-105606100D02*
X209623000Y-105489500D01*
X213250000Y-102895300D02*
X213665600Y-102895300D01*
X213665600Y-102895300D02*
X214882500Y-104112200D01*
X214882500Y-104112200D02*
X214882500Y-104363200D01*
X174700300Y-93795000D02*
X175188500Y-94283200D01*
X175188500Y-94283200D02*
X175188500Y-97557600D01*
X175188500Y-97557600D02*
X174515700Y-98230400D01*
X174515700Y-98230400D02*
X172250600Y-98230400D01*
X172250600Y-98230400D02*
X169328800Y-101152200D01*
X169328800Y-101152200D02*
X169328800Y-110171700D01*
X169328800Y-110171700D02*
X169993000Y-110835900D01*
X169993000Y-110835900D02*
X172809400Y-110835900D01*
X172809400Y-110835900D02*
X173581500Y-110063800D01*
X213250000Y-101720000D02*
X213250000Y-102895300D01*
X173400000Y-93795000D02*
X174700300Y-93795000D01*
%TO.N,/OUT_SEL*%
X197921400Y-80956000D02*
X198085200Y-81119800D01*
X198085200Y-81119800D02*
X198085200Y-90325400D01*
X197384900Y-92943800D02*
X198017400Y-93576300D01*
X198017400Y-93576300D02*
X198017400Y-97302300D01*
X198017400Y-97302300D02*
X197275000Y-98044700D01*
X197275000Y-98044700D02*
X197275000Y-103784900D01*
X197275000Y-103784900D02*
X195641100Y-105418800D01*
X195641100Y-105418800D02*
X195012300Y-105418800D01*
X178200000Y-113300000D02*
X178200000Y-111631500D01*
X178200000Y-111631500D02*
X178210000Y-111621500D01*
X190800000Y-117300000D02*
X190800000Y-116224700D01*
X190800000Y-116224700D02*
X191178800Y-116224700D01*
X191178800Y-116224700D02*
X191477700Y-115925800D01*
%TO.N,Net-(U1-Pad8)*%
X180740000Y-113300000D02*
X180740000Y-112224700D01*
X202110000Y-114375300D02*
X202548700Y-114375300D01*
X202548700Y-114375300D02*
X203031900Y-113892100D01*
X202110000Y-113300000D02*
X202110000Y-114375300D01*
X180304200Y-111939400D02*
X180589500Y-112224700D01*
X180589500Y-112224700D02*
X180740000Y-112224700D01*
%TO.N,Net-(U1-Pad6)*%
X178200000Y-107900000D02*
X178200000Y-107657700D01*
X178200000Y-107657700D02*
X179033100Y-106824600D01*
X179033100Y-106824600D02*
X179973900Y-106824600D01*
X179973900Y-106824600D02*
X180103000Y-106953700D01*
X180103000Y-106953700D02*
X180103000Y-109067700D01*
X180103000Y-109067700D02*
X180960000Y-109924700D01*
X180960000Y-109924700D02*
X186003800Y-109924700D01*
X186003800Y-109924700D02*
X186141700Y-109786800D01*
X186141700Y-109786800D02*
X188008700Y-109786800D01*
X188008700Y-109786800D02*
X189521200Y-108274300D01*
X189521200Y-108274300D02*
X192883300Y-108274300D01*
X192883300Y-108274300D02*
X194041200Y-109432200D01*
X194041200Y-109432200D02*
X200383100Y-109432200D01*
X200383100Y-109432200D02*
X200840000Y-108975300D01*
X200840000Y-107900000D02*
X200840000Y-108975300D01*
%TO.N,/COMB_EV*%
X180740000Y-108975300D02*
X181226300Y-109461600D01*
X181226300Y-109461600D02*
X185830000Y-109461600D01*
X185830000Y-109461600D02*
X185955100Y-109336500D01*
X185955100Y-109336500D02*
X187821800Y-109336500D01*
X187821800Y-109336500D02*
X189334300Y-107824000D01*
X189334300Y-107824000D02*
X192187400Y-107824000D01*
X192187400Y-107824000D02*
X193867300Y-106144100D01*
X193867300Y-106144100D02*
X195632300Y-106144100D01*
X195632300Y-106144100D02*
X197725300Y-104051100D01*
X197725300Y-104051100D02*
X197725300Y-98231300D01*
X197725300Y-98231300D02*
X199146300Y-96810300D01*
X199146300Y-96810300D02*
X200458900Y-96810300D01*
X200458900Y-96810300D02*
X201046400Y-96222800D01*
X201046400Y-96222800D02*
X201046400Y-94448300D01*
X201046400Y-94448300D02*
X201699700Y-93795000D01*
X175660000Y-113300000D02*
X175660000Y-113595200D01*
X175660000Y-113595200D02*
X176440200Y-114375400D01*
X176440200Y-114375400D02*
X181174700Y-114375400D01*
X181174700Y-114375400D02*
X181374900Y-114175200D01*
X181374900Y-114175200D02*
X181374900Y-111984300D01*
X181374900Y-111984300D02*
X179234400Y-109843800D01*
X179234400Y-109843800D02*
X178633400Y-109843800D01*
X178633400Y-109843800D02*
X177574600Y-108785000D01*
X177574600Y-108785000D02*
X177574600Y-107000400D01*
X177574600Y-107000400D02*
X178240300Y-106334700D01*
X178240300Y-106334700D02*
X180250000Y-106334700D01*
X180250000Y-106334700D02*
X180740000Y-106824700D01*
X180740000Y-107900000D02*
X180740000Y-106824700D01*
X180740000Y-108207900D02*
X180740000Y-107900000D01*
X180740000Y-108207900D02*
X180740000Y-108975300D01*
X203000000Y-93795000D02*
X201699700Y-93795000D01*
%TO.N,/PICO_OUT_EN*%
X172099700Y-95065000D02*
X168878500Y-98286200D01*
X168878500Y-98286200D02*
X168878500Y-110358300D01*
X168878500Y-110358300D02*
X169994800Y-111474600D01*
X175424700Y-120000000D02*
X173905100Y-120000000D01*
X173905100Y-120000000D02*
X169837100Y-115932000D01*
X169837100Y-115932000D02*
X169837100Y-111632300D01*
X169837100Y-111632300D02*
X169994800Y-111474600D01*
X176930000Y-112224700D02*
X176361300Y-111656000D01*
X176361300Y-111656000D02*
X174193200Y-111656000D01*
X174193200Y-111656000D02*
X174011800Y-111474600D01*
X174011800Y-111474600D02*
X169994800Y-111474600D01*
X176400000Y-120000000D02*
X175424700Y-120000000D01*
X173400000Y-95065000D02*
X172099700Y-95065000D01*
X176930000Y-113300000D02*
X176930000Y-112224700D01*
%TO.N,Net-(U3-Pad18)*%
X193600000Y-72225000D02*
X192299700Y-72225000D01*
X192299700Y-72225000D02*
X185496100Y-65421400D01*
X185496100Y-65421400D02*
X174305000Y-65421400D01*
X174305000Y-65421400D02*
X173014700Y-66711700D01*
%TO.N,Net-(U3-Pad17)*%
X193600000Y-73495000D02*
X192527100Y-73495000D01*
X192527100Y-73495000D02*
X185663700Y-66631600D01*
%TO.N,Net-(U3-Pad16)*%
X178178400Y-75355000D02*
X178178400Y-75048100D01*
X178178400Y-75048100D02*
X181626900Y-71599600D01*
X181626900Y-71599600D02*
X189134300Y-71599600D01*
X189134300Y-71599600D02*
X192299700Y-74765000D01*
X193600000Y-74765000D02*
X192299700Y-74765000D01*
%TO.N,Net-(U3-Pad15)*%
X193600000Y-76035000D02*
X193003200Y-76631800D01*
X193003200Y-76631800D02*
X187998700Y-76631800D01*
X187998700Y-76631800D02*
X187022300Y-75655400D01*
%TO.N,Net-(U3-Pad14)*%
X193600000Y-77305000D02*
X187106200Y-77305000D01*
X187106200Y-77305000D02*
X186907300Y-77106100D01*
%TO.N,Net-(U3-Pad13)*%
X193204200Y-83915300D02*
X195350600Y-81768900D01*
X195350600Y-81768900D02*
X195350600Y-79025300D01*
X195350600Y-79025300D02*
X194900300Y-78575000D01*
X193600000Y-78575000D02*
X194900300Y-78575000D01*
%TO.N,Net-(U3-Pad12)*%
X192009900Y-88832300D02*
X192009900Y-84050000D01*
X192009900Y-84050000D02*
X194044800Y-82015100D01*
X194044800Y-82015100D02*
X194435300Y-82015100D01*
X194435300Y-82015100D02*
X194900300Y-81550100D01*
X194900300Y-81550100D02*
X194900300Y-79845000D01*
X193600000Y-79845000D02*
X194900300Y-79845000D01*
%TO.N,Net-(U3-Pad11)*%
X193600000Y-81115000D02*
X192299700Y-81115000D01*
X192299700Y-81115000D02*
X191284500Y-82130200D01*
X191284500Y-82130200D02*
X191284500Y-89725600D01*
X191284500Y-89725600D02*
X191740000Y-90181100D01*
%TO.N,Net-(U4-Pad18)*%
X192299700Y-92525000D02*
X191740000Y-93084700D01*
X191740000Y-93084700D02*
X191740000Y-93089200D01*
X193600000Y-92525000D02*
X192299700Y-92525000D01*
%TO.N,Net-(U4-Pad17)*%
X193600000Y-93795000D02*
X192299700Y-93795000D01*
X192299700Y-93795000D02*
X191514900Y-94579800D01*
X191514900Y-94579800D02*
X191514900Y-95862500D01*
%TO.N,Net-(U4-Pad16)*%
X193600000Y-95065000D02*
X192299700Y-95065000D01*
X192299700Y-95065000D02*
X192299700Y-97016700D01*
X192299700Y-97016700D02*
X191867300Y-97449100D01*
%TO.N,Net-(U5-Pad21)*%
X184100300Y-72225000D02*
X186182000Y-74306700D01*
X186182000Y-74306700D02*
X186182000Y-77406500D01*
X186182000Y-77406500D02*
X189496900Y-80721400D01*
X189496900Y-80721400D02*
X189496900Y-102474000D01*
X189496900Y-102474000D02*
X191615700Y-104592800D01*
X182800000Y-72225000D02*
X184100300Y-72225000D01*
%TO.N,Net-(U5-Pad22)*%
X184100300Y-73495000D02*
X185731700Y-75126400D01*
X185731700Y-75126400D02*
X185731700Y-77593100D01*
X185731700Y-77593100D02*
X188955000Y-80816400D01*
X188955000Y-80816400D02*
X188955000Y-103053500D01*
X188955000Y-103053500D02*
X191494700Y-105593200D01*
X182800000Y-73495000D02*
X184100300Y-73495000D01*
%TO.N,Net-(U5-Pad24)*%
X184100300Y-74765000D02*
X185281400Y-75946100D01*
X185281400Y-75946100D02*
X185281400Y-77779700D01*
X185281400Y-77779700D02*
X188230700Y-80729000D01*
X188230700Y-80729000D02*
X188230700Y-106698800D01*
X188230700Y-106698800D02*
X187366600Y-107562900D01*
X187366600Y-107562900D02*
X187041500Y-107562900D01*
X182800000Y-74765000D02*
X184100300Y-74765000D01*
%TO.N,Net-(U5-Pad25)*%
X184100300Y-76035000D02*
X184831100Y-76765800D01*
X184831100Y-76765800D02*
X184831100Y-77966300D01*
X184831100Y-77966300D02*
X187780300Y-80915500D01*
X187780300Y-80915500D02*
X187780300Y-106123200D01*
X187780300Y-106123200D02*
X187465600Y-106437900D01*
X182800000Y-76035000D02*
X184100300Y-76035000D01*
%TO.N,Net-(U5-Pad26)*%
X184100300Y-77305000D02*
X184100300Y-77872400D01*
X184100300Y-77872400D02*
X187171900Y-80944000D01*
X187171900Y-80944000D02*
X187171900Y-105263300D01*
X187171900Y-105263300D02*
X187025200Y-105410000D01*
X182800000Y-77305000D02*
X184100300Y-77305000D01*
%TO.N,Net-(U5-Pad27)*%
X184100300Y-78575000D02*
X186428300Y-80903000D01*
X186428300Y-80903000D02*
X186428300Y-102870000D01*
X182800000Y-78575000D02*
X184100300Y-78575000D01*
%TO.N,Net-(U5-Pad29)*%
X185693600Y-97762900D02*
X185720600Y-97735900D01*
X185720600Y-97735900D02*
X185720600Y-81465300D01*
X185720600Y-81465300D02*
X184100300Y-79845000D01*
X182800000Y-79845000D02*
X184100300Y-79845000D01*
%TO.N,Net-(U5-Pad31)*%
X184545000Y-92684800D02*
X184545000Y-91699700D01*
X184545000Y-91699700D02*
X184100300Y-91255000D01*
X182800000Y-91255000D02*
X184100300Y-91255000D01*
%TO.N,Net-(U5-Pad32)*%
X182800000Y-92525000D02*
X181499700Y-92525000D01*
X181499700Y-92525000D02*
X181499700Y-92106400D01*
X181499700Y-92106400D02*
X181238800Y-91845500D01*
%TO.N,Net-(U5-Pad20)*%
X182800000Y-70955000D02*
X181499700Y-70955000D01*
X181499700Y-70955000D02*
X177925400Y-67380700D01*
X177925400Y-67380700D02*
X177925400Y-66136200D01*
X177925400Y-66136200D02*
X177738800Y-65949600D01*
X177738800Y-65949600D02*
X175367000Y-65949600D01*
X175367000Y-65949600D02*
X167928500Y-73388100D01*
X167928500Y-73388100D02*
X167928500Y-118119200D01*
X167928500Y-118119200D02*
X169325300Y-119516000D01*
%TO.N,/D0_PICO*%
X173400000Y-72225000D02*
X174904800Y-72225000D01*
X174904800Y-72225000D02*
X174985600Y-72305800D01*
X187379800Y-73323700D02*
X189401500Y-73323700D01*
X189401500Y-73323700D02*
X191974700Y-75896900D01*
%TO.N,/D1_PICO*%
X173400000Y-73495000D02*
X174700300Y-73495000D01*
X174700300Y-73495000D02*
X174700300Y-73636000D01*
X174700300Y-73636000D02*
X177702300Y-76638000D01*
X177702300Y-76638000D02*
X179499000Y-76638000D01*
X179499000Y-76638000D02*
X180441100Y-77580100D01*
X180441100Y-77580100D02*
X180441100Y-78825000D01*
X180441100Y-78825000D02*
X180441200Y-78825000D01*
%TO.N,/D2_PICO*%
X173400000Y-74765000D02*
X174700300Y-74765000D01*
X174700300Y-74765000D02*
X177360100Y-77424800D01*
X177360100Y-77424800D02*
X179252400Y-77424800D01*
%TO.N,/D3_PICO*%
X173400000Y-76035000D02*
X175176700Y-76035000D01*
X175176700Y-76035000D02*
X180421700Y-81280000D01*
X199846200Y-83464000D02*
X199846200Y-80169700D01*
%TO.N,/D4_PICO*%
X173400000Y-77305000D02*
X174067200Y-77305000D01*
X174067200Y-77305000D02*
X178391900Y-81629700D01*
X178391900Y-81629700D02*
X178391900Y-91338200D01*
X178391900Y-91338200D02*
X181474100Y-94420400D01*
X181474100Y-94420400D02*
X183969800Y-94420400D01*
X183969800Y-94420400D02*
X184100400Y-94551000D01*
X184100400Y-94551000D02*
X184100400Y-95499700D01*
X184100400Y-95499700D02*
X183890400Y-95709700D01*
X183890400Y-95709700D02*
X181690200Y-95709700D01*
X181690200Y-95709700D02*
X181499600Y-95900300D01*
X181499600Y-95900300D02*
X181499600Y-102040400D01*
X181499600Y-102040400D02*
X181295100Y-102244900D01*
X181295100Y-102244900D02*
X181295100Y-106570700D01*
X181295100Y-106570700D02*
X181384700Y-106660300D01*
X181384700Y-106660300D02*
X181384700Y-108784800D01*
X181384700Y-108784800D02*
X181575800Y-108975900D01*
X181575800Y-108975900D02*
X184001000Y-108975900D01*
X184001000Y-108975900D02*
X184090800Y-108886100D01*
X184090800Y-108886100D02*
X187396800Y-108886100D01*
X187396800Y-108886100D02*
X189134300Y-107148600D01*
X189134300Y-107148600D02*
X192000600Y-107148600D01*
X192000600Y-107148600D02*
X194999100Y-104150100D01*
X194999100Y-104150100D02*
X196215800Y-104150100D01*
X196215800Y-104150100D02*
X196824600Y-103541300D01*
X196824600Y-103541300D02*
X196824600Y-95606200D01*
X196824600Y-95606200D02*
X197275400Y-95155400D01*
%TO.N,/D5_PICO*%
X174700300Y-78575000D02*
X177829500Y-81704200D01*
X177829500Y-81704200D02*
X177829500Y-96960900D01*
X177829500Y-96960900D02*
X177829600Y-96960900D01*
X177829600Y-96960900D02*
X179451400Y-98582700D01*
X173400000Y-78575000D02*
X174700300Y-78575000D01*
%TO.N,/D6_PICO*%
X173400000Y-79845000D02*
X172099700Y-79845000D01*
X172099700Y-79845000D02*
X172099700Y-76828100D01*
X172099700Y-76828100D02*
X172248200Y-76679600D01*
X172248200Y-76679600D02*
X174539100Y-76679600D01*
X174539100Y-76679600D02*
X178899800Y-81040300D01*
X178899800Y-81040300D02*
X178899800Y-83657200D01*
X178899800Y-83657200D02*
X178899900Y-83657200D01*
X178899900Y-83657200D02*
X180162700Y-84920000D01*
%TO.N,/D7_PICO*%
X187031700Y-110512100D02*
X188556900Y-110512100D01*
X188556900Y-110512100D02*
X190344300Y-108724700D01*
X190344300Y-108724700D02*
X192618500Y-108724700D01*
X192618500Y-108724700D02*
X193776400Y-109882600D01*
X193776400Y-109882600D02*
X200569600Y-109882600D01*
X200569600Y-109882600D02*
X201484700Y-108967500D01*
X201484700Y-108967500D02*
X201484700Y-107015200D01*
X201484700Y-107015200D02*
X203469600Y-105030300D01*
X203469600Y-105030300D02*
X203737900Y-105030300D01*
X174700300Y-81115000D02*
X177267900Y-83682600D01*
X177267900Y-83682600D02*
X177268000Y-83682600D01*
X177268000Y-83682600D02*
X177268000Y-101316200D01*
X173400000Y-81115000D02*
X174700300Y-81115000D01*
%TO.N,Net-(U5-Pad34)*%
X182800000Y-93795000D02*
X181499700Y-93795000D01*
X182215600Y-85684300D02*
X181974600Y-85925300D01*
X181974600Y-85925300D02*
X181974600Y-88106700D01*
X181974600Y-88106700D02*
X180466200Y-89615100D01*
X180466200Y-89615100D02*
X180466200Y-92761500D01*
X180466200Y-92761500D02*
X181499700Y-93795000D01*
%TO.N,/ZERO_CROSS*%
X210710000Y-68700000D02*
X212010000Y-67400000D01*
X212010000Y-67400000D02*
X217700000Y-67400000D01*
X217700000Y-67400000D02*
X218960000Y-68660000D01*
%TO.N,/PICO_BLANK*%
X174700300Y-96335000D02*
X174700300Y-94567700D01*
X174700300Y-94567700D02*
X174572200Y-94439600D01*
X174572200Y-94439600D02*
X172073200Y-94439600D01*
X172073200Y-94439600D02*
X168428200Y-98084600D01*
X168428200Y-98084600D02*
X168428200Y-115164800D01*
X168428200Y-115164800D02*
X175385000Y-122121600D01*
X175385000Y-122121600D02*
X219638700Y-122121600D01*
X219638700Y-122121600D02*
X223770200Y-117990100D01*
X223770200Y-117990100D02*
X223770200Y-88265500D01*
X223770200Y-88265500D02*
X223073500Y-87568800D01*
X173400000Y-96335000D02*
X174700300Y-96335000D01*
X216278100Y-73627700D02*
X216278100Y-82650000D01*
%TO.N,Net-(PWR_LED1-Pad2)*%
X216175300Y-118750000D02*
X216175300Y-117450600D01*
X215200000Y-118750000D02*
X216175300Y-118750000D01*
%TO.N,Net-(R15-Pad2)*%
X199570000Y-112224700D02*
X198442400Y-111097100D01*
X198442400Y-111097100D02*
X191156000Y-111097100D01*
X191156000Y-111097100D02*
X189522600Y-112730500D01*
X189522600Y-112730500D02*
X185109600Y-112730500D01*
X185109600Y-112730500D02*
X183014400Y-114825700D01*
X183014400Y-114825700D02*
X179920400Y-114825700D01*
X179920400Y-114825700D02*
X178800000Y-115946100D01*
X178800000Y-115946100D02*
X178800000Y-117300000D01*
X202800000Y-117300000D02*
X201824700Y-117300000D01*
X199570000Y-113300000D02*
X199570000Y-114375300D01*
X199570000Y-114375300D02*
X201824700Y-116630000D01*
X201824700Y-116630000D02*
X201824700Y-117300000D01*
X199570000Y-113290100D02*
X199570000Y-113300000D01*
X199570000Y-113290100D02*
X199570000Y-112224700D01*
%TO.N,Net-(R14-Pad2)*%
X200400000Y-117300000D02*
X199424700Y-117300000D01*
X197030000Y-113300000D02*
X197030000Y-114375300D01*
X197030000Y-114375300D02*
X199424700Y-116770000D01*
X199424700Y-116770000D02*
X199424700Y-117300000D01*
X182175300Y-117300000D02*
X182175300Y-116812300D01*
X182175300Y-116812300D02*
X184781200Y-114206400D01*
X184781200Y-114206400D02*
X192581400Y-114206400D01*
X192581400Y-114206400D02*
X192750400Y-114375400D01*
X192750400Y-114375400D02*
X194924700Y-114375400D01*
X194924700Y-114375400D02*
X195115400Y-114184700D01*
X195115400Y-114184700D02*
X195115400Y-112419400D01*
X195115400Y-112419400D02*
X195310200Y-112224600D01*
X195310200Y-112224600D02*
X196220600Y-112224600D01*
X196220600Y-112224600D02*
X197030000Y-113034000D01*
X197030000Y-113034000D02*
X197030000Y-113300000D01*
X181200000Y-117300000D02*
X182175300Y-117300000D01*
%TO.N,Net-(R13-Pad2)*%
X195703600Y-114915600D02*
X197024700Y-116236700D01*
X197024700Y-116236700D02*
X197024700Y-117300000D01*
X184575300Y-117300000D02*
X184575300Y-116863900D01*
X184575300Y-116863900D02*
X186747300Y-114691900D01*
X186747300Y-114691900D02*
X192016000Y-114691900D01*
X192016000Y-114691900D02*
X192239700Y-114915600D01*
X192239700Y-114915600D02*
X195703600Y-114915600D01*
X195703600Y-114915600D02*
X195760000Y-114859200D01*
X195760000Y-114859200D02*
X195760000Y-113300000D01*
X183600000Y-117300000D02*
X184575300Y-117300000D01*
X198000000Y-117300000D02*
X197024700Y-117300000D01*
%TO.N,Net-(R12-Pad2)*%
X174390000Y-107900000D02*
X174390000Y-110559100D01*
X174390000Y-110559100D02*
X174761500Y-110930600D01*
X179799200Y-115986800D02*
X179799200Y-117778300D01*
X179799200Y-117778300D02*
X180396300Y-118375400D01*
X180396300Y-118375400D02*
X184924600Y-118375400D01*
X184924600Y-118375400D02*
X186000000Y-117300000D01*
X186000000Y-117300000D02*
X186975300Y-117300000D01*
X195600000Y-117300000D02*
X194624700Y-117300000D01*
X194624700Y-117300000D02*
X194624700Y-117787600D01*
X194624700Y-117787600D02*
X194036900Y-118375400D01*
X194036900Y-118375400D02*
X187563000Y-118375400D01*
X187563000Y-118375400D02*
X186975300Y-117787700D01*
X186975300Y-117787700D02*
X186975300Y-117300000D01*
%TO.N,Net-(R10-Pad1)*%
X187020200Y-115766200D02*
X187941500Y-115766200D01*
X187941500Y-115766200D02*
X188400000Y-116224700D01*
X175660000Y-107900000D02*
X175660000Y-108975300D01*
X175660000Y-108975300D02*
X175743400Y-108975300D01*
X175743400Y-108975300D02*
X176780000Y-110011900D01*
X188400000Y-116224700D02*
X189482400Y-115142300D01*
X189482400Y-115142300D02*
X191829500Y-115142300D01*
X191829500Y-115142300D02*
X192911900Y-116224700D01*
X192911900Y-116224700D02*
X193200000Y-116224700D01*
X193200000Y-117300000D02*
X193200000Y-116224700D01*
X188400000Y-117300000D02*
X188400000Y-116224700D01*
%TO.N,Net-(U2-Pad10)*%
X179470000Y-113300000D02*
X179470000Y-112224700D01*
X176930000Y-108975300D02*
X179470000Y-111515300D01*
X179470000Y-111515300D02*
X179470000Y-112224700D01*
X176930000Y-107900000D02*
X176930000Y-108975300D01*
%TO.N,Net-(U2-Pad5)*%
X179470000Y-107900000D02*
X179470000Y-109206900D01*
X179470000Y-109206900D02*
X182010000Y-111746900D01*
X182010000Y-111746900D02*
X182010000Y-113300000D01*
%TO.N,Net-(R2-Pad2)*%
X194900300Y-96335000D02*
X194900300Y-103264100D01*
X194900300Y-103264100D02*
X191691300Y-106473100D01*
X191691300Y-106473100D02*
X189172900Y-106473100D01*
X189172900Y-106473100D02*
X187357700Y-108288300D01*
X187357700Y-108288300D02*
X185743500Y-108288300D01*
X185743500Y-108288300D02*
X182512800Y-105057600D01*
X195950000Y-87200000D02*
X195950000Y-91487800D01*
X195950000Y-91487800D02*
X194900300Y-92537500D01*
X194900300Y-92537500D02*
X194900300Y-96335000D01*
X193600000Y-96335000D02*
X194900300Y-96335000D01*
%TO.N,Net-(R16-Pad2)*%
X172223600Y-110054300D02*
X173479300Y-108798600D01*
X173479300Y-108798600D02*
X173479300Y-106387100D01*
X173479300Y-106387100D02*
X180882000Y-98984400D01*
X180882000Y-98984400D02*
X180882000Y-95682700D01*
X180882000Y-95682700D02*
X181499700Y-95065000D01*
X182800000Y-95065000D02*
X181499700Y-95065000D01*
X170800000Y-109750000D02*
X171775300Y-109750000D01*
X172223600Y-110054300D02*
X172079600Y-110054300D01*
X172079600Y-110054300D02*
X171775300Y-109750000D01*
%TO.N,/PICO_EN_OUT*%
X174700300Y-91255000D02*
X176340100Y-92894800D01*
X176340100Y-92894800D02*
X176340100Y-100268700D01*
X176340100Y-100268700D02*
X172713300Y-103895500D01*
X172713300Y-103895500D02*
X172081300Y-103895500D01*
X172081300Y-103895500D02*
X169824600Y-106152200D01*
X169824600Y-106152200D02*
X169824600Y-107934700D01*
X169824600Y-107934700D02*
X170538500Y-108648600D01*
X170538500Y-108648600D02*
X171961100Y-108648600D01*
X171961100Y-108648600D02*
X171961100Y-108648700D01*
X205146200Y-73838500D02*
X206377400Y-75069700D01*
X206377400Y-75069700D02*
X206377400Y-90546600D01*
X206377400Y-90546600D02*
X204600700Y-92323300D01*
X172099700Y-70955000D02*
X171170900Y-71883800D01*
X171170900Y-71883800D02*
X171170900Y-84145600D01*
X171170900Y-84145600D02*
X173050000Y-86024700D01*
X173400000Y-70955000D02*
X174700300Y-70955000D01*
X194900300Y-74130000D02*
X192301600Y-74130000D01*
X192301600Y-74130000D02*
X186774400Y-68602800D01*
X186774400Y-68602800D02*
X185327900Y-68602800D01*
X174982500Y-70461600D02*
X174700300Y-70743800D01*
X174700300Y-70743800D02*
X174700300Y-70955000D01*
X194900300Y-74130000D02*
X194900300Y-77781900D01*
X194900300Y-77781900D02*
X194751800Y-77930400D01*
X194751800Y-77930400D02*
X192452900Y-77930400D01*
X192452900Y-77930400D02*
X190814000Y-79569300D01*
X190814000Y-79569300D02*
X190814000Y-90282900D01*
X190814000Y-90282900D02*
X191786100Y-91255000D01*
X191786100Y-91255000D02*
X192299700Y-91255000D01*
X194900300Y-70967600D02*
X194900300Y-74130000D01*
X173050000Y-87000000D02*
X173050000Y-86024700D01*
X173400000Y-70955000D02*
X172099700Y-70955000D01*
X173050000Y-87000000D02*
X173050000Y-87975300D01*
X173400000Y-91255000D02*
X172099700Y-91255000D01*
X172099700Y-91255000D02*
X172099700Y-88925600D01*
X172099700Y-88925600D02*
X173050000Y-87975300D01*
X174050200Y-91255000D02*
X173400000Y-91255000D01*
X174050200Y-91255000D02*
X174700300Y-91255000D01*
X193600000Y-91255000D02*
X192299700Y-91255000D01*
X194900300Y-70967600D02*
X195196300Y-70967600D01*
X193600000Y-70955000D02*
X194900300Y-70955000D01*
X194900300Y-70955000D02*
X194900300Y-70967600D01*
%TD*%
M02*
