%TF.GenerationSoftware,KiCad,Pcbnew,5.1.10*%
%TF.CreationDate,2021-12-19T15:16:08+01:00*%
%TF.ProjectId,afterglow_pico,61667465-7267-46c6-9f77-5f7069636f2e,rev?*%
%TF.SameCoordinates,Original*%
%TF.FileFunction,Soldermask,Bot*%
%TF.FilePolarity,Negative*%
%FSLAX46Y46*%
G04 Gerber Fmt 4.6, Leading zero omitted, Abs format (unit mm)*
G04 Created by KiCad (PCBNEW 5.1.10) date 2021-12-19 15:16:08*
%MOMM*%
%LPD*%
G01*
G04 APERTURE LIST*
%ADD10R,1.700000X1.700000*%
%ADD11O,1.700000X1.700000*%
%ADD12R,1.300000X1.500000*%
%ADD13R,1.500000X1.300000*%
%ADD14R,0.600000X1.500000*%
%ADD15R,1.250000X1.500000*%
%ADD16R,1.950000X0.600000*%
%ADD17R,2.000000X2.600000*%
%ADD18O,2.000000X2.600000*%
%ADD19R,1.500000X1.250000*%
G04 APERTURE END LIST*
D10*
%TO.C,TEST*%
X209400000Y-117400000D03*
D11*
X211940000Y-117400000D03*
%TD*%
D12*
%TO.C,R16*%
X170800000Y-109750000D03*
X170800000Y-107050000D03*
%TD*%
D13*
%TO.C,R2*%
X195950000Y-87200000D03*
X193250000Y-87200000D03*
%TD*%
D14*
%TO.C,U2*%
X174390000Y-113300000D03*
X175660000Y-113300000D03*
X176930000Y-113300000D03*
X178200000Y-113300000D03*
X179470000Y-113300000D03*
X180740000Y-113300000D03*
X182010000Y-113300000D03*
X182010000Y-107900000D03*
X180740000Y-107900000D03*
X179470000Y-107900000D03*
X178200000Y-107900000D03*
X176930000Y-107900000D03*
X175660000Y-107900000D03*
X174390000Y-107900000D03*
%TD*%
D12*
%TO.C,R15*%
X178800000Y-117300000D03*
X178800000Y-120000000D03*
%TD*%
%TO.C,R14*%
X181200000Y-117300000D03*
X181200000Y-120000000D03*
%TD*%
%TO.C,R13*%
X183600000Y-117300000D03*
X183600000Y-120000000D03*
%TD*%
%TO.C,R12*%
X186000000Y-117300000D03*
X186000000Y-120000000D03*
%TD*%
%TO.C,R11*%
X188400000Y-117300000D03*
X188400000Y-120000000D03*
%TD*%
%TO.C,R10*%
X193200000Y-120000000D03*
X193200000Y-117300000D03*
%TD*%
%TO.C,R9*%
X195600000Y-120000000D03*
X195600000Y-117300000D03*
%TD*%
%TO.C,R8*%
X198000000Y-120000000D03*
X198000000Y-117300000D03*
%TD*%
%TO.C,R7*%
X200400000Y-120000000D03*
X200400000Y-117300000D03*
%TD*%
%TO.C,R6*%
X202800000Y-120000000D03*
X202800000Y-117300000D03*
%TD*%
D13*
%TO.C,R5*%
X175750000Y-87000000D03*
X173050000Y-87000000D03*
%TD*%
D12*
%TO.C,R4*%
X176400000Y-117300000D03*
X176400000Y-120000000D03*
%TD*%
%TO.C,R3*%
X215200000Y-116050000D03*
X215200000Y-118750000D03*
%TD*%
D15*
%TO.C,C8*%
X170800000Y-112550000D03*
X170800000Y-115050000D03*
%TD*%
%TO.C,C7*%
X191800000Y-109800000D03*
X191800000Y-112300000D03*
%TD*%
D16*
%TO.C,U7*%
X182800000Y-89985000D03*
X182800000Y-91255000D03*
X182800000Y-92525000D03*
X182800000Y-93795000D03*
X182800000Y-95065000D03*
X182800000Y-96335000D03*
X182800000Y-97605000D03*
X182800000Y-98875000D03*
X182800000Y-100145000D03*
X182800000Y-101415000D03*
X173400000Y-101415000D03*
X173400000Y-100145000D03*
X173400000Y-98875000D03*
X173400000Y-97605000D03*
X173400000Y-96335000D03*
X173400000Y-95065000D03*
X173400000Y-93795000D03*
X173400000Y-92525000D03*
X173400000Y-91255000D03*
X173400000Y-89985000D03*
%TD*%
%TO.C,U6*%
X182800000Y-69685000D03*
X182800000Y-70955000D03*
X182800000Y-72225000D03*
X182800000Y-73495000D03*
X182800000Y-74765000D03*
X182800000Y-76035000D03*
X182800000Y-77305000D03*
X182800000Y-78575000D03*
X182800000Y-79845000D03*
X182800000Y-81115000D03*
X173400000Y-81115000D03*
X173400000Y-79845000D03*
X173400000Y-78575000D03*
X173400000Y-77305000D03*
X173400000Y-76035000D03*
X173400000Y-74765000D03*
X173400000Y-73495000D03*
X173400000Y-72225000D03*
X173400000Y-70955000D03*
X173400000Y-69685000D03*
%TD*%
%TO.C,U4*%
X193600000Y-89985000D03*
X193600000Y-91255000D03*
X193600000Y-92525000D03*
X193600000Y-93795000D03*
X193600000Y-95065000D03*
X193600000Y-96335000D03*
X193600000Y-97605000D03*
X193600000Y-98875000D03*
X193600000Y-100145000D03*
X193600000Y-101415000D03*
X203000000Y-101415000D03*
X203000000Y-100145000D03*
X203000000Y-98875000D03*
X203000000Y-97605000D03*
X203000000Y-96335000D03*
X203000000Y-95065000D03*
X203000000Y-93795000D03*
X203000000Y-92525000D03*
X203000000Y-91255000D03*
X203000000Y-89985000D03*
%TD*%
%TO.C,U3*%
X193600000Y-69685000D03*
X193600000Y-70955000D03*
X193600000Y-72225000D03*
X193600000Y-73495000D03*
X193600000Y-74765000D03*
X193600000Y-76035000D03*
X193600000Y-77305000D03*
X193600000Y-78575000D03*
X193600000Y-79845000D03*
X193600000Y-81115000D03*
X203000000Y-81115000D03*
X203000000Y-79845000D03*
X203000000Y-78575000D03*
X203000000Y-77305000D03*
X203000000Y-76035000D03*
X203000000Y-74765000D03*
X203000000Y-73495000D03*
X203000000Y-72225000D03*
X203000000Y-70955000D03*
X203000000Y-69685000D03*
%TD*%
D14*
%TO.C,U1*%
X194490000Y-113300000D03*
X195760000Y-113300000D03*
X197030000Y-113300000D03*
X198300000Y-113300000D03*
X199570000Y-113300000D03*
X200840000Y-113300000D03*
X202110000Y-113300000D03*
X202110000Y-107900000D03*
X200840000Y-107900000D03*
X199570000Y-107900000D03*
X198300000Y-107900000D03*
X197030000Y-107900000D03*
X195760000Y-107900000D03*
X194490000Y-107900000D03*
%TD*%
D12*
%TO.C,R1*%
X190800000Y-120000000D03*
X190800000Y-117300000D03*
%TD*%
D17*
%TO.C,+ 5V -*%
X218960000Y-116800000D03*
D18*
X221500000Y-116800000D03*
%TD*%
D11*
%TO.C,J2*%
X210710000Y-68700000D03*
X213250000Y-68700000D03*
X210710000Y-71240000D03*
X213250000Y-71240000D03*
X210710000Y-73780000D03*
X213250000Y-73780000D03*
X210710000Y-76320000D03*
X213250000Y-76320000D03*
X210710000Y-78860000D03*
X213250000Y-78860000D03*
X210710000Y-81400000D03*
X213250000Y-81400000D03*
X210710000Y-83940000D03*
X213250000Y-83940000D03*
X210710000Y-86480000D03*
X213250000Y-86480000D03*
X210710000Y-89020000D03*
X213250000Y-89020000D03*
X210710000Y-91560000D03*
X213250000Y-91560000D03*
X210710000Y-94100000D03*
X213250000Y-94100000D03*
X210710000Y-96640000D03*
X213250000Y-96640000D03*
X210710000Y-99180000D03*
X213250000Y-99180000D03*
X210710000Y-101720000D03*
X213250000Y-101720000D03*
X210710000Y-104260000D03*
X213250000Y-104260000D03*
X210710000Y-106800000D03*
X213250000Y-106800000D03*
X210710000Y-109340000D03*
D10*
X213250000Y-109340000D03*
%TD*%
D11*
%TO.C,J1*%
X218960000Y-68660000D03*
X221500000Y-68660000D03*
X218960000Y-71200000D03*
X221500000Y-71200000D03*
X218960000Y-73740000D03*
X221500000Y-73740000D03*
X218960000Y-76280000D03*
X221500000Y-76280000D03*
X218960000Y-78820000D03*
X221500000Y-78820000D03*
X218960000Y-81360000D03*
X221500000Y-81360000D03*
X218960000Y-83900000D03*
X221500000Y-83900000D03*
X218960000Y-86440000D03*
X221500000Y-86440000D03*
X218960000Y-88980000D03*
X221500000Y-88980000D03*
X218960000Y-91520000D03*
X221500000Y-91520000D03*
X218960000Y-94060000D03*
X221500000Y-94060000D03*
X218960000Y-96600000D03*
X221500000Y-96600000D03*
X218960000Y-99140000D03*
X221500000Y-99140000D03*
X218960000Y-101680000D03*
X221500000Y-101680000D03*
X218960000Y-104220000D03*
X221500000Y-104220000D03*
X218960000Y-106760000D03*
X221500000Y-106760000D03*
X218960000Y-109300000D03*
D10*
X221500000Y-109300000D03*
%TD*%
D19*
%TO.C,C4*%
X180550000Y-87000000D03*
X183050000Y-87000000D03*
%TD*%
%TO.C,C3*%
X179350000Y-66900000D03*
X176850000Y-66900000D03*
%TD*%
%TO.C,C2*%
X200750000Y-87200000D03*
X203250000Y-87200000D03*
%TD*%
%TO.C,C1*%
X196800000Y-66900000D03*
X199300000Y-66900000D03*
%TD*%
M02*
